<svg width="971" height="1200" viewBox="0 0 971 1200" fill="none" xmlns="http://www.w3.org/2000/svg">
<path d="M730.195 701.961C730.587 714.902 711.371 747.844 674.508 732.549C638.822 718.04 628.234 649.804 679.214 682.353C705.097 699.608 721.567 702.353 730.195 701.961Z" fill="white"/>
<path d="M738.43 702.353C727.842 705.883 717.646 702.746 707.842 699.216C693.332 694.118 681.567 684.706 667.842 678.04C649.018 669.02 641.567 681.177 646.665 698.824C651.763 717.648 668.234 734.118 688.626 734.902C706.665 736.863 725.881 720.393 724.312 701.961C722.744 694.118 734.116 691.765 736.077 699.216C735.685 712.55 727.45 721.961 718.822 729.804C701.567 743.922 675.293 740.785 658.038 727.844C644.704 717.255 633.724 700.393 636.077 682.353C636.861 674.51 644.312 665.491 652.548 665.099C671.763 663.53 683.136 676.471 698.038 685.099C709.802 691.765 723.136 700.001 736.861 698.824C739.214 698.04 740.783 701.177 738.43 702.353Z" fill="black"/>
<path d="M647.448 687.843C653.722 696.863 663.526 701.569 673.722 703.922C676.075 704.706 678.036 704.706 679.997 704.706C683.526 704.706 687.056 707.451 689.016 709.412C698.428 716.863 711.369 718.039 723.134 718.431C725.879 718.431 725.879 723.137 723.134 722.745C710.585 721.961 697.252 720.784 685.487 714.902C683.134 714.118 681.957 713.333 679.997 713.333C672.546 714.118 666.663 709.412 661.173 706.274C654.899 702.745 648.624 699.216 641.173 697.647C637.644 696.863 635.683 693.725 636.075 690.196C636.859 684.706 644.703 683.137 647.448 687.843Z" fill="black"/>
</svg>
