<svg width="1200" height="1200" viewBox="0 0 1200 1200" fill="none" xmlns="http://www.w3.org/2000/svg">
<path d="M730.194 701.96C730.586 708.235 725.881 719.215 717.253 727.058C672.939 700 652.939 714.117 652.939 714.117C637.253 690.196 640.783 657.647 678.822 682.353C705.096 699.607 721.567 702.353 730.194 701.96Z" fill="black"/>
<path d="M716.861 727.451C707.449 735.686 693.331 740.784 674.116 732.941C665.096 729.411 658.037 722.352 652.547 714.509C652.939 714.509 672.547 700.392 716.861 727.451Z" fill="white"/>
<path d="M737.645 700.784C737.645 700.784 721.174 709.804 678.822 682.745C628.233 650.196 638.429 718.431 674.116 732.941C711.37 748.235 730.586 714.902 730.194 702.353" stroke="black" stroke-width="3" stroke-miterlimit="10" stroke-linecap="round" stroke-linejoin="round"/>
<path d="M652.941 714.509C652.941 714.509 672.941 700.392 717.255 727.451" stroke="black" stroke-width="3" stroke-miterlimit="10" stroke-linecap="round" stroke-linejoin="round"/>
</svg>
