<svg width="1200" height="1200" viewBox="0 0 1200 1200" fill="none" xmlns="http://www.w3.org/2000/svg">
<path d="M739.609 684.314C754.118 675.686 767.06 691.373 759.216 705.098C757.256 709.02 754.903 711.765 752.158 714.902L751.765 705.49C766.275 718.039 762.746 736.863 745.883 744.706C743.138 745.882 730.197 749.804 730.197 745.098C730.197 743.922 730.981 743.137 732.158 743.137C741.961 742.745 755.295 732.941 751.373 721.961C750.197 719.216 747.452 716.079 745.099 714.902C742.354 713.333 741.569 710.196 743.138 707.451C746.275 703.922 753.726 700 753.726 693.333C752.942 687.451 747.06 685.49 741.569 687.451C739.216 688.628 737.648 685.49 739.609 684.314Z" fill="black"/>
</svg>
