<svg width="1200" height="1200" viewBox="0 0 1200 1200" fill="none" xmlns="http://www.w3.org/2000/svg">
<path d="M742.743 701.569C736.077 706.275 726.273 702.353 719.214 705.49C714.116 707.059 705.881 714.118 694.116 713.334C684.704 712.549 679.998 707.843 672.155 704.314C663.92 701.569 655.292 696.471 649.802 689.804C648.626 688.628 648.626 687.059 649.802 685.883C651.371 684.314 652.94 685.49 654.508 686.275C658.038 688.236 660.783 689.804 663.528 690.588C666.273 691.373 669.018 690.588 673.332 690.588C677.645 690.196 683.92 692.157 687.841 695.294C690.587 697.255 693.724 698.432 696.077 698.824C702.351 700 710.194 694.902 716.861 694.118C721.567 693.334 726.665 693.726 730.587 694.902C734.508 696.079 737.253 696.863 740.391 696.079C743.92 695.294 745.881 700 742.743 701.569Z" fill="black"/>
</svg>
