<svg width="1200" height="746" viewBox="0 0 1200 746" fill="none" xmlns="http://www.w3.org/2000/svg">
<path d="M740.392 703.922C739.608 710.589 739.216 715.295 738.039 719.216C733.334 740.001 723.922 729.805 706.667 730.197C685.098 730.589 648.236 751.373 640.392 723.53C638.824 718.432 638.039 713.726 637.647 709.412C633.726 670.197 672.157 683.138 710.588 698.04C725.49 704.314 734.902 704.706 740.392 703.922Z" fill="white"/>
<path d="M738.041 721.961L727.845 719.608C726.276 719.216 726.668 717.256 728.237 716.863L738.825 716.079C742.746 716.079 742.354 722.746 738.041 721.961Z" fill="black"/>
<path d="M752.157 698.824C744.706 710.589 727.843 706.275 716.863 703.138C700.392 698.432 648.235 671.765 640 696.079C637.647 703.922 639.216 712.942 640.784 721.177C641.961 726.667 644.314 732.157 649.412 734.902C657.255 738.824 665.882 736.863 674.118 734.51C685.882 731.373 696.471 726.275 709.02 726.275C715.294 726.275 721.569 728.236 726.275 728.236C728.628 728.236 729.412 727.844 730.588 726.667C731.765 725.491 732.941 722.745 733.726 720.393C735.294 715.295 736.471 709.412 737.647 703.922C738.039 702.353 739.216 701.569 740.784 701.961C741.961 702.353 742.745 703.138 742.745 704.314C742.745 708.628 742.353 713.334 741.961 717.647C739.608 734.118 733.333 739.608 716.471 735.687C696.079 732.549 677.647 742.353 656.471 740.393C650.196 740 643.137 736.471 639.216 730.589C637.255 727.844 636.079 724.314 634.902 721.961C631.373 712.942 627.451 702.746 629.804 692.549C639.608 661.177 682.353 679.608 702.745 688.236C714.118 692.942 738.432 706.667 748.235 696.079C750.196 694.902 752.941 696.863 752.157 698.824Z" fill="black"/>
<path d="M638.433 704.707C647.845 704.315 664.708 698.432 671.766 708.629C672.943 710.197 673.335 710.589 675.296 710.589C678.041 710.197 681.57 708.236 684.708 709.805C689.806 710.982 695.296 712.158 700.394 713.334C701.57 713.727 702.355 714.511 701.963 715.687C701.57 716.864 700.786 717.648 699.61 717.256C693.727 716.472 687.845 716.472 681.963 714.903C679.217 716.08 674.512 718.04 670.59 716.472C668.237 715.687 666.276 713.334 664.708 711.766C663.923 710.982 662.355 710.982 661.178 710.982C653.727 710.589 645.884 713.727 638.433 714.903C630.59 715.687 630.198 703.531 638.433 704.707Z" fill="black"/>
</svg>
