<svg width="1200" height="1200" viewBox="0 0 1200 1200" fill="none" xmlns="http://www.w3.org/2000/svg">
<path d="M739.216 703.137C727.059 712.941 710.196 713.334 695.686 709.804C690.98 708.628 685.49 707.843 682.745 702.745C680 698.432 682.745 692.941 687.843 692.157C692.941 690.981 696.078 693.334 700.392 694.51C711.765 698.432 724.314 700.785 736.078 696.863C739.216 696.079 742.353 700.785 739.216 703.137Z" fill="black"/>
<path d="M696.078 678.039C704.314 692.549 692.549 709.804 678.431 715.294C675.294 716.863 660.392 720 660.784 714.118C660.784 713.333 661.569 712.549 662.353 712.157C676.47 705.882 686.667 692.941 689.019 678.039C689.412 674.902 693.725 674.118 695.294 676.863L696.078 678.039Z" fill="black"/>
</svg>
