<svg width="1200" height="1200" viewBox="0 0 1200 1200" fill="none" xmlns="http://www.w3.org/2000/svg">
<path d="M730.195 701.962C730.587 714.903 711.371 747.845 674.508 732.55C638.822 718.041 628.234 649.805 679.214 682.354C705.097 699.609 721.567 702.354 730.195 701.962Z" fill="white"/>
<path d="M738.43 702.354C727.842 705.883 717.645 702.746 707.842 699.217C693.332 694.119 681.567 684.707 667.842 678.04C649.018 669.021 641.567 681.177 646.665 698.825C651.763 717.648 668.234 734.119 688.626 734.903C706.665 736.864 725.881 720.393 724.312 701.962C722.744 694.119 734.116 691.766 736.077 699.217C735.685 712.55 727.449 721.962 718.822 729.805C701.567 743.923 675.293 740.785 658.038 727.844C644.704 717.256 633.724 700.393 636.077 682.354C636.861 674.511 644.312 665.491 652.547 665.099C671.763 663.53 683.136 676.472 698.038 685.099C709.802 691.766 723.136 700.001 736.861 698.825C739.214 698.04 740.783 701.178 738.43 702.354Z" fill="black"/>
<path d="M647.448 687.844C653.722 696.864 663.526 701.57 673.722 703.923C676.075 704.707 678.036 704.707 679.997 704.707C683.526 704.707 687.056 707.452 689.016 709.413C698.428 716.864 711.369 718.04 723.134 718.432C725.879 718.432 725.879 723.138 723.134 722.746C710.585 721.962 697.252 720.785 685.487 714.903C683.134 714.119 681.957 713.334 679.997 713.334C672.546 714.119 666.663 709.413 661.173 706.275C654.899 702.746 648.624 699.217 641.173 697.648C637.644 696.864 635.683 693.726 636.075 690.197C636.859 684.707 644.703 683.138 647.448 687.844Z" fill="black"/>
</svg>
