<svg width="1200" height="844" viewBox="0 0 1200 844" fill="none" xmlns="http://www.w3.org/2000/svg">
<path d="M686.277 618.039C668.238 618.431 612.552 618.823 595.297 619.216C565.493 619.608 543.14 593.725 545.885 564.314C546.277 554.51 545.885 540.784 546.277 530.98C547.062 505.49 569.807 483.921 595.297 484.706L661.571 485.49C666.669 485.49 681.179 485.882 686.277 485.882C707.454 485.49 727.454 501.176 732.16 521.961C733.728 527.843 733.336 534.118 733.336 539.216V572.549C732.944 597.255 710.983 618.431 686.277 618.039ZM686.277 609.412C706.669 610.196 725.493 592.549 725.885 572.157C726.277 561.569 725.885 550.196 725.885 539.216C728.238 515.294 710.199 493.333 685.885 494.118C669.022 494.51 612.552 494.902 594.905 495.294C573.728 495.294 555.689 514.51 557.258 535.686C557.258 538.431 557.258 545.49 557.258 548.235C557.65 556.863 556.473 571.765 558.434 579.608C562.356 596.078 578.042 608.627 594.905 608.627H603.14C614.513 608.627 674.513 609.412 686.277 609.412Z" fill="black"/>
<path d="M844.315 496.079L813.335 496.471C804.707 496.863 794.511 495.294 787.06 500.392C780.001 505.098 776.864 513.726 777.256 521.961C777.256 532.157 777.256 542.745 776.864 552.941L776.472 551.373C781.962 570.589 789.413 589.02 800.786 605.098L796.864 602.745C800.001 603.53 805.492 603.53 808.629 603.53C820.393 603.922 834.119 604.706 845.884 604.706C856.864 604.706 867.452 596.471 869.805 585.49C870.59 582.353 870.59 576.863 870.59 573.726C870.59 556.863 870.982 540.392 870.197 523.53C870.982 508.628 859.609 495.294 844.315 496.079ZM844.315 484.314C865.099 484.314 879.609 504.314 876.08 523.922C875.295 540.785 875.688 557.255 875.688 574.118C877.648 593.726 865.884 611.373 845.492 612.941C836.864 613.334 828.629 613.334 820.393 613.726C816.08 613.726 805.491 614.51 801.57 614.51C799.609 614.902 796.472 614.51 794.511 614.51C792.943 614.51 791.374 613.334 790.59 612.157C778.433 594.118 769.805 574.118 764.707 553.334C764.707 540 763.531 526.667 764.707 513.334C767.06 497.647 781.178 484.314 797.256 483.922C808.237 483.53 833.335 484.314 844.315 484.314Z" fill="black"/>
<path d="M729.021 520.392C739.609 515.686 751.374 513.726 763.139 514.51C767.06 514.902 770.982 516.078 774.511 519.216L779.609 523.529C784.707 527.843 778.433 535.294 773.335 530.98C767.06 525.49 759.609 526.275 752.158 526.667C744.707 527.451 737.648 529.02 730.59 531.765C723.923 534.51 719.609 524.706 725.884 521.569C725.884 521.569 729.021 520.392 729.021 520.392Z" fill="black"/>
<path d="M552.55 534.51C549.805 540.784 546.668 541.569 541.57 541.176L530.197 541.569C507.452 541.569 484.315 541.177 461.57 537.647C453.727 537.255 453.335 526.275 461.178 525.882L552.158 522.745C554.903 522.745 556.864 525.49 555.688 527.843L552.55 534.51Z" fill="black"/>
</svg>
