<svg width="1200" height="1200" viewBox="0 0 1200 1200" fill="none" xmlns="http://www.w3.org/2000/svg">
<path d="M861.176 453.726L780 451.373L542.745 444.314C527.451 443.922 514.51 456.079 514.51 471.373V507.059C514.51 525.098 500 540 481.569 540H468.627L481.569 563.137C499.608 563.137 514.51 577.647 514.51 596.079V608.628C514.51 625.49 529.412 638.039 545.882 635.686L764.706 601.569C769.412 600.784 773.725 600.785 778.431 601.177C785.098 601.961 791.373 603.53 797.255 606.667L841.176 628.628C852.549 634.118 865.882 626.667 867.059 614.118L879.216 474.51C880.392 463.53 872.157 454.118 861.176 453.726Z" fill="black"/>
<path d="M601.177 506.667L828.235 511.765C840.784 512.157 850.588 523.138 849.02 535.687C847.843 546.667 838.824 554.902 827.843 554.902H600.784C588.627 554.902 578.824 544.706 579.216 532.549L579.608 527.451C580 515.294 589.804 506.667 601.177 506.667Z" fill="white" stroke="black" stroke-width="3" stroke-miterlimit="10" stroke-linecap="round" stroke-linejoin="round"/>
</svg>
