<svg width="1200" height="1200" viewBox="0 0 1200 1200" fill="none" xmlns="http://www.w3.org/2000/svg">
<path d="M685.099 617.647C685.099 617.647 648.236 640.784 606.667 640.392C565.099 640 560.001 607.451 559.608 589.804C559.608 589.804 565.099 615.294 590.197 624.706C614.903 634.117 685.099 617.647 685.099 617.647Z" fill="black"/>
<path d="M803.527 613.333C803.527 613.333 812.547 624.313 824.704 632.157C832.939 637.647 843.92 631.764 843.92 621.961C843.92 621.961 821.174 623.137 803.527 613.333Z" fill="black"/>
<path d="M698.822 512.941C677.646 510.98 624.312 506.667 603.92 504.706L588.234 503.529C575.293 502.745 565.097 513.725 562.744 526.274C561.959 530.196 561.959 536.863 561.959 540.784V556.863C561.959 566.667 561.567 576.863 565.097 586.274C571.371 608.235 591.371 625.882 614.9 623.137C617.253 622.745 631.763 621.176 634.508 620.784L666.273 617.255C676.469 616.471 685.881 613.725 694.9 608.235C707.449 600.784 719.606 589.412 718.822 573.333L719.606 557.647C720.391 538.039 725.881 514.902 698.822 512.941ZM699.999 500C718.43 501.569 730.979 520.784 729.802 538.431C729.802 540.784 729.018 555.686 728.626 558.431C728.626 561.569 727.842 575.686 727.45 578.431C725.489 605.098 695.685 623.922 671.371 627.451C658.822 629.02 632.548 632.549 619.999 634.118C616.861 634.51 612.548 634.902 609.41 635.294C607.842 635.294 604.312 634.902 602.744 634.902C569.41 630.588 548.234 596.471 549.018 564.706C549.018 559.608 549.018 546.274 549.018 540.784C549.018 538.039 549.018 530.98 549.41 528.235C550.587 514.51 558.038 501.176 570.587 493.725C576.077 490.588 582.744 489.02 589.41 489.412L605.489 490.98C625.097 493.333 679.214 498.431 699.999 500Z" fill="black"/>
<path d="M790.979 506.275C799.607 505.098 841.96 500.392 849.803 499.608C851.764 499.608 856.862 498.824 858.43 498.824C875.293 496.471 883.136 514.902 884.705 528.628C885.489 540.785 884.705 552.549 885.097 564.314C885.097 572.549 884.313 580.785 882.352 588.628C877.254 609.804 862.352 632.157 837.646 625.098C831.764 623.922 819.999 622.353 814.509 621.177L808.626 620C797.254 618.04 787.842 610.196 781.567 601.569C769.803 587.843 772.156 569.412 770.979 552.941C769.411 536.471 769.803 510.981 790.979 506.275ZM792.548 517.647C780.391 523.138 783.528 541.569 783.528 552.549L784.313 576.079C784.705 590.981 796.469 605.883 810.587 609.804C814.116 610.589 823.92 612.549 827.842 613.334L839.215 615.687C867.45 624.706 878.43 585.49 878.038 563.922C876.862 545.883 882.352 524.314 869.411 509.804C866.273 506.667 863.136 505.883 859.607 506.667C857.646 507.059 852.548 507.843 850.979 508.236C843.136 509.804 800.783 516.471 792.548 517.647Z" fill="black"/>
<path d="M555.293 542.745C552.156 549.804 549.411 549.02 543.921 549.02L532.548 548.628C518.038 547.843 501.96 546.667 487.45 544.706C479.607 543.529 471.372 542.353 463.529 540.392C460.391 539.608 458.431 536.471 459.215 533.333C459.999 530.588 462.352 528.628 465.097 529.02L487.842 530.196L510.587 530.98C518.038 531.373 537.254 531.765 544.705 532.157C548.627 532.157 552.156 532.549 556.078 531.373C557.646 530.981 559.215 531.765 559.607 533.333C559.999 534.118 559.607 534.51 559.607 535.294L555.293 542.745Z" fill="black"/>
<path d="M722.352 534.51C736.47 526.667 773.725 515.686 780.784 536.863C783.921 542.353 775.685 547.451 772.156 541.961C772.156 542.745 770.195 541.961 769.411 541.961C754.509 540.784 739.215 543.137 724.313 544.314C718.038 545.098 716.862 536.863 722.352 534.51Z" fill="black"/>
</svg>
