<svg width="1200" height="1200" viewBox="0 0 1200 1200" fill="none" xmlns="http://www.w3.org/2000/svg">
<path d="M616.865 621.176C580.002 616.078 544.708 604.313 512.159 586.274C501.179 580.392 491.375 573.333 481.179 566.274C479.61 565.097 479.218 562.745 480.395 560.784C481.571 559.215 484.316 558.823 485.885 559.999C514.904 580.784 548.238 594.901 582.747 603.137C594.512 605.882 606.277 608.235 617.649 609.411C625.885 610.196 624.708 621.96 616.865 621.176Z" fill="black"/>
<path d="M563.923 741.176C531.374 730.588 501.178 714.509 472.942 695.294C463.531 689.019 454.903 681.96 445.884 674.901C444.707 674.117 444.707 672.156 445.491 670.98C446.276 669.803 448.237 669.803 449.021 670.588C475.688 690.588 504.707 707.058 535.688 719.215C545.884 723.137 556.472 727.058 567.06 729.803C574.903 731.764 571.766 743.137 563.923 741.176Z" fill="black"/>
<path d="M852.55 621.961C852.158 615.294 848.628 609.804 843.138 606.274C829.805 597.647 802.746 580.784 781.57 574.118C776.864 572.549 772.158 571.765 768.236 571.372C750.981 570.196 626.668 581.176 581.177 623.137C540.393 660.784 555.687 758.039 609.413 809.804C643.53 842.745 703.53 859.216 754.511 841.176C773.726 834.51 791.766 822.353 806.276 804.706C854.119 746.274 855.687 659.216 852.55 621.961Z" fill="white"/>
<path d="M847.06 622.352C846.668 616.47 843.531 612.549 838.04 609.411L832.158 605.49C824.315 600.392 816.472 595.294 808.237 590.588C796.08 583.921 783.531 577.254 769.805 575.294C746.276 574.901 722.746 578.823 699.609 583.137C661.178 591.372 598.433 604.705 575.688 638.823C544.315 692.941 574.903 775.686 621.178 812.549C675.295 855.294 762.746 853.333 807.452 797.254C848.236 749.803 851.766 682.352 847.06 622.352ZM858.04 621.568C863.138 686.274 838.433 795.294 781.962 833.725C731.374 867.45 660.393 857.254 614.119 820.784C565.099 781.568 533.335 689.803 565.884 632.549C582.354 606.666 613.727 595.294 641.178 586.274C678.433 575.294 716.864 570.196 755.295 567.843C775.295 565.49 794.511 574.117 811.766 582.352C820.393 586.666 829.021 591.372 837.256 596.078C847.844 601.568 857.648 609.019 858.04 621.568Z" fill="black"/>
<path d="M650.197 813.725C686.15 813.725 715.295 784.58 715.295 748.627C715.295 712.675 686.15 683.529 650.197 683.529C614.245 683.529 585.099 712.675 585.099 748.627C585.099 784.58 614.245 813.725 650.197 813.725Z" fill="black"/>
<path d="M627.452 817.647C663.405 817.647 692.55 788.502 692.55 752.549C692.55 716.597 663.405 687.451 627.452 687.451C591.499 687.451 562.354 716.597 562.354 752.549C562.354 788.502 591.499 817.647 627.452 817.647Z" fill="white" stroke="black" stroke-width="3" stroke-miterlimit="10" stroke-linecap="round" stroke-linejoin="round"/>
<path d="M623.923 793.333C646.447 793.333 664.707 775.073 664.707 752.549C664.707 730.024 646.447 711.765 623.923 711.765C601.398 711.765 583.138 730.024 583.138 752.549C583.138 775.073 601.398 793.333 623.923 793.333Z" fill="black" stroke="black" stroke-width="3" stroke-miterlimit="10" stroke-linecap="round" stroke-linejoin="round"/>
<path d="M609.805 714.117L607.844 789.803" stroke="white" stroke-miterlimit="10" stroke-linecap="round" stroke-linejoin="round"/>
<path d="M638.432 714.117L636.472 789.803" stroke="white" stroke-miterlimit="10" stroke-linecap="round" stroke-linejoin="round"/>
<path d="M585.099 765.489L660.785 767.45" stroke="white" stroke-miterlimit="10" stroke-linecap="round" stroke-linejoin="round"/>
<path d="M585.099 736.47L660.785 738.823" stroke="white" stroke-miterlimit="10" stroke-linecap="round" stroke-linejoin="round"/>
<path d="M778.434 685.097C778.827 680.783 775.689 676.47 770.983 676.47C748.238 675.293 699.611 671.372 664.709 661.176C622.356 649.019 692.16 680.391 758.434 692.548C767.846 694.117 777.65 694.509 778.434 685.097Z" fill="black"/>
<path d="M852.944 670.588C852.944 670.588 838.042 677.647 825.885 679.215C813.728 680.784 818.826 705.098 849.022 683.529L852.944 670.588Z" fill="black"/>
<path d="M689.413 800.392C689.413 800.392 679.609 846.274 691.766 847.058C703.923 848.235 650.589 843.137 627.06 823.529L689.413 800.392Z" fill="black"/>
</svg>
