<svg width="1200" height="1200" viewBox="0 0 1200 1200" fill="none" xmlns="http://www.w3.org/2000/svg">
<path d="M649.021 958.039C649.021 958.039 589.021 921.568 564.315 927.843C539.217 934.118 547.844 1024.31 563.923 1038.82C580.001 1053.33 648.629 1007.06 652.942 1003.14C657.256 999.216 654.903 964.314 649.021 958.039Z" fill="white"/>
<path d="M642.746 965.882C643.138 966.275 643.531 966.275 642.746 965.882C637.648 961.176 632.158 956.863 626.668 953.333C609.021 942.353 586.668 929.412 565.491 932.549C563.923 932.941 562.354 934.51 561.178 935.686C555.295 943.922 554.511 954.902 553.727 965.098C553.335 979.608 554.511 994.118 557.256 1008.24C559.217 1017.25 561.962 1029.02 568.237 1034.9C569.805 1036.08 572.55 1036.08 574.903 1035.69C588.237 1034.12 601.57 1026.27 613.335 1020C625.099 1013.33 636.472 1005.88 647.06 997.255L646.668 997.647C646.276 998.039 645.884 999.216 645.884 998.824C645.884 998.824 645.884 998.824 645.884 998.431V997.647C646.668 987.059 645.491 974.902 641.178 965.098C641.178 963.922 641.962 965.49 642.746 965.882ZM655.295 950.196C660.393 955.294 661.178 960 662.354 966.274C663.923 978.431 665.099 990.196 662.354 1001.96C661.57 1004.31 660.393 1007.06 658.04 1009.41C640.393 1021.57 580.001 1058.82 561.178 1043.92C541.57 1027.84 534.903 938.823 558.825 925.098C560.786 923.922 563.531 923.137 565.884 922.745C582.354 921.176 596.472 927.843 611.374 932.941C623.531 937.647 636.472 942.745 648.629 947.451C650.589 948.235 653.335 949.02 655.295 950.196Z" fill="black"/>
<path d="M671.767 958.823C671.767 958.823 695.297 921.961 719.218 917.255C742.748 912.549 753.728 1012.16 743.14 1021.57C732.552 1030.59 683.14 1010.98 677.65 1004.71C671.767 998.431 668.238 970.98 671.767 958.823Z" fill="white"/>
<path d="M662.356 954.51C662.748 953.725 663.532 952.549 664.316 952.157C665.101 951.765 666.669 950.196 667.062 949.804C680.787 938.039 691.767 923.529 708.238 915.294C710.591 914.118 713.336 913.333 715.689 912.549C716.473 912.157 717.65 911.765 718.434 911.765C747.062 907.451 758.826 1004.31 749.415 1022.75C740.003 1041.57 685.885 1020.78 672.944 1011.76C661.571 1003.14 658.434 967.843 662.356 954.51ZM680.787 962.745C678.826 974.118 679.218 988.235 683.532 999.216C684.709 1000.39 686.277 1001.18 687.846 1001.96C697.65 1007.45 709.414 1011.76 720.395 1014.9C726.669 1016.47 732.944 1018.04 738.434 1016.47C740.395 1011.37 740.787 999.216 740.395 991.373C739.218 970.98 736.865 949.412 727.846 930.588C725.885 927.059 723.14 921.569 719.218 922.353C701.179 927.451 685.493 944.706 680.003 962.745V963.137C680.003 963.529 680.395 963.137 680.395 962.745C680.395 963.137 680.787 962.745 680.787 962.745Z" fill="black"/>
<path d="M696.472 990.196C697.648 968.627 682.354 950.196 661.962 948.235C641.57 946.275 623.923 961.961 621.962 983.529C620.393 1005.49 635.687 1024.71 656.472 1026.67C677.648 1028.24 695.295 1011.76 696.472 990.196Z" fill="black"/>
<path d="M622.354 983.137C622.746 1014.12 657.256 1035.69 681.178 1014.12C703.531 994.118 692.55 953.726 661.962 947.843C692.55 947.843 709.413 985.49 694.119 1010.2C671.374 1048.63 615.295 1026.27 622.354 983.137Z" fill="white"/>
</svg>
