<svg width="1200" height="1200" viewBox="0 0 1200 1200" fill="none" xmlns="http://www.w3.org/2000/svg">
<path d="M801.177 671.764C799.216 659.999 792.157 640.391 781.177 649.019C776.863 652.548 754.51 659.607 750.196 659.999C737.647 661.176 728.236 659.607 719.216 652.548C709.02 644.313 709.02 640.784 706.667 639.999C665.49 626.274 613.726 612.548 596.863 667.842C592.941 680.784 559.216 784.705 625.49 848.627C632.157 850.195 671.373 869.411 752.157 847.842C761.961 843.529 774.51 839.215 780 829.019C803.922 784.705 805.098 696.862 801.177 671.764ZM667.843 770.98C633.726 770.98 627.451 749.019 625.883 741.96C623.138 711.372 628.628 685.882 636.471 676.862C656.863 654.509 686.667 680.392 718.824 682.744C750.588 685.097 773.334 669.803 776.079 705.49C776.863 714.117 776.471 723.921 776.079 733.725C776.079 734.117 776.079 734.509 776.079 734.901C774.902 745.882 772.941 761.96 760.392 764.705C730.981 770.98 741.569 758.039 723.922 758.039C707.451 758.431 719.216 770.98 667.843 770.98Z" fill="black"/>
</svg>
