<svg width="1200" height="1200" viewBox="0 0 1200 1200" fill="none" xmlns="http://www.w3.org/2000/svg">
<path d="M686.277 618.04C668.238 618.432 612.552 618.824 595.297 619.216C565.493 619.608 543.14 593.726 545.885 564.314C546.277 554.51 545.885 540.785 546.277 530.981C547.062 505.491 569.807 483.922 595.297 484.706L661.571 485.491C666.669 485.491 681.179 485.883 686.277 485.883C707.454 485.491 727.454 501.177 732.16 521.961C733.728 527.844 733.336 534.118 733.336 539.216V572.549C732.944 597.255 710.983 618.432 686.277 618.04ZM686.277 609.412C706.669 610.196 725.493 592.549 725.885 572.157C726.277 561.569 725.885 550.196 725.885 539.216C728.238 515.295 710.199 493.334 685.885 494.118C669.022 494.51 612.552 494.902 594.905 495.295C573.728 495.295 555.689 514.51 557.258 535.687C557.258 538.432 557.258 545.491 557.258 548.236C557.65 556.863 556.473 571.765 558.434 579.608C562.356 596.079 578.042 608.628 594.905 608.628H603.14C614.513 608.628 674.513 609.412 686.277 609.412Z" fill="black"/>
<path d="M844.315 496.079L813.335 496.471C804.707 496.863 794.511 495.295 787.06 500.393C780.001 505.099 776.864 513.726 777.256 521.962C777.256 532.158 777.256 542.746 776.864 552.942L776.472 551.373C781.962 570.589 789.413 589.02 800.786 605.099L796.864 602.746C800.001 603.53 805.492 603.53 808.629 603.53C820.393 603.922 834.119 604.707 845.884 604.707C856.864 604.707 867.452 596.471 869.805 585.491C870.59 582.354 870.59 576.863 870.59 573.726C870.59 556.863 870.982 540.393 870.197 523.53C870.982 508.628 859.609 495.295 844.315 496.079ZM844.315 484.314C865.099 484.314 879.609 504.314 876.08 523.922C875.295 540.785 875.688 557.256 875.688 574.118C877.648 593.726 865.884 611.373 845.492 612.942C836.864 613.334 828.629 613.334 820.393 613.726C816.08 613.726 805.491 614.511 801.57 614.511C799.609 614.903 796.472 614.511 794.511 614.511C792.943 614.511 791.374 613.334 790.59 612.158C778.433 594.118 769.805 574.118 764.707 553.334C764.707 540.001 763.531 526.667 764.707 513.334C767.06 497.648 781.178 484.314 797.256 483.922C808.237 483.53 833.335 484.314 844.315 484.314Z" fill="black"/>
<path d="M729.021 520.393C739.609 515.687 751.374 513.727 763.138 514.511C767.06 514.903 770.982 516.079 774.511 519.217L779.609 523.53C784.707 527.844 778.433 535.295 773.334 530.981C767.06 525.491 759.609 526.276 752.158 526.668C744.707 527.452 737.648 529.021 730.589 531.766C723.923 534.511 719.609 524.707 725.884 521.57C725.884 521.57 729.021 520.393 729.021 520.393Z" fill="black"/>
<path d="M552.55 534.511C549.805 540.785 546.668 541.57 541.57 541.177L530.197 541.57C507.452 541.57 484.315 541.177 461.57 537.648C453.727 537.256 453.335 526.276 461.178 525.883L552.158 522.746C554.903 522.746 556.864 525.491 555.688 527.844L552.55 534.511Z" fill="black"/>
</svg>
