<svg width="956" height="1200" viewBox="0 0 956 1200" fill="none" xmlns="http://www.w3.org/2000/svg">
<path d="M685.099 617.647C685.099 617.647 648.236 640.784 606.667 640.392C565.099 640 560.001 607.451 559.609 589.804C559.609 589.804 565.099 615.294 590.197 624.706C614.903 634.117 685.099 617.647 685.099 617.647Z" fill="black"/>
<path d="M803.527 613.333C803.527 613.333 812.547 624.313 824.704 632.157C832.939 637.647 843.919 631.764 843.919 621.961C843.919 621.961 821.174 623.137 803.527 613.333Z" fill="black"/>
<path d="M698.822 512.941C677.645 510.98 624.312 506.667 603.92 504.706L588.233 503.529C575.292 502.745 565.096 513.725 562.743 526.274C561.959 530.196 561.959 536.863 561.959 540.784V556.863C561.959 566.667 561.567 576.863 565.096 586.274C571.371 608.235 591.371 625.882 614.9 623.137C617.253 622.745 631.763 621.176 634.508 620.784L666.273 617.255C676.469 616.471 685.88 613.725 694.9 608.235C707.449 600.784 719.606 589.412 718.822 573.333L719.606 557.647C720.39 538.039 725.88 514.902 698.822 512.941ZM699.998 500C718.429 501.569 730.979 520.784 729.802 538.431C729.802 540.784 729.018 555.686 728.626 558.431C728.626 561.569 727.841 575.686 727.449 578.431C725.488 605.098 695.684 623.922 671.371 627.451C658.822 629.02 632.547 632.549 619.998 634.118C616.861 634.51 612.547 634.902 609.41 635.294C607.841 635.294 604.312 634.902 602.743 634.902C569.41 630.588 548.233 596.471 549.018 564.706C549.018 559.608 549.018 546.274 549.018 540.784C549.018 538.039 549.018 530.98 549.41 528.235C550.586 514.51 558.037 501.176 570.586 493.725C576.077 490.588 582.743 489.02 589.41 489.412L605.488 490.98C625.096 493.333 679.214 498.431 699.998 500Z" fill="black"/>
<path d="M790.979 506.274C799.607 505.098 841.96 500.392 849.803 499.608C851.764 499.608 856.862 498.823 858.43 498.823C875.293 496.47 883.136 514.902 884.705 528.627C885.489 540.784 884.705 552.549 885.097 564.313C885.097 572.549 884.313 580.784 882.352 588.627C877.254 609.804 862.352 632.157 837.646 625.098C831.764 623.921 819.999 622.353 814.509 621.176L808.627 620C797.254 618.039 787.842 610.196 781.568 601.568C769.803 587.843 772.156 569.412 770.979 552.941C769.411 536.47 769.803 510.98 790.979 506.274ZM792.548 517.647C780.391 523.137 783.529 541.568 783.529 552.549L784.313 576.078C784.705 590.98 796.47 605.882 810.587 609.804C814.117 610.588 823.921 612.549 827.842 613.333L839.215 615.686C867.45 624.706 878.43 585.49 878.038 563.921C876.862 545.882 882.352 524.314 869.411 509.804C866.274 506.666 863.136 505.882 859.607 506.666C857.646 507.059 852.548 507.843 850.979 508.235C843.136 509.804 800.783 516.47 792.548 517.647Z" fill="black"/>
<path d="M555.293 542.745C552.156 549.804 549.411 549.02 543.921 549.02L532.548 548.628C518.038 547.843 501.96 546.667 487.45 544.706C479.607 543.529 471.372 542.353 463.528 540.392C460.391 539.608 458.43 536.471 459.215 533.333C459.999 530.588 462.352 528.628 465.097 529.02L487.842 530.196L510.587 530.98C518.038 531.373 537.254 531.765 544.705 532.157C548.627 532.157 552.156 532.549 556.078 531.373C557.646 530.981 559.215 531.765 559.607 533.333C559.999 534.118 559.607 534.51 559.607 535.294L555.293 542.745Z" fill="black"/>
<path d="M722.352 534.51C736.47 526.667 773.725 515.686 780.783 536.863C783.921 542.353 775.685 547.451 772.156 541.961C772.156 542.745 770.195 541.961 769.411 541.961C754.509 540.784 739.215 543.137 724.313 544.314C718.038 545.098 716.862 536.863 722.352 534.51Z" fill="black"/>
</svg>
