<svg width="1200" height="1200" viewBox="0 0 1200 1200" fill="none" xmlns="http://www.w3.org/2000/svg">
<path d="M513.726 477.255C513.726 477.255 400.393 487.843 351.765 475.294C351.765 475.294 359.609 340.392 415.687 268.628C471.765 196.863 689.412 196.471 776.079 228.628C854.51 258.039 864.707 391.373 864.707 391.373L513.726 477.255Z" fill="black"/>
<path d="M865.097 391.372L528.627 473.725C526.666 428.627 521.96 329.019 545.097 276.47C572.94 213.333 734.901 213.725 802.744 245.882C856.862 298.823 865.097 391.372 865.097 391.372Z" fill="white"/>
<path d="M869.805 394.902C756.863 423.53 643.53 451.765 530.197 479.216C527.06 480 523.922 478.039 523.138 474.902C521.177 434.902 520.785 394.51 524.314 354.118C527.452 324.314 530.981 292.549 546.275 266.275C575.295 227.059 641.569 221.961 686.275 221.961C724.707 222.353 774.118 229.804 803.53 245.098C842.746 282.353 861.962 336.079 870.589 388.235C870.981 390.196 871.373 392.549 869.805 394.902ZM860.393 387.843C859.609 388.628 859.216 390.981 859.216 391.373C859.216 390.196 858.824 387.843 858.824 386.667C854.118 336.863 834.903 281.569 802.746 246.667C752.942 225.098 684.707 221.569 627.844 231.765C600.001 237.647 569.805 246.275 552.942 270.196C525.883 321.569 532.158 414.51 534.903 472.941L527.452 467.451C638.04 440.784 749.02 414.118 860.393 387.843Z" fill="black"/>
<path d="M940.393 463.922C940.393 511.373 863.53 490.196 863.53 490.196C865.491 470.981 865.491 456.471 863.922 443.922C862.746 434.902 861.177 426.275 859.216 417.647C857.648 411.373 856.079 405.098 854.51 398.824C879.609 396.079 898.432 403.137 911.765 413.334C932.158 429.02 940.393 452.157 940.393 463.922Z" fill="black" stroke="black" stroke-width="3" stroke-miterlimit="10" stroke-linecap="round" stroke-linejoin="round"/>
<path d="M702.744 323.53C723.103 323.53 739.607 307.026 739.607 286.667C739.607 266.309 723.103 249.805 702.744 249.805C682.385 249.805 665.881 266.309 665.881 286.667C665.881 307.026 682.385 323.53 702.744 323.53Z" fill="white"/>
<path d="M739.607 286.667C739.607 303.53 728.234 317.648 712.94 321.961C697.646 317.648 686.273 303.53 686.273 286.667C686.273 269.804 697.646 255.687 712.94 251.373C728.234 255.687 739.607 269.804 739.607 286.667Z" fill="#C9C9C9"/>
<path d="M759.607 286.667C759.607 307.06 743.136 323.53 722.744 323.53C721.96 323.53 720.783 323.53 719.999 323.53C719.215 323.53 718.43 323.53 717.646 323.138C716.862 323.138 716.077 322.746 715.293 322.746C714.509 322.746 713.724 322.354 712.94 322.354C728.234 318.04 739.607 303.922 739.607 287.06C739.607 270.197 728.234 256.079 712.94 251.766C713.724 251.373 714.509 251.373 715.293 251.373C716.077 251.373 716.47 250.981 717.254 250.981C717.646 250.981 718.038 250.981 718.43 250.981C718.823 250.981 719.215 250.981 719.999 250.981C721.175 250.981 721.96 250.981 723.136 250.981C743.136 249.805 759.607 266.275 759.607 286.667Z" fill="black"/>
<path d="M702.744 259.216C718.038 259.216 730.195 271.373 730.195 286.667C730.195 301.962 718.038 314.118 702.744 314.118C687.45 314.118 675.293 301.962 675.293 286.667C675.293 271.373 687.842 259.216 702.744 259.216ZM702.744 249.805C682.352 249.805 665.881 266.275 665.881 286.667C665.881 307.06 682.352 323.53 702.744 323.53C723.136 323.53 739.607 307.06 739.607 286.667C739.607 266.275 723.136 249.805 702.744 249.805Z" fill="black"/>
<path d="M529.413 438.432C529.413 438.432 428.236 446.275 359.217 442.354C355.295 441.961 355.295 438.824 355.295 434.903L355.687 427.844C355.687 427.844 348.236 429.805 345.099 440.001C343.53 445.491 342.354 458.824 342.746 467.059C343.138 472.157 346.667 476.471 351.766 477.256C374.511 481.177 411.766 490.589 513.726 477.648C513.726 477.256 527.06 454.903 529.413 438.432Z" fill="black"/>
<path d="M911.766 413.334C895.295 400.785 870.589 393.334 836.864 401.961C817.648 407.059 794.903 417.255 769.02 434.51C642.354 520 513.726 477.255 513.726 477.255C513.726 477.255 517.648 458.039 531.766 434.51C552.55 400 595.687 356.079 682.354 350.588C758.432 345.883 814.511 360.392 852.55 376.863C890.197 393.334 909.805 411.373 911.766 413.334Z" fill="white"/>
<path d="M916.471 417.255C914.118 418.431 909.413 418.431 907.06 416.863C905.883 416.471 905.491 415.686 904.707 415.294C877.648 396.863 842.746 402.745 813.726 414.902C781.569 428.627 753.726 451.765 721.177 464.706C656.079 492.157 581.569 497.647 513.334 478.039C512.942 478.039 512.55 477.255 512.55 476.863C518.824 437.255 545.491 402.745 577.648 380C610.589 356.863 650.981 347.059 690.589 345.098C759.609 341.569 831.766 353.333 891.373 390.588C898.824 395.294 906.275 400.392 912.942 406.274L914.511 407.451L915.295 408.235C916.471 409.02 916.864 410.196 917.256 411.765C917.648 414.51 916.864 416.471 916.471 417.255ZM907.452 409.412C906.667 410.196 905.491 411.765 905.883 414.118C906.275 415.294 906.667 416.471 907.452 417.255L906.667 416.863C900.001 410.98 892.942 405.882 885.491 401.176C809.805 352.157 660.393 335.294 583.922 388.627C552.55 409.804 530.197 442.745 518.824 478.431L515.687 472.941C581.962 491.372 655.295 484.706 718.04 457.255C750.589 443.529 777.256 420 809.805 405.882C840.785 391.765 881.177 385.49 911.373 405.882L912.158 406.274C912.55 406.667 912.158 406.274 911.766 406.274C911.373 406.274 910.197 406.274 909.02 407.059C907.844 407.451 907.452 408.627 907.452 409.412Z" fill="black"/>
<path d="M356.863 436.863C368.236 440 381.569 439.608 393.334 440.392C430.981 441.176 468.628 438.824 506.667 436.863C508.628 436.863 509.413 440 507.06 440.392C467.452 446.667 390.981 457.255 354.903 440.392C352.158 439.216 354.118 435.686 356.863 436.863Z" fill="white"/>
<path d="M450.98 260.392C447.842 263.922 442.744 267.451 441.568 270.98C441.568 270.98 441.568 270.98 441.568 270.588C441.568 270.196 441.568 269.804 441.176 269.804C441.176 269.412 440.783 269.412 440.783 269.412C441.96 269.804 443.136 269.804 444.705 269.804C458.43 269.804 479.999 265.882 494.509 264.314C502.744 263.137 511.372 261.961 519.999 261.176C520.391 261.176 520.783 261.569 520.783 261.961C520.783 262.353 520.391 262.745 520.391 262.745C504.313 268.627 487.842 272.941 470.979 276.078C461.176 277.647 450.98 280 440.783 278.039C432.94 276.471 431.764 269.412 438.038 265.098C439.215 262.745 452.94 256.078 450.98 260.392Z" fill="white"/>
</svg>
