<svg width="1200" height="1200" viewBox="0 0 1200 1200" fill="none" xmlns="http://www.w3.org/2000/svg">
<path d="M706.668 639.608C706.668 639.608 666.668 615.294 632.55 615.294C587.452 615.294 576.472 672.157 581.177 676.863C594.903 690.98 607.06 654.118 607.06 654.118C607.06 654.118 584.707 696.863 599.609 695.294C614.511 693.725 629.805 667.843 629.805 667.843C629.805 667.843 609.805 695.294 623.53 695.294C637.256 695.294 652.55 670.588 673.727 677.255C694.511 683.921 716.079 690.196 737.648 689.412C759.217 688.627 766.668 676.863 772.942 689.412C783.923 710.98 794.903 706.274 794.119 693.725C793.334 681.176 788.236 676.47 788.236 676.47C788.236 676.47 799.217 688.627 803.53 685.882C814.511 678.823 797.256 659.608 797.256 659.608C797.256 659.608 810.197 678.431 811.766 667.451C816.472 636.863 790.197 636.47 790.197 636.47C790.197 636.47 772.158 660.784 752.942 660.784C733.726 660.784 716.472 657.647 706.668 639.608Z" fill="black"/>
</svg>
