<svg width="1200" height="844" viewBox="0 0 1200 844" fill="none" xmlns="http://www.w3.org/2000/svg">
<path d="M804.317 606.274C793.729 593.333 780.004 584.313 763.533 583.921C746.278 583.529 719.219 587.451 692.161 609.019C656.866 637.254 586.278 632.941 558.435 630.196C550.592 629.411 543.141 633.333 539.612 640.392C531.768 656.078 521.18 688.627 526.278 741.176C532.945 812.941 591.376 878.039 673.729 872.549C781.965 865.882 845.102 778.823 849.023 662.352C848.239 630.196 829.023 636.862 804.317 606.274Z" fill="white"/>
<path d="M801.179 608.627C792.16 597.254 779.611 588.235 764.709 587.45C740.003 586.274 715.297 595.294 695.689 610.98C690.591 614.901 684.709 618.823 678.827 621.96C646.67 637.254 609.415 638.039 574.513 636.47C567.454 636.47 560.003 634.509 552.552 635.294C547.846 636.078 543.925 639.999 541.964 644.705C525.101 683.921 524.709 739.999 540.003 779.999C552.552 812.156 576.866 839.607 607.846 854.901C632.16 867.058 660.395 870.195 687.454 866.666C692.552 866.274 704.709 863.529 709.807 862.745C712.552 861.96 725.101 858.039 727.846 857.254C730.199 856.47 736.081 853.725 738.042 852.941C794.513 828.235 829.023 769.803 838.434 710.588C840.395 700.784 841.572 690.588 842.356 680.392C842.748 670.195 844.709 659.999 841.964 651.372C839.611 641.96 831.376 637.646 823.925 631.372C815.689 624.313 807.846 616.862 801.179 608.627ZM807.062 603.921C816.866 616.47 830.199 622.744 842.356 632.941C856.081 644.313 853.336 665.097 852.16 680.392C852.16 684.705 850.591 691.372 850.199 696.078C843.532 742.352 824.709 787.843 792.552 822.352C747.846 869.803 673.336 892.156 610.983 868.235C551.768 844.705 518.434 783.529 519.219 721.568C518.826 695.294 521.964 668.627 532.16 643.921C532.944 641.96 533.728 640.392 534.513 638.431C538.434 630.196 547.062 624.705 556.081 625.097C582.748 627.843 609.807 629.019 636.081 625.097C656.081 622.352 675.689 616.862 690.983 604.313C714.905 585.882 751.768 572.941 781.179 583.921C791.768 588.627 800.003 595.686 807.062 603.921Z" fill="black"/>
<path d="M660.392 628.235C701.176 643.137 779.607 673.333 821.176 663.137C828.235 661.177 833.725 656.863 836.862 649.804C837.647 647.451 841.176 648.628 840.784 650.588C830.588 698.431 733.333 661.961 703.529 650.981C688.235 645.098 673.333 638.824 658.823 631.373C656.47 630.981 658.039 627.451 660.392 628.235Z" fill="black"/>
<path d="M593.726 681.569C661.57 712.549 760.001 755.294 832.942 725.098C834.903 724.314 836.864 726.667 835.295 728.235C790.589 770.981 697.256 737.255 648.236 715.294C628.628 706.275 609.805 696.471 591.766 685.098C589.805 683.922 591.373 680.392 593.726 681.569Z" fill="black"/>
<path d="M588.628 749.412C616.079 769.804 648.236 784.314 681.177 792.549C700.785 797.255 721.178 800.392 741.57 800C760.001 800.392 778.04 797.255 796.472 798.039C797.648 798.039 798.432 798.824 798.432 800C798.432 800.784 798.04 801.569 797.256 801.569C792.942 803.53 788.236 805.098 783.923 806.275C770.197 810.588 755.687 811.373 741.57 810.981C698.825 810.981 656.472 798.432 620.001 776.471C607.844 769.02 596.472 761.177 585.883 751.373C584.315 750.588 586.668 747.843 588.628 749.412Z" fill="black"/>
<path d="M611.374 638.039C598.04 661.961 593.334 690.196 590.197 717.255C584.707 762.745 594.511 809.804 614.903 850.98C616.079 852.941 612.942 855.294 611.374 852.941C582.746 803.53 573.727 743.922 587.06 688.235C590.197 674.51 594.511 660.784 600.785 647.843C603.138 643.529 605.099 639.608 608.236 635.686C609.021 634.902 610.197 634.51 610.981 635.294C611.766 636.079 612.158 637.255 611.374 638.039Z" fill="black"/>
<path d="M551.766 645.098C528.236 626.667 508.629 605.098 491.374 580.784C485.491 572.941 480.785 564.314 475.687 556.078C474.903 554.902 475.295 552.941 476.864 552.157C478.04 551.372 480.001 551.765 480.785 553.333C496.079 577.647 514.903 599.216 536.472 618.039C543.53 624.314 551.374 630.588 558.825 635.686C565.099 640 558.432 649.804 551.766 645.098Z" fill="black"/>
<path d="M458.04 675.686C473.726 723.137 506.668 762.745 546.668 792.157C552.942 796.863 545.883 806.275 539.609 801.569C499.609 769.804 466.668 727.059 452.55 677.255C451.373 673.726 456.864 671.765 458.04 675.686Z" fill="black"/>
</svg>
