<svg width="1200" height="1200" viewBox="0 0 1200 1200" fill="none" xmlns="http://www.w3.org/2000/svg">
<path d="M801.177 671.765C799.216 660 792.157 640.392 781.177 649.019C776.863 652.549 754.51 659.608 750.196 660C737.647 661.176 728.236 659.608 719.216 652.549C709.02 644.314 709.02 640.784 706.667 640C665.491 626.274 613.726 612.549 596.863 667.843C592.942 680.784 559.216 784.706 625.491 848.627C632.157 850.196 671.373 869.412 752.157 847.843C761.961 843.529 774.51 839.215 780 829.019C803.922 784.706 805.098 696.863 801.177 671.765ZM667.844 770.98C633.726 770.98 627.451 749.019 625.883 741.961C623.138 711.372 628.628 685.882 636.471 676.863C656.863 654.51 686.667 680.392 718.824 682.745C750.589 685.098 773.334 669.804 776.079 705.49C776.863 714.117 776.471 723.921 776.079 733.725C776.079 734.117 776.079 734.51 776.079 734.902C774.902 745.882 772.942 761.961 760.392 764.706C730.981 770.98 741.569 758.039 723.922 758.039C707.451 758.431 719.216 770.98 667.844 770.98Z" fill="black"/>
</svg>
