<svg width="1200" height="844" viewBox="0 0 1200 844" fill="none" xmlns="http://www.w3.org/2000/svg">
<path d="M554.902 647.059C565.882 641.176 576.47 634.902 588.627 631.765C589.804 631.765 590.588 631.372 592.941 632.157C601.176 638.431 577.255 654.117 572.941 658.039C574.117 656.47 573.725 653.725 571.765 652.941C571.372 652.941 571.372 652.549 570.98 652.549C570.196 652.549 570.196 652.549 570.196 652.549C580 649.019 589.804 645.098 599.216 640.392C604.706 638.039 612.157 632.941 618.039 632.549C620.392 632.549 623.137 634.902 622.745 637.255C622.353 640.392 621.568 641.568 620.784 643.529C620 645.098 618.431 647.451 618.039 649.019C618.039 649.412 617.647 648.627 617.647 648.627C617.647 649.019 620 649.019 620.392 648.627C626.666 647.843 633.333 645.49 639.608 643.137C640.784 642.745 641.568 644.314 640.392 645.098C633.725 649.412 626.667 654.117 618.039 654.902C612.549 655.294 609.804 650.196 611.765 645.49C612.549 642.745 614.51 639.608 615.294 637.255C615.294 638.039 616.078 639.216 616.863 639.608C617.647 640 618.039 639.608 617.647 640C613.725 641.176 605.882 645.49 602.353 647.059C592.157 651.765 582.353 656.078 571.372 659.216C570.588 659.216 570.588 659.608 569.412 659.216C566.274 658.823 565.49 654.902 567.843 652.941C572.549 649.019 578.039 645.882 582.353 641.961C584.706 640 587.451 637.255 589.019 634.902C589.019 635.294 589.412 636.078 589.804 636.47C586.274 636.863 579.216 638.823 574.902 640.784C568.627 643.137 561.961 645.882 555.686 648.627C554.902 649.412 553.725 647.451 554.902 647.059Z" fill="black"/>
<path d="M809.019 647.059C812.549 643.137 827.451 624.313 831.372 634.117C831.372 634.902 831.372 635.686 831.372 636.078C829.804 643.921 824.706 650.588 820.784 657.255C821.568 655.294 820 652.549 818.039 652.157C817.255 652.157 816.863 652.157 816.47 652.157C816.078 652.157 816.47 652.157 816.863 651.764C824.706 646.666 830.588 640.392 838.431 634.902C840 634.117 841.961 632.941 843.921 634.117C845.882 635.686 845.49 638.039 844.706 639.608C843.921 641.568 843.137 643.137 842.353 645.098C841.961 645.49 841.568 645.882 840.784 645.49C840.392 645.49 840.392 645.098 840.392 644.706C840.392 643.921 840.392 638.823 840.392 638.039C840.392 637.647 840 637.255 840.392 638.039C840.392 638.431 841.176 639.215 841.961 639.215C842.353 639.215 843.137 639.215 843.137 639.215C836.47 647.059 828.627 654.51 819.608 659.608C816.863 660.784 813.725 658.431 814.117 655.294C814.117 654.902 814.51 654.117 814.902 653.725C817.647 649.804 820.784 645.882 823.137 641.961C824.314 640 825.882 637.255 826.274 635.294C826.274 636.078 827.843 637.255 828.235 636.862C821.961 639.215 816.47 644.314 810.98 648.235C809.412 649.412 808.235 647.843 809.019 647.059Z" fill="black"/>
</svg>
