<svg width="1200" height="844" viewBox="0 0 1200 844" fill="none" xmlns="http://www.w3.org/2000/svg">
<path d="M861.177 453.725L780 451.372L542.745 444.313C527.451 443.921 514.51 456.078 514.51 471.372V507.059C514.51 525.098 500 540 481.569 540H468.627L481.569 563.137C499.608 563.137 514.51 577.647 514.51 596.078V608.627C514.51 625.49 529.412 638.039 545.882 635.686L764.706 601.568C769.412 600.784 773.725 600.784 778.431 601.176C785.098 601.96 791.373 603.529 797.255 606.666L841.176 628.627C852.549 634.117 865.882 626.666 867.059 614.117L879.216 474.509C880.392 463.529 872.157 454.117 861.177 453.725Z" fill="black"/>
<path d="M601.177 506.667L828.235 511.765C840.784 512.157 850.588 523.137 849.02 535.686C847.843 546.667 838.824 554.902 827.843 554.902H600.784C588.627 554.902 578.824 544.706 579.216 532.549L579.608 527.451C580 515.294 589.804 506.667 601.177 506.667Z" fill="white" stroke="black" stroke-width="3" stroke-miterlimit="10" stroke-linecap="round" stroke-linejoin="round"/>
</svg>
