<svg width="1200" height="844" viewBox="0 0 1200 844" fill="none" xmlns="http://www.w3.org/2000/svg">
<path d="M440.392 583.137C440.392 583.137 409.02 578.431 411.373 622.353C412.549 644.706 412.549 656.863 412.157 663.137C411.765 667.451 414.51 671.373 418.431 672.941C423.137 674.902 428.235 672.941 430.588 668.235C434.118 661.961 438.039 653.333 438.039 646.275C438.039 634.51 450.588 623.922 450.588 623.922C450.588 623.922 439.216 614.118 440.392 583.137Z" fill="white"/>
<path d="M439.216 584.313C439.216 584.706 439.608 585.098 440 585.098C440 585.098 440 585.098 439.608 585.098H438.824C420 586.666 414.118 603.137 414.902 620C415.294 630.98 416.079 641.961 415.686 652.549C416.471 658.431 412.941 666.274 418.824 669.412C422.353 671.372 427.059 669.804 428.628 665.882C432.157 658.823 435.686 651.764 435.686 643.921C437.255 634.902 443.137 627.843 449.412 622.353V625.49C441.177 616.863 439.216 605.098 438.039 594.117C438.431 591.372 438.431 587.059 439.216 584.313ZM441.961 581.568C443.137 592.549 443.137 603.921 447.843 613.725C449.02 616.47 450.981 619.608 453.333 621.568C454.902 622.745 454.902 625.098 453.333 626.274C447.843 631.372 443.137 637.647 442.353 644.706C442.353 653.333 438.824 661.568 434.902 669.019C431.765 675.686 422.745 679.215 416.079 675.294C411.765 672.941 408.628 668.235 408.628 663.137C408.628 659.215 409.02 656.078 409.02 652.157C409.02 641.176 408.235 630.588 407.843 619.608C407.843 612.549 408.235 604.313 411.373 597.255C415.294 586.274 427.451 578.823 439.216 580.784C440.392 580.784 441.569 581.176 441.961 581.568Z" fill="black"/>
<path d="M435.294 1047.45C448.235 990.98 431.373 927.451 416.863 870.98C410.981 848.627 405.098 827.451 402.353 809.019C397.255 778.039 400.785 748.627 413.334 721.176C428.628 687.058 426.275 658.039 426.275 656.862L418.432 657.647C418.432 658.039 420.785 686.274 406.275 718.039C393.334 746.666 389.412 777.647 394.51 810.196C397.647 829.019 403.137 850.588 409.02 872.941C423.53 928.235 440 990.98 427.451 1045.49C420.392 1075.69 434.118 1125.1 453.726 1174.51C456.863 1174.9 459.608 1175.29 462.745 1175.69C442.745 1126.27 428.628 1076.47 435.294 1047.45Z" fill="black"/>
<path d="M412.549 645.098C412.941 653.725 412.549 659.608 412.549 663.137C412.157 667.451 414.902 671.372 418.824 672.941C423.53 674.902 428.628 672.941 430.981 668.235C434.51 661.96 438.432 653.333 438.432 646.274C438.432 645.882 438.432 645.098 438.432 644.706C430.588 647.843 421.177 650.196 412.549 645.098Z" fill="white"/>
<path d="M413.726 646.666C414.118 652.156 414.51 657.255 414.51 662.745C414.118 665.098 414.902 667.451 416.471 669.411C421.569 674.509 428.628 671.372 430.588 665.098C433.726 658.823 436.471 652.156 436.471 645.098L439.216 647.058C430.588 648.627 421.569 650.98 413.334 647.451C413.334 647.451 413.726 647.058 413.726 646.666ZM411.765 643.137C412.549 643.137 414.118 643.529 414.902 644.313C421.961 649.411 430.981 647.058 438.039 643.137C439.216 642.353 441.177 643.529 440.785 645.098C440.392 654.117 436.863 662.745 432.157 670.588C427.843 676.47 418.824 676.862 413.726 671.764C411.373 669.411 410.196 665.49 410.588 662.353C410.588 655.686 411.373 649.411 411.765 643.137Z" fill="black"/>
<path d="M781.961 905.882C788.628 859.607 782.353 826.666 780 816.862C778.824 817.647 778.039 818.823 776.863 819.607C775.687 820.784 774.51 821.568 773.334 822.745C775.687 835.294 780 865.098 774.118 904.705C771.373 923.137 770.589 952.156 770.196 985.882C769.412 1018.43 759.216 1099.61 747.059 1176.47C749.804 1175.69 752.549 1174.9 755.294 1174.51C767.451 1098.43 777.255 1018.82 778.039 986.274C778.824 952.549 779.216 923.921 781.961 905.882Z" fill="black"/>
</svg>
