<svg width="1200" height="1200" viewBox="0 0 1200 1200" fill="none" xmlns="http://www.w3.org/2000/svg">
<path d="M791.766 620C791.766 620 796.472 646.667 827.453 660C835.296 663.137 843.531 658.039 843.531 649.412C843.139 649.412 793.727 623.137 791.766 620Z" fill="black"/>
<path d="M549.413 620C549.413 620 563.923 652.941 607.452 660.784C650.982 669.019 690.59 637.647 709.021 585.098C709.021 585.098 694.119 633.725 634.511 642.745C575.688 652.549 549.413 620 549.413 620Z" fill="black"/>
<path d="M717.65 546.667C716.474 602.745 671.376 647.843 616.866 647.843C562.356 647.843 518.827 602.745 518.827 546.667C519.219 490.196 564.317 443.922 619.611 443.922C674.905 443.922 719.219 490.196 717.65 546.667Z" stroke="black" stroke-width="3" stroke-miterlimit="10" stroke-linecap="round" stroke-linejoin="round"/>
<path d="M771.374 533.725C777.649 483.137 810.59 443.529 849.413 443.529C891.374 443.529 923.531 489.804 921.178 546.274C918.825 602.353 883.531 647.451 842.354 647.451C827.06 647.451 813.335 641.568 801.962 630.98" stroke="black" stroke-width="3" stroke-miterlimit="10" stroke-linecap="round" stroke-linejoin="round"/>
<path d="M520.002 535.687H464.315" stroke="black" stroke-width="3" stroke-miterlimit="10" stroke-linecap="round" stroke-linejoin="round"/>
<path d="M718.041 535.686C718.041 535.686 764.707 517.647 770.59 535.686" stroke="black" stroke-width="3" stroke-miterlimit="10" stroke-linecap="round" stroke-linejoin="round"/>
</svg>
