<svg width="1200" height="1200" viewBox="0 0 1200 1200" fill="none" xmlns="http://www.w3.org/2000/svg">
<path d="M796.471 767.864C802.353 736.883 804.314 705.511 799.216 674.53C797.255 662.766 790.196 643.158 779.216 651.785C774.902 655.315 752.549 662.373 748.235 662.766C735.686 663.942 726.275 662.373 717.255 655.315C707.059 647.079 707.059 643.55 704.706 642.766C663.529 629.04 611.765 615.315 594.902 670.609C581.176 715.707 546.667 760.02 521.176 716.099C501.569 682.766 502.745 619.236 500 605.903C493.333 572.962 483.922 556.883 478.431 561.589C478.431 572.177 481.961 697.275 482.353 703.942C485.098 738.452 489.412 749.432 505.098 771.785C520.784 794.138 575.686 854.922 647.059 860.02C718.824 865.118 758.431 859.236 798.431 813.354C834.51 771.785 835.686 685.511 835.686 685.511C818.039 737.667 805.882 754.922 796.471 767.864ZM634.902 679.628C655.294 657.275 685.098 683.158 717.255 685.511C749.02 687.864 761.961 667.864 764.314 703.158C765.098 711.785 766.275 726.295 765.882 736.099C765.882 736.491 765.882 736.883 765.882 737.275C764.706 748.256 761.176 760.413 750.196 767.079C727.059 781.589 689.804 778.06 665.882 773.354C632.549 766.687 625.49 751.393 623.922 744.334C621.569 714.138 626.667 688.648 634.902 679.628Z" fill="black"/>
</svg>
