<svg width="1200" height="1312" viewBox="0 0 1200 1312" fill="none" xmlns="http://www.w3.org/2000/svg">
<path d="M349.411 825.882C349.411 825.882 406.666 803.137 417.254 802.353L418.038 811.373C418.038 811.373 372.548 830.98 369.803 834.118C367.45 836.863 349.411 825.882 349.411 825.882Z" fill="#7E5D6D"/>
<path d="M1056.08 1334.9H64.311C64.311 1334.9 70.1934 1152.94 129.801 1023.14C174.899 925.099 283.135 860.393 361.958 832.157C384.311 824.314 401.566 815.687 417.644 811.373C417.644 813.334 418.821 827.844 418.821 829.412C418.821 829.412 472.154 803.53 612.154 811.373C676.86 814.902 697.252 809.804 697.252 809.804C704.703 808.236 706.272 857.255 712.939 854.902C715.291 854.118 731.762 847.451 733.723 846.667C784.311 860.001 846.272 897.648 936.076 972.942C1038.04 1058.43 1056.08 1334.9 1056.08 1334.9Z" fill="white" stroke="black" stroke-width="5.1257" stroke-miterlimit="10" stroke-linecap="round" stroke-linejoin="round"/>
<path d="M865.096 936.078C890.436 936.078 910.978 915.535 910.978 890.195C910.978 864.855 890.436 844.313 865.096 844.313C839.756 844.313 819.213 864.855 819.213 890.195C819.213 915.535 839.756 936.078 865.096 936.078Z" fill="#FFFF8D"/>
<path d="M258.429 1334.9L240.782 1189.41" stroke="#544D4D" stroke-width="3" stroke-miterlimit="10" stroke-linecap="round" stroke-linejoin="round"/>
<path d="M943.528 1140C943.528 1140 931.764 1168.63 935.293 1197.25C938.823 1225.88 949.019 1267.84 934.509 1334.9" stroke="#544D4D" stroke-width="3" stroke-miterlimit="10" stroke-linecap="round" stroke-linejoin="round"/>
<path d="M349.411 825.883C356.862 823.53 369.803 825.883 373.725 832.549C389.019 857.647 599.607 895.294 614.901 1040.78C627.058 1154.51 604.313 1394.9 604.313 1394.9L54.1167 1376.86C54.1167 1376.86 65.4893 1183.53 98.8226 1053.73C131.764 927.844 217.254 871.373 349.411 825.883Z" fill="black" stroke="black" stroke-width="5.1257" stroke-miterlimit="10" stroke-linecap="round" stroke-linejoin="round"/>
<path d="M704.313 1040.78C704.313 1040.78 728.627 1166.67 724.313 1381.96H1090.98C1090.98 1381.96 1089.8 1140.39 1030.98 1009.02C972.156 878.039 766.274 839.608 766.274 839.608C766.274 839.608 714.509 1036.86 704.313 1040.78Z" fill="black" stroke="black" stroke-width="5.1257" stroke-miterlimit="10" stroke-linecap="round" stroke-linejoin="round"/>
<path d="M743.921 849.804L734.509 847.059C734.509 847.059 748.234 840.393 754.117 836.471L757.646 834.51C757.646 834.51 776.47 843.138 783.136 846.275C789.803 849.412 759.999 863.922 759.999 863.922C759.999 863.922 745.097 850.197 743.921 849.804Z" fill="#7E5D6D"/>
<path d="M615.294 1040.78C615.294 1040.78 552.157 988.627 410.588 960.392C287.059 935.686 159.216 947.451 170.196 914.51C204.706 811.373 412.157 750.588 412.157 751.373C412.157 751.765 531.373 714.51 589.412 782.353C599.216 794.118 614.902 985.098 615.294 1040.78Z" fill="white"/>
<path d="M619.608 1049.8C616.471 1051.37 610.981 1050.59 608.236 1047.84C607.843 1047.45 606.275 1046.27 605.49 1045.88C545.49 1002.75 472.941 980.392 401.177 965.49C351.373 955.687 300.392 951.373 249.804 946.667C230.588 943.53 153.726 943.137 166.667 911.765C198.039 827.843 329.804 769.804 410.588 745.098C445.098 736.079 481.569 733.334 516.863 740C545.098 745.098 572.941 757.255 592.157 778.824C595.294 782.353 596.471 787.843 597.255 791.765C603.922 823.137 606.667 855.294 610.981 887.059C616.079 931.373 620.392 976.079 624.314 1020.78C624.314 1023.53 625.098 1032.55 625.098 1035.29V1036.47V1037.26C625.49 1041.96 622.745 1047.45 619.608 1049.8ZM610.981 1031.76C609.804 1031.76 608.236 1032.55 607.059 1033.73C605.49 1034.9 605.098 1037.65 605.098 1038.04C605.098 1037.26 605.098 1032.55 605.098 1031.76C605.098 984.314 602.353 936.471 598.824 889.02C596.863 863.53 594.51 838.432 590.981 813.334C589.804 804.706 588.628 794.51 585.49 786.667C568.628 765.49 541.569 753.334 514.902 749.412C452.157 742.353 390.588 763.922 332.941 787.059C272.549 812.549 198.824 847.843 172.157 911.765C164.314 926.275 182.353 930.588 193.334 932.941C212.157 936.863 230.981 938.039 250.196 939.608C288.236 942.353 326.667 945.098 364.706 949.804C451.373 960.785 544.706 983.922 618.824 1031.37L620 1032.16C620 1032.16 620.785 1032.55 620 1032.16C617.647 1030.2 612.941 1030.2 610.981 1031.76Z" fill="black"/>
<path d="M999.607 943.924C993.332 907.453 801.568 773.335 782.744 776.865C774.509 787.845 682.352 780.002 657.646 782.747C653.725 783.139 651.372 787.061 652.548 790.59C670.979 840.394 694.509 989.806 704.313 1040.79C750.979 994.904 803.528 974.512 851.372 965.1C934.901 948.629 1003.53 966.669 999.607 943.924Z" fill="white"/>
<path d="M995.295 944.707C979.608 903.53 825.099 799.216 784.707 786.667L790.981 782.746C785.099 788.628 779.608 787.844 772.942 788.236C765.099 787.844 755.295 787.452 747.452 786.667C728.236 785.099 705.491 784.707 685.883 784.707C676.863 784.707 667.452 784.707 658.824 785.491C656.863 785.491 656.079 786.667 655.687 788.236C662.354 807.06 667.452 827.452 672.157 846.667C685.491 900.785 696.863 960.001 709.02 1014.9L714.51 1038.82L697.648 1033.33C760.001 975.295 841.961 952.942 925.491 952.158C939.216 951.766 952.55 951.765 965.883 951.765C972.157 951.373 996.863 952.55 995.295 944.707ZM1000.78 943.922C1003.14 959.216 975.295 957.256 965.883 958.432C952.55 958.824 938.824 959.216 925.491 959.609C846.667 961.569 764.706 987.452 711.373 1047.84C705.883 1053.73 695.295 1050.59 694.51 1042.35C681.961 961.177 670.197 866.667 647.844 788.236C647.844 783.138 652.55 778.432 657.648 778.432H660.785C669.412 778.04 677.256 778.432 685.491 778.824C700.001 779.609 720.001 780.393 734.51 780.393C748.628 780.393 763.138 780.393 776.471 776.471C778.04 776.079 780.001 774.903 780.001 774.511C780.001 774.118 780.393 773.334 780.785 773.334C785.491 772.55 788.628 774.118 792.157 775.687C830.981 793.334 992.942 908.236 1000.78 943.922Z" fill="black"/>
<path d="M561.568 1112.16C578.678 1112.16 592.548 1098.29 592.548 1081.18C592.548 1064.07 578.678 1050.2 561.568 1050.2C544.458 1050.2 530.587 1064.07 530.587 1081.18C530.587 1098.29 544.458 1112.16 561.568 1112.16Z" fill="white"/>
<path d="M374.507 1208.63C414.791 1208.63 447.448 1175.97 447.448 1135.69C447.448 1095.4 414.791 1062.75 374.507 1062.75C334.223 1062.75 301.566 1095.4 301.566 1135.69C301.566 1175.97 334.223 1208.63 374.507 1208.63Z" fill="white"/>
<path d="M894.117 1208.63C928.77 1208.63 956.862 1175.97 956.862 1135.69C956.862 1095.4 928.77 1062.75 894.117 1062.75C859.464 1062.75 831.372 1095.4 831.372 1135.69C831.372 1175.97 859.464 1208.63 894.117 1208.63Z" fill="white"/>
<path d="M747.844 1108.24C764.088 1108.24 777.256 1095.07 777.256 1078.82C777.256 1062.58 764.088 1049.41 747.844 1049.41C731.6 1049.41 718.432 1062.58 718.432 1078.82C718.432 1095.07 731.6 1108.24 747.844 1108.24Z" fill="white"/>
<path d="M614.119 997.648C612.55 996.471 610.981 995.295 609.413 994.118" stroke="black" stroke-width="3" stroke-linecap="round" stroke-linejoin="round"/>
<path d="M578.038 972.943C546.666 955.688 511.764 944.707 470.587 933.335C375.685 906.668 310.979 915.296 229.019 890.59C224.705 889.413 219.607 887.845 214.901 885.884" stroke="black" stroke-width="3" stroke-linecap="round" stroke-linejoin="round" stroke-dasharray="2.9 2.9"/>
<path d="M200.001 874.51C199.216 872.942 198.824 870.981 198.824 869.02" stroke="black" stroke-width="3" stroke-linecap="round" stroke-linejoin="round"/>
<path d="M698.038 1002.75C698.038 1002.75 699.607 1001.18 702.352 998.824" stroke="black" stroke-width="3" stroke-linecap="round" stroke-linejoin="round"/>
<path d="M734.509 976.471C754.509 964.707 782.744 950.589 819.999 938.824C878.823 920.393 929.803 921.569 959.607 921.569" stroke="black" stroke-width="3" stroke-linecap="round" stroke-linejoin="round" stroke-dasharray="3 3"/>
<path d="M979.214 921.569C981.567 921.177 983.528 920.785 985.097 920.393" stroke="black" stroke-width="3" stroke-linecap="round" stroke-linejoin="round"/>
<path d="M578.428 1063.53C607.056 1068.63 661.958 1074.51 731.369 1062.35C742.35 1060.39 752.546 1068.24 753.33 1079.22V1081.18C754.115 1090.59 747.84 1099.22 738.82 1101.18C710.977 1107.84 648.624 1117.26 570.585 1100.39C561.958 1098.43 555.683 1090.59 555.683 1081.96C556.075 1070.59 566.664 1061.57 578.428 1063.53Z" fill="white"/>
<path d="M578.822 1061.57C605.881 1065.88 633.724 1065.49 660.783 1064.71C679.214 1064.71 697.253 1063.92 715.684 1061.96C725.096 1061.57 735.292 1057.26 744.312 1062.35C758.43 1069.41 759.998 1092.16 746.665 1100.79C743.135 1103.53 737.253 1104.71 732.939 1105.49C679.606 1119.22 623.528 1116.47 570.586 1103.14C544.704 1096.08 552.155 1058.04 578.822 1061.57ZM578.037 1065.49C558.037 1061.96 549.802 1089.8 568.626 1097.65C586.273 1101.96 604.704 1103.53 622.743 1104.71C640.783 1105.88 659.214 1106.28 677.253 1105.49C695.292 1104.71 713.724 1103.53 731.763 1100.39C736.077 1099.61 740.39 1099.22 744.312 1096.86C755.292 1090.2 754.116 1071.37 742.351 1065.88C738.43 1063.92 734.508 1063.92 730.194 1065.1C716.469 1067.84 702.743 1070.2 689.018 1071.77C652.155 1076.86 614.508 1073.33 578.037 1065.49Z" fill="black"/>
</svg>
