<svg width="1200" height="1454" viewBox="0 0 1200 1454" fill="none" xmlns="http://www.w3.org/2000/svg">
<path d="M828.628 941.177C828.628 941.177 767.059 877.255 707.059 863.529C707.059 863.529 714.902 971.373 643.53 963.922C528.236 951.765 419.608 829.412 419.608 829.412C419.608 829.412 350.196 820.784 289.02 867.451C289.02 867.451 290.589 1017.65 428.628 1077.26C566.275 1136.86 758.04 1107.45 803.53 1069.02C848.628 1030.59 839.608 954.118 828.628 941.177Z" fill="white" stroke="black" stroke-width="3" stroke-miterlimit="10" stroke-linecap="round" stroke-linejoin="round"/>
<path d="M210.59 902.746C210.59 902.746 190.198 914.903 173.335 950.197C159.218 980.785 153.335 1029.8 140.394 1087.06C112.159 1212.94 90.5903 1382.75 90.5903 1382.75H985.492C985.492 1382.75 996.865 1051.37 915.296 954.119C906.669 943.53 873.335 927.06 871.767 928.628C845.492 952.942 840.786 1080.79 703.924 1087.84C530.198 1096.47 321.179 1041.57 316.081 1009.41C311.375 976.864 210.59 902.746 210.59 902.746Z" fill="white" stroke="black" stroke-width="3" stroke-miterlimit="10" stroke-linecap="round" stroke-linejoin="round"/>
<path d="M908.237 1389.8C661.963 1503.53 256.473 1400.79 256.473 1400.79C256.473 1400.79 248.237 1300.79 278.041 1120.79C279.218 1112.55 280.394 1104.31 281.179 1096.86C289.806 1015.29 231.375 938.432 210.198 903.138C210.198 894.118 218.041 885.883 230.198 878.824C278.826 850.589 348.237 834.118 351.375 836.471C356.865 844.315 363.532 866.667 368.237 874.903C412.159 956.079 427.453 1043.14 518.826 1055.69C609.022 1068.24 696.081 1066.28 758.433 1052.55C818.433 1039.22 777.257 932.942 750.983 883.922C749.806 881.962 747.453 875.687 746.669 874.903C755.688 869.02 870.198 909.805 878.041 939.609C895.296 982.746 893.335 1067.06 898.434 1109.02C915.688 1245.88 908.237 1389.8 908.237 1389.8Z" fill="black"/>
<path d="M916.473 1395.69C909.414 1400.39 900.786 1404.31 892.943 1407.45C742.355 1465.88 575.688 1459.22 418.041 1440.39C362.747 1432.94 308.237 1423.53 254.12 1410.59C249.806 1409.41 246.669 1405.88 246.669 1401.57C242.747 1314.51 252.159 1228.24 264.708 1142.35C266.276 1130.98 270.59 1105.88 271.374 1094.9C275.688 1048.24 258.041 1003.14 235.688 962.746C225.492 944.314 213.727 926.667 201.963 907.844C196.865 896.863 206.276 884.706 213.727 878.04C230.982 864.314 250.59 856.863 270.198 848.236C289.414 840.785 309.022 834.118 329.414 829.02C336.865 827.451 344.316 825.099 352.551 825.491C354.512 825.491 358.433 827.451 360.002 829.804C368.629 843.53 371.374 858.824 378.825 872.549C412.943 933.726 429.414 1024.31 505.884 1044.31C534.904 1050.59 565.492 1052.94 594.904 1054.9C640.002 1057.65 685.492 1057.26 730.198 1050.98C737.649 1049.8 745.1 1048.63 752.551 1047.06C759.218 1045.88 766.276 1044.31 771.375 1040C800.786 1014.51 775.296 947.059 763.139 916.079C758.433 905.099 753.727 894.51 748.237 883.922C747.061 881.569 745.884 878.432 744.708 876.079C744.708 875.687 744.316 875.295 744.708 875.687L745.1 870.589C748.237 867.059 750.982 866.667 754.904 865.883C765.492 865.883 776.08 870.197 786.276 873.334C810.982 881.569 834.512 891.373 856.865 904.706C865.492 910.197 874.512 916.079 881.178 924.314C883.531 927.451 885.884 930.981 887.453 935.687L887.061 934.51C894.512 953.726 897.649 972.942 900.002 992.157C905.884 1038.82 905.492 1087.06 912.159 1133.33C920.394 1216.08 921.963 1299.22 918.433 1382.35V1385.88V1387.84C918.433 1390.98 917.649 1393.73 916.473 1395.69ZM900.002 1384.31C899.218 1385.1 898.826 1385.88 898.433 1387.06V1387.45V1387.84C898.826 1381.18 899.218 1368.63 899.218 1361.57C901.178 1277.26 898.826 1192.16 889.022 1108.63C885.1 1070.59 885.1 1033.33 880.786 995.687C878.433 977.255 875.688 958.824 869.414 943.138C869.022 941.177 868.237 940 866.276 937.648C852.551 922.746 832.943 914.118 814.512 905.491C793.727 896.863 772.159 887.451 749.806 884.314C749.806 884.314 749.806 884.314 750.198 884.314C750.982 883.922 751.767 883.922 752.551 883.138L754.12 867.451C754.512 867.844 754.512 868.236 754.904 868.236C756.08 869.412 756.865 871.373 757.649 872.942C758.826 875.295 759.61 878.04 760.786 880C783.139 922.353 832.159 1033.73 768.237 1059.61C756.865 1063.53 744.708 1065.1 732.551 1067.06C671.375 1076.08 609.414 1075.29 547.845 1069.02C532.159 1067.06 516.865 1065.88 501.178 1062.35C434.12 1047.06 405.884 978.824 380.786 923.138C371.767 901.961 359.61 882.353 351.374 860.785C349.022 854.902 346.276 847.059 343.139 842.353L345.1 844.706C346.276 845.883 348.237 846.275 349.806 846.667C349.806 846.667 349.806 846.667 349.414 846.667L347.453 847.059C323.924 850.197 223.139 882.353 220.002 903.922L218.433 898.824C253.335 953.334 291.375 1013.33 291.375 1080.78C290.982 1100.39 286.669 1127.06 283.531 1146.27C277.257 1188.63 271.767 1230.98 268.629 1273.73C265.492 1315.69 263.531 1359.22 265.492 1401.18L258.041 1392.16C310.982 1404.71 365.492 1414.12 419.61 1421.57C574.12 1440 737.257 1447.06 884.316 1390.2C889.022 1387.45 895.688 1383.92 900.002 1384.31Z" fill="black"/>
<path d="M369.806 1049.41C381.718 1049.41 391.375 1039.76 391.375 1027.84C391.375 1015.93 381.718 1006.28 369.806 1006.28C357.894 1006.28 348.237 1015.93 348.237 1027.84C348.237 1039.76 357.894 1049.41 369.806 1049.41Z" fill="white"/>
<path d="M838.041 1058.04C847.571 1058.04 855.296 1050.31 855.296 1040.79C855.296 1031.26 847.571 1023.53 838.041 1023.53C828.511 1023.53 820.786 1031.26 820.786 1040.79C820.786 1050.31 828.511 1058.04 838.041 1058.04Z" fill="white"/>
<path d="M545.884 1090.59C592.551 1094.12 639.218 1096.08 685.884 1094.9C703.531 1094.51 720.786 1093.33 738.041 1091.37C756.08 1088.63 775.296 1091.77 790.982 1101.57C812.159 1114.12 826.277 1137.26 828.629 1161.96C829.806 1173.73 830.59 1185.49 831.767 1197.26C833.728 1220.79 834.512 1244.71 834.12 1268.24C833.727 1280.39 832.943 1292.94 830.982 1305.1C826.276 1325.49 809.414 1340 791.767 1349.41C719.61 1387.06 603.139 1385.88 525.492 1365.1C495.296 1356.08 453.727 1340.39 451.767 1302.75C451.375 1300 450.982 1292.55 450.59 1289.8C449.414 1272.16 446.276 1237.26 445.1 1220C444.316 1209.41 442.355 1194.12 443.139 1183.53C444.316 1130.98 493.335 1086.28 545.884 1090.59ZM544.708 1107.06C497.649 1104.31 456.08 1144.31 459.61 1191.77C461.571 1220.39 465.492 1259.22 467.845 1287.84L468.629 1296.47L469.022 1300.79C469.414 1317.65 483.924 1327.45 498.826 1334.9C566.276 1364.71 663.139 1363.14 734.512 1347.45C762.355 1340.39 801.571 1329.02 811.767 1299.61C818.433 1265.88 820.394 1231.37 821.178 1196.86C820.786 1174.51 823.531 1150.2 810.982 1130.2C799.61 1110.59 778.041 1098.04 755.688 1097.26C744.316 1096.86 732.943 1100 721.178 1101.18C709.414 1102.75 697.649 1103.92 685.884 1104.71C639.218 1109.02 591.767 1109.02 544.708 1107.06Z" fill="white"/>
<path d="M659.22 963.922C659.22 963.922 587.455 1050.98 565.494 1044.31C543.533 1037.65 407.063 957.255 385.494 832.942C385.494 832.942 402.357 813.334 417.259 805.099C417.259 805.099 459.612 797.648 462.357 801.569C465.102 805.883 432.553 827.844 438.043 835.295C456.475 860.393 485.886 893.726 532.945 921.177C603.925 962.746 659.22 963.922 659.22 963.922Z" fill="white"/>
<path d="M668.631 960.001C671.376 962.746 667.063 972.158 667.063 970.589C666.671 971.373 665.494 972.158 664.71 972.942C640.004 996.471 617.259 1021.18 589.023 1040.79C581.18 1045.88 570.592 1052.16 561.18 1047.45C537.259 1036.47 516.082 1020.79 495.298 1004.71C441.573 961.177 394.514 903.53 380.788 834.118C380.396 832.55 380.788 831.373 381.965 830.197C386.278 823.922 390.984 818.432 395.69 812.55C400.788 807.06 406.671 800.393 414.122 796.079C421.965 794.118 430.2 793.726 438.435 792.942C447.063 792.55 455.298 790.981 463.925 792.942C465.102 793.334 466.278 793.334 468.631 795.295C476.082 802.354 469.808 810.589 464.318 815.687C458.043 821.962 450.984 827.06 446.278 833.726C445.102 835.295 446.278 834.511 445.494 832.158C445.494 831.373 444.318 830.589 445.102 831.373C445.494 832.158 447.063 834.118 447.455 834.903C462.357 857.648 480.788 877.648 501.572 894.903C545.494 929.412 600.788 954.511 657.651 954.511C661.572 953.334 666.671 956.079 668.631 960.001ZM650.2 968.236C650.984 970.981 655.298 974.118 658.043 974.118H657.259L655.69 973.726C570.592 955.687 490.984 910.197 434.906 843.922C433.337 841.569 431.769 840.785 430.2 837.256C428.239 829.805 432.161 824.707 436.082 820.001C441.965 812.55 449.416 807.06 454.514 800.001C452.945 801.962 454.122 806.667 456.474 808.628C458.043 809.805 458.435 809.805 458.827 809.805C459.22 809.805 458.435 809.805 458.043 809.805C445.102 810.197 432.161 812.942 419.612 815.295L422.749 814.118C410.984 818.824 399.612 827.844 389.808 836.471L390.984 832.55C404.318 921.962 485.886 1002.35 564.71 1040C578.435 1046.67 611.376 1008.63 620.788 998.432C631.769 985.883 642.357 972.55 651.769 958.824L652.161 958.432C651.769 956.079 647.455 965.491 650.2 968.236Z" fill="black"/>
<path d="M659.218 963.922C659.218 963.922 714.904 1029.02 733.335 1029.8C751.767 1030.59 759.61 916.079 704.316 858.04C704.316 858.04 664.708 825.098 692.159 861.177C692.159 861.177 719.61 944.706 659.218 963.922Z" fill="white"/>
<path d="M669.022 966.667C670.59 963.922 667.845 957.648 667.061 957.648V958.04C666.669 961.569 667.845 964.315 669.022 966.667C681.963 983.138 697.257 998.04 712.943 1010.59C719.218 1015.29 726.277 1021.57 733.336 1023.14C733.336 1023.14 733.336 1023.14 732.943 1023.14C732.551 1023.14 732.159 1023.14 732.159 1023.14C735.296 1019.61 736.473 1013.33 737.649 1007.45C744.316 958.824 732.159 899.609 698.434 863.138L699.218 863.922C694.12 859.609 687.453 854.511 682.355 851.373C682.355 851.373 682.355 851.766 685.1 851.373C687.453 850.981 689.806 848.236 689.806 845.883C689.806 845.491 689.806 845.099 689.806 844.707C689.806 843.922 689.806 843.922 689.806 843.922C691.375 848.628 695.296 853.334 697.649 858.04C698.041 880.001 705.492 898.824 701.571 921.177C699.61 941.962 685.492 962.354 665.885 971.373H665.492C667.845 971.373 669.022 969.02 669.022 966.667ZM649.806 961.177C651.375 958.04 655.296 954.903 658.826 953.726C661.963 952.942 665.492 951.766 668.63 950.197C690.59 940.001 695.688 912.942 694.512 890.589C694.12 880.785 692.943 870.197 686.277 862.746L687.061 864.707C685.1 858.04 681.179 852.55 680.394 845.491C681.571 837.256 692.551 849.02 695.296 850.589L703.924 858.04C740.002 896.471 759.61 967.452 747.845 1019.61C745.885 1027.45 740.002 1038.82 729.806 1036.08C719.218 1033.33 712.159 1026.67 704.708 1020C695.688 1011.77 687.453 1002.75 679.218 994.118L666.669 981.177C663.924 978.432 661.571 975.295 658.434 973.334C656.081 972.158 653.728 970.981 651.375 970.589C650.983 970.589 648.237 963.922 649.806 961.177Z" fill="black"/>
<path d="M653.73 970.588C653.73 970.588 642.75 982.745 646.671 1009.41C650.593 1035.69 649.809 1061.96 649.809 1061.96" fill="white"/>
<path d="M661.572 977.255C661.572 976.863 661.572 976.863 661.572 977.255C660.395 977.648 659.611 978.432 658.827 979.216C650.592 989.02 650.592 1002.75 651.768 1014.9C653.337 1031.37 653.337 1046.27 660.003 1061.96C665.493 1075.29 645.886 1083.53 640.003 1070.59C638.827 1067.45 639.219 1064.31 640.003 1061.57C641.572 1054.12 642.356 1046.67 642.356 1038.82C642.748 1018.43 634.905 998.432 640.395 978.04C641.572 972.942 643.533 968.236 646.67 963.922C655.297 954.118 669.807 967.059 661.572 977.255Z" fill="black"/>
<path d="M674.12 1029.41C679.101 1029.41 683.139 1025.37 683.139 1020.39C683.139 1015.41 679.101 1011.37 674.12 1011.37C669.138 1011.37 665.1 1015.41 665.1 1020.39C665.1 1025.37 669.138 1029.41 674.12 1029.41Z" fill="black"/>
<path d="M416.471 795.295C420.393 800.393 423.138 800.785 426.275 800.393L435.295 799.609C484.314 796.864 533.334 792.55 582.354 798.432C613.334 801.962 643.53 813.334 669.412 831.373C679.609 839.216 690.197 847.844 694.511 860.393C694.903 861.569 694.118 863.138 692.55 863.53C690.981 863.922 689.805 863.138 689.413 861.962C683.53 852.55 672.942 845.883 663.53 840.393C643.138 829.02 620.785 820.001 597.648 814.903C550.589 805.099 501.962 803.922 453.726 806.667C445.099 807.06 435.295 808.236 426.667 809.02C423.53 809.02 420.785 809.805 418.432 815.687C405.491 816.471 403.138 797.256 416.471 795.295Z" fill="black"/>
</svg>
