<svg width="1200" height="1446" viewBox="0 0 1200 1446" fill="none" xmlns="http://www.w3.org/2000/svg">
<path d="M925.883 1091.76C923.138 1093.73 920.001 1095.69 917.255 1097.65C914.118 1099.61 911.373 1101.57 908.236 1103.14C905.491 1104.71 903.138 1106.27 900.393 1107.84C900.001 1108.24 899.608 1108.24 899.216 1108.63C890.197 1114.12 880.785 1119.22 871.373 1123.92C868.628 1125.49 865.491 1127.06 862.746 1128.24C862.746 1128.24 862.353 1128.63 861.961 1128.63C858.824 1130.2 855.687 1131.77 852.55 1133.33C846.275 1136.47 839.608 1139.22 833.334 1141.96C830.197 1143.53 826.667 1144.71 823.53 1145.88C820.393 1147.06 816.863 1148.63 813.726 1149.8C810.589 1150.98 807.059 1152.55 803.922 1153.73C803.922 1153.73 803.922 1153.73 803.53 1153.73C800.393 1154.9 796.863 1156.08 793.726 1157.26C786.667 1159.61 779.216 1161.96 772.157 1164.31C769.804 1165.1 767.059 1165.88 764.706 1166.67C757.255 1169.02 749.804 1170.98 742.353 1172.55C739.608 1173.33 736.863 1173.73 733.726 1174.51C726.667 1176.08 719.216 1177.65 712.157 1179.22C710.589 1179.61 709.412 1179.61 707.844 1180C705.491 1180.39 702.746 1180.78 700.393 1181.18C696.863 1181.57 693.726 1182.35 690.197 1182.75C688.628 1183.14 687.059 1183.14 685.491 1183.53C683.53 1183.92 681.177 1184.31 678.824 1184.31C672.55 1185.1 665.883 1185.88 659.608 1186.67C657.648 1187.06 655.295 1187.06 653.334 1187.45H652.942C650.197 1187.84 647.452 1187.84 644.706 1188.24C641.961 1188.63 639.216 1188.63 636.471 1188.63C634.903 1188.63 632.942 1189.02 631.373 1189.02C628.236 1189.02 625.491 1189.41 622.746 1189.41C618.824 1189.41 615.295 1189.8 611.373 1189.8C607.452 1189.8 603.922 1189.8 600.001 1189.8C597.255 1189.8 594.51 1189.8 591.765 1189.8C426.275 1187.45 277.648 1117.26 171.373 1005.88C171.373 1005.88 171.373 1005.49 170.981 1005.49C159.216 994.902 169.412 938.432 216.863 902.745C276.471 857.647 419.216 829.412 419.216 829.412C419.216 829.412 474.51 820.392 679.608 863.138C799.608 888.236 890.981 924.706 941.961 1023.53C952.55 1043.92 963.138 1075.29 925.883 1091.76Z" fill="white"/>
<path d="M680.785 858.824C756.079 874.118 836.471 890.588 898.432 940.392C919.216 957.255 932.942 981.961 944.314 1005.88C949.804 1017.65 955.295 1029.8 959.608 1042.75C961.961 1051.37 965.491 1061.18 963.53 1071.37C963.138 1074.12 960.785 1077.65 958.824 1079.61C949.804 1088.63 940.001 1094.12 930.197 1101.18C872.55 1141.18 806.275 1169.41 737.648 1184.31C584.706 1217.65 419.216 1191.76 284.706 1111.37C240.001 1084.31 198.824 1051.37 163.53 1012.55C159.608 1007.84 159.608 1000 159.608 994.902C160.001 983.137 163.138 971.765 167.059 961.177C176.471 936.863 188.628 912.549 209.412 895.686C224.314 885.49 240.393 876.863 256.863 869.804C308.628 847.843 363.138 832.549 419.216 826.275C423.922 825.883 424.706 832.549 420.001 833.334C366.275 844.314 312.942 860.784 263.138 883.137C245.099 892.157 225.883 900 211.373 914.118C197.648 929.02 187.844 947.451 180.001 966.275C174.903 977.647 171.373 995.687 172.942 1004.71C197.648 1034.12 226.667 1060 258.04 1082.35C429.804 1202.35 690.589 1210.2 873.334 1110.2C889.804 1101.18 905.883 1090.98 921.177 1080.39C928.628 1075.29 936.471 1070.98 942.353 1065.1C942.746 1064.71 942.353 1065.1 942.353 1065.49C942.353 1065.88 941.961 1066.27 941.961 1066.27C942.353 1061.57 940.785 1055.29 938.824 1049.02C931.765 1026.27 920.393 1002.35 908.236 981.569C889.02 950.588 856.471 930.981 823.53 915.294C800.785 904.706 776.863 896.471 752.55 888.628C728.236 880.785 703.53 874.118 678.824 868.235C672.55 866.667 674.51 857.647 680.785 858.824Z" fill="black"/>
<path d="M261.57 881.568C261.57 881.568 215.687 896.078 199.609 918.431C174.903 952.549 154.119 1019.22 131.374 1085.1C89.8049 1204.71 90.9814 1382.74 90.9814 1382.74H985.883C985.883 1382.74 986.668 1190.59 953.334 1059.61C947.452 1036.08 927.452 997.647 918.04 981.96C899.217 950.588 865.883 934.902 852.942 925.882C852.942 925.882 877.648 1078.82 704.315 1087.84C530.981 1096.86 321.57 1041.57 316.472 1009.41C311.374 976.862 261.57 881.568 261.57 881.568Z" fill="white"/>
<path d="M908.235 1389.8C661.961 1503.53 256.471 1400.78 256.471 1400.78C256.471 1400.78 248.235 1300.78 278.039 1120.78C279.216 1112.55 280.392 1104.31 281.176 1096.86C289.804 1015.29 279.216 910.98 258.039 875.686C258.039 866.667 267.451 869.02 278.039 860C282.353 856.471 288.235 856.078 291.373 858.431C296.863 866.274 311.765 904.706 316.078 912.941C360 994.118 427.059 1046.27 518.823 1055.29C643.921 1067.84 696.078 1065.88 758.431 1052.16C818.431 1038.82 845.49 1003.53 828.627 944.706C818.823 909.804 802.353 892.549 801.961 891.765C811.372 895.686 834.902 906.274 843.529 921.961C845.882 925.882 861.569 950.196 873.725 1002.35C882.353 1039.61 886.667 1070.59 891.765 1112.55C909.019 1249.8 908.235 1389.8 908.235 1389.8Z" fill="black" stroke="black" stroke-width="5.1257" stroke-miterlimit="10" stroke-linecap="round" stroke-linejoin="round"/>
<path d="M683.532 1112.94C690.895 1112.94 696.865 1106.97 696.865 1099.61C696.865 1092.24 690.895 1086.27 683.532 1086.27C676.168 1086.27 670.198 1092.24 670.198 1099.61C670.198 1106.97 676.168 1112.94 683.532 1112.94Z" fill="white"/>
<path d="M687.059 1162.35C694.423 1162.35 700.392 1156.38 700.392 1149.02C700.392 1141.66 694.423 1135.69 687.059 1135.69C679.695 1135.69 673.726 1141.66 673.726 1149.02C673.726 1156.38 679.695 1162.35 687.059 1162.35Z" fill="white"/>
</svg>
