<svg width="1200" height="1460" viewBox="0 0 1200 1460" fill="none" xmlns="http://www.w3.org/2000/svg">
<path d="M1062.75 1336.47L69.4121 1314.51C130.589 1110.2 164.706 930.196 210.589 902.745C297.647 850.588 376.079 842.353 422.745 838.039C434.51 867.059 479.216 962.353 572.157 1000C661.961 1036.47 715.294 1012.16 723.53 971.765C728.628 945.882 712.549 903.529 704.314 889.804C699.608 885.882 696.471 880 694.902 874.117L691.765 861.176C698.432 859.608 705.098 858.039 711.765 855.686C783.138 868.235 891.373 927.059 914.51 960C942.353 999.608 980.785 1098.82 979.216 1153.33C976.863 1241.96 1062.75 1336.47 1062.75 1336.47Z" fill="white"/>
<path d="M1072.16 1340.78C776.471 1336.47 360.785 1332.16 69.4123 1324.71C63.9221 1324.71 59.6084 1320 59.6084 1314.51C91.3731 1207.45 116.863 1099.61 150.981 992.941C155.295 979.608 160.001 966.667 165.491 953.334C174.903 932.549 184.314 909.412 203.922 895.294C215.295 888.628 227.452 881.961 239.216 876.079C296.079 847.843 359.216 833.334 421.961 828.235C426.667 827.843 430.589 830.588 432.157 834.51C461.961 905.883 516.079 972.157 591.765 996.863C629.02 1009.8 695.295 1020.78 712.942 974.51C718.824 952.157 710.197 928.628 702.353 907.451C700.393 903.137 698.432 898.824 696.471 895.294L698.432 897.647C690.981 891.373 686.275 880.785 684.706 871.373L682.746 863.53C681.569 858.039 685.099 852.549 690.589 851.373C697.255 849.804 703.53 848.236 709.804 846.275C764.706 850.196 877.255 905.883 916.079 945.098C938.824 971.373 951.765 1005.49 964.706 1037.26C974.118 1062.75 982.353 1089.02 987.059 1116.08C989.02 1126.27 990.197 1136.86 990.197 1147.45C989.804 1163.14 990.981 1179.22 995.295 1194.9C1008.24 1243.92 1036.86 1289.02 1069.41 1327.84L1070.2 1328.63L1070.59 1329.02C1070.59 1329.02 1070.2 1328.63 1071.77 1330.2C1072.94 1333.33 1073.33 1338.04 1072.16 1340.78ZM1053.73 1332.55C1053.33 1333.73 1052.55 1335.29 1052.94 1337.26C1052.94 1339.22 1053.73 1340.78 1054.51 1341.96C1055.69 1343.53 1055.29 1342.75 1055.29 1343.14L1054.9 1342.75C1052.16 1338.82 1046.67 1330.98 1043.92 1326.67C1011.77 1276.08 980.001 1220 978.824 1158.43C979.608 1118.04 967.059 1079.22 953.726 1041.96C944.314 1016.86 933.334 992.549 919.216 969.804C915.687 964.314 912.157 958.824 907.451 954.118C893.334 940.392 876.079 929.412 858.824 919.608C812.942 894.118 763.138 872.941 710.981 866.275L715.687 865.883C708.628 868.236 701.569 869.804 694.51 871.373L702.353 859.216C704.706 867.451 705.099 877.255 711.765 882.745C716.079 887.843 718.432 894.51 721.177 900C727.451 914.902 731.765 930.196 734.51 946.275C741.569 984.706 718.824 1016.47 681.177 1025.1C649.412 1032.55 616.079 1025.88 585.883 1016.08C504.706 990.196 445.883 919.216 414.118 842.353L424.314 848.628C362.353 847.843 300.785 860 244.706 886.667C232.55 892.549 220.001 899.216 208.628 906.275C192.55 919.216 184.706 939.608 176.471 958.039C150.981 1022.35 136.079 1089.8 119.216 1156.47C107.452 1203.53 91.7653 1270.2 80.0006 1317.65L70.5888 1304.71C354.51 1310.59 765.099 1323.14 1053.73 1332.55Z" fill="black"/>
<path d="M243.53 1334.9C243.53 1334.9 238.432 1207.84 233.334 1184.31" stroke="black" stroke-width="5.1512" stroke-miterlimit="10" stroke-linecap="round" stroke-linejoin="round"/>
<path d="M938.431 1334.9C938.431 1334.9 926.666 1256.08 926.666 1242.35C926.666 1229.02 936.862 1185.1 938.431 1146.67" stroke="black" stroke-width="5.1512" stroke-miterlimit="10" stroke-linecap="round" stroke-linejoin="round"/>
<path d="M359.218 1236.08V1189.41L471.767 1235.29C471.375 1235.29 380.786 1237.65 359.218 1236.08Z" fill="white"/>
<path d="M500.394 1233.73C500.394 1233.73 389.414 1241.18 329.806 1233.73" stroke="black" stroke-width="5.1512" stroke-miterlimit="10" stroke-linecap="round" stroke-linejoin="round"/>
<path d="M627.452 1084.31L613.334 1376.86C613.334 1376.86 737.648 1461.57 737.648 1459.22C737.648 1456.86 796.471 1354.12 796.471 1354.12L704.707 1072.55C704.707 1072.55 692.942 1084.71 627.452 1084.31Z" fill="black"/>
<path d="M655.688 990.197C655.688 990.197 601.962 1040.79 594.904 1054.12C587.845 1067.45 625.1 1088.63 625.1 1088.63C625.1 1088.63 685.1 1101.18 712.158 1076.86C712.158 1076.86 727.453 1060 724.315 1043.92C721.57 1028.24 655.688 990.197 655.688 990.197Z" fill="black"/>
<path d="M406.666 800.393C407.058 800 407.451 799.608 407.843 799.216C412.156 794.118 418.431 790.981 425.49 790.196C458.431 786.275 461.96 789.804 469.019 800.785C503.137 854.118 547.451 956.079 656.078 990.589L551.372 1097.26C545.882 1104.31 536.078 1105.49 529.019 1100.39C495.294 1075.29 427.843 998.432 390.588 904.706C382.745 885.098 381.176 863.53 385.098 843.138C384.313 842.353 400 809.804 406.666 800.393Z" fill="white"/>
<path d="M403.921 798.432C409.803 792.942 416.47 788.236 424.705 787.059C435.686 785.883 447.058 783.53 458.431 785.883C470.195 789.412 474.509 802.353 481.176 811.373C510.588 859.608 541.176 908.628 586.274 942.745C602.352 955.687 620.784 965.491 639.607 973.334C646.666 976.079 654.117 978.432 661.176 981.569C667.058 984.314 668.235 992.942 663.137 996.863C634.117 1020.39 606.666 1045.88 579.607 1072.16C573.333 1078.43 558.823 1092.94 553.333 1098.43C547.058 1106.67 534.509 1107.84 526.666 1101.57L522.744 1098.43C509.411 1087.45 497.254 1074.9 485.49 1062.35C443.529 1016.08 408.235 963.53 384.705 905.491C376.47 884.706 374.509 861.177 379.607 839.608C385.49 825.098 393.333 810.589 403.921 798.432ZM411.764 803.922C403.137 816.079 395.686 830.981 389.411 844.706L389.803 843.53C387.45 856.471 387.45 869.804 390.195 882.353C392.548 895.687 398.431 907.451 403.529 919.608C414.117 944.706 427.45 968.628 441.568 991.765C455.686 1014.9 471.764 1037.26 489.803 1058.04C501.96 1072.16 514.901 1085.88 529.803 1097.26C530.98 1098.43 532.156 1098.82 533.725 1099.61C539.215 1101.96 545.882 1100 549.411 1095.29L562.352 1081.96L575.293 1068.24C601.176 1041.18 625.882 1012.94 649.019 983.53L652.94 999.608C624.705 990.981 598.039 975.687 574.901 956.471C529.019 919.216 499.215 867.451 470.98 817.255C467.45 811.765 463.921 804.706 460.391 799.608C458.823 797.255 457.646 796.471 455.293 795.687C446.274 793.334 435.686 794.902 426.274 796.079C419.999 796.863 414.901 799.608 411.764 803.922Z" fill="black"/>
<path d="M765.49 1058.43C763.137 1071.37 753.725 1083.53 738.039 1067.45L655.294 990.198C655.294 990.198 703.529 944.315 691.764 861.178C707.843 857.649 723.137 852.55 737.255 845.884C737.647 846.668 743.137 857.256 749.412 874.903C762.745 911.374 779.608 978.433 765.49 1058.43Z" fill="white"/>
<path d="M767.844 1058.82C765.491 1077.65 751.373 1085.49 736.864 1070.98L709.021 1045.1L681.177 1019.22L653.334 993.333C651.766 991.765 651.766 989.412 652.942 987.843C674.511 962.745 685.491 928.627 685.491 895.686C685.491 883.921 683.922 872.549 681.962 860.784C681.177 856.078 685.099 851.765 690.197 851.373C705.883 850.98 721.57 849.02 737.256 845.098C737.648 844.706 738.432 845.098 738.432 845.49C769.805 911.373 779.609 987.059 767.844 1058.82ZM763.53 1058.04C772.942 988.235 762.746 915.686 730.197 853.333L729.413 852.157C729.021 851.765 728.628 850.98 728.628 850.98L741.962 854.902C726.668 862.353 710.589 867.451 694.119 870.98L701.962 859.608C704.315 883.921 702.354 908.627 695.295 931.765C687.844 954.902 676.079 976.078 658.432 993.333V987.451C672.55 1000.39 700.393 1026.67 714.119 1039.61L741.57 1065.88C751.373 1076.08 760.785 1072.16 763.53 1058.04Z" fill="black"/>
</svg>
