<svg width="1200" height="1338" viewBox="0 0 1200 1338" fill="none" xmlns="http://www.w3.org/2000/svg">
<path d="M456.864 865.883C456.864 865.883 449.021 817.255 435.687 820C403.923 827.451 301.178 849.02 238.433 882.745C224.707 890.196 214.903 896.079 203.138 907.059C181.57 927.451 166.668 980.392 148.629 1044.71C110.197 1182.35 64.3149 1334.51 64.3149 1334.51H1056.08C1056.08 1334.51 994.119 1260.39 974.511 1129.41C956.08 1006.27 919.609 961.961 913.335 954.118C896.08 932.549 816.864 889.02 778.433 872.549C719.609 847.451 660.393 900 643.531 898.824C613.727 898.039 456.864 865.883 456.864 865.883Z" fill="black" stroke="black" stroke-width="5.1257" stroke-miterlimit="10" stroke-linecap="round" stroke-linejoin="round"/>
<path d="M258.433 1334.9L240.786 1189.41" stroke="white" stroke-width="3" stroke-miterlimit="10" stroke-linecap="round" stroke-linejoin="round"/>
<path d="M943.532 1140C943.532 1140 931.768 1168.63 935.297 1197.26C938.826 1225.88 949.022 1267.84 934.513 1334.9" stroke="white" stroke-width="3" stroke-miterlimit="10" stroke-linecap="round" stroke-linejoin="round"/>
<path d="M411.372 780.392C411.372 780.392 383.137 790.588 378.039 796.079C372.941 801.569 370.588 805.098 370.588 805.098C370.588 805.098 356.47 820.785 348.627 858.824C345.098 874.902 353.333 901.177 347.058 921.961C329.019 979.608 414.509 1068.24 555.686 1120.39C662.745 1160 780.784 1123.92 797.255 1049.41C812.941 977.647 803.529 945.098 796.078 921.961C781.176 877.255 776.47 864.706 756.47 847.451C743.921 836.471 735.294 859.216 688.235 872.157C673.725 876.079 656.078 879.216 633.333 880C498.039 885.098 494.902 803.138 474.509 781.569C469.804 776.863 443.137 769.02 411.372 780.392Z" fill="white"/>
<path d="M413.725 785.882C403.529 789.804 391.764 793.726 382.745 800C380.392 802.353 377.647 805.882 375.294 808.628C367.451 818.824 362.353 831.765 358.431 843.922C354.117 856.863 352.549 868.628 354.117 882.353C354.902 894.51 356.078 907.843 353.333 920C348.627 933.726 349.804 948.235 355.294 961.961C386.666 1042.75 536.863 1120.78 620.392 1128.63C681.568 1134.9 766.666 1118.04 789.804 1054.12C801.568 1008.63 806.274 959.216 789.019 914.902C782.353 896.079 776.863 875.294 764.314 860C762.353 857.647 760 855.294 757.647 852.941L754.117 849.804C752.941 849.02 752.157 848.235 750.98 848.235C745.882 847.451 739.608 852.549 734.902 855.294C699.608 878.432 655.686 884.314 614.117 882.745C572.549 881.961 527.843 869.412 501.961 834.902C489.019 819.608 483.137 800 471.372 784.706L470.98 784.314L470.196 783.922C452.157 776.471 430.98 779.216 413.725 785.882ZM410.588 777.255C430.98 769.804 456.47 765.882 476.078 776.863C481.176 781.569 484.314 788.628 487.451 794.902C493.333 807.451 498.823 819.608 506.666 830.588C529.804 865.49 573.725 876.863 613.725 876.863C640.784 877.255 668.627 874.902 694.117 866.275C707.059 861.961 719.215 856.079 730.588 848.628C738.431 843.529 749.412 835.686 758.039 843.922C767.843 851.765 776.078 861.961 781.568 872.941C790.588 892.157 796.863 911.765 803.529 931.765C815.294 972.941 809.804 1016.08 800.392 1056.86C776.078 1128.24 686.274 1146.67 619.608 1139.61C538.039 1130.98 417.647 1067.06 367.451 1001.96C350.588 979.608 335.294 951.373 342.745 922.353C347.059 909.804 345.882 896.471 344.706 882.745C342.745 869.02 344.706 854.118 349.412 840.784C353.333 827.451 360 812.549 367.843 802.745C371.765 797.647 376.47 791.765 381.961 789.02C390.98 784.314 400.392 780 410.588 777.255Z" fill="black"/>
<path d="M689.022 877.647C655.297 885.098 620.787 885.098 586.669 882.353C541.179 878.432 494.905 863.53 462.356 830.196C454.12 822.353 446.669 812.941 439.218 805.49C436.865 803.138 436.865 799.216 439.218 796.863C441.571 794.51 445.885 794.51 447.846 797.255C455.297 806.667 461.571 815.294 469.022 823.53C506.669 865.883 565.885 878.04 620.395 876.471C642.356 875.687 664.708 873.726 685.885 866.667C693.728 863.922 697.258 875.687 689.022 877.647Z" fill="black"/>
<path d="M759.219 833.334C794.906 863.138 856.866 941.177 841.964 1115.69C834.513 1201.96 876.474 1237.65 867.062 1251.37C865.494 1253.73 863.533 1254.9 861.964 1255.29C855.298 1256.86 849.023 1260 845.886 1266.28C844.709 1269.02 842.749 1270.98 840.004 1272.55C837.651 1274.12 834.905 1274.12 832.553 1273.73C824.317 1271.77 815.298 1276.47 810.2 1283.53C808.239 1286.28 805.886 1288.24 802.356 1289.02C800.004 1289.8 797.651 1289.41 796.082 1289.02C789.415 1287.06 781.964 1289.02 776.082 1293.73C774.513 1294.9 772.945 1295.69 770.984 1295.69C767.455 1295.69 764.709 1294.12 762.356 1291.77C756.866 1286.67 749.023 1284.71 741.18 1287.45C740.396 1287.84 740.004 1287.84 739.219 1287.84C733.729 1288.63 729.415 1284.31 726.278 1276.86C723.141 1269.8 715.69 1266.67 707.847 1267.45C706.278 1267.45 704.709 1267.45 702.749 1267.06C687.454 1263.53 667.847 1242.35 667.454 1216.47C667.062 1190.98 672.945 1146.67 682.749 1125.88C712.945 1061.96 723.925 1016.08 725.494 981.569C728.631 918.432 688.631 861.961 692.553 860.785C732.553 852.55 759.219 833.334 759.219 833.334Z" fill="white"/>
<path d="M759.218 827.452C769.414 832.942 777.649 843.138 785.493 851.765C825.885 900.001 842.747 963.138 847.453 1025.1C849.022 1049.02 849.414 1073.33 847.453 1097.26L846.277 1115.29C843.532 1144.31 846.277 1174.12 856.081 1201.57C860.002 1212.55 864.708 1223.14 869.414 1234.51C872.159 1240.78 874.12 1250.2 868.238 1255.69C866.277 1258.43 861.963 1259.22 858.434 1260.39C854.904 1261.57 851.767 1263.53 849.806 1266.67C846.669 1273.33 839.61 1279.22 831.767 1277.65C825.885 1276.08 819.61 1278.82 815.296 1283.14C810.983 1289.02 805.1 1294.12 797.257 1292.94C792.159 1291.77 787.061 1290.98 781.963 1293.73C780.002 1294.51 778.434 1296.08 776.865 1297.26C772.159 1300 766.277 1299.22 761.963 1296.47C758.826 1294.51 758.042 1292.55 755.297 1291.37C751.375 1289.41 746.277 1289.02 741.963 1290.59C732.159 1293.73 725.1 1285.1 721.963 1277.26C719.218 1271.37 711.767 1270.2 705.885 1270.98C701.571 1270.98 697.257 1269.41 693.336 1267.45C676.473 1258.04 665.493 1240.39 663.14 1221.18C661.963 1202.75 664.316 1184.71 667.061 1166.67C669.022 1154.9 671.767 1142.75 675.689 1131.37C680.002 1120 685.493 1109.8 690.198 1098.43C707.846 1055.29 724.316 1008.63 721.179 961.177C718.042 928.628 705.885 898.04 690.591 869.412C689.022 865.883 685.1 859.609 690.591 857.648C712.159 852.55 732.944 843.53 751.375 830.981C754.512 829.805 756.473 827.452 759.218 827.452ZM758.826 839.216C759.61 839.216 760.395 839.216 761.179 838.824C762.355 838.04 761.571 838.432 761.571 838.432C750.983 844.314 740.002 849.412 728.63 853.726C717.649 857.648 701.963 862.354 692.944 863.922C693.728 863.53 694.512 862.746 694.512 861.569C695.297 864.707 699.218 871.765 700.395 874.903C743.924 961.569 737.257 1015.29 700.395 1102.75C696.081 1113.33 690.198 1124.31 685.885 1135.29C677.649 1159.61 674.12 1186.28 673.336 1212.16C672.159 1232.16 684.708 1255.69 704.316 1261.18C705.1 1261.18 705.493 1261.18 706.277 1261.18C712.551 1260.79 718.826 1261.96 723.924 1265.88C726.669 1267.84 729.022 1270.98 730.591 1274.51C732.159 1278.04 734.12 1282.75 738.042 1281.96C746.669 1279.22 756.473 1280.39 763.532 1286.67C766.277 1289.41 768.238 1290.98 771.767 1289.8C776.473 1286.28 781.963 1283.53 788.238 1283.14C793.336 1282.35 798.434 1286.28 803.14 1283.14C805.493 1281.57 806.669 1279.22 808.63 1277.26C814.512 1271.37 823.14 1267.45 831.767 1269.41C837.257 1270.98 840.395 1266.67 842.355 1262.35C846.277 1256.47 852.944 1253.33 859.61 1251.77C865.493 1249.41 862.747 1242.75 861.179 1237.65C856.865 1227.06 851.767 1215.69 847.845 1204.31C843.924 1192.94 840.787 1181.18 839.218 1169.02C835.296 1145.49 837.257 1120.79 838.826 1096.86C840.395 1073.33 840.002 1049.41 838.434 1025.88C833.336 965.099 815.296 901.961 773.336 856.079C769.806 851.765 765.1 847.844 761.179 843.922C760.787 842.354 760.002 841.177 758.826 839.216Z" fill="black"/>
<path d="M702.353 1085.49C632.941 1088.24 559.215 1076.47 502.745 1034.12C500.392 1032.55 503.137 1028.63 505.49 1030.59C547.451 1060.39 599.215 1072.16 650.196 1074.9C667.058 1075.69 684.706 1075.69 701.176 1074.12C709.411 1073.33 710.588 1084.71 702.353 1085.49Z" fill="black"/>
<path d="M735.689 871.765C753.336 890.197 762.748 916.079 761.571 941.569C761.571 942.746 759.611 943.138 759.219 941.961C753.728 924.314 747.454 907.452 739.219 891.373C736.473 885.883 733.728 880.393 731.375 874.903C730.983 872.157 734.121 870.197 735.689 871.765Z" fill="black"/>
<path d="M778.434 1291.37C762.748 1245.1 770.591 1194.51 780.787 1147.84C790.199 1102.35 798.434 1054.9 792.944 1008.63C792.16 1005.49 797.258 1003.92 798.042 1007.45C804.709 1054.9 798.042 1102.75 789.415 1149.41C784.709 1172.55 781.179 1195.69 780.787 1218.82C780.395 1241.18 781.571 1264.71 789.807 1285.88C792.552 1293.73 781.964 1298.82 778.434 1291.37Z" fill="black"/>
<path d="M353.335 876.079C367.06 905.098 383.531 934.51 407.06 956.471C409.021 958.039 406.668 961.569 404.315 959.608C377.648 938.824 358.825 910.196 342.354 881.177C339.217 874.118 350.197 868.628 353.335 876.079Z" fill="black"/>
<path d="M723.531 964.706C701.962 1021.96 640.786 1018.43 593.727 996.079C592.158 995.294 591.374 993.726 592.158 992.157C592.943 990.588 594.511 989.804 596.08 990.588C607.06 994.902 618.433 998.824 629.805 1000.78C663.923 1008.24 700.786 997.255 712.158 961.569C714.119 953.726 725.492 957.255 723.531 964.706Z" fill="black"/>
</svg>
