<svg width="1200" height="1345" viewBox="0 0 1200 1345" fill="none" xmlns="http://www.w3.org/2000/svg">
<path d="M1006.27 1327.84L64.7053 1334.9C64.7053 1334.9 103.529 1177.25 149.019 1041.96C165.882 991.765 173.333 927.843 213.333 897.647C258.431 863.529 321.96 850.98 363.921 836.078C386.274 828.235 403.137 828.627 418.823 824.313C418.823 826.274 419.215 827.843 419.215 829.804C419.215 829.804 461.568 955.686 571.764 1000.39C661.568 1036.86 714.901 1012.55 723.137 972.157C728.235 946.274 712.156 903.921 703.921 890.196C699.215 886.274 696.078 880.392 694.509 874.51L691.372 861.568C698.823 860 705.882 858.039 712.941 855.686C715.294 854.902 719.999 861.961 721.96 861.176C772.548 874.51 874.509 907.843 921.568 959.608C979.607 1021.57 1006.27 1327.84 1006.27 1327.84Z" fill="black"/>
<mask id="mask0_613_1238" style="mask-type:alpha" maskUnits="userSpaceOnUse" x="64" y="824" width="943" height="511">
<path d="M1006.27 1327.84L64.7053 1334.9C64.7053 1334.9 103.529 1177.25 149.019 1041.96C165.882 991.765 173.333 927.843 213.333 897.647C258.431 863.529 321.96 850.98 363.921 836.078C386.274 828.235 403.137 828.627 418.823 824.313C418.823 826.274 419.215 827.843 419.215 829.804C419.215 829.804 461.568 955.686 571.764 1000.39C661.568 1036.86 714.901 1012.55 723.137 972.157C728.235 946.274 712.156 903.921 703.921 890.196C699.215 886.274 696.078 880.392 694.509 874.51L691.372 861.568C698.823 860 705.882 858.039 712.941 855.686C715.294 854.902 719.999 861.961 721.96 861.176C772.548 874.51 874.509 907.843 921.568 959.608C979.607 1021.57 1006.27 1327.84 1006.27 1327.84Z" fill="black"/>
</mask>
<g mask="url(#mask0_613_1238)">
<path d="M471.412 894.391L418.726 947.077L471.412 999.763L524.098 947.077L471.412 894.391Z" fill="white"/>
<path d="M678.025 894.269L625.339 946.955L678.025 999.641L730.711 946.955L678.025 894.269Z" fill="white"/>
<path d="M265.074 894.234L212.388 946.92L265.074 999.606L317.76 946.92L265.074 894.234Z" fill="white"/>
<path d="M881.602 894.389L828.917 947.075L881.602 999.761L934.288 947.075L881.602 894.389Z" fill="white"/>
<path d="M375.981 1097.92L323.295 1150.61L375.981 1203.3L428.667 1150.61L375.981 1097.92Z" fill="white"/>
<path d="M582.595 1097.8L529.909 1150.49L582.595 1203.17L635.28 1150.49L582.595 1097.8Z" fill="white"/>
<path d="M786.171 1097.92L733.485 1150.61L786.171 1203.29L838.857 1150.61L786.171 1097.92Z" fill="white"/>
<path d="M471.447 1301.82L418.761 1354.51L471.447 1407.19L524.133 1354.51L471.447 1301.82Z" fill="white"/>
<path d="M678.064 1301.7L625.378 1354.39L678.064 1407.07L730.75 1354.39L678.064 1301.7Z" fill="white"/>
<path d="M265.112 1301.67L212.426 1354.35L265.112 1407.04L317.798 1354.35L265.112 1301.67Z" fill="white"/>
<path d="M881.641 1301.82L828.955 1354.51L881.641 1407.19L934.327 1354.51L881.641 1301.82Z" fill="white"/>
</g>
<path d="M1013.73 1334.51C733.726 1337.25 340.393 1343.53 64.7068 1344.71C59.2166 1344.71 54.5107 1340.39 54.5107 1334.9C74.5107 1250.59 98.8245 1167.06 124.707 1084.31C129.021 1070.59 133.334 1056.86 138.04 1043.53C147.452 1016.47 153.334 988.627 162.354 961.176C179.217 909.02 201.57 886.274 250.981 863.921C284.707 848.627 319.217 840 353.334 829.019L363.53 825.49C380.393 819.216 401.57 818.431 416.864 814.51C422.354 813.333 427.452 816.47 429.021 821.568C429.413 821.961 429.805 828.235 429.805 829.019L419.609 819.608C423.923 819.608 427.844 822.353 429.021 826.274C432.158 835.294 436.472 844.706 440.785 853.725C471.373 916.078 520.393 972.157 587.452 995.294C621.962 1007.45 666.275 1016.86 697.256 995.686C712.158 985.49 716.864 967.451 713.726 950.196C710.981 931.765 704.707 912.157 695.687 895.686L697.648 898.039C690.589 890.98 687.452 880.392 687.06 870.98L686.275 863.137C685.491 859.608 687.06 856.078 690.981 855.686C697.648 854.51 704.315 852.549 710.589 850.588C711.766 850.196 714.119 849.412 715.295 849.804C720.393 850.98 721.177 853.725 724.315 855.686C723.923 855.686 723.138 854.902 721.177 855.686H724.707C749.413 861.961 773.726 869.412 797.648 878.431C845.883 896.863 894.119 917.647 930.197 956.47C981.177 1020.39 1004.31 1222.35 1014.51 1308.24C1014.51 1309.02 1015.69 1321.18 1016.08 1322.35L1016.47 1324.71V1325.88V1326.27C1016.47 1329.02 1015.3 1332.55 1013.73 1334.51ZM998.824 1321.18C997.648 1322.35 996.472 1323.92 996.472 1325.49C996.472 1326.27 996.079 1327.06 996.472 1327.84V1327.45C996.472 1325.88 996.079 1321.18 995.687 1319.22C985.491 1223.14 973.334 1125.1 946.668 1032.16C937.648 1003.92 927.844 973.725 904.707 954.902C872.158 926.667 832.158 908.627 792.158 893.333C769.021 884.706 745.099 876.863 720.785 870.588L726.668 870.196C723.53 871.372 721.177 870.98 718.825 869.804C715.687 868.235 712.942 865.49 711.373 863.137C712.158 863.529 714.903 863.921 716.472 863.529H716.864H716.472L715.295 863.921C708.236 865.49 700.785 866.274 693.726 867.059L698.432 859.608C701.57 867.843 703.53 878.039 711.373 882.353C718.824 892.157 722.354 903.921 726.275 915.294C731.373 930.98 735.295 947.451 734.511 964.314C732.55 1011.37 684.707 1030.98 643.53 1027.84C578.432 1023.14 517.648 990.588 475.295 941.961C447.06 909.804 424.707 872.941 409.805 832.941L419.217 839.608C413.726 839.608 409.413 835.686 409.021 830.196L408.628 825.098L421.177 834.118C413.334 836.078 405.883 837.255 398.824 838.039C377.648 840.392 358.824 848.627 338.432 854.51C310.981 862.745 283.923 870.98 258.824 882.353C234.903 893.725 210.589 906.667 197.256 930.588C183.53 954.118 176.472 981.569 169.021 1008.24C161.962 1035.69 151.766 1063.14 143.138 1090.59C117.256 1172.16 94.5107 1254.51 73.7264 1337.65L63.9225 1325.1C334.511 1323.14 724.707 1321.18 998.824 1321.18Z" fill="black"/>
<path d="M659.218 984.313C659.218 984.313 632.159 1004.71 638.041 1023.92C643.924 1043.14 696.081 1040 706.277 1023.92C716.081 1007.84 671.767 980.392 659.218 984.313Z" fill="black"/>
<path d="M658.432 983.529C658.824 983.921 658.824 983.921 659.216 984.314C659.216 983.921 659.216 983.529 659.216 983.529C659.216 983.529 658.824 983.529 658.432 983.529Z" fill="white"/>
<path d="M554.512 967.844C444.316 923.138 425.493 839.217 425.493 839.217L485.493 813.727C485.493 811.766 501.571 795.295 501.179 793.727C500.787 787.844 460.787 781.57 416.865 796.08C409.806 798.432 401.179 803.138 393.336 807.452C379.218 815.687 367.846 827.452 360.787 841.962C360.787 842.354 360.395 842.354 360.395 842.746C359.61 945.883 462.748 1032.55 541.571 1061.18C589.414 1078.43 640.787 1045.49 656.081 997.256C657.257 992.942 658.434 989.021 659.218 984.707C658.826 984.315 658.826 984.315 658.434 983.923C632.944 989.021 597.649 985.491 554.512 967.844Z" fill="white"/>
<path d="M552.55 973.334C500.393 952.549 452.55 915.294 428.628 863.922C425.099 856.471 422.354 849.02 420.001 840.393C419.217 837.647 420.785 834.902 423.53 833.726C439.217 827.059 464.315 816.471 479.609 809.804C480.393 809.412 482.354 808.628 483.138 808.236C481.962 808.628 479.609 810.589 479.609 813.334C479.609 816.863 483.138 819.216 485.491 819.216L479.609 813.726C479.609 812.549 480.001 810.981 480.001 810.981C481.57 807.451 484.707 804.314 487.06 801.569C488.628 800 494.903 792.157 495.687 791.373C495.295 792.549 495.295 794.902 496.079 795.687C496.864 796.863 496.471 796.079 495.687 795.687C480.785 790.589 463.922 790.589 448.236 792.157C422.354 794.118 396.471 805.491 380.785 826.667C376.079 832.549 371.766 840 368.628 846.275C368.628 845.883 368.628 846.275 369.413 844.314C369.805 840.393 369.413 843.138 369.805 842.353V842.745C370.589 927.059 434.511 998.432 504.315 1039.61C527.06 1051.77 552.158 1065.88 578.824 1061.57C617.648 1056.08 649.805 1021.57 653.726 982.745L655.295 987.843L654.511 987.059L660.001 988.628C623.138 996.471 586.275 986.667 552.55 973.334ZM556.864 962.745C588.236 975.294 623.53 984.706 657.256 978.04C659.217 977.647 661.177 978.432 662.746 979.608C664.315 980.785 665.491 983.138 665.099 985.491C655.687 1026.67 621.57 1061.96 579.217 1067.45C565.491 1069.41 550.981 1067.45 538.04 1062.35C512.55 1052.94 488.236 1040 465.883 1024.31C405.883 983.53 351.373 919.216 351.373 842.745V842.353C351.373 841.569 350.981 844.314 351.766 840.393C352.158 838.432 352.55 838.824 352.55 838.432C360.001 823.138 373.334 811.373 388.628 804.314C407.452 795.294 427.06 789.02 447.844 785.491C458.432 783.53 507.844 776.863 507.452 794.51C506.668 797.647 504.707 799.608 503.138 801.961C500.393 805.491 494.903 811.765 492.158 815.294C492.158 815.294 491.373 816.079 491.766 816.079V815.687C491.766 815.687 492.158 814.51 492.158 813.726L486.275 808.236C487.06 808.236 489.413 808.628 490.197 810.196C492.55 812.549 492.158 816.863 489.805 818.824C487.844 820 488.628 819.608 488.236 819.608H487.844L487.452 820C485.883 820.785 482.746 821.961 480.785 822.745C467.06 828.628 442.354 839.216 428.236 845.098L431.766 838.432C433.726 845.098 436.471 852.549 439.609 859.216C463.138 907.059 507.452 942.745 556.864 962.745Z" fill="black"/>
<path d="M764.315 956.078C758.04 901.568 728.629 870.98 713.727 855.294C706.668 857.647 694.903 860.392 687.452 861.961C687.452 861.961 712.942 894.902 706.276 939.608C703.138 960.784 687.06 976.863 659.609 983.137C659.609 983.529 659.609 983.529 659.217 983.921C669.413 995.686 678.04 1021.18 710.589 1036.47C732.942 1047.06 747.06 1034.9 756.864 1012.55C765.099 993.333 766.276 971.372 764.315 956.078Z" fill="white"/>
<path d="M759.609 956.863C756.079 919.216 738.04 884.314 712.158 856.863L714.511 857.255C705.883 861.177 697.648 864.706 688.628 867.843L692.158 858.432C707.452 880.392 714.903 906.667 712.942 933.333C712.158 963.137 688.236 983.53 660.785 989.02L665.099 985.098L664.707 985.882L663.53 980C673.726 993.726 679.217 1007.06 691.766 1018.04C701.962 1026.67 716.471 1037.65 730.197 1035.29C756.864 1027.45 762.354 980.392 759.609 956.863ZM769.021 955.686C771.766 980.784 767.452 1006.67 753.726 1027.84C735.295 1056.86 706.275 1043.92 685.099 1025.88C672.55 1015.69 663.922 1000 654.511 987.843C651.373 984.314 653.726 978.039 658.04 977.255C669.413 974.51 680.393 969.804 688.236 961.961C712.158 938.432 700.001 889.804 682.746 865.098L681.962 861.961C681.177 859.216 682.746 856.471 685.099 855.686C694.511 854.51 703.922 854.118 712.942 852.549C713.726 852.157 714.511 852.549 715.295 852.941C744.315 880.392 764.315 916.471 769.021 955.686Z" fill="black"/>
</svg>
