<svg width="1200" height="1379" viewBox="0 0 1200 1379" fill="none" xmlns="http://www.w3.org/2000/svg">
<path d="M898.434 943.922C868.63 916.863 773.336 874.51 701.963 857.255C670.591 849.804 596.865 828.236 540.787 822.745C510.591 819.608 454.905 827.059 420.003 828.236C386.277 829.412 272.552 852.549 218.042 890.981C206.277 899.216 153.728 951.373 130.983 1085.1C113.336 1188.24 91.3751 1321.96 90.5908 1367.45H984.316C999.218 1101.57 929.414 972.157 898.434 943.922Z" fill="black"/>
<path d="M891.766 951.372C873.727 936.078 850.589 924.313 829.021 914.117C795.295 898.039 760.001 884.313 723.923 873.725C687.844 863.921 650.197 854.509 614.119 845.882C589.805 840.392 565.099 835.686 540.393 832.941C516.472 830.98 490.589 833.725 466.276 835.294C447.844 836.862 428.629 837.647 409.805 839.215C354.903 846.666 299.217 861.176 249.021 884.705C239.609 889.411 230.589 894.117 222.354 900.392C201.57 919.215 186.668 945.49 174.903 970.98C155.688 1013.33 145.099 1059.61 138.04 1105.49C132.158 1141.57 125.099 1181.96 119.609 1218.04C112.158 1267.45 103.531 1317.65 101.178 1367.45L90.9817 1357.25H984.315L974.119 1366.67C979.609 1258.43 974.903 1147.06 940.786 1043.14C929.413 1010.98 915.687 976.47 891.766 951.372ZM905.491 936.47C920.393 950.588 930.197 966.666 940.786 983.529C970.589 1032.55 984.707 1088.23 992.55 1144.71C1003.53 1218.43 1003.14 1293.72 994.903 1367.84C994.903 1373.33 990.197 1377.65 984.707 1377.25H91.3738C85.8836 1377.25 81.1777 1372.55 81.1777 1367.06C81.5699 1353.72 83.1385 1341.18 84.315 1328.23C88.6287 1290.2 94.5111 1252.55 100.786 1214.9C106.276 1178.82 113.727 1138.43 119.609 1102.35C127.452 1054.9 138.433 1007.06 158.04 963.137C171.374 934.901 186.668 907.058 210.589 885.882C220.001 878.823 230.197 872.941 240.786 867.843C293.727 843.137 350.197 828.627 407.452 820.392C426.276 818.823 445.491 818.039 464.707 816.078C490.589 814.117 515.688 811.372 542.354 813.333C568.237 816.078 593.335 820.784 618.433 826.274C656.08 834.901 692.55 843.921 729.805 854.117C766.668 865.097 802.746 878.823 837.648 895.294C861.57 907.843 884.315 918.823 905.491 936.47Z" fill="black"/>
<path d="M914.903 1367.45C888.628 1118.04 836.864 990.978 836.864 990.978C824.707 923.92 792.55 870.978 782.354 866.273C763.923 858.037 760.785 860.782 760.785 860.782C790.589 901.175 805.883 969.802 809.805 1005.49C697.256 1054.51 489.413 1020.39 416.864 1004.7C392.942 961.959 347.06 872.547 307.06 838.429C303.53 835.684 298.824 835.292 294.903 836.861C291.766 838.429 287.452 841.175 283.53 845.88C281.57 848.233 281.57 851.371 283.923 853.724C284.315 854.116 284.707 854.508 285.099 854.9C351.766 927.841 388.236 1055.29 379.217 1153.72C363.138 1328.63 332.55 1367.06 332.55 1367.06H914.903V1367.45Z" fill="white"/>
<path d="M907.452 1360.78C903.923 1347.45 901.57 1334.51 900.785 1320.78C889.021 1209.8 872.55 1097.25 833.334 992.548L838.825 994.509C836.864 995.685 834.511 994.901 833.334 993.332C827.844 967.058 820.001 941.175 808.236 916.862C800.393 901.175 792.55 885.097 780.393 872.94C775.687 870.587 769.413 868.626 764.315 867.058C763.53 866.666 762.746 866.666 762.354 866.666C762.354 866.666 762.354 866.666 762.746 866.666H763.138C763.531 866.666 763.138 866.666 763.923 865.881L764.707 858.43C768.236 864.313 776.08 878.823 778.825 884.705C791.374 910.979 799.217 939.607 805.491 967.842C807.844 980.391 810.197 993.332 811.766 1006.27C811.766 1007.45 811.374 1008.23 810.197 1009.02C748.236 1034.9 679.609 1037.25 613.334 1036.47C580.001 1035.69 546.668 1032.94 513.727 1029.41C480.785 1025.49 447.844 1020.39 414.903 1013.72C412.55 1013.33 410.981 1011.76 409.805 1010.2C393.727 981.568 378.825 953.332 362.354 925.489C346.276 898.43 329.413 870.195 306.668 848.234L302.746 844.705C297.256 840.783 290.981 847.842 287.06 851.372C286.668 851.764 286.668 852.156 287.06 852.548L287.452 852.94C300.001 867.058 310.981 882.352 320.785 898.43C338.04 926.666 351.374 956.47 365.491 986.274C385.883 1032.16 386.668 1083.14 386.276 1132.55C383.923 1181.57 378.04 1230.59 370.197 1278.82C363.531 1311.76 357.648 1346.27 340.001 1375.69L332.158 1359.21C515.295 1356.47 723.923 1358.04 907.452 1360.78ZM922.746 1374.51C734.511 1377.25 520.393 1378.82 332.158 1377.65L324.315 1361.18C336.08 1341.57 341.57 1318.82 347.844 1296.86C358.04 1258.04 364.707 1218.43 369.413 1178.43L372.158 1154.51C379.217 1098.43 361.178 1043.92 349.021 989.803C339.609 942.744 315.687 898.823 284.315 862.744L280.393 858.43L280.001 858.038L279.609 857.646C277.648 855.293 276.472 852.548 276.472 849.411C276.864 843.921 281.962 839.607 285.883 836.47C293.727 829.803 303.923 828.626 311.766 836.47C325.491 848.234 336.472 861.96 347.06 876.077C376.08 915.293 399.609 958.823 423.138 1001.57L418.04 997.646C482.354 1011.37 547.844 1021.18 613.727 1025.49C678.825 1028.63 747.06 1028.63 808.236 1003.53L806.668 1006.27C805.099 993.725 803.138 981.175 800.393 968.626C794.903 943.921 786.668 919.607 775.687 896.47C773.727 892.156 769.021 883.921 766.668 879.607C763.531 874.117 759.609 869.019 755.687 864.313C753.334 861.568 754.903 857.646 757.256 856.077C765.099 852.156 774.119 856.862 781.57 859.607C783.138 860.391 785.883 861.568 787.452 862.744C801.57 876.077 809.413 894.901 817.256 912.156C822.746 924.705 827.06 937.646 830.589 950.587C834.511 963.528 837.256 976.862 839.609 990.195L833.727 987.45C835.687 986.274 838.04 986.666 839.217 988.626C866.276 1064.7 885.099 1143.92 900.393 1223.14C906.668 1254.9 911.766 1286.67 916.864 1318.43C921.178 1336.86 922.354 1356.47 922.746 1374.51Z" fill="black"/>
<path d="M443.923 1092.16C454.319 1092.16 462.747 1083.73 462.747 1073.33C462.747 1062.94 454.319 1054.51 443.923 1054.51C433.527 1054.51 425.1 1062.94 425.1 1073.33C425.1 1083.73 433.527 1092.16 443.923 1092.16Z" fill="black"/>
<path d="M806.668 1069.8C815.764 1069.8 823.138 1062.43 823.138 1053.33C823.138 1044.24 815.764 1036.86 806.668 1036.86C797.571 1036.86 790.197 1044.24 790.197 1053.33C790.197 1062.43 797.571 1069.8 806.668 1069.8Z" fill="black"/>
</svg>
