<svg width="1200" height="1378" viewBox="0 0 1200 1378" fill="none" xmlns="http://www.w3.org/2000/svg">
<path d="M356.471 841.568C370.197 865.881 422.354 963.529 430.589 1049.8L479.216 1066.27C479.216 1066.27 442.354 903.136 376.471 827.45C376.471 827.45 368.628 823.921 358.824 830.587C355.687 833.332 354.118 837.646 356.471 841.568Z" fill="black"/>
<path d="M773.725 1050.98C773.725 1050.98 776.078 942.352 729.019 870.979C727.843 869.019 729.411 866.274 731.764 866.666C734.901 867.45 739.607 868.626 747.058 872.156C759.607 878.038 800.392 940.391 803.921 1042.74C803.921 1042.35 777.647 1050.98 773.725 1050.98Z" fill="black"/>
<path d="M907.842 949.019C887.45 927.45 825.882 895.293 815.293 896.077C815.685 896.862 815.686 898.038 816.078 899.215C832.548 958.43 819.215 1038.82 759.215 1052.16C696.862 1065.88 644.705 1067.84 519.607 1055.29C427.842 1046.27 341.568 963.921 297.646 882.352C293.333 874.117 288.235 865.881 282.744 858.43C279.607 856.077 273.725 856.47 269.411 859.999C258.431 869.019 243.921 868.234 243.921 876.862C243.921 876.862 160.784 902.744 131.764 1085.1C115.293 1188.23 92.1561 1321.96 91.3718 1367.45H984.313C978.038 1306.27 984.313 1033.72 907.842 949.019Z" fill="black"/>
<path d="M900.393 956.077C888.628 944.313 873.334 935.293 858.824 926.666C845.491 918.822 829.02 910.195 815.295 906.273L824.315 893.724L824.707 896.077C835.687 941.96 833.334 996.47 801.569 1034.12C790.589 1046.67 774.511 1055.69 758.04 1058.43C727.452 1064.7 695.687 1068.23 664.314 1068.23C609.413 1067.84 555.295 1063.53 501.177 1056.08C462.746 1047.84 427.06 1028.63 396.079 1004.7C352.55 970.979 319.216 926.666 288.236 881.568C283.922 875.293 278.824 869.411 273.334 864.313L275.295 866.666C276.079 867.45 276.471 867.058 276.079 867.058C276.079 867.058 275.295 867.058 274.903 867.45C274.511 867.45 274.511 867.45 274.118 868.234C267.844 873.724 257.648 876.469 251.373 879.999C251.765 879.999 252.55 877.646 252.55 877.254L245.491 886.666L244.314 887.058L242.746 887.842C189.02 916.862 163.138 985.881 149.02 1042.35C135.295 1106.67 127.06 1172.94 116.079 1237.65C109.805 1280.78 101.962 1325.1 100.001 1367.84L89.8047 1357.65H984.315L974.511 1368.63C966.275 1260 970.589 1039.61 900.393 956.077ZM915.295 942.352C990.981 1030.59 986.275 1252.16 994.511 1366.67C994.903 1372.16 990.981 1377.25 985.491 1377.65C985.099 1378.43 91.7655 1377.25 91.3733 1377.65C85.8831 1377.65 81.1772 1373.33 81.1772 1367.84C81.9616 1344.7 85.0988 1322.35 87.8439 1300.39C96.8635 1234.51 107.844 1169.02 118.432 1103.53C125.099 1059.61 134.118 1014.51 151.765 972.94C169.413 931.764 195.687 888.626 238.04 868.626C238.824 868.234 239.609 867.842 240.785 867.45L233.726 876.862C233.334 863.136 248.236 859.607 257.648 855.685C263.922 852.156 269.02 847.058 276.864 847.058C280.785 846.666 287.844 848.234 290.981 852.94C296.471 863.92 301.177 874.901 305.883 885.881C313.726 903.528 323.922 919.999 335.687 935.293C378.04 989.018 435.295 1036.08 503.53 1049.8C526.275 1053.72 549.805 1054.51 572.55 1056.47C634.118 1060.78 696.079 1061.57 756.079 1046.67C770.197 1043.53 782.354 1036.08 791.373 1025.1C818.04 991.371 818.04 941.96 806.275 901.96L805.491 898.822C803.53 892.94 808.236 886.273 814.511 886.273C825.883 886.666 834.511 892.156 844.707 896.469C869.805 909.019 894.511 922.352 915.295 942.352Z" fill="black"/>
<path d="M783.139 1094.51C718.825 1121.96 507.453 1128.23 400.002 1070.2C332.159 1033.72 288.237 953.332 267.061 922.352C251.374 898.822 243.531 876.862 243.531 876.862C243.531 868.234 258.433 869.019 269.021 859.999C273.335 856.47 279.218 856.077 282.355 858.43C287.845 866.273 292.943 874.117 297.257 882.352C341.178 963.528 410.59 1045.1 519.218 1055.29C644.316 1067.06 696.472 1065.88 758.825 1052.16C818.825 1038.82 832.159 958.43 815.688 899.215C815.296 898.43 815.296 897.254 814.904 896.077C825.492 895.293 845.884 897.254 853.335 916.077C853.727 916.077 883.923 1051.76 783.139 1094.51Z" fill="white"/>
<path d="M785.491 1100C759.609 1110.59 732.55 1114.51 705.491 1117.65C678.432 1120.78 651.373 1121.96 624.314 1121.96C556.471 1121.18 487.452 1114.9 423.53 1090.59C350.589 1064.31 303.53 998.038 264.314 935.293C252.55 918.038 241.569 900.391 234.903 880.391C232.942 875.293 236.079 868.234 240.393 865.097C246.275 860.391 252.942 860.391 258.824 858.038C262.746 856.861 265.099 854.508 268.628 852.548C274.903 849.803 281.962 847.45 289.805 850.979C334.903 949.41 409.02 1043.53 525.099 1051.76C601.962 1058.82 680.393 1066.67 756.471 1049.02C787.06 1043.92 807.06 1016.47 814.118 987.45C821.962 958.038 819.609 926.273 811.373 897.254C810.589 894.509 812.55 891.763 815.295 891.763C832.158 890.195 852.942 897.646 858.824 915.293C865.491 950.587 865.491 986.665 855.295 1020.78C845.099 1055.68 819.217 1086.27 785.491 1100ZM780.785 1089.02C812.158 1076.47 835.295 1049.8 845.883 1018.04C856.471 985.881 857.648 950.195 850.981 916.861C846.275 903.92 829.805 898.43 815.687 900.391L819.609 894.901C832.942 945.097 830.197 1017.25 780.393 1047.45C773.334 1051.37 765.491 1054.12 757.648 1055.69C742.354 1058.82 726.667 1061.57 711.373 1063.53C649.02 1070.19 586.275 1065.1 524.314 1060C418.04 1054.51 336.079 970.979 290.589 880.783C287.452 873.724 283.922 867.058 280.393 859.999L281.177 860.783C275.295 857.254 269.02 865.489 263.53 867.45C258.432 870.195 252.942 871.371 248.628 874.116C247.844 874.901 247.452 875.685 247.452 876.861V875.685C256.471 900.391 272.942 922.744 287.06 944.705C322.746 999.607 365.883 1054.9 429.413 1077.65C518.04 1112.94 689.805 1121.57 780.785 1089.02Z" fill="black"/>
</svg>
