<svg width="936" height="1312" viewBox="0 0 936 1312" fill="none" xmlns="http://www.w3.org/2000/svg">
<path d="M925.882 1091.76C923.137 1093.73 920 1095.69 917.254 1097.65C914.117 1099.61 911.372 1101.57 908.235 1103.14C905.49 1104.71 903.137 1106.27 900.392 1107.84C900 1108.24 899.607 1108.24 899.215 1108.63C890.196 1114.12 880.784 1119.22 871.372 1123.92C868.627 1125.49 865.49 1127.06 862.745 1128.24C862.745 1128.24 862.353 1128.63 861.96 1128.63C858.823 1130.2 855.686 1131.76 852.549 1133.33C846.274 1136.47 839.607 1139.22 833.333 1141.96C830.196 1143.53 826.666 1144.71 823.529 1145.88C820.392 1147.06 816.862 1148.63 813.725 1149.8C810.588 1150.98 807.058 1152.55 803.921 1153.73C803.921 1153.73 803.921 1153.73 803.529 1153.73C800.392 1154.9 796.862 1156.08 793.725 1157.26C786.666 1159.61 779.215 1161.96 772.156 1164.31C769.803 1165.1 767.058 1165.88 764.705 1166.67C757.254 1169.02 749.804 1170.98 742.353 1172.55C739.607 1173.33 736.862 1173.73 733.725 1174.51C726.666 1176.08 719.215 1177.65 712.156 1179.22C710.588 1179.61 709.411 1179.61 707.843 1180C705.49 1180.39 702.745 1180.78 700.392 1181.18C696.862 1181.57 693.725 1182.35 690.196 1182.75C688.627 1183.14 687.058 1183.14 685.49 1183.53C683.529 1183.92 681.176 1184.31 678.823 1184.31C672.549 1185.1 665.882 1185.88 659.607 1186.67C657.647 1187.06 655.294 1187.06 653.333 1187.45H652.941C650.196 1187.84 647.451 1187.84 644.705 1188.24C641.96 1188.63 639.215 1188.63 636.47 1188.63C634.902 1188.63 632.941 1189.02 631.372 1189.02C628.235 1189.02 625.49 1189.41 622.745 1189.41C618.823 1189.41 615.294 1189.8 611.372 1189.8C607.451 1189.8 603.921 1189.8 600 1189.8C597.254 1189.8 594.509 1189.8 591.764 1189.8C426.274 1187.45 277.647 1117.26 171.372 1005.88C171.372 1005.88 171.372 1005.49 170.98 1005.49C183.137 981.569 228.235 938.432 275.294 902.745C291.764 890.588 278.823 865.098 297.255 856.863C350.588 833.334 419.215 829.804 419.215 829.804C419.215 829.804 474.509 820.785 679.607 863.53C869.804 903.137 863.137 921.961 925.882 1091.76Z" fill="white"/>
<path d="M680.784 858.824C726.274 868.236 772.941 874.902 816.862 891.765C847.843 903.53 872.548 927.844 885.882 957.647C905.49 1000.39 918.039 1045.1 935.294 1088.24C936.862 1092.55 935.294 1097.65 931.764 1100C816.47 1180.78 670.588 1210.59 532.156 1194.51C393.333 1178.82 258.431 1116.86 163.529 1012.55C160.392 1009.41 159.999 1004.71 161.96 1001.18C173.333 976.471 186.666 951.765 201.96 928.628C221.96 899.608 245.882 871.765 277.647 855.295C296.47 846.275 317.254 841.569 337.646 836.863C364.313 830.589 392.156 827.451 419.215 826.275C423.921 826.275 424.313 832.942 419.999 833.334C379.607 838.432 340.784 847.844 302.352 860.393C263.921 872.549 236.862 904.314 214.117 936.471C198.823 958.432 185.097 981.961 173.333 1005.88L172.941 1003.92C195.294 1030.2 220.392 1053.73 247.843 1074.12C382.352 1174.51 574.509 1199.22 735.686 1161.57C801.176 1146.27 863.921 1119.22 919.215 1081.18C919.215 1081.18 914.509 1095.69 914.901 1095.69C904.705 1066.27 895.686 1036.47 886.274 1007.45C876.862 978.432 867.45 949.02 847.45 928.628C826.666 907.451 797.254 898.04 769.019 889.804C739.607 881.569 709.411 874.902 679.215 867.844C672.548 866.667 674.509 857.647 680.784 858.824Z" fill="black"/>
<path d="M383.139 997.255C383.139 997.255 546.668 1069.41 691.766 1061.57C742.354 1058.82 790.59 1046.67 829.021 1018.04C829.021 1018.04 837.648 1096.86 724.315 1143.14C611.374 1189.41 418.041 1063.14 383.139 997.255Z" fill="black"/>
<path d="M665.101 1061.96C665.101 1061.96 630.199 1169.8 596.473 1174.12C562.748 1178.43 383.532 1034.9 369.022 992.549C369.022 992.549 521.572 1057.65 665.101 1061.96Z" fill="white"/>
<path d="M668.238 1060C669.415 1060.78 668.63 1063.92 668.63 1063.53V1063.92V1064.31L668.238 1065.1C658.042 1094.9 631.768 1173.33 598.042 1180C563.14 1182.74 465.101 1103.14 435.689 1078.43C421.964 1066.67 408.238 1054.51 395.297 1041.57C381.964 1027.45 367.846 1014.51 360.003 996.078C356.866 988.235 365.493 980.392 372.944 983.921C395.689 993.725 419.611 1003.14 443.532 1011.37C503.14 1031.76 564.709 1048.23 627.454 1055.69C640.787 1056.86 654.905 1056.86 668.238 1060ZM661.964 1064.31C656.474 1065.49 651.375 1065.88 645.493 1065.1C574.905 1061.57 505.493 1046.67 438.042 1026.27C413.336 1018.82 389.415 1010.59 365.101 1001.18L378.042 989.019C384.317 1003.92 396.866 1016.47 407.846 1028.23C420.003 1041.18 432.944 1053.33 446.277 1065.1C472.944 1089.02 500.395 1111.37 529.415 1132.16C543.924 1142.35 558.826 1152.55 574.121 1160.39C580.395 1163.53 589.415 1168.23 596.081 1167.84C616.081 1162.74 632.16 1127.84 641.179 1109.8C648.63 1093.73 655.297 1077.25 661.179 1060.78C661.964 1060 660.787 1063.53 661.964 1064.31Z" fill="black"/>
<path d="M665.101 1061.96C665.101 1061.96 719.219 1145.1 743.14 1149.41C767.062 1153.73 815.689 1077.26 826.67 1019.22C827.062 1019.61 779.219 1060.39 665.101 1061.96Z" fill="white"/>
<path d="M669.807 1064.31C670.591 1063.14 670.591 1060.39 669.807 1059.61C669.807 1059.22 669.807 1059.61 669.807 1059.61C670.983 1061.18 673.336 1064.31 674.513 1066.27C686.278 1082.75 698.434 1099.22 711.768 1114.12C721.572 1124.71 730.591 1136.08 743.533 1141.96C760.787 1145.1 789.023 1095.29 795.689 1080.78C805.493 1060.39 813.729 1038.82 817.65 1017.26L833.729 1026.67C830.199 1029.41 827.454 1031.37 823.532 1033.33C794.905 1049.8 762.356 1058.43 729.807 1063.14C715.689 1065.49 701.18 1066.27 686.67 1066.67C680.395 1067.06 676.082 1065.49 669.807 1064.31ZM660.395 1059.61C681.964 1054.12 705.493 1054.51 727.062 1049.8C753.729 1044.31 780.787 1036.08 804.317 1022.75C809.807 1019.61 815.297 1016.08 820.003 1012.16C826.67 1005.88 838.042 1012.55 836.081 1021.57C827.062 1063.92 795.297 1129.8 758.434 1153.33C747.454 1160 736.082 1157.26 726.67 1149.02C716.866 1141.18 709.023 1131.76 701.572 1122.75C687.062 1105.1 674.121 1086.27 661.572 1067.06L660.787 1066.27L660.395 1065.88C660.003 1063.92 659.611 1061.18 660.395 1059.61Z" fill="black"/>
<path d="M984.315 1367.45H90.9814C91.7658 1321.96 96.8638 1183.92 131.374 1085.1C146.276 1041.96 169.021 950.196 189.805 922.745C192.158 919.608 194.511 916.078 197.256 912.941C228.629 878.431 274.903 856.471 280.393 853.726C285.491 850.98 290.589 852.549 293.727 854.902C695.687 1293.73 865.491 1020 826.276 903.529C826.276 903.529 826.276 903.137 826.668 903.137C830.197 903.137 856.08 910.588 883.923 929.804C916.08 951.765 938.432 985.098 948.629 1022.35C956.472 1052.16 968.236 1098.82 975.687 1146.67C975.687 1147.06 976.08 1147.45 976.08 1147.84C995.687 1196.08 965.883 1198.04 976.08 1273.73C980.001 1303.14 982.746 1334.12 984.315 1367.45Z" fill="white"/>
<path d="M991.374 1374.51C699.609 1377.65 381.57 1378.04 90.9817 1377.65C85.4915 1377.65 81.1777 1373.33 81.1777 1367.84C83.1385 1293.73 90.1973 1219.61 107.06 1147.45C111.374 1129.41 116.472 1111.37 122.354 1093.73C132.55 1064.71 141.57 1035.69 151.374 1006.67C161.57 977.647 170.197 947.059 187.452 921.176C198.433 905.882 212.942 893.725 227.844 882.745C242.746 871.765 258.825 862.353 275.295 854.118L279.609 852.157C281.178 851.373 283.139 850.98 284.707 850.588C288.629 850.196 292.55 851.373 295.295 854.118C337.256 899.608 381.57 943.137 429.805 981.961C465.884 1010.98 504.315 1037.65 545.491 1058.04C611.374 1090.98 697.648 1110.2 761.57 1063.53C797.648 1037.25 820.001 994.118 822.746 949.804C823.531 935.294 821.962 920.392 816.864 907.451C816.08 904.706 816.08 901.961 817.648 900C819.609 895.686 825.099 893.725 829.413 895.294C847.452 900.784 863.139 910.98 878.433 921.569C910.59 940.784 936.08 971.373 949.413 1006.27C961.178 1041.18 969.021 1076.86 976.864 1112.55C978.825 1121.96 982.354 1139.61 983.139 1145.1C985.099 1149.41 988.629 1158.82 989.805 1165.1C994.511 1183.92 987.06 1203.92 984.707 1221.57C982.354 1238.43 983.531 1255.69 985.884 1272.94L983.139 1281.18C983.923 1280.39 985.099 1278.82 985.884 1276.47C986.668 1274.51 985.884 1271.37 985.884 1271.37C985.884 1271.76 986.276 1272.55 986.276 1274.12V1272.94C989.413 1296.47 992.158 1320 993.727 1343.53L994.511 1355.29C994.119 1361.18 994.119 1369.41 991.374 1374.51ZM977.256 1360.78C975.688 1360.39 974.119 1361.57 974.119 1361.96L973.727 1356.47C972.158 1329.41 969.805 1302.35 965.884 1275.69V1274.51C965.884 1276.08 966.276 1277.25 966.276 1277.25C966.276 1277.65 966.276 1277.25 965.884 1276.47C965.884 1275.69 965.491 1273.73 965.884 1271.76C966.276 1269.8 967.452 1268.24 968.629 1267.06L965.884 1275.29C961.178 1248.24 963.923 1217.65 970.982 1191.37C974.511 1177.25 970.982 1162.35 965.884 1150.59C963.531 1138.82 961.962 1127.06 959.609 1115.29C954.511 1088.63 948.237 1062.35 941.57 1036.47C935.688 1011.37 925.491 987.059 909.021 967.059C887.844 941.176 858.041 922.745 825.884 913.725H825.491H825.884L834.119 909.02L833.727 909.412L834.903 901.176C845.491 933.333 841.178 967.843 829.805 998.823C788.237 1104.31 681.57 1125.88 583.139 1088.63C523.531 1067.06 470.197 1030.98 421.57 991.765C372.942 952.157 328.237 908.235 286.276 862.353L287.452 863.529C286.668 863.137 285.884 862.745 285.491 862.745C267.844 870.98 250.59 881.569 234.903 892.941C216.08 907.059 198.04 923.137 189.021 943.137C183.923 953.725 179.609 964.706 175.688 976.078C163.531 1010.59 154.119 1045.88 142.746 1081.18C139.217 1092.16 134.903 1104.71 131.766 1115.69C109.413 1197.65 102.746 1283.14 100.393 1367.84L90.5895 1358.04C386.668 1357.65 681.178 1359.22 977.256 1360.78Z" fill="black"/>
<path d="M365.491 1367.45H90.9814C91.7658 1321.96 96.8638 1183.92 131.374 1085.1C146.276 1041.96 162.746 960.392 183.53 932.941C185.883 929.804 325.099 953.333 359.609 1211.37C369.413 1284.71 366.276 1318.04 365.491 1367.45Z" fill="black"/>
<path d="M919.218 1300.78C926.669 1155.29 921.571 1075.69 913.336 1021.57C905.885 973.333 880.787 937.254 880.787 937.254C887.454 944.705 908.238 958.823 914.12 968.627C922.748 983.529 930.983 1001.18 938.434 1020.39C938.434 1020.78 938.826 1021.18 938.826 1021.57C960.003 1077.65 975.689 1147.45 986.669 1207.06C990.591 1236.08 993.728 1267.06 994.905 1300.39H919.218V1300.78Z" fill="black"/>
<path d="M256.472 924.313C254.903 924.313 253.335 923.529 252.158 922.353C250.59 920.392 249.413 919.215 249.413 919.215C247.452 916.862 247.845 912.941 250.197 910.98C252.55 909.019 256.472 909.411 258.433 911.764C258.433 911.764 259.217 912.941 260.786 914.509C262.747 916.862 262.747 920.784 260.001 922.745C259.217 923.921 257.648 924.313 256.472 924.313Z" fill="black"/>
<path d="M662.747 1179.22C660.001 1179.22 657.256 1179.22 654.511 1178.82C651.374 1178.82 648.629 1176.08 649.021 1172.55C649.021 1169.41 651.766 1166.67 655.296 1167.06C658.041 1167.06 660.394 1167.06 663.139 1167.45C666.276 1167.45 669.021 1170.2 669.021 1173.33C668.629 1176.86 666.276 1179.22 662.747 1179.22ZM709.805 1175.29C707.06 1175.29 704.707 1173.33 703.923 1170.59C703.139 1167.45 705.492 1164.31 708.629 1163.53C710.982 1163.14 713.727 1162.35 716.08 1161.96C719.217 1161.18 722.354 1163.14 723.139 1166.27C723.923 1169.41 721.962 1172.55 718.825 1173.33C716.08 1174.12 713.727 1174.51 710.982 1174.9C710.59 1175.29 710.198 1175.29 709.805 1175.29ZM608.237 1172.94C607.845 1172.94 607.452 1172.94 607.06 1172.94C604.315 1172.55 601.962 1171.76 599.217 1170.98C596.08 1170.2 594.119 1167.06 594.903 1163.92C595.688 1160.78 598.825 1158.82 601.962 1159.61C604.315 1160.39 607.06 1160.78 609.413 1161.18C612.55 1161.96 614.511 1165.1 614.119 1168.23C613.335 1170.98 610.982 1172.94 608.237 1172.94ZM761.962 1157.65C760.001 1157.65 757.648 1156.47 756.864 1154.51C755.296 1151.76 756.472 1148.23 759.609 1146.67C761.962 1145.49 764.315 1144.31 766.276 1143.14C769.021 1141.57 772.55 1142.74 774.119 1145.49C775.688 1148.23 774.511 1151.76 771.766 1153.33C769.413 1154.51 767.06 1156.08 764.707 1157.25C763.531 1157.25 762.747 1157.65 761.962 1157.65ZM555.688 1157.25C554.903 1157.25 554.119 1157.25 553.727 1156.86C551.374 1156.08 548.629 1154.9 546.276 1154.12C543.139 1152.94 541.962 1149.41 543.139 1146.27C544.315 1143.14 547.845 1141.96 550.982 1143.14C553.335 1143.92 555.688 1145.1 558.041 1145.88C561.178 1147.06 562.747 1150.59 561.57 1153.33C560.001 1155.69 558.041 1157.25 555.688 1157.25ZM505.492 1134.51C504.707 1134.51 503.531 1134.12 502.746 1133.73C500.394 1132.55 498.041 1131.37 495.688 1129.8C492.943 1128.23 491.766 1124.71 493.335 1121.96C494.903 1119.22 498.433 1118.04 501.178 1119.61C503.531 1120.78 505.884 1121.96 507.845 1123.14C510.59 1124.71 511.766 1128.23 510.197 1130.98C509.413 1133.33 507.452 1134.51 505.492 1134.51ZM806.276 1125.49C804.707 1125.49 803.139 1125.1 801.962 1123.92C799.609 1121.57 799.609 1118.04 801.962 1115.69C803.923 1113.73 805.492 1112.16 807.06 1110.2C809.413 1107.84 812.943 1107.45 815.296 1109.8C817.648 1112.16 818.041 1115.69 815.688 1118.04C813.727 1120 812.158 1121.96 810.198 1123.92C809.413 1125.1 807.845 1125.49 806.276 1125.49ZM458.433 1105.88C457.256 1105.88 456.08 1105.49 455.296 1104.71C452.943 1103.14 450.982 1101.57 448.629 1100.39C445.884 1098.43 445.099 1094.9 447.06 1092.16C449.021 1089.41 452.55 1088.63 455.296 1090.59C457.256 1092.16 459.609 1093.33 461.962 1094.9C464.707 1096.86 465.492 1100.39 463.531 1103.14C461.962 1105.1 460.001 1105.88 458.433 1105.88ZM838.041 1080.78C837.256 1080.78 836.472 1080.78 835.296 1080C832.55 1078.43 830.982 1074.9 832.55 1072.16C833.727 1069.8 834.903 1067.45 835.688 1065.1C836.864 1061.96 840.394 1060.78 843.531 1061.96C846.668 1063.14 847.845 1066.67 846.668 1069.8C845.492 1072.16 844.315 1074.9 843.139 1077.25C842.354 1079.61 840.001 1080.78 838.041 1080.78ZM413.727 1073.73C412.55 1073.73 411.374 1073.33 410.197 1072.55C408.237 1070.98 405.884 1069.41 403.923 1067.84C401.57 1065.88 400.786 1061.96 403.139 1059.61C405.099 1057.25 409.021 1056.47 411.374 1058.82C413.335 1060.39 415.296 1061.96 417.648 1063.53C420.394 1065.49 420.786 1069.41 418.825 1071.76C417.256 1072.94 415.296 1073.73 413.727 1073.73ZM371.374 1038.43C369.805 1038.43 368.629 1038.04 367.452 1036.86C365.492 1035.29 363.531 1033.33 361.57 1031.76C359.217 1029.8 358.825 1025.88 361.178 1023.53C363.139 1021.18 367.06 1020.78 369.413 1023.14C371.374 1024.71 373.335 1026.67 375.295 1028.23C377.648 1030.2 378.041 1034.12 375.688 1036.47C374.511 1037.65 372.943 1038.43 371.374 1038.43ZM854.511 1028.23C854.119 1028.23 853.727 1028.23 853.727 1028.23C850.59 1027.84 848.237 1024.71 849.021 1021.57C849.413 1018.82 849.805 1016.47 850.198 1014.12C850.59 1010.98 853.335 1008.63 856.864 1009.02C860.001 1009.41 862.354 1012.16 861.962 1015.69C861.57 1018.43 861.178 1020.78 860.786 1023.53C859.609 1026.27 857.256 1028.23 854.511 1028.23ZM330.59 1001.18C329.021 1001.18 327.452 1000.78 326.668 999.607C324.707 997.647 322.746 996.078 321.178 994.117C318.825 991.764 318.825 988.235 321.178 985.882C323.531 983.529 327.06 983.529 329.413 985.882C331.374 987.843 333.335 989.411 334.903 991.372C337.256 993.725 337.256 997.254 334.903 999.607C333.727 1000.78 332.158 1001.18 330.59 1001.18ZM291.766 961.96C290.197 961.96 288.629 961.176 287.452 960C285.492 958.039 283.923 956.078 281.962 954.117C279.609 951.764 280.001 947.843 282.354 945.882C284.707 943.921 288.629 943.921 290.59 946.274C292.158 948.235 294.119 950.196 296.08 952.156C298.433 954.509 298.041 958.039 295.688 960.392C294.511 961.568 293.335 961.96 291.766 961.96Z" fill="black"/>
<path d="M854.902 977.254C852.157 977.254 849.412 975.293 849.02 972.156C848.628 969.803 848.628 968.626 848.628 968.626C847.843 965.489 850.196 962.352 853.334 961.568C856.471 960.783 859.608 963.136 860.392 966.273C860.392 966.273 860.785 967.842 861.177 970.587C861.569 973.724 859.216 976.862 856.079 977.254C855.686 977.254 855.294 977.254 854.902 977.254Z" fill="black"/>
<path d="M432.158 824.706C511.374 814.902 592.55 827.059 667.06 855.686C673.335 858.039 669.805 867.451 663.531 865.098C608.629 844.314 550.59 832.549 491.766 830.196C472.158 829.412 452.55 829.412 433.335 830.98C429.021 831.372 428.237 825.49 432.158 824.706Z" fill="black"/>
</svg>
