<svg width="1200" height="1312" viewBox="0 0 1200 1312" fill="none" xmlns="http://www.w3.org/2000/svg">
<path d="M349.415 825.882C349.415 825.882 406.669 803.137 417.258 802.353L418.042 811.373C418.042 811.373 372.552 830.98 369.807 834.118C367.454 836.863 349.415 825.882 349.415 825.882Z" fill="#7E5D6D"/>
<path d="M1056.08 1334.9H64.3149C64.3149 1334.9 70.1973 1152.94 129.805 1023.14C174.903 925.098 283.138 860.392 361.962 832.157C384.315 824.313 401.57 815.686 417.648 811.372C417.648 813.333 418.825 827.843 418.825 829.412C418.825 829.412 464.707 761.176 604.707 768.627C669.413 772.157 721.178 789.804 721.178 789.804C728.629 788.235 718.04 826.666 724.707 824.706C727.06 823.921 731.766 847.451 733.727 846.666C784.315 860 846.276 897.647 936.08 972.941C1038.04 1058.43 1056.08 1334.9 1056.08 1334.9Z" fill="black"/>
<path d="M865.099 936.078C890.439 936.078 910.982 915.536 910.982 890.196C910.982 864.856 890.439 844.313 865.099 844.313C839.759 844.313 819.217 864.856 819.217 890.196C819.217 915.536 839.759 936.078 865.099 936.078Z" fill="#FFFF8D"/>
<path d="M258.433 1334.9L240.786 1189.41" stroke="#544D4D" stroke-width="3" stroke-miterlimit="10" stroke-linecap="round" stroke-linejoin="round"/>
<path d="M943.529 1140C943.529 1140 931.765 1168.63 935.294 1197.26C938.823 1225.88 949.02 1267.84 934.51 1334.9" stroke="#544D4D" stroke-width="3" stroke-miterlimit="10" stroke-linecap="round" stroke-linejoin="round"/>
<path d="M349.411 825.885C356.862 823.532 369.803 825.885 373.725 832.551C389.019 857.649 425.882 930.983 441.176 1076.47C453.333 1190.2 434.901 1394.9 434.901 1394.9L54.1172 1376.87C54.1172 1376.87 65.4897 1183.53 98.8231 1053.73C131.764 927.845 217.254 871.375 349.411 825.885Z" fill="white"/>
<path d="M346.668 817.648C359.609 814.119 375.295 817.256 382.354 829.413C403.531 865.099 416.864 905.099 427.452 945.099C440.001 994.119 448.237 1044.31 452.55 1094.51C458.825 1195.3 452.942 1295.3 445.099 1396.08C444.707 1401.57 440.001 1405.49 434.511 1405.1L53.7268 1387.06C48.2366 1387.06 43.9229 1382.35 43.9229 1376.47C47.8444 1319.22 53.7268 1262.75 61.1778 1205.88C69.413 1149.02 78.0405 1092.55 94.1189 1037.26C131.374 913.727 231.766 856.864 346.668 817.648ZM352.55 834.511C299.609 852.55 241.962 865.491 198.04 902.354C176.864 920.393 161.178 944.707 146.276 967.844C115.295 1014.51 104.315 1070.2 94.9032 1125.1C80.3934 1208.63 71.766 1293.33 64.7072 1377.65C64.7072 1377.65 54.9032 1367.06 55.2954 1367.06L436.08 1385.1L425.491 1394.12C428.629 1344.31 431.766 1294.51 433.335 1244.71C438.433 1121.57 431.766 995.295 387.06 879.609C381.178 865.099 374.903 850.981 366.668 837.648C363.531 834.511 356.08 833.334 352.55 834.511Z" fill="black"/>
<path d="M743.923 849.804C743.923 849.804 865.099 1077.65 829.805 1381.96H1091.37C1091.37 1381.96 1090.2 1140.39 1031.37 1009.02C972.55 878.039 766.668 839.608 766.668 839.608C766.668 839.608 753.727 846.275 743.923 849.804Z" fill="white"/>
<path d="M753.335 853.333C754.511 852.157 754.903 849.804 754.511 848.235V847.843C756.472 852.157 758.825 856.471 760.786 860.784C817.256 986.667 844.707 1125.1 846.276 1262.75C846.668 1275.29 845.491 1301.96 845.099 1314.51C844.707 1334.9 841.178 1362.75 840.001 1383.14L830.197 1371.76H1091.77L1081.57 1381.96C1081.57 1352.94 1080 1323.53 1078.43 1294.51C1071.77 1196.08 1057.26 1025.49 988.629 952.549C935.295 895.294 841.178 860.784 765.099 849.412L771.374 848.627C765.884 851.373 759.609 854.118 754.119 856.471L750.982 857.647L750.197 858.039C751.374 857.647 752.942 855.294 753.335 853.333ZM734.511 846.275C736.08 843.529 739.609 840.392 743.138 839.216L745.884 838.039C751.374 835.686 757.256 832.941 762.746 830.196C764.707 829.412 766.668 829.02 768.629 829.804C783.531 834.118 797.648 838.431 811.766 843.137C825.884 848.235 839.609 853.333 853.335 859.216C894.119 876.863 934.119 897.647 968.236 925.882C995.687 948.235 1023.14 972.941 1038.43 1005.88C1066.28 1069.02 1079.22 1137.25 1088.63 1205.1C1096.86 1263.92 1100.79 1322.75 1101.57 1381.96C1101.57 1387.45 1097.26 1392.16 1091.37 1392.16H829.805C823.923 1392.16 819.217 1386.67 820.001 1380.78C821.57 1360.39 824.707 1333.33 825.099 1313.33C825.491 1301.18 826.668 1274.51 826.276 1262.75C825.491 1144.71 803.531 1026.27 761.962 915.686C754.511 896.078 746.276 876.471 737.256 858.039C734.903 854.902 733.727 849.804 734.511 846.275Z" fill="black"/>
<path d="M743.922 849.803L734.51 847.058C734.51 847.058 748.235 840.391 754.118 836.47L757.647 834.509C757.647 834.509 776.471 843.136 783.137 846.273C789.804 849.411 760 863.921 760 863.921C760 863.921 745.098 850.195 743.922 849.803Z" fill="#7E5D6D"/>
<path d="M316.864 960.392C316.864 960.392 262.746 998.431 267.844 1038.82C272.942 1079.22 439.609 1332.16 439.609 1332.16C439.609 1332.16 459.217 1194.9 436.864 1039.61C436.864 1039.61 420.785 1018.04 391.374 996.471C371.766 982.745 347.06 968.627 316.864 960.392Z" fill="white"/>
<path d="M318.825 970.588C320.001 970.588 321.178 969.804 322.354 969.02L321.57 969.412C299.217 983.53 271.766 1009.02 273.727 1037.65C276.08 1049.8 282.746 1061.96 288.629 1073.33C301.178 1097.26 314.903 1120.78 329.021 1144.31C357.256 1190.98 387.06 1236.86 417.648 1281.96L448.629 1327.06L430.197 1330.98C433.335 1307.45 435.295 1283.14 436.472 1258.82C440.393 1186.27 437.648 1113.33 427.452 1041.57L429.413 1046.27C414.903 1028.24 396.864 1012.55 378.04 999.608C360.393 987.843 341.57 978.432 321.178 972.157L320.393 971.765C319.217 971.373 319.217 970.981 318.825 970.588ZM315.295 950.588C318.825 950.981 323.138 951.765 326.668 952.941C360.786 963.53 392.158 982.353 418.825 1006.27C428.629 1014.9 436.864 1023.53 445.491 1034.12C446.668 1035.29 447.06 1036.86 447.452 1038.43C457.648 1111.76 460.393 1185.88 456.864 1260C455.687 1284.71 453.727 1309.02 450.589 1334.12C449.805 1343.53 436.864 1346.27 432.158 1338.04C405.884 1294.12 373.727 1241.18 347.844 1197.26C331.374 1169.02 308.236 1130.59 292.942 1102.35C284.315 1086.27 275.295 1070.2 268.629 1052.94C265.884 1046.67 264.315 1038.82 264.315 1031.37C267.06 1000 289.805 975.686 310.589 953.726C310.982 952.157 313.335 950.981 315.295 950.588Z" fill="black"/>
<path d="M950.197 1039.22C951.766 1014.12 893.727 973.334 893.727 973.334C870.589 980.001 854.119 990.589 842.354 1001.96C816.08 1026.67 812.55 1054.51 812.55 1054.51L814.119 1061.57C841.962 1182.75 833.727 1340.39 833.727 1340.39C833.727 1340.39 948.629 1064.31 950.197 1039.22Z" fill="white"/>
<path d="M945.489 1038.82C943.529 1015.69 907.058 991.765 887.842 981.569L896.47 983.138C861.176 992.941 829.803 1019.22 822.352 1056.08L821.96 1052.16C827.45 1075.69 832.156 1100 834.901 1123.92C844.313 1196.08 846.274 1268.24 843.529 1340.78C843.529 1341.18 824.313 1336.47 824.313 1336.47C844.313 1294.51 870.587 1232.16 889.019 1188.63C899.607 1163.92 909.411 1138.82 919.215 1113.73C928.627 1089.02 939.607 1064.31 945.489 1038.82ZM952.548 1039.22C950.195 1052.94 945.097 1065.49 940.784 1078.43C927.45 1116.47 912.156 1154.12 898.431 1192.16C885.489 1226.67 861.568 1290.59 849.411 1324.71L842.744 1343.92C838.823 1354.9 822.352 1351.37 823.529 1339.61C826.274 1268.63 824.313 1196.86 814.901 1126.27C812.156 1102.75 807.45 1079.61 802.352 1056.86C801.568 1052.55 803.137 1048.24 804.313 1044.31C815.686 1004.31 851.764 974.51 890.98 963.922C894.117 962.745 897.254 963.53 899.607 965.491C908.627 975.687 922.352 989.02 930.98 999.608C939.999 1010.59 952.548 1023.14 952.548 1039.22Z" fill="black"/>
<path d="M812.552 1052.16C812.552 1052.16 786.278 950.197 773.336 917.648C760.395 885.491 736.081 849.02 734.905 847.06C652.16 769.02 500.787 769.02 530.199 740.001C562.748 707.844 697.65 729.805 746.67 754.118C790.591 777.256 976.474 885.099 982.748 921.177C989.023 961.177 836.866 958.824 812.552 1052.16Z" fill="white"/>
<path d="M812.55 1062.35C808.237 1061.96 803.531 1058.04 802.354 1053.73V1053.33L801.962 1051.76L801.178 1048.63L799.609 1041.96C789.413 1002.75 779.609 961.569 766.276 923.529C756.864 898.431 743.139 874.902 728.629 851.765L729.805 852.941C715.688 839.216 698.825 828.235 681.57 818.431C645.884 799.216 607.06 787.059 568.237 775.686C554.903 770.588 522.354 765.098 520.394 748.627C520.394 731.372 547.06 723.921 559.609 721.569C611.374 713.725 664.315 723.137 714.119 736.863C726.668 740.784 739.217 745.098 750.982 750.98C755.296 753.333 767.06 760 771.374 762.353C807.06 782.745 841.962 804.314 876.472 827.059C910.982 849.804 945.884 871.765 974.903 901.961C998.433 926.274 984.315 941.961 958.433 953.333C921.57 969.804 881.178 981.176 851.374 1008.24C840.786 1018.04 832.158 1029.41 827.06 1042.35C825.099 1046.67 825.099 1048.63 823.139 1053.73C821.178 1056.86 816.08 1061.18 812.55 1062.35ZM812.55 1042.35C810.197 1040.78 805.884 1042.35 804.707 1044.31C803.923 1045.88 804.707 1044.31 805.099 1043.92C806.276 1040.78 807.845 1037.25 809.413 1034.12C837.648 979.608 902.354 965.882 954.119 944.314C974.119 935.294 989.021 927.451 968.237 906.667C939.609 877.647 904.315 856.47 870.197 834.902C835.296 813.725 799.609 793.725 763.531 774.51L750.198 767.451C719.609 750.98 685.099 743.921 650.982 738.431C621.178 734.51 558.433 727.451 536.472 748.627C536.472 748.627 536.864 747.843 536.864 746.667C536.864 745.49 536.472 745.098 536.472 744.706C536.472 744.706 537.648 745.882 539.217 746.667C549.413 752.157 561.178 755.294 572.943 758.823C612.55 770.588 652.943 782.745 689.805 802.745C709.021 813.333 727.845 825.49 743.531 841.569C758.825 865.098 773.335 889.804 783.923 916.078C798.041 955.294 808.237 996.078 819.217 1036.08L820.786 1042.74L821.57 1046.27L821.962 1047.84V1048.24C821.178 1044.71 816.08 1041.57 812.55 1042.35Z" fill="black"/>
<path d="M436.865 1040C436.865 1040 409.414 1010.98 376.473 990.587C303.532 945.489 196.473 924.705 195.296 889.803C194.512 850.587 324.708 768.626 410.983 740.783C540.787 704.705 557.649 747.45 559.218 765.489C560.002 774.116 418.434 819.607 419.218 828.626V829.018C419.218 829.018 401.179 834.901 414.12 924.705C417.257 947.058 430.983 985.489 436.865 1040Z" fill="white"/>
<path d="M441.179 1049.02C437.649 1050.59 431.767 1049.41 429.022 1046.27L428.63 1045.49L427.453 1044.31C426.277 1042.74 421.963 1038.43 420.395 1037.25C410.983 1027.84 400.787 1018.43 390.591 1010.2C362.355 987.45 329.022 972.548 296.081 957.646C270.591 946.666 244.316 936.862 220.002 923.136C181.963 901.96 183.924 880.783 212.551 850.979C252.551 811.764 300.395 781.568 350.591 756.862C369.414 747.842 389.022 739.607 409.022 733.332C452.551 721.568 554.512 698.822 565.493 763.136C565.493 764.313 565.885 765.097 565.493 766.666C565.1 768.234 564.316 769.019 563.924 769.803C559.218 774.509 552.944 776.862 547.453 779.215C521.963 789.803 495.689 798.43 469.414 807.45C453.336 813.332 436.473 818.038 421.571 826.273C420.787 827.058 419.61 827.842 420.002 829.018C412.944 834.901 413.336 845.489 412.159 853.724C411.375 879.999 415.689 907.45 421.571 932.94C428.63 958.43 437.257 985.097 442.355 1011.37C443.924 1019.61 446.277 1027.06 445.885 1035.29C445.1 1040.39 443.14 1045.49 441.179 1049.02ZM432.551 1030.98C430.591 1029.41 427.061 1029.8 425.493 1031.37C423.532 1017.25 421.179 1003.14 418.042 989.018C412.551 963.136 403.924 936.077 401.571 909.019L400.395 895.293C399.218 875.293 396.081 838.43 410.983 823.136C412.159 822.352 412.159 821.568 416.081 819.999L409.022 829.411C408.63 827.45 410.591 822.744 411.375 821.96C413.728 818.822 415.689 818.038 418.434 816.077C432.944 807.842 448.63 802.352 463.924 796.077C481.179 789.411 523.924 772.94 540.395 765.881C543.924 764.313 548.63 762.352 551.375 760.391C550.591 761.567 550.198 761.567 549.414 764.313C549.022 765.097 549.414 768.626 549.022 766.666C543.532 730.587 487.061 736.862 459.61 740.783C405.885 749.411 356.081 770.587 308.238 796.469C276.865 814.117 245.1 832.94 219.218 858.43C210.591 867.45 200.787 877.646 200.002 889.803C201.963 907.45 234.12 919.215 249.022 926.666C282.747 941.175 317.649 953.332 350.983 969.019C380.787 982.744 408.63 1001.57 433.336 1023.14C436.081 1025.49 440.787 1029.8 443.14 1032.16C442.747 1031.37 440.002 1029.8 437.649 1029.41C436.081 1029.8 434.12 1030.19 432.551 1030.98Z" fill="black"/>
</svg>
