<svg width="1200" height="1378" viewBox="0 0 1200 1378" fill="none" xmlns="http://www.w3.org/2000/svg">
<path d="M925.882 1091.76C923.137 1093.73 919.999 1095.69 917.254 1097.65C914.117 1099.61 911.372 1101.57 908.235 1103.14C905.49 1104.71 903.137 1106.27 900.392 1107.84C899.999 1108.24 899.607 1108.24 899.215 1108.63C890.195 1114.12 880.784 1119.22 871.372 1123.92C868.627 1125.49 865.49 1127.06 862.744 1128.24C862.744 1128.24 862.352 1128.63 861.96 1128.63C858.823 1130.2 855.686 1131.76 852.548 1133.33C846.274 1136.47 839.607 1139.22 833.333 1141.96C830.195 1143.53 826.666 1144.71 823.529 1145.88C820.391 1147.06 816.862 1148.63 813.725 1149.8C810.588 1150.98 807.058 1152.55 803.921 1153.73C803.921 1153.73 803.921 1153.73 803.529 1153.73C800.391 1154.9 796.862 1156.08 793.725 1157.26C786.666 1159.61 779.215 1161.96 772.156 1164.31C769.803 1165.1 767.058 1165.88 764.705 1166.67C757.254 1169.02 749.803 1170.98 742.352 1172.55C739.607 1173.33 736.862 1173.73 733.725 1174.51C726.666 1176.08 719.215 1177.65 712.156 1179.22C710.588 1179.61 709.411 1179.61 707.842 1180C705.49 1180.39 702.744 1180.78 700.392 1181.18C696.862 1181.57 693.725 1182.35 690.195 1182.75C688.627 1183.14 687.058 1183.14 685.49 1183.53C683.529 1183.92 681.176 1184.31 678.823 1184.31C672.548 1185.1 665.882 1185.88 659.607 1186.67C657.646 1187.06 655.293 1187.06 653.333 1187.45H652.941C650.195 1187.84 647.45 1187.84 644.705 1188.24C641.96 1188.63 639.215 1188.63 636.47 1188.63C634.901 1188.63 632.941 1189.02 631.372 1189.02C628.235 1189.02 625.49 1189.41 622.744 1189.41C618.823 1189.41 615.293 1189.8 611.372 1189.8C607.45 1189.8 603.921 1189.8 599.999 1189.8C597.254 1189.8 594.509 1189.8 591.764 1189.8C426.274 1187.45 277.646 1117.26 171.372 1005.88C171.372 1005.88 171.372 1005.49 170.98 1005.49C183.137 981.569 228.235 938.432 275.293 902.745C291.764 890.588 278.823 865.098 297.254 856.863C350.588 833.334 419.215 829.804 419.215 829.804C419.215 829.804 474.509 820.785 679.607 863.53C869.803 903.137 863.137 921.961 925.882 1091.76Z" fill="white"/>
<path d="M680.784 858.823C726.274 868.235 772.941 874.902 816.862 891.765C847.843 903.529 872.548 927.843 885.882 957.647C905.49 1000.39 918.039 1045.1 935.294 1088.24C936.862 1092.55 935.294 1097.65 931.764 1100C816.47 1180.78 670.588 1210.59 532.156 1194.51C393.333 1178.82 258.431 1116.86 163.529 1012.55C160.392 1009.41 159.999 1004.71 161.96 1001.18C173.333 976.471 186.666 951.765 201.96 928.627C221.96 899.608 245.882 871.765 277.647 855.294C296.47 846.274 317.254 841.569 337.646 836.863C364.313 830.588 392.156 827.451 419.215 826.274C423.921 826.274 424.313 832.941 419.999 833.333C379.607 838.431 340.784 847.843 302.352 860.392C263.921 872.549 236.862 904.314 214.117 936.471C198.823 958.431 185.097 981.961 173.333 1005.88L172.941 1003.92C195.294 1030.2 220.392 1053.73 247.843 1074.12C382.352 1174.51 574.509 1199.22 735.686 1161.57C801.176 1146.27 863.921 1119.22 919.215 1081.18C919.215 1081.18 914.509 1095.69 914.901 1095.69C904.705 1066.27 895.686 1036.47 886.274 1007.45C876.862 978.431 867.45 949.02 847.45 928.627C826.666 907.451 797.254 898.039 769.019 889.804C739.607 881.569 709.411 874.902 679.215 867.843C672.548 866.667 674.509 857.647 680.784 858.823Z" fill="black"/>
<path d="M383.138 997.255C383.138 997.255 546.668 1069.41 691.766 1061.57C742.354 1058.82 790.589 1046.67 829.021 1018.04C829.021 1018.04 837.648 1096.86 724.315 1143.14C611.373 1189.41 418.04 1063.14 383.138 997.255Z" fill="black"/>
<path d="M665.101 1061.96C665.101 1061.96 630.199 1169.8 596.473 1174.12C562.748 1178.43 383.532 1034.9 369.022 992.549C369.022 992.549 521.572 1057.65 665.101 1061.96Z" fill="white"/>
<path d="M668.238 1060C669.415 1060.78 668.63 1063.92 668.63 1063.53V1063.92V1064.31L668.238 1065.1C658.042 1094.9 631.768 1173.33 598.042 1180C563.14 1182.75 465.101 1103.14 435.689 1078.43C421.964 1066.67 408.238 1054.51 395.297 1041.57C381.964 1027.45 367.846 1014.51 360.003 996.079C356.866 988.235 365.493 980.392 372.944 983.922C395.689 993.726 419.611 1003.14 443.532 1011.37C503.14 1031.76 564.709 1048.24 627.454 1055.69C640.787 1056.86 654.905 1056.86 668.238 1060ZM661.964 1064.31C656.474 1065.49 651.376 1065.88 645.493 1065.1C574.905 1061.57 505.493 1046.67 438.042 1026.27C413.336 1018.82 389.415 1010.59 365.101 1001.18L378.042 989.02C384.317 1003.92 396.866 1016.47 407.846 1028.24C420.003 1041.18 432.944 1053.33 446.277 1065.1C472.944 1089.02 500.395 1111.37 529.415 1132.16C543.924 1142.35 558.826 1152.55 574.121 1160.39C580.395 1163.53 589.415 1168.24 596.081 1167.84C616.081 1162.75 632.16 1127.84 641.179 1109.8C648.63 1093.73 655.297 1077.25 661.179 1060.78C661.964 1060 660.787 1063.53 661.964 1064.31Z" fill="black"/>
<path d="M665.101 1061.96C665.101 1061.96 719.218 1145.1 743.14 1149.41C767.061 1153.73 815.689 1077.26 826.669 1019.22C827.061 1019.61 779.218 1060.39 665.101 1061.96Z" fill="white"/>
<path d="M669.807 1064.31C670.591 1063.14 670.591 1060.39 669.807 1059.61C669.807 1059.22 669.807 1059.61 669.807 1059.61C670.983 1061.18 673.336 1064.31 674.512 1066.27C686.277 1082.75 698.434 1099.22 711.767 1114.12C721.571 1124.71 730.591 1136.08 743.532 1141.96C760.787 1145.1 789.022 1095.29 795.689 1080.78C805.493 1060.39 813.728 1038.82 817.65 1017.26L833.728 1026.67C830.199 1029.41 827.454 1031.37 823.532 1033.33C794.905 1049.8 762.356 1058.43 729.807 1063.14C715.689 1065.49 701.179 1066.27 686.669 1066.67C680.395 1067.06 676.081 1065.49 669.807 1064.31ZM660.395 1059.61C681.963 1054.12 705.493 1054.51 727.061 1049.8C753.728 1044.31 780.787 1036.08 804.316 1022.75C809.807 1019.61 815.297 1016.08 820.003 1012.16C826.669 1005.88 838.042 1012.55 836.081 1021.57C827.061 1063.92 795.297 1129.8 758.434 1153.33C747.454 1160 736.081 1157.26 726.669 1149.02C716.865 1141.18 709.022 1131.76 701.571 1122.75C687.061 1105.1 674.12 1086.27 661.571 1067.06L660.787 1066.27L660.395 1065.88C660.003 1063.92 659.61 1061.18 660.395 1059.61Z" fill="black"/>
<path d="M984.315 1367.45H90.9814C91.7658 1321.96 96.8638 1183.92 131.374 1085.1C146.276 1041.96 169.021 950.196 189.805 922.745C192.158 919.607 194.511 916.078 197.256 912.941C228.629 878.431 274.903 856.47 280.393 853.725C285.491 850.98 290.589 852.549 293.727 854.901C695.687 1293.72 865.491 1020 826.276 903.529C826.276 903.529 826.276 903.137 826.668 903.137C830.197 903.137 856.08 910.588 883.923 929.803C916.08 951.764 938.432 985.098 948.629 1022.35C956.472 1052.16 968.236 1098.82 975.687 1146.67C975.687 1147.06 976.08 1147.45 976.08 1147.84C995.687 1196.08 965.883 1198.04 976.08 1273.72C980.001 1303.14 982.746 1334.12 984.315 1367.45Z" fill="white"/>
<path d="M991.374 1374.51C699.609 1377.65 381.57 1378.04 90.9814 1377.65C85.4912 1377.65 81.1775 1373.33 81.1775 1367.84C83.1383 1293.73 90.1971 1219.61 107.06 1147.45C111.374 1129.41 116.472 1111.37 122.354 1093.73C132.55 1064.71 141.57 1035.69 151.374 1006.67C161.57 977.647 170.197 947.059 187.452 921.176C198.432 905.882 212.942 893.725 227.844 882.745C242.746 871.765 258.825 862.353 275.295 854.118L279.609 852.157C281.177 851.373 283.138 850.98 284.707 850.588C288.628 850.196 292.55 851.373 295.295 854.118C337.256 899.608 381.57 943.137 429.805 981.961C465.883 1010.98 504.315 1037.65 545.491 1058.04C611.374 1090.98 697.648 1110.2 761.57 1063.53C797.648 1037.25 820.001 994.118 822.746 949.804C823.53 935.294 821.962 920.392 816.864 907.451C816.079 904.706 816.079 901.961 817.648 900C819.609 895.686 825.099 893.725 829.413 895.294C847.452 900.784 863.138 910.98 878.432 921.569C910.589 940.784 936.079 971.373 949.413 1006.27C961.177 1041.18 969.021 1076.86 976.864 1112.55C978.825 1121.96 982.354 1139.61 983.138 1145.1C985.099 1149.41 988.628 1158.82 989.805 1165.1C994.511 1183.92 987.06 1203.92 984.707 1221.57C982.354 1238.43 983.53 1255.69 985.883 1272.94L983.138 1281.18C983.923 1280.39 985.099 1278.82 985.883 1276.47C986.668 1274.51 985.883 1271.37 985.883 1271.37C985.883 1271.76 986.275 1272.55 986.275 1274.12V1272.94C989.413 1296.47 992.158 1320 993.726 1343.53L994.511 1355.29C994.119 1361.18 994.119 1369.41 991.374 1374.51ZM977.256 1360.78C975.687 1360.39 974.119 1361.57 974.119 1361.96L973.726 1356.47C972.158 1329.41 969.805 1302.35 965.883 1275.69V1274.51C965.883 1276.08 966.275 1277.25 966.275 1277.25C966.275 1277.65 966.276 1277.25 965.883 1276.47C965.883 1275.69 965.491 1273.73 965.883 1271.76C966.276 1269.8 967.452 1268.24 968.628 1267.06L965.883 1275.29C961.177 1248.24 963.923 1217.65 970.981 1191.37C974.511 1177.25 970.981 1162.35 965.883 1150.59C963.53 1138.82 961.962 1127.06 959.609 1115.29C954.511 1088.63 948.236 1062.35 941.57 1036.47C935.687 1011.37 925.491 987.059 909.021 967.059C887.844 941.176 858.04 922.745 825.883 913.725H825.491H825.883L834.119 909.02L833.727 909.412L834.903 901.176C845.491 933.333 841.177 967.843 829.805 998.823C788.236 1104.31 681.57 1125.88 583.138 1088.63C523.53 1067.06 470.197 1030.98 421.57 991.765C372.942 952.157 328.236 908.235 286.276 862.353L287.452 863.529C286.668 863.137 285.883 862.745 285.491 862.745C267.844 870.98 250.589 881.569 234.903 892.941C216.079 907.059 198.04 923.137 189.021 943.137C183.923 953.725 179.609 964.706 175.687 976.078C163.53 1010.59 154.119 1045.88 142.746 1081.18C139.217 1092.16 134.903 1104.71 131.766 1115.69C109.413 1197.65 102.746 1283.14 100.393 1367.84L90.5893 1358.04C386.668 1357.65 681.177 1359.22 977.256 1360.78Z" fill="black"/>
<path d="M365.491 1367.45H90.9814C91.7658 1321.96 96.8638 1183.92 131.374 1085.1C146.276 1041.96 162.746 960.392 183.53 932.941C185.883 929.804 325.099 953.333 359.609 1211.37C369.413 1284.71 366.276 1318.04 365.491 1367.45Z" fill="black"/>
<path d="M919.218 1300.78C926.669 1155.29 921.571 1075.69 913.336 1021.57C905.885 973.333 880.787 937.255 880.787 937.255C887.454 944.706 908.238 958.824 914.12 968.627C922.748 983.529 930.983 1001.18 938.434 1020.39C938.434 1020.78 938.826 1021.18 938.826 1021.57C960.003 1077.65 975.689 1147.45 986.669 1207.06C990.591 1236.08 993.728 1267.06 994.905 1300.39H919.218V1300.78Z" fill="black"/>
<path d="M256.472 924.313C254.903 924.313 253.334 923.529 252.158 922.353C250.589 920.392 249.413 919.215 249.413 919.215C247.452 916.862 247.844 912.941 250.197 910.98C252.55 909.019 256.472 909.411 258.432 911.764C258.432 911.764 259.217 912.941 260.785 914.509C262.746 916.862 262.746 920.784 260.001 922.745C259.217 923.921 257.648 924.313 256.472 924.313Z" fill="black"/>
<path d="M662.746 1179.22C660.001 1179.22 657.256 1179.22 654.511 1178.82C651.373 1178.82 648.628 1176.08 649.021 1172.55C649.021 1169.41 651.766 1166.67 655.295 1167.06C658.04 1167.06 660.393 1167.06 663.138 1167.45C666.275 1167.45 669.021 1170.2 669.021 1173.33C668.628 1176.86 666.275 1179.22 662.746 1179.22ZM709.805 1175.29C707.06 1175.29 704.707 1173.33 703.923 1170.59C703.138 1167.45 705.491 1164.31 708.628 1163.53C710.981 1163.14 713.726 1162.35 716.079 1161.96C719.217 1161.18 722.354 1163.14 723.138 1166.27C723.922 1169.41 721.962 1172.55 718.824 1173.33C716.079 1174.12 713.726 1174.51 710.981 1174.9C710.589 1175.29 710.197 1175.29 709.805 1175.29ZM608.236 1172.94C607.844 1172.94 607.452 1172.94 607.06 1172.94C604.315 1172.55 601.962 1171.76 599.217 1170.98C596.079 1170.2 594.119 1167.06 594.903 1163.92C595.687 1160.78 598.824 1158.82 601.962 1159.61C604.315 1160.39 607.06 1160.78 609.413 1161.18C612.55 1161.96 614.511 1165.1 614.119 1168.23C613.334 1170.98 610.981 1172.94 608.236 1172.94ZM761.962 1157.65C760.001 1157.65 757.648 1156.47 756.864 1154.51C755.295 1151.76 756.472 1148.23 759.609 1146.67C761.962 1145.49 764.315 1144.31 766.275 1143.14C769.021 1141.57 772.55 1142.74 774.119 1145.49C775.687 1148.23 774.511 1151.76 771.766 1153.33C769.413 1154.51 767.06 1156.08 764.707 1157.25C763.53 1157.25 762.746 1157.65 761.962 1157.65ZM555.687 1157.25C554.903 1157.25 554.119 1157.25 553.726 1156.86C551.373 1156.08 548.628 1154.9 546.275 1154.12C543.138 1152.94 541.962 1149.41 543.138 1146.27C544.315 1143.14 547.844 1141.96 550.981 1143.14C553.334 1143.92 555.687 1145.1 558.04 1145.88C561.177 1147.06 562.746 1150.59 561.57 1153.33C560.001 1155.69 558.04 1157.25 555.687 1157.25ZM505.491 1134.51C504.707 1134.51 503.53 1134.12 502.746 1133.73C500.393 1132.55 498.04 1131.37 495.687 1129.8C492.942 1128.23 491.766 1124.71 493.334 1121.96C494.903 1119.22 498.432 1118.04 501.177 1119.61C503.53 1120.78 505.883 1121.96 507.844 1123.14C510.589 1124.71 511.766 1128.23 510.197 1130.98C509.413 1133.33 507.452 1134.51 505.491 1134.51ZM806.275 1125.49C804.707 1125.49 803.138 1125.1 801.962 1123.92C799.609 1121.57 799.609 1118.04 801.962 1115.69C803.923 1113.73 805.491 1112.16 807.06 1110.2C809.413 1107.84 812.942 1107.45 815.295 1109.8C817.648 1112.16 818.04 1115.69 815.687 1118.04C813.726 1120 812.158 1121.96 810.197 1123.92C809.413 1125.1 807.844 1125.49 806.275 1125.49ZM458.432 1105.88C457.256 1105.88 456.079 1105.49 455.295 1104.71C452.942 1103.14 450.981 1101.57 448.628 1100.39C445.883 1098.43 445.099 1094.9 447.06 1092.16C449.021 1089.41 452.55 1088.63 455.295 1090.59C457.256 1092.16 459.609 1093.33 461.962 1094.9C464.707 1096.86 465.491 1100.39 463.53 1103.14C461.962 1105.1 460.001 1105.88 458.432 1105.88ZM838.04 1080.78C837.256 1080.78 836.472 1080.78 835.295 1080C832.55 1078.43 830.981 1074.9 832.55 1072.16C833.726 1069.8 834.903 1067.45 835.687 1065.1C836.864 1061.96 840.393 1060.78 843.53 1061.96C846.668 1063.14 847.844 1066.67 846.668 1069.8C845.491 1072.16 844.315 1074.9 843.138 1077.25C842.354 1079.61 840.001 1080.78 838.04 1080.78ZM413.726 1073.73C412.55 1073.73 411.373 1073.33 410.197 1072.55C408.236 1070.98 405.883 1069.41 403.922 1067.84C401.57 1065.88 400.785 1061.96 403.138 1059.61C405.099 1057.25 409.021 1056.47 411.373 1058.82C413.334 1060.39 415.295 1061.96 417.648 1063.53C420.393 1065.49 420.785 1069.41 418.824 1071.76C417.256 1072.94 415.295 1073.73 413.726 1073.73ZM371.373 1038.43C369.805 1038.43 368.628 1038.04 367.452 1036.86C365.491 1035.29 363.53 1033.33 361.57 1031.76C359.217 1029.8 358.824 1025.88 361.177 1023.53C363.138 1021.18 367.06 1020.78 369.413 1023.14C371.373 1024.71 373.334 1026.67 375.295 1028.23C377.648 1030.2 378.04 1034.12 375.687 1036.47C374.511 1037.65 372.942 1038.43 371.373 1038.43ZM854.511 1028.23C854.119 1028.23 853.726 1028.23 853.726 1028.23C850.589 1027.84 848.236 1024.71 849.021 1021.57C849.413 1018.82 849.805 1016.47 850.197 1014.12C850.589 1010.98 853.334 1008.63 856.864 1009.02C860.001 1009.41 862.354 1012.16 861.962 1015.69C861.57 1018.43 861.177 1020.78 860.785 1023.53C859.609 1026.27 857.256 1028.23 854.511 1028.23ZM330.589 1001.18C329.021 1001.18 327.452 1000.78 326.668 999.607C324.707 997.647 322.746 996.078 321.177 994.117C318.824 991.764 318.824 988.235 321.177 985.882C323.53 983.529 327.06 983.529 329.413 985.882C331.373 987.843 333.334 989.411 334.903 991.372C337.256 993.725 337.256 997.254 334.903 999.607C333.726 1000.78 332.158 1001.18 330.589 1001.18ZM291.766 961.96C290.197 961.96 288.628 961.176 287.452 960C285.491 958.039 283.922 956.078 281.962 954.117C279.609 951.764 280.001 947.843 282.354 945.882C284.707 943.921 288.628 943.921 290.589 946.274C292.158 948.235 294.119 950.196 296.079 952.156C298.432 954.509 298.04 958.039 295.687 960.392C294.511 961.568 293.334 961.96 291.766 961.96Z" fill="black"/>
<path d="M854.902 977.253C852.157 977.253 849.411 975.293 849.019 972.155C848.627 969.802 848.627 968.626 848.627 968.626C847.843 965.489 850.196 962.351 853.333 961.567C856.47 960.783 859.607 963.136 860.392 966.273C860.392 966.273 860.784 967.842 861.176 970.587C861.568 973.724 859.215 976.861 856.078 977.253C855.686 977.253 855.294 977.253 854.902 977.253Z" fill="black"/>
<path d="M432.158 824.706C511.373 814.902 592.55 827.059 667.06 855.686C673.334 858.039 669.805 867.451 663.53 865.098C608.628 844.314 550.589 832.549 491.766 830.196C472.158 829.412 452.55 829.412 433.334 830.98C429.021 831.372 428.236 825.49 432.158 824.706Z" fill="black"/>
</svg>
