<svg width="1200" height="1446" viewBox="0 0 1200 1446" fill="none" xmlns="http://www.w3.org/2000/svg">
<path d="M831.376 902.746C831.376 902.746 784.317 876.079 708.631 856.863C708.631 856.863 654.513 834.51 576.082 823.53C473.337 809.02 430.984 818.824 430.984 818.824C430.984 818.824 340.396 829.02 272.553 865.491C272.553 865.491 290.592 1017.65 428.631 1077.26C566.278 1136.86 758.043 1107.45 803.533 1069.02C848.631 1030.59 842.357 915.687 831.376 902.746Z" fill="black" stroke="black" stroke-width="5.1257" stroke-miterlimit="10" stroke-linecap="round" stroke-linejoin="round"/>
<path d="M240.786 885.49C240.786 885.49 214.511 896.078 185.492 925.882C152.943 959.216 126.668 1043.92 104.707 1107.45C63.1387 1227.06 90.9819 1383.14 90.9819 1383.14H1008.63C1008.63 1383.14 1016.86 1184.31 965.1 1063.92C958.433 1048.63 947.453 1009.8 934.119 988.235C912.551 952.941 888.237 932.157 869.021 923.137C869.021 923.137 877.649 1079.61 704.315 1088.24C530.982 1096.86 321.57 1041.96 316.472 1009.8C311.374 976.863 240.786 885.49 240.786 885.49Z" fill="white"/>
<path d="M238.433 894.903C240.002 895.687 243.531 895.295 244.708 894.511H244.315L243.531 894.903C223.531 901.962 205.492 914.118 189.806 928.628C173.727 943.922 162.747 964.315 153.335 984.315C143.531 1004.71 135.688 1026.28 128.237 1047.84C120.786 1069.41 113.335 1090.98 106.276 1112.55C80.0017 1199.22 83.5311 1293.33 101.57 1381.18L91.7664 1372.94H1009.41L999.217 1382.75C1007.45 1281.96 1003.14 1171.77 968.629 1076.08C956.08 1047.84 948.629 1016.86 932.158 990.589C915.688 966.275 893.727 942.354 865.492 932.55L879.609 922.746C880.786 997.648 838.825 1066.28 765.492 1088.24C732.158 1099.22 696.472 1099.61 661.962 1099.61C627.845 1099.61 593.727 1097.26 559.609 1093.33C515.688 1089.02 310.59 1058.04 306.276 1009.02C296.864 981.177 278.825 956.864 262.747 932.55C253.727 919.609 243.923 905.883 234.119 893.334L233.727 892.55L233.335 892.158C232.943 891.765 234.119 893.334 234.904 893.726C236.08 894.118 237.257 894.903 238.433 894.903ZM243.531 875.687C247.061 876.471 249.021 879.609 250.982 881.962C270.982 908.628 290.198 935.295 307.061 963.922C314.904 977.648 323.531 992.158 326.668 1007.84C361.178 1043.14 509.413 1067.45 561.962 1072.94C595.296 1076.47 628.629 1078.82 661.962 1078.82C694.904 1078.82 728.237 1078.43 759.217 1068.63C823.923 1049.41 860.002 989.413 859.217 923.53L862.355 916.864C864.315 912.942 869.413 911.373 873.335 913.726C893.335 926.275 907.453 942.354 920.394 959.609C932.943 976.864 943.139 995.687 950.198 1015.69C957.257 1035.29 963.139 1055.29 971.374 1074.51C978.825 1094.12 984.707 1114.12 989.413 1134.51C999.217 1175.29 1005.1 1216.47 1009.81 1258.04C1014.12 1299.61 1016.86 1341.18 1018.43 1383.53C1018.43 1389.02 1013.73 1393.33 1008.63 1393.33H90.9821C85.8841 1393.33 81.9625 1389.8 81.1782 1385.1C72.9429 1293.73 72.5507 1199.61 101.178 1111.77C120.394 1058.04 136.864 1002.75 162.747 951.765C178.433 921.177 205.492 896.079 234.904 878.04L236.08 877.256L236.472 876.864C238.041 875.295 241.57 874.903 243.531 875.687Z" fill="black"/>
<path d="M908.236 1389.81C661.962 1503.53 256.471 1400.79 256.471 1400.79C256.471 1400.79 248.236 1300.79 278.04 1120.79C279.216 1112.55 280.393 1104.32 281.177 1096.86C289.805 1015.3 260.001 927.453 238.824 892.158C238.824 883.139 248.236 876.864 258.824 867.845C263.138 864.315 269.02 863.923 272.158 866.276C277.648 874.119 282.746 881.962 287.059 890.198C330.981 971.374 427.06 1046.28 518.824 1055.3C643.922 1067.84 696.079 1065.88 758.432 1052.16C818.432 1038.83 848.236 965.1 831.373 906.276C830.981 905.492 830.981 904.315 830.589 903.139C841.177 902.354 865.883 922.747 874.118 952.943C882.746 990.198 886.667 1070.59 891.765 1112.55C909.02 1249.81 908.236 1389.81 908.236 1389.81Z" fill="black" stroke="black" stroke-width="5.1257" stroke-miterlimit="10" stroke-linecap="round" stroke-linejoin="round"/>
<path d="M342.354 860.392C385.099 926.667 434.118 988.627 493.334 1040.78C511.373 1056.86 530.981 1071.76 550.981 1084.71C554.903 1087.06 556.079 1088.63 559.609 1089.41C564.707 1090.59 570.589 1089.41 574.903 1085.49L584.707 1074.9C601.962 1056.86 620.001 1038.82 636.079 1020C642.746 1012.55 649.02 1004.71 651.766 994.51C653.334 991.765 656.864 991.372 659.609 992.941C680.393 1011.37 701.962 1029.02 723.138 1047.06L738.824 1060.39L746.667 1067.06L747.452 1067.84L747.844 1068.24C751.766 1071.76 758.824 1070.98 761.962 1066.67C764.315 1063.14 765.491 1054.9 766.667 1050.2C776.471 996.863 769.805 941.569 755.295 889.804C754.903 889.02 755.687 888.235 756.079 888.235C756.864 888.235 757.648 888.235 757.648 889.02C767.844 914.51 775.687 941.569 780.001 969.02C784.315 996.471 784.707 1024.71 780.785 1052.94C779.217 1061.18 779.609 1067.84 774.511 1075.69C768.628 1083.92 758.04 1088.24 748.628 1085.88C740.785 1084.71 734.118 1077.25 728.628 1072.16C703.53 1049.02 678.432 1025.1 653.334 1001.96L661.962 1001.18C644.315 1012.55 636.471 1031.76 625.099 1048.24C615.295 1063.92 605.491 1080.78 595.687 1096.47C583.922 1116.86 555.295 1121.18 537.256 1106.67C522.746 1096.86 507.452 1085.88 494.118 1074.51C457.648 1043.14 425.099 1006.67 397.648 967.451C374.511 934.118 354.118 899.608 338.432 862.353C338.04 861.176 338.432 859.608 339.609 859.216C340.393 858.823 341.962 859.608 342.354 860.392Z" fill="white"/>
<path d="M669.803 1335.69C674.901 1280 672.548 1223.14 669.019 1167.45C665.097 1111.38 660.391 1054.9 650.98 999.219C649.803 991.768 661.176 989.415 662.744 997.258C672.548 1109.02 687.45 1224.71 681.568 1336.87C681.176 1344.32 669.411 1343.53 669.803 1335.69Z" fill="white"/>
<path d="M718.434 1127.06C726.231 1127.06 732.552 1120.74 732.552 1112.94C732.552 1105.14 726.231 1098.82 718.434 1098.82C710.637 1098.82 704.316 1105.14 704.316 1112.94C704.316 1120.74 710.637 1127.06 718.434 1127.06Z" fill="white"/>
<path d="M724.708 1197.65C732.504 1197.65 738.825 1191.33 738.825 1183.53C738.825 1175.73 732.504 1169.41 724.708 1169.41C716.911 1169.41 710.59 1175.73 710.59 1183.53C710.59 1191.33 716.911 1197.65 724.708 1197.65Z" fill="white"/>
</svg>
