<svg width="1200" height="1444" viewBox="0 0 1200 1444" fill="none" xmlns="http://www.w3.org/2000/svg">
<path d="M925.884 1091.76C923.139 1093.73 920.002 1095.69 917.257 1097.65C914.119 1099.61 911.374 1101.57 908.237 1103.14C905.492 1104.71 903.139 1106.27 900.394 1107.84C900.002 1108.24 899.61 1108.24 899.217 1108.63C890.198 1114.12 880.786 1119.22 871.374 1123.92C868.629 1125.49 865.492 1127.06 862.747 1128.24C862.747 1128.24 862.355 1128.63 861.963 1128.63C858.825 1130.2 855.688 1131.76 852.551 1133.33C846.276 1136.47 839.61 1139.22 833.335 1141.96C830.198 1143.53 826.668 1144.71 823.531 1145.88C820.394 1147.06 816.864 1148.63 813.727 1149.8C810.59 1150.98 807.061 1152.55 803.923 1153.73C803.923 1153.73 803.923 1153.73 803.531 1153.73C800.394 1154.9 796.864 1156.08 793.727 1157.25C786.668 1159.61 779.217 1161.96 772.159 1164.31C769.806 1165.1 767.061 1165.88 764.708 1166.67C757.257 1169.02 749.806 1170.98 742.355 1172.55C739.61 1173.33 736.864 1173.73 733.727 1174.51C726.668 1176.08 719.217 1177.65 712.159 1179.22C710.59 1179.61 709.413 1179.61 707.845 1180C705.492 1180.39 702.747 1180.78 700.394 1181.18C696.864 1181.57 693.727 1182.35 690.198 1182.74C688.629 1183.14 687.061 1183.14 685.492 1183.53C683.531 1183.92 681.178 1184.31 678.825 1184.31C672.551 1185.1 665.884 1185.88 659.61 1186.67C657.649 1187.06 655.296 1187.06 653.335 1187.45H652.943C650.198 1187.84 647.453 1187.84 644.708 1188.24C641.962 1188.63 639.217 1188.63 636.472 1188.63C634.904 1188.63 632.943 1189.02 631.374 1189.02C628.237 1189.02 625.492 1189.41 622.747 1189.41C618.825 1189.41 615.296 1189.8 611.374 1189.8C607.453 1189.8 603.923 1189.8 600.002 1189.8C597.257 1189.8 594.511 1189.8 591.766 1189.8C426.276 1187.45 277.649 1117.25 171.374 1005.88C171.374 1005.88 171.374 1005.49 170.982 1005.49C159.217 999.608 167.453 932.549 214.904 896.863C274.512 851.765 419.217 829.412 419.217 829.412C419.217 829.412 474.512 820.392 679.61 863.137C789.414 885.882 891.374 921.961 928.629 984.706C938.825 1001.96 963.531 1035.69 959.217 1061.18C956.865 1074.9 937.649 1081.18 925.884 1091.76Z" fill="white"/>
<path d="M680.786 858.824C753.727 874.51 839.218 888.236 899.218 935.687C937.649 966.275 950.198 1014.9 968.629 1058.82C970.198 1061.57 968.629 1064.31 967.453 1066.67C956.865 1083.14 939.61 1094.12 923.924 1105.1C878.041 1136.08 826.669 1159.61 773.727 1174.9C596.473 1226.27 396.08 1194.12 245.884 1086.27C215.688 1064.71 187.845 1040 163.139 1012.55L165.1 1014.12C158.825 1009.8 157.257 1001.96 157.257 995.295C159.218 967.844 171.374 942.746 183.531 918.432C187.453 911.373 191.767 903.53 198.041 898.04C255.688 845.098 350.59 824.706 426.276 817.647C430.982 817.255 431.374 823.922 427.061 824.706C356.865 837.647 283.924 854.118 224.316 894.902C216.473 901.177 207.061 907.451 201.571 916.079C192.551 930.197 160.786 991.373 172.551 1003.92C254.512 1101.57 377.649 1157.65 502.747 1172.55C625.884 1189.02 755.688 1172.16 865.884 1113.73C881.571 1105.49 896.865 1096.47 911.374 1086.27C924.708 1077.26 938.041 1068.63 948.237 1056.47L947.845 1057.26L947.453 1064.31C946.276 1049.8 938.825 1035.69 934.12 1021.96C928.629 1008.24 922.747 993.726 915.688 981.177C901.571 955.687 877.257 937.648 851.767 923.922C825.492 909.804 796.865 899.608 767.453 890.981C738.041 882.353 708.629 874.902 678.433 868.236C672.551 866.667 674.512 857.647 680.786 858.824Z" fill="black"/>
<path d="M223.14 888.235C223.14 888.235 242.747 890.588 269.806 907.058C320.395 938.039 399.61 1130.59 261.571 1245.88C261.571 1245.88 236.865 1390.2 261.571 1417.65C261.571 1417.65 713.336 1440.39 908.238 1417.65C908.238 1417.65 934.12 1332.94 921.571 1242.35C905.885 1127.45 910.591 1006.67 834.904 903.529C800.395 856.47 627.453 815.686 527.453 816.47C426.277 817.647 384.316 828.235 357.649 834.901C330.591 841.96 225.1 867.451 223.14 888.235Z" fill="black" stroke="black" stroke-width="5.1257" stroke-miterlimit="10" stroke-linecap="round" stroke-linejoin="round"/>
<path d="M234.904 903.921C282.355 860.392 276.865 897.255 365.885 882.745C400.002 877.255 440.394 849.019 492.551 850.196C530.198 850.98 570.983 879.215 619.218 885.49C658.041 890.588 704.316 872.941 750.591 882.353C789.414 890.588 825.492 924.706 870.198 936.863" stroke="white" stroke-width="4" stroke-miterlimit="10" stroke-linecap="round" stroke-linejoin="round"/>
<path d="M238.436 956.078C294.122 922.745 283.534 957.646 371.769 945.49C406.671 940.784 448.239 911.764 500.004 912.156C538.436 912.548 580.004 940.392 628.632 945.097C668.239 949.019 714.514 929.803 761.181 937.646C801.181 944.705 838.436 978.431 883.534 989.019" stroke="white" stroke-width="4" stroke-miterlimit="10" stroke-linecap="round" stroke-linejoin="round"/>
<path d="M241.963 1008.63C303.139 984.314 289.806 1017.26 377.257 1007.84C413.335 1003.92 455.688 974.902 507.453 974.902C546.669 974.902 589.414 1002.35 638.041 1006.27C678.433 1009.41 725.1 988.236 771.767 994.902C812.551 1000.78 851.375 1033.73 897.257 1042.75" stroke="white" stroke-width="4" stroke-miterlimit="10" stroke-linecap="round" stroke-linejoin="round"/>
<path d="M245.492 1061.96C310.198 1045.88 295.296 1076.86 381.963 1069.8C418.826 1066.67 462.355 1038.04 514.12 1037.65C554.512 1037.25 598.433 1064.71 647.061 1067.45C688.629 1069.8 734.904 1046.67 782.355 1051.76C824.316 1056.08 865.1 1088.23 911.374 1095.69" stroke="white" stroke-width="4" stroke-miterlimit="10" stroke-linecap="round" stroke-linejoin="round"/>
<path d="M248.239 1115.29C315.298 1105.88 299.22 1135.29 385.886 1130.98C423.926 1129.02 468.631 1100.39 520.788 1100C561.965 1099.61 607.063 1127.45 656.082 1129.02C698.435 1130.59 745.102 1105.88 792.945 1109.02C836.082 1112.16 878.827 1143.14 925.494 1148.24" stroke="white" stroke-width="4" stroke-miterlimit="10" stroke-linecap="round" stroke-linejoin="round"/>
<path d="M250.981 1168.63C319.609 1164.71 303.138 1193.33 389.805 1191.37C429.021 1190.59 474.903 1162.35 527.06 1162.35C569.413 1162.35 615.295 1190.2 664.707 1190.98C708.236 1191.77 755.295 1165.49 803.138 1167.06C847.452 1168.63 892.158 1198.43 939.609 1201.18" stroke="white" stroke-width="4" stroke-miterlimit="10" stroke-linecap="round" stroke-linejoin="round"/>
<path d="M253.728 1222.35C323.924 1223.14 306.669 1250.98 393.335 1251.37C433.335 1251.77 481.179 1223.92 533.728 1224.31C577.257 1224.71 624.316 1252.94 673.728 1252.94C718.826 1253.33 765.884 1225.49 813.728 1225.49C859.61 1225.49 906.669 1253.73 953.728 1253.73" stroke="white" stroke-width="4" stroke-miterlimit="10" stroke-linecap="round" stroke-linejoin="round"/>
<path d="M256.082 1276.08C327.062 1280.79 309.807 1307.84 396.866 1310.98C438.043 1312.55 487.062 1285.49 540.004 1286.28C584.709 1287.06 632.553 1316.08 682.357 1315.69C728.631 1315.69 776.082 1286.28 824.317 1284.71C871.768 1283.14 920.788 1309.81 967.847 1306.67" stroke="white" stroke-width="4" stroke-miterlimit="10" stroke-linecap="round" stroke-linejoin="round"/>
<path d="M258.434 1329.8C330.59 1337.65 312.943 1364.71 400.394 1370.2C442.355 1372.94 493.336 1346.28 546.669 1348.24C592.551 1349.41 641.179 1379.22 691.375 1378.82C739.218 1378.43 787.061 1347.84 835.296 1345.1C884.316 1341.96 936.081 1366.28 982.355 1360" stroke="white" stroke-width="4" stroke-miterlimit="10" stroke-linecap="round" stroke-linejoin="round"/>
<path d="M260.785 1383.53C333.726 1394.12 315.687 1421.17 404.315 1429.02C447.452 1432.94 499.609 1407.06 553.726 1409.41C600.785 1411.37 650.197 1441.96 700.785 1441.57C749.805 1441.17 798.432 1409.41 846.668 1405.1C897.648 1400.39 951.766 1422.35 997.256 1412.15" stroke="white" stroke-width="4" stroke-miterlimit="10" stroke-linecap="round" stroke-linejoin="round"/>
</svg>
