<svg width="1200" height="1406" viewBox="0 0 1200 1406" fill="none" xmlns="http://www.w3.org/2000/svg">
<path d="M349.415 825.883C349.415 825.883 406.67 803.138 417.258 802.354L418.042 811.373C418.042 811.373 372.552 830.981 369.807 834.118C367.454 836.863 349.415 825.883 349.415 825.883Z" fill="#7E5D6D"/>
<path d="M1056.08 1334.9H64.3154C64.3154 1334.9 70.1978 1152.94 129.806 1023.14C174.904 925.099 283.139 860.393 361.962 832.158C384.315 824.314 401.57 815.687 417.649 811.373C417.649 813.334 418.825 827.844 418.825 829.413C418.825 829.413 464.708 761.177 604.708 768.628C669.413 772.158 721.178 789.805 721.178 789.805C728.629 788.236 718.041 826.667 724.708 824.707C727.061 823.922 731.766 847.452 733.727 846.667C784.315 860.001 846.276 897.648 936.08 972.942C1038.04 1058.43 1056.08 1334.9 1056.08 1334.9Z" fill="black"/>
<path d="M865.099 936.079C890.439 936.079 910.982 915.537 910.982 890.197C910.982 864.857 890.439 844.314 865.099 844.314C839.759 844.314 819.217 864.857 819.217 890.197C819.217 915.537 839.759 936.079 865.099 936.079Z" fill="#FFFF8D"/>
<path d="M258.432 1334.9L240.785 1189.41" stroke="#544D4D" stroke-width="3" stroke-miterlimit="10" stroke-linecap="round" stroke-linejoin="round"/>
<path d="M943.529 1140C943.529 1140 931.765 1168.63 935.294 1197.26C938.823 1225.88 949.02 1267.84 934.51 1334.9" stroke="#544D4D" stroke-width="3" stroke-miterlimit="10" stroke-linecap="round" stroke-linejoin="round"/>
<path d="M349.411 825.886C356.862 823.533 369.803 825.886 373.725 832.552C389.019 857.65 425.882 930.984 441.176 1076.47C453.333 1190.2 434.901 1394.91 434.901 1394.91L54.1172 1376.87C54.1172 1376.87 65.4897 1183.53 98.8231 1053.73C131.764 927.846 217.254 871.376 349.411 825.886Z" fill="white"/>
<path d="M346.668 817.649C359.609 814.119 375.295 817.256 382.354 829.413C403.531 865.1 416.864 905.1 427.452 945.1C440.001 994.119 448.237 1044.32 452.55 1094.51C458.825 1195.3 452.942 1295.3 445.099 1396.08C444.707 1401.57 440.001 1405.49 434.511 1405.1L53.7268 1387.06C48.2366 1387.06 43.9229 1382.35 43.9229 1376.47C47.8444 1319.22 53.7268 1262.75 61.1778 1205.88C69.413 1149.02 78.0405 1092.55 94.1189 1037.26C131.374 913.727 231.766 856.864 346.668 817.649ZM352.55 834.511C299.609 852.551 241.962 865.492 198.04 902.355C176.864 920.394 161.178 944.707 146.276 967.845C115.295 1014.51 104.315 1070.2 94.9032 1125.1C80.3934 1208.63 71.766 1293.33 64.7072 1377.65C64.7072 1377.65 54.9032 1367.06 55.2954 1367.06L436.08 1385.1L425.491 1394.12C428.629 1344.32 431.766 1294.51 433.335 1244.71C438.433 1121.57 431.766 995.296 387.06 879.609C381.178 865.1 374.903 850.982 366.668 837.649C363.531 834.511 356.08 833.335 352.55 834.511Z" fill="black"/>
<path d="M743.923 849.804C743.923 849.804 865.099 1077.65 829.805 1381.96H1091.37C1091.37 1381.96 1090.2 1140.39 1031.37 1009.02C972.55 878.04 766.668 839.608 766.668 839.608C766.668 839.608 753.727 846.275 743.923 849.804Z" fill="white"/>
<path d="M753.335 853.334C754.512 852.157 754.904 849.804 754.511 848.236V847.844C756.472 852.157 758.825 856.471 760.786 860.785C817.257 986.667 844.708 1125.1 846.276 1262.75C846.668 1275.29 845.492 1301.96 845.1 1314.51C844.708 1334.9 841.178 1362.75 840.002 1383.14L830.198 1371.77H1091.77L1081.57 1381.96C1081.57 1352.94 1080 1323.53 1078.43 1294.51C1071.77 1196.08 1057.26 1025.49 988.629 952.55C935.296 895.295 841.178 860.785 765.1 849.412L771.374 848.628C765.884 851.373 759.61 854.118 754.119 856.471L750.982 857.648L750.198 858.04C751.374 857.648 752.943 855.295 753.335 853.334ZM734.512 846.275C736.08 843.53 739.61 840.393 743.139 839.216L745.884 838.04C751.374 835.687 757.257 832.942 762.747 830.197C764.708 829.412 766.668 829.02 768.629 829.804C783.531 834.118 797.649 838.432 811.766 843.138C825.884 848.236 839.61 853.334 853.335 859.216C894.119 876.863 934.119 897.648 968.237 925.883C995.688 948.236 1023.14 972.942 1038.43 1005.88C1066.28 1069.02 1079.22 1137.26 1088.63 1205.1C1096.86 1263.92 1100.79 1322.75 1101.57 1381.96C1101.57 1387.45 1097.26 1392.16 1091.37 1392.16H829.806C823.923 1392.16 819.217 1386.67 820.002 1380.78C821.57 1360.39 824.708 1333.33 825.1 1313.33C825.492 1301.18 826.668 1274.51 826.276 1262.75C825.492 1144.71 803.531 1026.28 761.962 915.687C754.512 896.079 746.276 876.471 737.257 858.04C734.904 854.903 733.727 849.804 734.512 846.275Z" fill="black"/>
<path d="M743.922 849.804L734.51 847.059C734.51 847.059 748.235 840.392 754.118 836.471L757.647 834.51C757.647 834.51 776.471 843.137 783.137 846.274C789.804 849.412 760 863.922 760 863.922C760 863.922 745.098 850.196 743.922 849.804Z" fill="#7E5D6D"/>
<path d="M316.864 960.393C316.864 960.393 262.747 998.432 267.845 1038.82C272.943 1079.22 439.609 1332.16 439.609 1332.16C439.609 1332.16 459.217 1194.9 436.864 1039.61C436.864 1039.61 420.786 1018.04 391.374 996.471C371.766 982.746 347.06 968.628 316.864 960.393Z" fill="white"/>
<path d="M318.825 970.589C320.002 970.589 321.178 969.805 322.355 969.02L321.57 969.412C299.217 983.53 271.766 1009.02 273.727 1037.65C276.08 1049.8 282.747 1061.96 288.629 1073.33C301.178 1097.26 314.904 1120.78 329.021 1144.31C357.257 1190.98 387.061 1236.86 417.649 1281.96L448.629 1327.06L430.198 1330.98C433.335 1307.45 435.296 1283.14 436.472 1258.82C440.394 1186.28 437.649 1113.33 427.453 1041.57L429.413 1046.28C414.904 1028.24 396.864 1012.55 378.041 999.608C360.394 987.844 341.57 978.432 321.178 972.157L320.394 971.765C319.217 971.373 319.217 970.981 318.825 970.589ZM315.296 950.589C318.825 950.981 323.139 951.765 326.668 952.942C360.786 963.53 392.159 982.354 418.825 1006.28C428.629 1014.9 436.864 1023.53 445.492 1034.12C446.668 1035.29 447.061 1036.86 447.453 1038.43C457.649 1111.77 460.394 1185.88 456.864 1260C455.688 1284.71 453.727 1309.02 450.59 1334.12C449.806 1343.53 436.864 1346.28 432.159 1338.04C405.884 1294.12 373.727 1241.18 347.845 1197.26C331.374 1169.02 308.237 1130.59 292.943 1102.35C284.315 1086.28 275.296 1070.2 268.629 1052.94C265.884 1046.67 264.315 1038.82 264.315 1031.37C267.061 1000 289.806 975.687 310.59 953.726C310.982 952.158 313.335 950.981 315.296 950.589Z" fill="black"/>
<path d="M950.198 1039.22C951.767 1014.12 893.727 973.335 893.727 973.335C870.59 980.002 854.119 990.59 842.355 1001.96C816.08 1026.67 812.551 1054.51 812.551 1054.51L814.119 1061.57C841.963 1182.75 833.727 1340.39 833.727 1340.39C833.727 1340.39 948.629 1064.32 950.198 1039.22Z" fill="white"/>
<path d="M945.49 1038.82C943.529 1015.69 907.059 991.766 887.843 981.57L896.47 983.139C861.176 992.942 829.804 1019.22 822.353 1056.08L821.961 1052.16C827.451 1075.69 832.157 1100 834.902 1123.92C844.313 1196.08 846.274 1268.24 843.529 1340.79C843.529 1341.18 824.313 1336.47 824.313 1336.47C844.313 1294.51 870.588 1232.16 889.019 1188.63C899.608 1163.92 909.411 1138.82 919.215 1113.73C928.627 1089.02 939.608 1064.32 945.49 1038.82ZM952.549 1039.22C950.196 1052.94 945.098 1065.49 940.784 1078.43C927.451 1116.47 912.157 1154.12 898.431 1192.16C885.49 1226.67 861.568 1290.59 849.412 1324.71L842.745 1343.92C838.823 1354.9 822.353 1351.37 823.529 1339.61C826.274 1268.63 824.313 1196.86 814.902 1126.28C812.157 1102.75 807.451 1079.61 802.353 1056.86C801.568 1052.55 803.137 1048.24 804.313 1044.31C815.686 1004.31 851.764 974.511 890.98 963.923C894.117 962.746 897.255 963.531 899.608 965.491C908.627 975.688 922.353 989.021 930.98 999.609C940 1010.59 952.549 1023.14 952.549 1039.22Z" fill="black"/>
<path d="M812.553 1052.16C812.553 1052.16 786.278 950.197 773.337 917.648C760.396 885.491 736.082 849.021 734.905 847.06C652.16 769.021 500.788 769.021 530.2 740.001C562.749 707.844 697.651 729.805 746.67 754.119C790.592 777.256 976.474 885.099 982.749 921.178C989.023 961.178 836.866 958.825 812.553 1052.16Z" fill="white"/>
<path d="M812.55 1062.35C808.237 1061.96 803.531 1058.04 802.354 1053.73V1053.33L801.962 1051.77L801.178 1048.63L799.609 1041.96C789.413 1002.75 779.609 961.569 766.276 923.53C756.864 898.432 743.139 874.902 728.629 851.765L729.805 852.942C715.688 839.216 698.825 828.236 681.57 818.432C645.884 799.216 607.06 787.059 568.237 775.687C554.903 770.589 522.354 765.098 520.394 748.628C520.394 731.373 547.06 723.922 559.609 721.569C611.374 713.726 664.315 723.138 714.119 736.863C726.668 740.785 739.217 745.098 750.982 750.981C755.296 753.334 767.06 760 771.374 762.353C807.06 782.745 841.962 804.314 876.472 827.059C910.982 849.804 945.884 871.765 974.903 901.961C998.433 926.275 984.315 941.961 958.433 953.334C921.57 969.804 881.178 981.177 851.374 1008.24C840.786 1018.04 832.158 1029.41 827.06 1042.35C825.099 1046.67 825.099 1048.63 823.139 1053.73C821.178 1056.86 816.08 1061.18 812.55 1062.35ZM812.55 1042.35C810.197 1040.78 805.884 1042.35 804.707 1044.31C803.923 1045.88 804.707 1044.31 805.099 1043.92C806.276 1040.78 807.845 1037.26 809.413 1034.12C837.648 979.608 902.354 965.883 954.119 944.314C974.119 935.295 989.021 927.451 968.237 906.667C939.609 877.647 904.315 856.471 870.197 834.902C835.296 813.726 799.609 793.726 763.531 774.51L750.198 767.451C719.609 750.981 685.099 743.922 650.982 738.432C621.178 734.51 558.433 727.451 536.472 748.628C536.472 748.628 536.864 747.844 536.864 746.667C536.864 745.491 536.472 745.098 536.472 744.706C536.472 744.706 537.648 745.883 539.217 746.667C549.413 752.157 561.178 755.295 572.943 758.824C612.55 770.589 652.943 782.745 689.805 802.745C709.021 813.334 727.845 825.491 743.531 841.569C758.825 865.098 773.335 889.804 783.923 916.079C798.041 955.295 808.237 996.079 819.217 1036.08L820.786 1042.75L821.57 1046.27L821.962 1047.84V1048.24C821.178 1044.71 816.08 1041.57 812.55 1042.35Z" fill="black"/>
<path d="M436.865 1040C436.865 1040 409.414 1010.98 376.473 990.587C303.532 945.489 196.473 924.705 195.296 889.803C194.512 850.587 324.708 768.627 410.983 740.783C540.787 704.705 557.649 747.45 559.218 765.489C560.002 774.117 418.434 819.607 419.218 828.627V829.019C419.218 829.019 401.179 834.901 414.12 924.705C417.257 947.058 430.983 985.489 436.865 1040Z" fill="white"/>
<path d="M441.179 1049.02C437.649 1050.59 431.767 1049.41 429.022 1046.27L428.63 1045.49L427.453 1044.31C426.277 1042.74 421.963 1038.43 420.395 1037.25C410.983 1027.84 400.787 1018.43 390.591 1010.2C362.355 987.45 329.022 972.548 296.081 957.646C270.591 946.666 244.316 936.862 220.002 923.137C181.963 901.96 183.924 880.784 212.551 850.98C252.551 811.764 300.395 781.568 350.591 756.862C369.414 747.843 389.022 739.607 409.022 733.333C452.551 721.568 554.512 698.823 565.493 763.137C565.493 764.313 565.885 765.097 565.493 766.666C565.1 768.235 564.316 769.019 563.924 769.803C559.218 774.509 552.944 776.862 547.453 779.215C521.963 789.803 495.689 798.431 469.414 807.45C453.336 813.333 436.473 818.039 421.571 826.274C420.787 827.058 419.61 827.842 420.002 829.019C412.944 834.901 413.336 845.49 412.159 853.725C411.375 879.999 415.689 907.45 421.571 932.941C428.63 958.431 437.257 985.097 442.355 1011.37C443.924 1019.61 446.277 1027.06 445.885 1035.29C445.1 1040.39 443.14 1045.49 441.179 1049.02ZM432.551 1030.98C430.591 1029.41 427.061 1029.8 425.493 1031.37C423.532 1017.25 421.179 1003.14 418.042 989.019C412.551 963.137 403.924 936.078 401.571 909.019L400.395 895.293C399.218 875.293 396.081 838.431 410.983 823.137C412.159 822.352 412.159 821.568 416.081 819.999L409.022 829.411C408.63 827.45 410.591 822.744 411.375 821.96C413.728 818.823 415.689 818.039 418.434 816.078C432.944 807.843 448.63 802.352 463.924 796.078C481.179 789.411 523.924 772.941 540.395 765.882C543.924 764.313 548.63 762.352 551.375 760.391C550.591 761.568 550.198 761.568 549.414 764.313C549.022 765.097 549.414 768.627 549.022 766.666C543.532 730.588 487.061 736.862 459.61 740.784C405.885 749.411 356.081 770.588 308.238 796.47C276.865 814.117 245.1 832.941 219.218 858.431C210.591 867.45 200.787 877.646 200.002 889.803C201.963 907.45 234.12 919.215 249.022 926.666C282.747 941.176 317.649 953.333 350.983 969.019C380.787 982.744 408.63 1001.57 433.336 1023.14C436.081 1025.49 440.787 1029.8 443.14 1032.16C442.747 1031.37 440.002 1029.8 437.649 1029.41C436.081 1029.8 434.12 1030.2 432.551 1030.98Z" fill="black"/>
</svg>
