<svg width="1200" height="1312" viewBox="0 0 1200 1312" fill="none" xmlns="http://www.w3.org/2000/svg">
<path d="M1056.08 1334.9H35.6874C35.6874 1334.9 32.5501 1087.84 120.001 972.941C183.923 888.627 300.393 866.274 371.766 845.49C390.197 840.392 406.276 834.509 419.609 830.98C423.923 842.745 467.452 958.039 571.766 1000.39C661.57 1036.86 714.903 1012.55 723.138 972.156C728.236 946.274 712.158 903.921 703.923 890.196C699.217 886.274 696.08 880.392 694.511 874.509L691.374 861.568C698.432 860 705.099 858.039 712.158 856.078C715.687 856.862 719.217 857.647 722.746 858.431C773.334 870.588 878.432 872.941 966.276 947.058C1068.24 1031.76 1056.08 1334.9 1056.08 1334.9Z" fill="black"/>
<path d="M813.728 953.725C811.767 925.882 780.395 922.353 780.395 922.353C780.395 922.353 807.454 920.392 808.63 898.431C809.414 885.882 797.65 873.725 778.434 866.274C783.532 863.529 787.454 860 784.708 854.902C778.434 843.529 755.297 841.568 750.199 839.608C730.199 832.157 687.061 789.411 551.767 774.902C516.865 771.372 444.316 769.411 415.689 787.058V786.666C412.159 786.666 405.885 791.764 398.826 799.215C390.983 799.607 369.414 801.96 350.591 813.725C335.689 822.745 333.336 836.862 340.395 846.666C331.375 850.588 321.963 856.862 315.297 866.666C296.081 896.078 339.61 906.274 360.003 898.431C360.003 898.431 327.061 916.078 338.826 943.921C350.591 971.764 388.238 955.686 388.238 955.686C388.238 955.686 355.297 991.764 383.14 1018.82C410.983 1045.88 443.532 1018.82 443.532 1018.82C443.532 1018.82 425.885 1060 455.297 1075.29C484.708 1090.59 507.454 1050.2 507.454 1050.2C507.454 1050.2 498.042 1092.16 526.669 1107.45C555.297 1122.74 575.297 1087.06 579.61 1073.73C579.61 1073.73 579.61 1118.43 620.003 1120C644.708 1121.18 652.944 1092.55 655.297 1070.2C665.101 1070.59 672.552 1070.2 676.473 1069.41C679.218 1068.63 683.14 1066.67 687.846 1064.31C692.159 1072.16 704.316 1089.8 723.924 1088.63C749.414 1087.45 755.689 1058.82 744.316 1034.51C744.316 1034.51 765.885 1049.02 788.238 1034.51C810.983 1020 790.591 985.098 778.042 980.392C779.218 979.215 815.689 981.176 813.728 953.725Z" fill="white"/>
<path d="M812.942 953.725C812.158 936.47 796.08 925.49 780.393 923.137C779.217 923.137 779.217 921.176 780.393 921.176C794.119 920.392 809.413 910.196 807.06 895.294C804.707 881.176 789.805 873.725 777.256 869.411C774.511 868.627 774.119 864.706 776.472 863.137C778.04 861.961 780.001 860.392 780.393 859.215C781.178 858.039 780.785 857.647 780.393 857.647C773.335 850.196 761.57 850.196 751.766 849.019C747.06 848.627 741.57 845.882 737.256 843.921C726.276 838.823 714.511 832.157 703.531 827.843C658.825 807.451 610.589 799.215 563.138 788.235C522.354 778.431 456.864 767.059 420.001 790.588L419.609 790.98C421.962 792.941 409.413 790.588 411.374 787.451C410.982 786.274 411.374 786.274 411.374 785.882V785.49C411.374 785.49 411.374 785.098 411.374 786.274L416.472 790.98C416.864 790.98 416.472 790.98 416.08 790.98C410.982 793.333 407.06 797.255 403.138 801.176C402.354 801.961 401.178 802.353 400.001 802.745C385.884 804.313 371.374 808.235 359.217 814.902C353.727 817.647 348.236 821.961 345.491 827.451C343.138 832.549 343.531 837.647 346.668 841.961C348.629 844.706 348.236 849.019 345.099 850.98C344.707 851.372 344.315 851.764 343.531 851.764C328.629 852.157 310.589 869.411 315.295 883.921C318.825 890.98 327.452 894.117 334.903 895.294C343.138 896.862 351.766 896.47 359.217 893.725C361.178 892.941 363.531 894.117 364.315 896.078C365.099 898.039 364.315 900 362.354 900.784C348.236 908.627 335.687 925.49 344.315 941.568C347.452 949.019 354.119 952.941 362.354 953.333C370.197 954.117 379.217 951.764 386.668 949.019C389.805 947.843 393.335 949.411 394.903 952.549C395.687 954.902 395.295 957.255 393.727 959.215C381.962 973.725 372.942 996.862 388.236 1011.37C401.962 1026.67 424.315 1023.14 438.825 1011.37C445.884 1005.49 456.08 1013.33 452.55 1021.57C449.413 1029.41 447.452 1040 448.629 1048.23C449.805 1064.71 467.844 1074.12 481.57 1063.92C488.629 1059.22 495.295 1051.37 499.609 1043.92C505.099 1034.12 520.393 1040 518.433 1050.59C518.04 1052.55 517.648 1055.29 517.648 1058.04C517.256 1065.1 517.648 1072.94 519.609 1079.61C523.923 1095.69 542.746 1105.88 555.295 1092.55C561.962 1086.67 567.844 1077.25 570.589 1069.02C574.511 1057.65 591.374 1060.39 591.374 1072.16C591.766 1080.78 594.119 1090.59 599.609 1097.65C605.884 1106.27 621.178 1111.76 630.982 1105.88C641.962 1097.25 644.707 1081.57 647.06 1067.45C649.021 1055.69 663.138 1060.78 671.374 1059.61C676.08 1059.22 674.511 1059.61 679.217 1057.65C681.178 1056.86 682.746 1056.08 684.707 1054.9C689.021 1052.55 694.119 1054.51 696.08 1058.43C700.001 1065.88 705.491 1072.55 711.766 1076.08C741.178 1090.2 750.982 1058.04 740.393 1034.9C738.433 1030.2 743.923 1025.88 747.844 1028.63C758.04 1035.29 772.158 1037.25 783.531 1031.76C807.06 1023.14 794.903 989.804 778.433 980.392C777.256 980 776.864 978.823 777.256 977.647C777.648 976.862 778.433 976.47 779.217 976.47C794.511 978.431 814.511 972.157 812.942 953.725ZM814.903 953.333C817.256 973.333 796.08 981.961 779.217 981.176L780.001 977.255C785.099 979.215 788.236 983.137 791.374 986.666C800.393 998.039 806.668 1014.9 798.433 1028.63C787.844 1043.53 765.884 1047.45 749.413 1040.78C747.06 1040 744.707 1038.82 742.354 1037.25L749.805 1030.98C756.864 1045.1 759.609 1063.14 751.766 1078.04C743.138 1094.9 720.001 1098.82 704.315 1090.59C694.119 1085.49 686.668 1076.47 681.178 1067.06L692.942 1070.59C688.629 1072.94 684.315 1075.29 679.217 1076.86C671.374 1078.43 663.923 1078.43 655.687 1078.04L665.491 1069.8C663.531 1088.23 659.609 1110.2 642.354 1122.74C623.531 1135.29 596.08 1127.84 582.746 1110.59C574.119 1099.22 570.197 1086.27 569.805 1072.55L590.589 1076.08C562.354 1152.16 483.138 1122.35 498.433 1047.06L516.864 1054.12C513.335 1059.61 510.197 1063.92 505.884 1068.63C497.256 1078.04 486.276 1085.88 472.55 1087.06C451.374 1089.02 431.374 1070.98 430.197 1050.2C429.021 1037.65 431.374 1026.27 436.08 1014.51L449.805 1024.71C446.668 1027.06 444.315 1028.63 441.178 1030.2C412.942 1046.67 376.864 1036.47 366.668 1003.92C361.962 984.313 371.374 965.098 383.923 950.588L390.982 960.392C364.315 970.98 331.766 963.921 331.766 930.196C332.55 914.117 344.707 901.961 358.04 894.117L361.178 901.176C340.785 908.627 298.825 900 309.021 870.98C314.903 857.255 325.884 848.235 337.648 839.215L334.511 849.412C314.119 811.372 370.197 794.51 398.433 793.725L395.295 795.294C400.786 789.412 406.668 781.176 415.687 780.392C418.433 780.392 420.786 782.745 420.786 785.098C420.786 786.274 420.786 786.274 420.786 786.274C420.786 785.882 420.786 785.882 420.786 784.706C422.746 781.961 410.589 779.215 412.942 781.176L413.727 780.784C429.021 773.333 446.276 770.98 462.746 769.804C496.472 767.451 530.197 769.019 563.923 773.725C626.668 781.961 688.629 798.431 742.354 832.549C753.727 839.608 766.276 837.255 778.04 844.313C783.531 847.451 789.805 853.333 787.452 860.392C786.276 864.313 782.354 867.059 779.217 868.627L778.825 861.961C785.884 865.098 792.55 869.019 798.04 874.117C820.393 894.117 807.844 920 779.609 922.353V920.392C797.256 923.137 814.119 935.294 814.903 953.333Z" fill="black"/>
<path d="M661.178 1054.51C661.178 1054.51 627.452 1145.1 652.55 1161.18C677.648 1177.25 670.982 1050.2 670.982 1050.2C670.982 1050.2 696.08 1158.43 728.236 1149.41C760.393 1140.39 682.746 1050.2 676.864 1048.63" fill="white"/>
<path d="M670.589 1058.04C658.825 1078.82 635.295 1136.86 652.55 1157.25C666.668 1169.8 667.06 1114.9 666.668 1107.84C666.276 1088.63 664.707 1069.02 660.785 1050.2L661.178 1047.06C662.746 1035.69 679.609 1036.08 680.393 1047.45C680.785 1068.24 698.825 1154.12 727.844 1146.27C737.256 1142.35 731.374 1129.41 728.236 1122.74C715.687 1098.43 696.864 1076.86 675.687 1059.61C674.119 1058.82 672.942 1057.25 671.374 1056.86C671.374 1056.86 671.374 1056.86 671.766 1057.25C672.158 1057.65 672.942 1058.04 673.727 1058.04C668.236 1056.47 665.491 1050.98 666.668 1045.49C668.236 1039.22 675.687 1036.08 681.178 1039.61C682.354 1040 683.138 1041.18 683.923 1041.96C690.981 1049.8 696.08 1058.43 701.962 1066.67C710.982 1081.57 755.687 1140.78 729.413 1150.98C698.825 1162.74 671.374 1074.12 660.785 1052.16L680.785 1049.41C678.825 1069.41 677.648 1088.63 675.687 1108.24C673.334 1125.49 673.334 1143.53 665.099 1159.61C661.178 1166.27 654.119 1166.67 648.629 1161.57C642.354 1156.08 640.785 1147.06 640.001 1139.61C638.432 1109.41 646.276 1080.78 651.374 1050.98C652.55 1045.49 657.648 1041.96 663.138 1042.74C670.589 1043.92 674.119 1052.16 670.589 1058.04Z" fill="black"/>
<path d="M252.942 881.176C252.942 881.176 278.825 1118.82 55.2952 1136.86C55.2952 1136.86 19.2167 1017.65 87.452 927.451C150.589 843.529 252.942 881.176 252.942 881.176Z" fill="white"/>
<path d="M254.511 880C255.295 881.176 254.903 882.745 255.295 883.921C256.472 898.039 256.864 912.549 256.079 927.058C252.942 1005.1 219.217 1084.31 146.668 1121.18C118.432 1135.69 87.452 1143.53 56.0794 1147.06C51.3735 1147.45 47.0598 1144.71 45.8833 1140.39C41.1775 1122.74 39.2167 1105.88 38.0402 1088.23C29.8049 985.098 85.4912 863.529 203.923 870.196C220.393 870.98 236.864 873.725 252.55 879.215C252.942 879.215 253.726 879.607 254.511 880ZM245.883 886.666C246.668 887.843 248.628 889.411 249.413 889.411C248.236 889.019 245.491 888.235 244.315 887.843C101.57 850.196 37.2559 988.627 59.6088 1110.59C60.7853 1118.43 62.7461 1126.67 64.7069 1134.12L54.1186 1127.06C189.805 1117.65 249.413 1014.9 244.315 887.451C244.315 886.666 243.923 883.529 243.923 882.745C244.315 883.921 244.707 885.882 245.883 886.666Z" fill="black"/>
<path d="M864.71 889.412C864.71 889.412 910.2 923.922 955.69 1009.41C979.22 1053.73 999.612 1105.49 1046.67 1128.24C1046.67 1128.24 1069.81 1018.04 1024.32 951.765C960.788 859.216 864.71 889.412 864.71 889.412Z" fill="white"/>
<path d="M868.63 889.804C869.022 889.019 868.63 887.059 867.846 886.667L868.238 887.059C887.845 903.137 904.708 922.353 920.395 942.353C936.081 962.745 949.806 984.314 962.355 1006.67C985.885 1048.24 1006.28 1098.43 1051.37 1119.22L1037.26 1126.27C1047.45 1070.2 1049.81 1005.49 1018.83 955.294C986.669 904.706 927.846 879.608 869.022 892.549L867.846 892.941H867.061H866.669C867.061 892.941 868.63 890.98 868.63 889.804ZM863.14 889.019C863.532 887.451 865.493 887.451 867.061 887.059C911.375 875.294 960.787 884.706 996.473 913.725C1055.69 959.608 1065.88 1036.47 1059.22 1106.67C1058.43 1114.51 1057.65 1122.35 1056.08 1130.59C1054.9 1136.86 1047.45 1140 1041.96 1137.25C1029.81 1130.98 1018.43 1122.35 1009.41 1112.55C982.355 1083.92 967.453 1046.27 950.591 1012.55C928.238 968.627 901.571 925.882 865.1 892.157C864.316 891.372 863.14 890.196 863.14 889.019Z" fill="black"/>
<path d="M401.963 800C394.12 814.51 387.061 831.764 387.061 848.627C387.454 856.863 390.983 864.706 394.512 872.157C422.356 926.274 470.199 969.804 524.709 995.686C556.081 1010.59 589.414 1021.96 623.532 1027.45C640.003 1029.8 657.258 1031.37 673.728 1029.8L670.591 1030.59C744.709 993.725 779.218 927.843 741.963 849.412C740.003 845.49 745.885 841.961 748.238 845.882C758.042 863.137 764.709 881.961 767.061 901.961C776.081 967.059 733.336 1018.43 679.611 1048.63C678.826 1049.02 677.65 1049.41 676.473 1049.41C666.277 1050.2 657.65 1049.8 647.846 1049.02C602.356 1045.1 558.434 1029.8 518.042 1008.63C461.963 979.608 413.336 932.941 386.277 875.294C382.748 866.666 379.218 857.647 378.826 847.843C380.003 829.019 387.454 812.157 396.473 796.078C398.826 792.941 404.316 796.47 401.963 800Z" fill="black"/>
<path d="M665.099 1039.61C670.197 982.353 672.158 923.529 660.785 867.058C660.001 863.529 662.354 859.607 665.883 858.823C669.805 858.039 673.727 860.784 674.119 864.705C676.08 879.215 677.648 894.117 678.825 908.627C682.354 950.98 683.923 997.647 685.491 1040.39C685.099 1054.51 663.923 1053.73 665.099 1039.61Z" fill="black"/>
<path d="M672.942 934.902C683.555 934.902 692.158 926.298 692.158 915.686C692.158 905.073 683.555 896.47 672.942 896.47C662.33 896.47 653.727 905.073 653.727 915.686C653.727 926.298 662.33 934.902 672.942 934.902Z" fill="black"/>
<path d="M675.687 994.117C686.3 994.117 694.903 985.514 694.903 974.902C694.903 964.289 686.3 955.686 675.687 955.686C665.075 955.686 656.472 964.289 656.472 974.902C656.472 985.514 665.075 994.117 675.687 994.117Z" fill="black"/>
</svg>
