<svg width="1200" height="1338" viewBox="0 0 1200 1338" fill="none" xmlns="http://www.w3.org/2000/svg">
<path d="M997.254 1212.94C963.921 1036.08 941.568 991.372 921.568 972.156C860 913.333 821.568 905.882 785.49 892.548C783.921 882.744 687.058 871.764 692.156 861.176L695.294 874.117C696.862 880.391 704.705 909.411 692.549 946.666C682.352 978.038 641.176 992.156 571.372 960.391C435.294 898.823 419.607 829.411 419.607 829.411C417.647 797.646 291.372 853.333 263.529 867.45C237.254 880.784 228.627 884.705 209.411 902.352C163.137 944.313 147.45 1083.53 125.49 1159.21C87.8426 1287.84 43.1367 1334.51 43.1367 1334.51H1056.47C1056.08 1334.9 1020 1334.12 997.254 1212.94Z" fill="black" stroke="black" stroke-width="5.1257" stroke-miterlimit="10" stroke-linecap="round" stroke-linejoin="round"/>
<path d="M252.549 891.372C252.549 891.372 212.549 973.332 259.608 1009.41C293.333 1035.29 360.392 1038.82 360.392 1038.82C360.392 1038.82 365.098 1119.61 430.196 1125.88C495.294 1132.16 532.941 1083.14 532.941 1083.14C532.941 1083.14 586.274 1155.29 662.745 1150.2C739.215 1144.7 735.686 1055.69 735.686 1055.69C735.686 1055.69 781.961 1078.82 820 1072.16C877.647 1061.96 868.235 979.999 831.372 959.999C831.372 959.999 890.196 974.901 872.157 942.744C858.039 917.646 788.627 880.783 734.51 867.058C705.49 859.607 677.647 848.626 650.98 835.685C605.49 813.332 498.039 787.842 395.294 814.901C365.49 821.568 242.745 854.509 252.549 891.372Z" fill="white"/>
<path d="M258.431 891.764C258.038 893.333 257.254 895.293 256.47 896.862C243.921 927.842 232.94 969.803 256.47 998.038C268.627 1010.98 287.45 1018.04 304.705 1022.74C322.744 1027.84 341.96 1030.59 360.783 1032.16C364.313 1032.55 366.666 1034.9 367.058 1038.43C370.195 1069.02 383.921 1104.71 415.293 1115.69C455.685 1128.23 501.568 1110.2 528.234 1078.82C530.98 1075.69 536.078 1075.69 538.431 1078.82C552.156 1096.47 570.195 1112.55 589.803 1123.92C618.43 1141.18 654.901 1150.2 686.274 1138.04C718.038 1125.1 730.195 1087.45 730.195 1055.29C730.195 1051.76 732.94 1049.02 736.47 1049.02C737.254 1049.02 738.431 1049.41 739.215 1049.41C755.685 1057.25 774.117 1063.14 792.156 1065.49C810.195 1067.84 829.411 1066.67 841.96 1055.29C867.45 1031.76 856.862 980.784 830.195 961.96C826.666 959.607 829.411 954.509 833.332 956.078C843.921 959.215 855.685 961.96 866.666 959.999C881.176 958.038 872.94 943.136 866.666 936.47C850.98 919.607 830.587 908.235 810.195 897.254C796.47 890.195 783.136 882.352 768.234 877.646C738.823 867.058 706.666 867.45 677.646 854.901C663.136 849.411 649.411 841.568 635.293 835.686C621.568 829.803 607.058 825.097 592.156 821.176C518.43 800.391 438.038 798.431 365.097 823.529C341.176 830.587 248.627 860.391 258.431 891.764ZM247.058 890.587C239.607 852.94 335.293 825.489 363.136 816.47C452.548 787.058 552.156 789.411 639.999 823.136C668.234 835.685 695.685 849.411 725.489 857.254C770.98 869.019 816.47 884.313 853.725 914.509C863.136 922.352 872.94 930.587 878.038 942.352C886.274 961.176 871.372 967.45 854.901 965.882C846.666 965.489 839.215 964.313 830.98 962.744L833.725 955.293C862.352 969.803 872.548 1006.67 865.097 1036.47C852.94 1084.71 799.607 1083.53 760.783 1070.98C751.372 1067.84 742.352 1064.71 732.94 1060.39L741.568 1054.9C741.96 1092.16 727.058 1134.51 690.195 1149.8C629.019 1172.55 564.705 1133.72 527.45 1086.67H537.254C507.058 1122.74 455.685 1142.35 410.195 1127.84C373.725 1114.9 356.47 1075.29 353.332 1038.82L359.215 1044.71C321.96 1041.18 273.725 1033.72 246.666 1005.88C232.156 989.803 228.627 967.058 230.587 946.666C232.548 926.666 238.038 907.45 246.274 889.019V888.627C246.274 888.627 246.274 888.234 246.274 889.019C247.058 889.803 247.058 890.195 247.058 890.587Z" fill="black"/>
<path d="M349.41 938.431C349.41 938.431 264.704 940.784 292.548 979.607C319.999 1018.04 349.41 938.431 349.41 938.431Z" fill="black"/>
<path d="M459.607 1019.21C459.607 1019.21 389.411 1063.92 432.156 1082.35C474.902 1100.78 459.607 1019.21 459.607 1019.21Z" fill="black"/>
<path d="M655.684 1045.49C655.684 1045.49 626.665 1120.39 670.586 1110.2C714.508 1100 655.684 1045.49 655.684 1045.49Z" fill="black"/>
<path d="M762.744 985.098C762.744 985.098 774.117 1050.98 801.176 1025.1C828.234 999.215 762.744 985.098 762.744 985.098Z" fill="black"/>
<path d="M783.529 898.822C783.529 898.822 812.941 945.097 825.49 925.489C838.039 905.881 783.529 898.822 783.529 898.822Z" fill="black"/>
</svg>
