<svg width="1200" height="1378" viewBox="0 0 1200 1378" fill="none" xmlns="http://www.w3.org/2000/svg">
<path d="M319.608 855.294C319.608 855.294 357.647 831.765 419.608 829.412C481.569 827.059 689.412 849.02 772.157 886.667C772.157 886.667 869.412 954.118 775.294 1026.27C681.177 1098.43 477.255 1053.33 430.98 997.647C384.706 942.353 319.608 855.294 319.608 855.294Z" fill="white"/>
<path d="M307.06 852.941C307.452 849.803 310.981 845.49 313.726 844.313C314.119 844.313 314.903 844.313 315.295 844.313C335.295 843.921 352.942 832.941 372.158 829.803C429.805 817.254 489.413 826.274 547.06 831.764C585.491 836.078 623.923 841.568 661.962 849.019C700.393 856.862 738.432 865.098 774.511 880.392C800.393 899.215 823.138 927.058 823.138 960.784C822.746 986.274 807.844 1007.45 789.805 1023.53C761.177 1050.2 721.962 1063.53 683.923 1068.63C607.06 1078.82 504.707 1063.53 440.001 1019.61C433.334 1014.9 426.668 1009.02 421.57 1002.74C401.962 979.607 383.138 956.47 364.707 932.941C355.687 921.568 331.766 891.372 323.138 879.999C321.177 877.254 314.511 869.411 312.942 866.666L311.374 864.313C308.236 861.96 306.668 857.254 307.06 852.941ZM332.158 857.647C333.334 854.901 332.158 850.588 330.589 848.627C330.981 849.019 332.55 851.372 332.942 852.156C349.021 874.117 366.276 897.647 383.138 919.607C401.177 943.137 419.609 967.058 438.04 989.803C455.687 1010.59 483.923 1022.74 509.413 1032.55C585.883 1058.82 691.766 1069.8 763.138 1025.49C785.491 1010.59 808.236 988.627 809.413 960.784C810.197 933.333 789.413 908.235 768.236 892.156C739.217 879.607 695.295 868.627 659.609 861.568C584.315 847.45 507.452 837.254 430.981 835.294C412.158 835.294 393.334 836.862 374.903 841.176C361.177 844.705 347.06 847.45 335.295 854.901C331.766 857.647 327.844 861.176 326.275 865.49C329.021 864.705 331.766 860.784 332.158 857.647Z" fill="black"/>
<path d="M787.454 932.94C786.278 972.547 762.748 1017.25 697.258 1040.39C600.003 1074.9 951.768 1049.41 951.768 1049.41C951.768 1049.41 930.199 978.038 892.16 946.273C842.356 904.704 772.16 880.391 772.16 880.391C772.16 880.391 788.239 902.744 787.454 932.94Z" fill="white"/>
<path d="M796.866 933.332C793.336 990.587 747.454 1028.63 696.474 1045.88C692.944 1047.45 688.238 1049.02 685.493 1051.37C684.709 1051.76 685.101 1052.55 685.493 1050.59C685.493 1049.8 685.101 1048.63 684.709 1048.63C689.415 1050.59 697.258 1051.37 703.14 1051.76C785.886 1055.69 869.023 1047.06 951.376 1039.21L942.356 1052.16C942.748 1047.06 941.964 1041.57 941.18 1036.08C936.474 1009.8 922.748 985.881 906.67 965.097C886.278 940.783 856.866 925.489 829.023 911.763C810.199 902.744 789.807 895.293 769.807 889.803L781.18 874.509C791.768 892.156 797.258 912.548 796.866 933.332ZM778.042 932.548C778.042 916.077 773.336 899.607 764.317 885.881C758.434 878.038 767.062 867.058 775.689 870.587C796.866 878.038 816.474 887.058 836.082 897.254C860.395 910.195 884.709 924.705 905.101 943.92C932.944 972.548 949.023 1009.02 961.572 1046.27C963.533 1052.16 958.827 1058.82 952.552 1058.82L841.572 1061.96C795.297 1062.74 748.631 1064.7 702.356 1061.18C694.121 1060 684.709 1060.39 677.65 1054.51C670.199 1044.7 686.278 1038.82 693.336 1036.47C740.003 1022.35 779.219 984.313 778.042 932.548Z" fill="black"/>
<path d="M989.805 1367.45H90.9812C91.3734 1339.61 93.7263 1277.65 102.746 1210.98C108.628 1168.23 117.648 1123.92 130.981 1085.1C148.236 1035.29 174.118 943.528 195.295 918.038C196.079 917.646 196.079 917.646 196.079 917.646C206.275 901.567 218.04 889.41 227.844 883.92C264.707 862.352 286.667 855.685 303.138 849.41C309.02 847.45 318.04 844.704 320.001 847.842C377.648 937.646 500.393 1002.74 610.197 1025.88C764.315 1058.43 948.236 1038.43 952.158 1049.41C969.02 1095.68 980.001 1195.29 970.981 1239.21C959.217 1294.9 987.06 1343.92 989.805 1367.45Z" fill="white"/>
<path d="M997.257 1374.51C729.806 1375.29 354.512 1378.82 90.9827 1377.65C85.4925 1377.65 80.7866 1373.33 80.7866 1367.45C82.3552 1289.02 88.6298 1210.2 106.277 1133.33C115.296 1094.9 129.414 1058.82 141.179 1021.18C152.159 988.627 162.355 954.901 178.826 924.313C181.963 919.215 184.708 914.509 188.63 910.195L187.061 911.764C196.081 898.431 206.669 884.705 220.787 875.293C244.708 860.783 270.591 849.019 296.865 840.391C304.708 838.038 312.159 834.509 321.179 836.862C323.532 837.646 326.669 839.607 327.845 842.352L329.022 844.313C334.512 852.94 340.787 861.176 347.061 869.019C416.865 950.587 519.218 1000.78 623.532 1022.35C670.591 1030.98 719.218 1036.08 767.061 1037.65C808.238 1038.82 852.551 1034.51 893.728 1032.16C907.845 1031.37 925.885 1030.59 940.395 1031.37C950.198 1031.76 961.571 1033.33 965.885 1044.71C977.649 1079.21 983.14 1115.69 986.277 1151.37C988.238 1176.08 989.414 1200.78 986.277 1226.67C985.1 1238.43 981.571 1249.8 981.179 1261.96C978.826 1294.12 990.198 1325.1 997.649 1356.08C999.61 1361.96 1000.79 1369.02 997.257 1374.51ZM982.355 1360.78C980.394 1361.96 979.218 1365.1 979.61 1366.67L979.218 1365.1C977.649 1358.04 972.944 1342.74 970.983 1335.69C960.395 1303.14 955.296 1267.06 963.532 1233.33C967.453 1207.45 966.669 1180.39 964.708 1153.72C961.963 1119.61 957.257 1085.1 947.061 1052.55V1052.16C947.061 1052.16 946.669 1051.37 947.061 1052.55C947.845 1053.72 948.238 1053.72 948.238 1054.12C945.885 1053.33 943.14 1052.94 939.61 1052.94C810.591 1049.8 675.689 1055.69 551.767 1013.72C463.532 982.744 376.473 933.725 321.963 855.685L319.218 851.764L318.042 849.803L317.649 849.411C316.865 849.019 315.689 849.019 314.12 849.411C312.943 849.411 311.375 849.803 309.806 850.195C301.179 852.548 292.551 856.078 284.316 859.215C264.708 866.666 245.885 876.47 228.238 887.45C216.081 895.685 207.061 907.45 198.826 919.999C187.061 934.901 180.787 953.725 173.728 971.372C167.061 989.411 161.179 1007.84 155.296 1026.27C145.492 1058.82 129.022 1104.71 122.355 1137.65C105.885 1212.94 101.179 1290.98 100.787 1367.84L90.5905 1357.65C349.022 1357.65 720.787 1358.82 982.355 1360.78Z" fill="black"/>
<path d="M921.962 1160C912.942 1154.12 903.923 1148.63 894.903 1142.74C903.531 1136.47 912.158 1130.19 920.786 1123.92L947.844 1141.17L921.962 1160Z" fill="black"/>
<path d="M637.651 1141.18C629.807 1133.72 622.356 1125.88 614.906 1118.04C624.709 1113.72 634.513 1109.8 643.925 1105.49C651.376 1112.94 658.827 1120.39 666.67 1127.84C657.258 1132.16 647.455 1136.47 637.651 1141.18Z" fill="black"/>
<path d="M779.61 1158.04C770.983 1151.37 762.747 1145.1 754.512 1138.04C763.924 1132.94 772.943 1127.06 781.963 1121.57C790.198 1128.24 798.826 1134.9 807.061 1141.18C798.042 1147.06 788.63 1152.55 779.61 1158.04Z" fill="black"/>
<path d="M498.824 1104.31C492.549 1095.29 486.275 1086.67 480.393 1078.04C490.589 1075.69 501.177 1072.94 511.373 1070.2C517.255 1078.82 523.922 1087.06 530.196 1095.69C520 1098.43 509.412 1101.96 498.824 1104.31Z" fill="black"/>
<path d="M259.218 944.313C258.434 933.333 258.041 921.96 259.218 911.372C268.63 916.078 278.434 919.607 288.238 922.352C288.238 932.549 289.022 943.137 290.591 953.725C280.002 951.372 269.806 948.235 259.218 944.313Z" fill="black"/>
<path d="M368.63 1041.57C366.277 1036.86 364.316 1031.37 362.355 1026.67C360.394 1021.57 358.434 1016.86 356.473 1011.76C361.963 1011.76 367.061 1011.76 372.551 1011.76C377.649 1011.76 383.14 1011.76 388.238 1011.37C392.159 1020.78 396.473 1030.98 401.179 1040.39C390.198 1041.18 379.61 1041.57 368.63 1041.57Z" fill="black"/>
<path d="M989.806 1367.45H348.63C216.473 1317.65 123.532 1255.29 103.14 1210.98C99.6103 1203.14 98.0417 1196.08 99.2182 1189.41C118.434 1054.51 189.414 924.706 195.689 917.647C196.081 917.647 196.081 917.647 196.081 917.647C196.081 917.647 343.924 1245.49 970.591 1239.61C981.179 1295.29 987.061 1343.92 989.806 1367.45Z" fill="black"/>
<path d="M319.612 1009.8C334.772 1009.8 347.063 997.514 347.063 982.353C347.063 967.193 334.772 954.902 319.612 954.902C304.451 954.902 292.161 967.193 292.161 982.353C292.161 997.514 304.451 1009.8 319.612 1009.8Z" fill="black"/>
<path d="M440.787 1090.59C455.947 1090.59 468.238 1078.3 468.238 1063.14C468.238 1047.98 455.947 1035.69 440.787 1035.69C425.626 1035.69 413.336 1047.98 413.336 1063.14C413.336 1078.3 425.626 1090.59 440.787 1090.59Z" fill="black"/>
<path d="M572.553 1136.86C587.714 1136.86 600.004 1124.57 600.004 1109.41C600.004 1094.25 587.714 1081.96 572.553 1081.96C557.392 1081.96 545.102 1094.25 545.102 1109.41C545.102 1124.57 557.392 1136.86 572.553 1136.86Z" fill="black"/>
<path d="M712.159 1159.61C727.32 1159.61 739.61 1147.32 739.61 1132.16C739.61 1117 727.32 1104.71 712.159 1104.71C696.998 1104.71 684.708 1117 684.708 1132.16C684.708 1147.32 696.998 1159.61 712.159 1159.61Z" fill="black"/>
<path d="M854.906 1167.84C870.067 1167.84 882.357 1155.55 882.357 1140.39C882.357 1125.23 870.067 1112.94 854.906 1112.94C839.745 1112.94 827.455 1125.23 827.455 1140.39C827.455 1155.55 839.745 1167.84 854.906 1167.84Z" fill="black"/>
</svg>
