<svg width="1200" height="1348" viewBox="0 0 1200 1348" fill="none" xmlns="http://www.w3.org/2000/svg">
<path d="M1056.08 1334.9H64.3159C64.3159 1334.9 122.747 1211.76 148.63 1071.37C166.669 974.117 180.002 917.254 230.59 885.881C266.277 863.921 366.669 832.156 438.041 821.96C467.061 818.038 524.708 813.725 574.512 817.646C612.159 822.352 689.806 844.313 719.61 852.548C764.316 865.097 861.179 902.352 903.924 941.568C920.787 957.254 960.787 1035.69 986.669 1149.41C1016.47 1278.82 1056.08 1334.9 1056.08 1334.9Z" fill="white"/>
<path d="M1065.1 1339.61C769.805 1341.96 355.687 1347.45 64.7069 1347.06C56.0795 1347.45 49.805 1337.65 53.7265 1329.8C60.7854 1314.9 67.452 1299.61 73.7265 1283.92C101.962 1214.12 125.883 1142.35 140.393 1068.63C152.158 1010.98 161.57 946.667 205.099 903.138C217.256 890.981 232.158 881.569 247.452 874.51C278.432 860.392 310.197 848.628 342.354 838.432C407.06 817.255 475.687 808.236 543.923 809.412C578.04 809.412 612.55 814.902 645.883 822.745C660.393 825.49 680.785 831.765 694.903 835.687L707.06 839.216C709.413 840.392 710.197 845.098 711.374 847.451C712.158 849.02 712.942 849.412 714.119 849.804C716.079 850.196 719.217 847.451 721.177 848.236C760.785 860 798.825 877.255 835.295 896.471C861.177 910.981 887.844 925.098 909.021 946.275C927.452 969.804 942.354 996.079 956.079 1022.75C989.413 1091.37 998.825 1169.02 1024.31 1240C1033.73 1267.06 1044.71 1294.12 1058.04 1319.61L1060.79 1324.71L1062.35 1327.45L1063.14 1328.63L1063.53 1329.41C1065.88 1330.98 1066.67 1336.86 1065.1 1339.61ZM1047.06 1330.2C1045.1 1332.55 1045.49 1337.65 1047.06 1339.61L1046.67 1338.82L1045.88 1337.26L1044.31 1334.51C1028.24 1306.27 1016.86 1276.08 1006.67 1245.49C980.001 1165.49 971.374 1080 933.727 1003.92C924.315 984.706 914.903 965.098 900.785 949.02C892.55 941.569 883.53 935.294 874.119 929.412C831.766 903.53 784.315 885.883 737.648 869.02C733.727 867.451 723.923 864.314 720.001 863.138C716.864 862.353 715.687 861.961 714.903 858.039C714.119 854.902 713.334 850.981 709.805 852.549C707.844 853.334 704.315 858.039 701.962 857.647C694.119 855.687 673.334 850.196 665.491 848.236C635.295 840.392 605.491 830.588 574.903 824.706C480.785 816.471 386.668 832.941 296.864 860.785C265.883 871.373 231.766 881.177 209.413 906.667C170.589 954.902 163.923 1036.08 151.766 1096.08C134.903 1179.61 109.413 1260.78 75.2952 1339.61L64.3148 1322.35C348.236 1323.53 759.217 1327.06 1047.06 1330.2Z" fill="black"/>
<path d="M425.883 861.568C413.726 862.745 400.785 865.49 389.804 871.764C388.628 872.549 387.059 870.588 388.236 869.804C398.432 860.784 411.373 855.686 423.922 851.764C426.667 850.98 429.412 852.549 429.804 855.294C430.981 858.431 429.02 861.568 425.883 861.568Z" fill="black"/>
<path d="M457.256 911.765C443.139 914.902 429.413 921.569 418.041 930.98C409.021 932.549 431.766 914.118 433.335 913.333C440.002 908.627 446.668 905.098 454.511 901.961C456.864 901.176 460.002 902.353 460.786 904.706C462.355 908.235 460.394 911.372 457.256 911.765Z" fill="black"/>
<path d="M507.842 961.961C496.469 970.98 486.665 983.137 480.391 996.47C479.999 997.255 478.822 997.647 478.038 997.255C477.253 996.863 476.861 996.078 477.253 995.294C479.606 987.843 482.744 980.392 487.057 973.725C491.371 966.667 496.077 960.392 501.567 954.51C503.528 952.549 506.665 952.549 508.626 954.51C510.587 956.47 510.587 960.392 507.842 961.961Z" fill="black"/>
<path d="M592.549 1000.78C585.882 1014.9 580.784 1030.2 580 1045.88C580 1048.63 575.294 1048.63 575.294 1045.88C574.51 1033.33 576.471 1020.78 580 1009.02C581.961 1004.31 582.353 991.764 590.196 994.117C592.549 994.901 593.726 998.039 592.549 1000.78Z" fill="black"/>
<path d="M682.351 1002.35C684.704 1007.84 702.743 1051.76 694.116 1052.16C692.939 1052.16 691.763 1051.37 691.763 1050.2C691.371 1046.27 690.194 1042.74 688.626 1038.82C684.704 1027.84 679.214 1016.86 673.332 1006.67C670.587 1000.78 679.606 996.078 682.351 1002.35Z" fill="black"/>
<path d="M719.608 915.687C734.118 918.432 746.275 927.059 755.294 938.04C755.687 938.432 755.687 939.608 755.294 940.001C754.902 940.393 754.118 940.393 753.334 940.001C743.922 931.765 731.373 925.883 718.824 925.491C711.373 925.099 712.549 914.51 719.608 915.687Z" fill="black"/>
<path d="M705.489 869.805C717.646 872.942 729.019 878.04 738.038 886.668C738.823 887.452 738.823 888.628 738.038 889.413C737.254 890.197 736.47 890.197 735.686 889.805C726.274 883.53 714.901 880.393 703.921 879.609C696.862 878.824 698.431 868.236 705.489 869.805Z" fill="black"/>
<path d="M719.608 970.981C730.588 980 741.569 989.412 748.628 1001.96C749.02 1002.35 748.628 1003.14 748.235 1003.53C747.843 1003.92 747.059 1003.53 746.667 1003.14C738.039 992.549 726.275 985.491 714.51 978.824C708.235 975.687 713.726 966.667 719.608 970.981Z" fill="black"/>
</svg>
