<svg width="1200" height="1348" viewBox="0 0 1200 1348" fill="none" xmlns="http://www.w3.org/2000/svg">
<path d="M1056.08 1334.9H64.3164C64.3164 1334.9 122.748 1211.76 148.63 1071.37C166.669 974.118 180.003 917.255 230.591 885.882C266.277 863.922 366.669 832.157 438.042 821.961C467.061 818.039 524.709 813.726 574.513 817.647C612.16 822.353 689.807 844.314 719.611 852.549C764.316 865.098 861.179 902.353 903.924 941.569C920.787 957.255 960.787 1035.69 986.669 1149.41C1016.47 1278.82 1056.08 1334.9 1056.08 1334.9Z" fill="white"/>
<path d="M1065.1 1339.61C769.805 1341.96 355.687 1347.45 64.7069 1347.06C56.0795 1347.45 49.805 1337.65 53.7265 1329.8C60.7854 1314.9 67.452 1299.61 73.7265 1283.92C101.962 1214.12 125.883 1142.35 140.393 1068.63C152.158 1010.98 161.57 946.667 205.099 903.138C217.256 890.981 232.158 881.569 247.452 874.51C278.432 860.392 310.197 848.628 342.354 838.432C407.06 817.255 475.687 808.236 543.923 809.412C578.04 809.412 612.55 814.902 645.883 822.745C660.393 825.49 680.785 831.765 694.903 835.687L707.06 839.216C709.413 840.392 710.197 845.098 711.374 847.451C712.158 849.02 712.942 849.412 714.119 849.804C716.08 850.196 719.217 847.451 721.178 848.236C760.785 860 798.825 877.255 835.295 896.471C861.178 910.981 887.844 925.098 909.021 946.275C927.452 969.804 942.354 996.079 956.08 1022.75C989.413 1091.37 998.825 1169.02 1024.31 1240C1033.73 1267.06 1044.71 1294.12 1058.04 1319.61L1060.79 1324.71L1062.35 1327.45L1063.14 1328.63L1063.53 1329.41C1065.88 1330.98 1066.67 1336.86 1065.1 1339.61ZM1047.06 1330.2C1045.1 1332.55 1045.49 1337.65 1047.06 1339.61L1046.67 1338.82L1045.88 1337.26L1044.31 1334.51C1028.24 1306.27 1016.86 1276.08 1006.67 1245.49C980.001 1165.49 971.374 1080 933.727 1003.92C924.315 984.706 914.903 965.098 900.785 949.02C892.55 941.569 883.53 935.294 874.119 929.412C831.766 903.53 784.315 885.883 737.648 869.02C733.727 867.451 723.923 864.314 720.001 863.138C716.864 862.353 715.687 861.961 714.903 858.039C714.119 854.902 713.334 850.981 709.805 852.549C707.844 853.334 704.315 858.039 701.962 857.647C694.119 855.687 673.334 850.196 665.491 848.236C635.295 840.392 605.491 830.588 574.903 824.706C480.785 816.471 386.668 832.941 296.864 860.785C265.883 871.373 231.766 881.177 209.413 906.667C170.589 954.902 163.923 1036.08 151.766 1096.08C134.903 1179.61 109.413 1260.78 75.2952 1339.61L64.3148 1322.35C348.236 1323.53 759.217 1327.06 1047.06 1330.2Z" fill="black"/>
<path d="M425.882 861.569C413.725 862.746 400.784 865.491 389.804 871.765C388.627 872.55 387.059 870.589 388.235 869.805C398.431 860.785 411.372 855.687 423.921 851.765C426.666 850.981 429.411 852.55 429.804 855.295C430.98 858.432 429.019 861.569 425.882 861.569Z" fill="black"/>
<path d="M457.255 911.767C443.138 914.904 429.412 921.57 418.04 930.982C409.02 932.551 431.765 914.12 433.334 913.335C440.001 908.629 446.667 905.1 454.51 901.963C456.863 901.178 460.001 902.355 460.785 904.708C462.354 908.237 460.393 911.374 457.255 911.767Z" fill="black"/>
<path d="M507.842 961.962C496.469 970.981 486.665 983.138 480.391 996.471C479.999 997.256 478.822 997.648 478.038 997.256C477.253 996.864 476.861 996.079 477.253 995.295C479.606 987.844 482.744 980.393 487.057 973.726C491.371 966.668 496.077 960.393 501.567 954.511C503.528 952.55 506.665 952.55 508.626 954.511C510.587 956.471 510.587 960.393 507.842 961.962Z" fill="black"/>
<path d="M592.549 1000.78C585.882 1014.9 580.784 1030.2 580 1045.88C580 1048.63 575.294 1048.63 575.294 1045.88C574.509 1033.33 576.47 1020.78 580 1009.02C581.96 1004.31 582.353 991.765 590.196 994.118C592.549 994.902 593.725 998.04 592.549 1000.78Z" fill="black"/>
<path d="M682.351 1002.35C684.704 1007.84 702.743 1051.77 694.115 1052.16C692.939 1052.16 691.762 1051.37 691.762 1050.2C691.37 1046.28 690.194 1042.75 688.625 1038.83C684.704 1027.84 679.213 1016.86 673.331 1006.67C670.586 1000.79 679.606 996.08 682.351 1002.35Z" fill="black"/>
<path d="M719.607 915.687C734.117 918.432 746.274 927.059 755.293 938.04C755.686 938.432 755.686 939.608 755.293 940.001C754.901 940.393 754.117 940.393 753.333 940.001C743.921 931.765 731.372 925.883 718.823 925.491C711.372 925.099 712.548 914.51 719.607 915.687Z" fill="black"/>
<path d="M705.489 869.806C717.646 872.943 729.018 878.041 738.038 886.669C738.822 887.453 738.822 888.629 738.038 889.414C737.254 890.198 736.469 890.198 735.685 889.806C726.273 883.531 714.901 880.394 703.92 879.61C696.862 878.825 698.43 868.237 705.489 869.806Z" fill="black"/>
<path d="M719.607 970.981C730.588 980 741.568 989.412 748.627 1001.96C749.019 1002.35 748.627 1003.14 748.235 1003.53C747.843 1003.92 747.058 1003.53 746.666 1003.14C738.039 992.549 726.274 985.491 714.509 978.824C708.235 975.687 713.725 966.667 719.607 970.981Z" fill="black"/>
</svg>
