<svg width="1200" height="1312" viewBox="0 0 1200 1312" fill="none" xmlns="http://www.w3.org/2000/svg">
<path d="M261.57 881.568C261.57 881.568 215.687 896.078 199.609 918.431C174.903 952.549 154.119 1019.22 131.374 1085.1C89.8049 1204.71 90.9814 1382.74 90.9814 1382.74H985.883C985.883 1382.74 986.668 1190.59 953.334 1059.61C947.452 1036.08 927.452 997.647 918.04 981.96C899.217 950.588 865.883 934.902 852.942 925.882C852.942 925.882 877.648 1078.82 704.315 1087.84C530.981 1096.86 321.57 1041.57 316.472 1009.41C311.374 976.862 261.57 881.568 261.57 881.568Z" fill="white"/>
<path d="M908.235 1389.8C661.961 1503.53 256.471 1400.78 256.471 1400.78C256.471 1400.78 248.235 1300.78 278.039 1120.78C279.216 1112.55 280.392 1104.31 281.176 1096.86C289.804 1015.29 279.216 910.98 258.039 875.686C258.039 866.667 267.451 869.02 278.039 860C282.353 856.471 288.235 856.078 291.373 858.431C296.863 866.274 311.765 904.706 316.078 912.941C360 994.118 427.059 1046.27 518.824 1055.29C643.922 1067.84 696.078 1065.88 758.431 1052.16C818.431 1038.82 845.49 1003.53 828.627 944.706C818.824 909.804 802.353 892.549 801.961 891.765C811.373 895.686 834.902 906.274 843.529 921.961C845.882 925.882 861.569 950.196 873.725 1002.35C882.353 1039.61 886.667 1070.59 891.765 1112.55C909.02 1249.8 908.235 1389.8 908.235 1389.8Z" fill="black" stroke="black" stroke-width="5.1257" stroke-miterlimit="10" stroke-linecap="round" stroke-linejoin="round"/>
<path d="M683.532 1112.94C690.895 1112.94 696.865 1106.97 696.865 1099.61C696.865 1092.24 690.895 1086.27 683.532 1086.27C676.168 1086.27 670.198 1092.24 670.198 1099.61C670.198 1106.97 676.168 1112.94 683.532 1112.94Z" fill="white"/>
<path d="M687.059 1162.35C694.423 1162.35 700.392 1156.38 700.392 1149.02C700.392 1141.66 694.423 1135.69 687.059 1135.69C679.695 1135.69 673.726 1141.66 673.726 1149.02C673.726 1156.38 679.695 1162.35 687.059 1162.35Z" fill="white"/>
</svg>
