<svg width="1200" height="1398" viewBox="0 0 1200 1398" fill="none" xmlns="http://www.w3.org/2000/svg">
<path d="M349.411 825.882C349.411 825.882 406.666 803.137 417.254 802.353L418.039 811.372C418.039 811.372 372.548 830.98 369.803 834.117C367.45 836.862 349.411 825.882 349.411 825.882Z" fill="#7E5D6D"/>
<path d="M1056.08 1334.9H64.3115C64.3115 1334.9 70.1939 1152.94 129.802 1023.14C174.9 925.098 283.135 860.392 361.959 832.156C384.312 824.313 401.566 815.686 417.645 811.372C417.645 813.333 418.821 827.843 418.821 829.411C418.821 829.411 472.155 803.529 612.155 811.372C676.861 814.901 697.253 809.803 697.253 809.803C704.704 808.235 706.272 857.254 712.939 854.902C715.292 854.117 731.763 847.451 733.723 846.666C784.312 860 846.272 897.647 936.076 972.941C1038.04 1058.43 1056.08 1334.9 1056.08 1334.9Z" fill="white" stroke="black" stroke-width="5.1257" stroke-miterlimit="10" stroke-linecap="round" stroke-linejoin="round"/>
<path d="M865.096 936.077C890.436 936.077 910.979 915.535 910.979 890.195C910.979 864.855 890.436 844.312 865.096 844.312C839.756 844.312 819.214 864.855 819.214 890.195C819.214 915.535 839.756 936.077 865.096 936.077Z" fill="#FFFF8D"/>
<path d="M258.429 1334.9L240.782 1189.41" stroke="#544D4D" stroke-width="3" stroke-miterlimit="10" stroke-linecap="round" stroke-linejoin="round"/>
<path d="M943.529 1140C943.529 1140 931.765 1168.63 935.294 1197.25C938.823 1225.88 949.02 1267.84 934.51 1334.9" stroke="#544D4D" stroke-width="3" stroke-miterlimit="10" stroke-linecap="round" stroke-linejoin="round"/>
<path d="M349.411 825.882C356.862 823.529 369.803 825.882 373.725 832.548C389.019 857.646 599.607 895.293 614.902 1040.78C627.058 1154.51 604.313 1394.9 604.313 1394.9L54.1172 1376.86C54.1172 1376.86 65.4897 1183.53 98.8231 1053.72C131.764 927.843 217.254 871.372 349.411 825.882Z" fill="black" stroke="black" stroke-width="5.1257" stroke-miterlimit="10" stroke-linecap="round" stroke-linejoin="round"/>
<path d="M704.313 1040.78C704.313 1040.78 728.627 1166.67 724.313 1381.96H1090.98C1090.98 1381.96 1089.8 1140.39 1030.98 1009.02C972.157 878.039 766.274 839.607 766.274 839.607C766.274 839.607 714.51 1036.86 704.313 1040.78Z" fill="black" stroke="black" stroke-width="5.1257" stroke-miterlimit="10" stroke-linecap="round" stroke-linejoin="round"/>
<path d="M743.922 849.804L734.51 847.059C734.51 847.059 748.235 840.392 754.118 836.471L757.647 834.51C757.647 834.51 776.471 843.137 783.137 846.274C789.804 849.412 760 863.922 760 863.922C760 863.922 745.098 850.196 743.922 849.804Z" fill="#7E5D6D"/>
<path d="M615.295 1040.78C615.295 1040.78 552.157 988.627 410.589 960.392C287.059 935.686 159.216 947.451 170.197 914.51C204.706 811.373 412.157 750.588 412.157 751.373C412.157 751.765 531.373 714.51 589.412 782.353C599.216 794.118 614.903 985.098 615.295 1040.78Z" fill="white"/>
<path d="M619.609 1049.8C616.471 1051.37 610.981 1050.59 608.236 1047.84C607.844 1047.45 606.275 1046.27 605.491 1045.88C545.491 1002.74 472.942 980.392 401.177 965.49C351.373 955.686 300.393 951.372 249.805 946.666C230.589 943.529 153.726 943.137 166.667 911.764C198.04 827.843 329.805 769.804 410.589 745.098C445.099 736.078 481.569 733.333 516.864 740C545.099 745.098 572.942 757.255 592.158 778.823C595.295 782.353 596.471 787.843 597.256 791.764C603.922 823.137 606.667 855.294 610.981 887.059C616.079 931.372 620.393 976.078 624.314 1020.78C624.314 1023.53 625.099 1032.55 625.099 1035.29V1036.47V1037.25C625.491 1041.96 622.746 1047.45 619.609 1049.8ZM610.981 1031.76C609.805 1031.76 608.236 1032.55 607.06 1033.73C605.491 1034.9 605.099 1037.65 605.099 1038.04C605.099 1037.25 605.099 1032.55 605.099 1031.76C605.099 984.314 602.354 936.47 598.824 889.019C596.863 863.529 594.511 838.431 590.981 813.333C589.805 804.706 588.628 794.51 585.491 786.666C568.628 765.49 541.569 753.333 514.903 749.412C452.158 742.353 390.589 763.921 332.942 787.059C272.55 812.549 198.824 847.843 172.158 911.764C164.314 926.274 182.354 930.588 193.334 932.941C212.158 936.862 230.981 938.039 250.197 939.608C288.236 942.353 326.667 945.098 364.707 949.804C451.373 960.784 544.707 983.921 618.824 1031.37L620.001 1032.16C620.001 1032.16 620.785 1032.55 620.001 1032.16C617.648 1030.2 612.942 1030.2 610.981 1031.76Z" fill="black"/>
<path d="M999.607 943.923C993.332 907.452 801.568 773.335 782.744 776.864C774.509 787.845 682.352 780.002 657.646 782.747C653.725 783.139 651.372 787.06 652.548 790.59C670.979 840.394 694.509 989.805 704.313 1040.79C750.979 994.903 803.528 974.511 851.372 965.1C934.901 948.629 1003.53 966.668 999.607 943.923Z" fill="white"/>
<path d="M995.295 944.706C979.608 903.53 825.099 799.216 784.707 786.667L790.981 782.745C785.099 788.628 779.608 787.843 772.942 788.236C765.099 787.843 755.295 787.451 747.452 786.667C728.236 785.098 705.491 784.706 685.883 784.706C676.863 784.706 667.452 784.706 658.824 785.491C656.863 785.491 656.079 786.667 655.687 788.236C662.354 807.059 667.452 827.451 672.157 846.667C685.491 900.785 696.863 960 709.02 1014.9L714.51 1038.82L697.648 1033.33C760.001 975.294 841.961 952.941 925.491 952.157C939.216 951.765 952.55 951.765 965.883 951.765C972.157 951.373 996.863 952.549 995.295 944.706ZM1000.78 943.922C1003.14 959.216 975.295 957.255 965.883 958.432C952.55 958.824 938.824 959.216 925.491 959.608C846.667 961.569 764.706 987.451 711.373 1047.84C705.883 1053.73 695.295 1050.59 694.51 1042.35C681.961 961.177 670.197 866.667 647.844 788.236C647.844 783.138 652.55 778.432 657.648 778.432H660.785C669.412 778.04 677.256 778.432 685.491 778.824C700.001 779.608 720.001 780.392 734.51 780.392C748.628 780.392 763.138 780.392 776.471 776.471C778.04 776.079 780.001 774.902 780.001 774.51C780.001 774.118 780.393 773.334 780.785 773.334C785.491 772.549 788.628 774.118 792.157 775.687C830.981 793.334 992.942 908.236 1000.78 943.922Z" fill="black"/>
<path d="M561.568 1112.16C578.678 1112.16 592.549 1098.29 592.549 1081.18C592.549 1064.07 578.678 1050.2 561.568 1050.2C544.458 1050.2 530.588 1064.07 530.588 1081.18C530.588 1098.29 544.458 1112.16 561.568 1112.16Z" fill="white"/>
<path d="M374.508 1208.63C414.792 1208.63 447.449 1175.97 447.449 1135.69C447.449 1095.4 414.792 1062.74 374.508 1062.74C334.223 1062.74 301.566 1095.4 301.566 1135.69C301.566 1175.97 334.223 1208.63 374.508 1208.63Z" fill="white"/>
<path d="M894.117 1208.63C928.77 1208.63 956.862 1175.97 956.862 1135.69C956.862 1095.4 928.77 1062.75 894.117 1062.75C859.464 1062.75 831.372 1095.4 831.372 1135.69C831.372 1175.97 859.464 1208.63 894.117 1208.63Z" fill="white"/>
<path d="M747.844 1108.24C764.088 1108.24 777.256 1095.07 777.256 1078.82C777.256 1062.58 764.088 1049.41 747.844 1049.41C731.601 1049.41 718.433 1062.58 718.433 1078.82C718.433 1095.07 731.601 1108.24 747.844 1108.24Z" fill="white"/>
<path d="M614.118 997.647C612.549 996.47 610.981 995.294 609.412 994.117" stroke="black" stroke-width="3" stroke-linecap="round" stroke-linejoin="round"/>
<path d="M578.039 972.943C546.666 955.688 511.764 944.707 470.588 933.335C375.686 906.668 310.98 915.296 229.019 890.59C224.705 889.413 219.607 887.845 214.901 885.884" stroke="black" stroke-width="3" stroke-linecap="round" stroke-linejoin="round" stroke-dasharray="2.9 2.9"/>
<path d="M200.001 874.51C199.216 872.941 198.824 870.98 198.824 869.02" stroke="black" stroke-width="3" stroke-linecap="round" stroke-linejoin="round"/>
<path d="M698.039 1002.74C698.039 1002.74 699.608 1001.18 702.353 998.823" stroke="black" stroke-width="3" stroke-linecap="round" stroke-linejoin="round"/>
<path d="M734.51 976.47C754.51 964.705 782.745 950.587 820 938.823C878.823 920.391 929.804 921.568 959.608 921.568" stroke="black" stroke-width="3" stroke-linecap="round" stroke-linejoin="round" stroke-dasharray="3 3"/>
<path d="M979.216 921.568C981.569 921.176 983.53 920.784 985.098 920.392" stroke="black" stroke-width="3" stroke-linecap="round" stroke-linejoin="round"/>
<path d="M578.429 1063.53C607.056 1068.63 661.958 1074.51 731.37 1062.35C742.35 1060.39 752.546 1068.24 753.331 1079.22V1081.18C754.115 1090.59 747.84 1099.22 738.821 1101.18C710.978 1107.84 648.625 1117.25 570.586 1100.39C561.958 1098.43 555.684 1090.59 555.684 1081.96C556.076 1070.59 566.664 1061.57 578.429 1063.53Z" fill="white"/>
<path d="M578.822 1061.57C605.881 1065.88 633.724 1065.49 660.783 1064.71C679.214 1064.71 697.254 1063.92 715.685 1061.96C725.097 1061.57 735.293 1057.25 744.312 1062.35C758.43 1069.41 759.999 1092.16 746.665 1100.78C743.136 1103.53 737.254 1104.71 732.94 1105.49C679.607 1119.22 623.528 1116.47 570.587 1103.14C544.705 1096.08 552.156 1058.04 578.822 1061.57ZM578.038 1065.49C558.038 1061.96 549.803 1089.8 568.626 1097.65C586.273 1101.96 604.705 1103.53 622.744 1104.71C640.783 1105.88 659.214 1106.27 677.254 1105.49C695.293 1104.71 713.724 1103.53 731.763 1100.39C736.077 1099.61 740.391 1099.22 744.312 1096.86C755.293 1090.2 754.116 1071.37 742.352 1065.88C738.43 1063.92 734.508 1063.92 730.195 1065.1C716.469 1067.84 702.744 1070.2 689.018 1071.76C652.156 1076.86 614.508 1073.33 578.038 1065.49Z" fill="black"/>
</svg>
