<svg width="1200" height="1460" viewBox="0 0 1200 1460" fill="none" xmlns="http://www.w3.org/2000/svg">
<path d="M1062.75 1336.47L69.4126 1314.51C130.589 1110.2 164.707 930.196 210.589 902.745C297.648 850.588 376.079 842.353 422.746 838.039C434.511 867.059 479.217 962.353 572.158 1000C661.962 1036.47 715.295 1012.16 723.53 971.765C728.628 945.882 712.55 903.529 704.315 889.804C699.609 885.882 696.471 880 694.903 874.117L691.766 861.176C698.432 859.608 705.099 858.039 711.766 855.686C783.138 868.235 891.373 927.059 914.511 960C942.354 999.608 980.785 1098.82 979.217 1153.33C976.864 1241.96 1062.75 1336.47 1062.75 1336.47Z" fill="white"/>
<path d="M1072.16 1340.78C776.472 1336.47 360.785 1332.16 69.4128 1324.71C63.9226 1324.71 59.6089 1320 59.6089 1314.51C91.3736 1207.45 116.864 1099.61 150.981 992.941C155.295 979.608 160.001 966.666 165.491 953.333C174.903 932.549 184.315 909.412 203.923 895.294C215.295 888.627 227.452 881.96 239.217 876.078C296.079 847.843 359.217 833.333 421.962 828.235C426.668 827.843 430.589 830.588 432.158 834.51C461.962 905.882 516.079 972.157 591.766 996.862C629.021 1009.8 695.295 1020.78 712.942 974.51C718.825 952.157 710.197 928.627 702.354 907.451C700.393 903.137 698.432 898.823 696.472 895.294L698.432 897.647C690.981 891.372 686.276 880.784 684.707 871.372L682.746 863.529C681.57 858.039 685.099 852.549 690.589 851.372C697.256 849.804 703.53 848.235 709.805 846.274C764.707 850.196 877.256 905.882 916.08 945.098C938.825 971.372 951.766 1005.49 964.707 1037.25C974.119 1062.74 982.354 1089.02 987.06 1116.08C989.021 1126.27 990.197 1136.86 990.197 1147.45C989.805 1163.14 990.981 1179.22 995.295 1194.9C1008.24 1243.92 1036.86 1289.02 1069.41 1327.84L1070.2 1328.63L1070.59 1329.02C1070.59 1329.02 1070.2 1328.63 1071.77 1330.2C1072.94 1333.33 1073.33 1338.04 1072.16 1340.78ZM1053.73 1332.55C1053.33 1333.73 1052.55 1335.29 1052.94 1337.25C1052.94 1339.22 1053.73 1340.78 1054.51 1341.96C1055.69 1343.53 1055.3 1342.74 1055.3 1343.14L1054.9 1342.74C1052.16 1338.82 1046.67 1330.98 1043.92 1326.67C1011.77 1276.08 980.001 1220 978.825 1158.43C979.609 1118.04 967.06 1079.22 953.727 1041.96C944.315 1016.86 933.334 992.549 919.217 969.804C915.687 964.313 912.158 958.823 907.452 954.117C893.334 940.392 876.079 929.411 858.825 919.608C812.942 894.117 763.138 872.941 710.981 866.274L715.687 865.882C708.629 868.235 701.57 869.804 694.511 871.372L702.354 859.215C704.707 867.451 705.099 877.255 711.766 882.745C716.079 887.843 718.432 894.51 721.178 900C727.452 914.902 731.766 930.196 734.511 946.274C741.57 984.706 718.825 1016.47 681.178 1025.1C649.413 1032.55 616.079 1025.88 585.883 1016.08C504.707 990.196 445.883 919.215 414.119 842.353L424.315 848.627C362.354 847.843 300.785 860 244.707 886.666C232.55 892.549 220.001 899.215 208.628 906.274C192.55 919.215 184.707 939.608 176.472 958.039C150.981 1022.35 136.079 1089.8 119.217 1156.47C107.452 1203.53 91.7657 1270.2 80.001 1317.65L70.5893 1304.71C354.511 1310.59 765.099 1323.14 1053.73 1332.55Z" fill="black"/>
<path d="M243.531 1334.9C243.531 1334.9 238.433 1207.84 233.334 1184.31" stroke="black" stroke-width="5.1512" stroke-miterlimit="10" stroke-linecap="round" stroke-linejoin="round"/>
<path d="M938.431 1334.9C938.431 1334.9 926.666 1256.08 926.666 1242.35C926.666 1229.02 936.862 1185.1 938.431 1146.67" stroke="black" stroke-width="5.1512" stroke-miterlimit="10" stroke-linecap="round" stroke-linejoin="round"/>
<path d="M359.218 1236.08V1189.41L471.767 1235.29C471.375 1235.29 380.787 1237.65 359.218 1236.08Z" fill="white"/>
<path d="M500.395 1233.72C500.395 1233.72 389.414 1241.18 329.807 1233.72" stroke="black" stroke-width="5.1512" stroke-miterlimit="10" stroke-linecap="round" stroke-linejoin="round"/>
<path d="M627.452 1084.31L613.334 1376.86C613.334 1376.86 737.648 1461.57 737.648 1459.22C737.648 1456.86 796.472 1354.12 796.472 1354.12L704.707 1072.55C704.707 1072.55 692.942 1084.71 627.452 1084.31Z" fill="black"/>
<path d="M655.689 990.197C655.689 990.197 601.963 1040.78 594.905 1054.12C587.846 1067.45 625.101 1088.63 625.101 1088.63C625.101 1088.63 685.101 1101.18 712.159 1076.86C712.159 1076.86 727.454 1060 724.316 1043.92C721.571 1028.24 655.689 990.197 655.689 990.197Z" fill="black"/>
<path d="M406.666 800.392C407.058 800 407.45 799.608 407.842 799.216C412.156 794.118 418.431 790.98 425.489 790.196C458.431 786.274 461.96 789.804 469.019 800.784C503.136 854.117 547.45 956.078 656.078 990.588L551.372 1097.25C545.882 1104.31 536.078 1105.49 529.019 1100.39C495.293 1075.29 427.842 998.431 390.587 904.706C382.744 885.098 381.176 863.529 385.097 843.137C384.313 842.353 399.999 809.804 406.666 800.392Z" fill="white"/>
<path d="M403.921 798.431C409.803 792.941 416.47 788.235 424.705 787.059C435.686 785.882 447.058 783.529 458.431 785.882C470.195 789.412 474.509 802.353 481.176 811.372C510.588 859.608 541.176 908.627 586.274 942.745C602.352 955.686 620.784 965.49 639.607 973.333C646.666 976.078 654.117 978.431 661.176 981.569C667.058 984.314 668.235 992.941 663.137 996.863C634.117 1020.39 606.666 1045.88 579.607 1072.16C573.333 1078.43 558.823 1092.94 553.333 1098.43C547.058 1106.67 534.509 1107.84 526.666 1101.57L522.744 1098.43C509.411 1087.45 497.254 1074.9 485.49 1062.35C443.529 1016.08 408.235 963.529 384.705 905.49C376.47 884.706 374.509 861.176 379.607 839.608C385.49 825.098 393.333 810.588 403.921 798.431ZM411.764 803.921C403.137 816.078 395.686 830.98 389.411 844.706L389.803 843.529C387.45 856.471 387.45 869.804 390.195 882.353C392.548 895.686 398.431 907.451 403.529 919.608C414.117 944.706 427.45 968.627 441.568 991.765C455.686 1014.9 471.764 1037.25 489.803 1058.04C501.96 1072.16 514.901 1085.88 529.803 1097.25C530.98 1098.43 532.156 1098.82 533.725 1099.61C539.215 1101.96 545.882 1100 549.411 1095.29L562.352 1081.96L575.293 1068.24C601.176 1041.18 625.882 1012.94 649.019 983.529L652.94 999.608C624.705 990.98 598.039 975.686 574.901 956.47C529.019 919.216 499.215 867.451 470.98 817.255C467.45 811.765 463.921 804.706 460.391 799.608C458.823 797.255 457.646 796.47 455.293 795.686C446.274 793.333 435.686 794.902 426.274 796.078C419.999 796.863 414.901 799.608 411.764 803.921Z" fill="black"/>
<path d="M765.489 1058.43C763.137 1071.37 753.725 1083.53 738.039 1067.45L655.293 990.197C655.293 990.197 703.529 944.315 691.764 861.177C707.842 857.648 723.137 852.55 737.254 845.883C737.646 846.668 743.137 857.256 749.411 874.903C762.744 911.374 779.607 978.432 765.489 1058.43Z" fill="white"/>
<path d="M767.844 1058.82C765.491 1077.65 751.373 1085.49 736.864 1070.98L709.021 1045.1L681.177 1019.22L653.334 993.333C651.766 991.765 651.766 989.412 652.942 987.843C674.511 962.745 685.491 928.627 685.491 895.686C685.491 883.921 683.922 872.549 681.962 860.784C681.177 856.078 685.099 851.765 690.197 851.373C705.883 850.98 721.57 849.02 737.256 845.098C737.648 844.706 738.432 845.098 738.432 845.49C769.805 911.373 779.609 987.059 767.844 1058.82ZM763.53 1058.04C772.942 988.235 762.746 915.686 730.197 853.333L729.413 852.157C729.021 851.765 728.628 850.98 728.628 850.98L741.962 854.902C726.668 862.353 710.589 867.451 694.119 870.98L701.962 859.608C704.315 883.921 702.354 908.627 695.295 931.765C687.844 954.902 676.079 976.078 658.432 993.333V987.451C672.55 1000.39 700.393 1026.67 714.119 1039.61L741.57 1065.88C751.373 1076.08 760.785 1072.16 763.53 1058.04Z" fill="black"/>
</svg>
