<svg width="1200" height="1335" viewBox="0 0 1200 1335" fill="none" xmlns="http://www.w3.org/2000/svg">
<path d="M1056.08 1334.9H35.6869C35.6869 1334.9 32.5497 1087.84 120.001 972.941C183.922 888.628 300.393 866.275 371.765 845.49C390.197 840.392 406.275 834.51 419.608 830.98C423.922 842.745 467.452 958.039 571.765 1000.39C661.569 1036.86 714.903 1012.55 723.138 972.157C728.236 946.275 712.157 903.922 703.922 890.196C699.216 886.275 696.079 880.392 694.51 874.51L691.373 861.569C698.432 860 705.099 858.039 712.158 856.079C715.687 856.863 719.216 857.647 722.746 858.431C773.334 870.588 878.432 872.941 966.275 947.059C1068.24 1031.76 1056.08 1334.9 1056.08 1334.9Z" fill="black"/>
<path d="M813.727 953.725C811.766 925.882 780.394 922.353 780.394 922.353C780.394 922.353 807.453 920.392 808.629 898.431C809.413 885.882 797.649 873.725 778.433 866.274C783.531 863.529 787.453 860 784.708 854.902C778.433 843.529 755.296 841.568 750.198 839.608C730.198 832.157 687.06 789.411 551.766 774.902C516.864 771.372 444.315 769.411 415.688 787.058V786.666C412.158 786.666 405.884 791.764 398.825 799.215C390.982 799.608 369.413 801.96 350.59 813.725C335.688 822.745 333.335 836.862 340.394 846.666C331.374 850.588 321.962 856.862 315.296 866.666C296.08 896.078 339.609 906.274 360.002 898.431C360.002 898.431 327.06 916.078 338.825 943.921C350.59 971.764 388.237 955.686 388.237 955.686C388.237 955.686 355.296 991.764 383.139 1018.82C410.982 1045.88 443.531 1018.82 443.531 1018.82C443.531 1018.82 425.884 1060 455.296 1075.29C484.708 1090.59 507.453 1050.2 507.453 1050.2C507.453 1050.2 498.041 1092.16 526.668 1107.45C555.296 1122.74 575.296 1087.06 579.609 1073.73C579.609 1073.73 579.609 1118.43 620.002 1120C644.708 1121.18 652.943 1092.55 655.296 1070.2C665.1 1070.59 672.551 1070.2 676.472 1069.41C679.217 1068.63 683.139 1066.67 687.845 1064.31C692.158 1072.16 704.315 1089.8 723.923 1088.63C749.413 1087.45 755.688 1058.82 744.315 1034.51C744.315 1034.51 765.884 1049.02 788.237 1034.51C810.982 1020 790.59 985.098 778.041 980.392C779.217 979.215 815.688 981.176 813.727 953.725Z" fill="white"/>
<path d="M812.942 953.725C812.158 936.47 796.079 925.49 780.393 923.137C779.216 923.137 779.216 921.176 780.393 921.176C794.118 920.392 809.412 910.196 807.06 895.294C804.707 881.176 789.805 873.725 777.256 869.411C774.51 868.627 774.118 864.706 776.471 863.137C778.04 861.961 780.001 860.392 780.393 859.215C781.177 858.039 780.785 857.647 780.393 857.647C773.334 850.196 761.569 850.196 751.765 849.019C747.06 848.627 741.569 845.882 737.256 843.921C726.275 838.823 714.51 832.157 703.53 827.843C658.824 807.451 610.589 799.215 563.138 788.235C522.354 778.431 456.863 767.059 420.001 790.588L419.609 790.98C421.961 792.941 409.412 790.588 411.373 787.451C410.981 786.274 411.373 786.274 411.373 785.882V785.49C411.373 785.49 411.373 785.098 411.373 786.274L416.471 790.98C416.863 790.98 416.471 790.98 416.079 790.98C410.981 793.333 407.06 797.255 403.138 801.176C402.354 801.961 401.177 802.353 400.001 802.745C385.883 804.313 371.373 808.235 359.216 814.902C353.726 817.647 348.236 821.961 345.491 827.451C343.138 832.549 343.53 837.647 346.667 841.961C348.628 844.706 348.236 849.019 345.099 850.98C344.707 851.372 344.314 851.764 343.53 851.764C328.628 852.157 310.589 869.411 315.295 883.921C318.824 890.98 327.452 894.117 334.903 895.294C343.138 896.862 351.765 896.47 359.216 893.725C361.177 892.941 363.53 894.117 364.314 896.078C365.099 898.039 364.314 900 362.354 900.784C348.236 908.627 335.687 925.49 344.314 941.568C347.452 949.019 354.118 952.941 362.354 953.333C370.197 954.117 379.216 951.764 386.667 949.019C389.805 947.843 393.334 949.411 394.903 952.549C395.687 954.902 395.295 957.255 393.726 959.215C381.961 973.725 372.942 996.862 388.236 1011.37C401.961 1026.67 424.314 1023.14 438.824 1011.37C445.883 1005.49 456.079 1013.33 452.55 1021.57C449.412 1029.41 447.452 1040 448.628 1048.23C449.805 1064.71 467.844 1074.12 481.569 1063.92C488.628 1059.22 495.295 1051.37 499.609 1043.92C505.099 1034.12 520.393 1040 518.432 1050.59C518.04 1052.55 517.648 1055.29 517.648 1058.04C517.256 1065.1 517.648 1072.94 519.609 1079.61C523.922 1095.69 542.746 1105.88 555.295 1092.55C561.962 1086.67 567.844 1077.25 570.589 1069.02C574.511 1057.65 591.373 1060.39 591.373 1072.16C591.765 1080.78 594.118 1090.59 599.609 1097.65C605.883 1106.27 621.177 1111.76 630.981 1105.88C641.961 1097.25 644.707 1081.57 647.06 1067.45C649.02 1055.69 663.138 1060.78 671.373 1059.61C676.079 1059.22 674.51 1059.61 679.216 1057.65C681.177 1056.86 682.746 1056.08 684.707 1054.9C689.02 1052.55 694.118 1054.51 696.079 1058.43C700.001 1065.88 705.491 1072.55 711.765 1076.08C741.177 1090.2 750.981 1058.04 740.393 1034.9C738.432 1030.2 743.922 1025.88 747.844 1028.63C758.04 1035.29 772.158 1037.25 783.53 1031.76C807.06 1023.14 794.903 989.804 778.432 980.392C777.256 980 776.863 978.823 777.256 977.647C777.648 976.862 778.432 976.47 779.216 976.47C794.51 978.431 814.511 972.157 812.942 953.725ZM814.903 953.333C817.256 973.333 796.079 981.961 779.216 981.176L780.001 977.255C785.099 979.215 788.236 983.137 791.373 986.666C800.393 998.039 806.667 1014.9 798.432 1028.63C787.844 1043.53 765.883 1047.45 749.412 1040.78C747.06 1040 744.707 1038.82 742.354 1037.25L749.805 1030.98C756.863 1045.1 759.609 1063.14 751.765 1078.04C743.138 1094.9 720.001 1098.82 704.314 1090.59C694.118 1085.49 686.667 1076.47 681.177 1067.06L692.942 1070.59C688.628 1072.94 684.314 1075.29 679.216 1076.86C671.373 1078.43 663.922 1078.43 655.687 1078.04L665.491 1069.8C663.53 1088.23 659.609 1110.2 642.354 1122.74C623.53 1135.29 596.079 1127.84 582.746 1110.59C574.118 1099.22 570.197 1086.27 569.805 1072.55L590.589 1076.08C562.354 1152.16 483.138 1122.35 498.432 1047.06L516.863 1054.12C513.334 1059.61 510.197 1063.92 505.883 1068.63C497.256 1078.04 486.275 1085.88 472.55 1087.06C451.373 1089.02 431.373 1070.98 430.197 1050.2C429.02 1037.65 431.373 1026.27 436.079 1014.51L449.805 1024.71C446.667 1027.06 444.314 1028.63 441.177 1030.2C412.942 1046.67 376.863 1036.47 366.667 1003.92C361.961 984.313 371.373 965.098 383.922 950.588L390.981 960.392C364.314 970.98 331.765 963.921 331.765 930.196C332.55 914.117 344.707 901.961 358.04 894.117L361.177 901.176C340.785 908.627 298.824 900 309.02 870.98C314.903 857.255 325.883 848.235 337.648 839.215L334.511 849.412C314.118 811.372 370.197 794.51 398.432 793.725L395.295 795.294C400.785 789.412 406.667 781.176 415.687 780.392C418.432 780.392 420.785 782.745 420.785 785.098C420.785 786.274 420.785 786.274 420.785 786.274C420.785 785.882 420.785 785.882 420.785 784.706C422.746 781.961 410.589 779.215 412.942 781.176L413.726 780.784C429.02 773.333 446.275 770.98 462.746 769.804C496.471 767.451 530.197 769.019 563.922 773.725C626.667 781.961 688.628 798.431 742.354 832.549C753.726 839.608 766.275 837.255 778.04 844.313C783.53 847.451 789.805 853.333 787.452 860.392C786.275 864.313 782.354 867.059 779.216 868.627L778.824 861.961C785.883 865.098 792.55 869.019 798.04 874.117C820.393 894.117 807.844 920 779.609 922.353V920.392C797.256 923.137 814.118 935.294 814.903 953.333Z" fill="black"/>
<path d="M661.177 1054.51C661.177 1054.51 627.451 1145.1 652.549 1161.18C677.647 1177.25 670.981 1050.2 670.981 1050.2C670.981 1050.2 696.079 1158.43 728.235 1149.41C760.392 1140.39 682.745 1050.2 676.863 1048.63" fill="white"/>
<path d="M670.589 1058.04C658.824 1078.82 635.295 1136.86 652.55 1157.25C666.667 1169.8 667.059 1114.9 666.667 1107.84C666.275 1088.63 664.707 1069.02 660.785 1050.2L661.177 1047.06C662.746 1035.69 679.608 1036.08 680.393 1047.45C680.785 1068.24 698.824 1154.12 727.844 1146.27C737.256 1142.35 731.373 1129.41 728.236 1122.74C715.687 1098.43 696.863 1076.86 675.687 1059.61C674.118 1058.82 672.942 1057.25 671.373 1056.86C671.373 1056.86 671.373 1056.86 671.765 1057.25C672.158 1057.65 672.942 1058.04 673.726 1058.04C668.236 1056.47 665.491 1050.98 666.667 1045.49C668.236 1039.22 675.687 1036.08 681.177 1039.61C682.354 1040 683.138 1041.18 683.922 1041.96C690.981 1049.8 696.079 1058.43 701.961 1066.67C710.981 1081.57 755.687 1140.78 729.412 1150.98C698.824 1162.74 671.373 1074.12 660.785 1052.16L680.785 1049.41C678.824 1069.41 677.648 1088.63 675.687 1108.24C673.334 1125.49 673.334 1143.53 665.099 1159.61C661.177 1166.27 654.118 1166.67 648.628 1161.57C642.354 1156.08 640.785 1147.06 640.001 1139.61C638.432 1109.41 646.275 1080.78 651.373 1050.98C652.55 1045.49 657.648 1041.96 663.138 1042.74C670.589 1043.92 674.118 1052.16 670.589 1058.04Z" fill="black"/>
<path d="M252.942 881.176C252.942 881.176 278.825 1118.82 55.2952 1136.86C55.2952 1136.86 19.2167 1017.65 87.452 927.451C150.589 843.529 252.942 881.176 252.942 881.176Z" fill="white"/>
<path d="M254.511 880C255.295 881.177 254.903 882.745 255.295 883.922C256.472 898.039 256.864 912.549 256.079 927.059C252.942 1005.1 219.217 1084.31 146.668 1121.18C118.432 1135.69 87.452 1143.53 56.0794 1147.06C51.3735 1147.45 47.0598 1144.71 45.8833 1140.39C41.1775 1122.75 39.2167 1105.88 38.0402 1088.24C29.8049 985.098 85.4912 863.53 203.923 870.196C220.393 870.98 236.864 873.726 252.55 879.216C252.942 879.216 253.726 879.608 254.511 880ZM245.883 886.667C246.668 887.843 248.628 889.412 249.413 889.412C248.236 889.02 245.491 888.235 244.315 887.843C101.57 850.196 37.2559 988.628 59.6088 1110.59C60.7853 1118.43 62.7461 1126.67 64.7069 1134.12L54.1186 1127.06C189.805 1117.65 249.413 1014.9 244.315 887.451C244.315 886.667 243.923 883.53 243.923 882.745C244.315 883.922 244.707 885.882 245.883 886.667Z" fill="black"/>
<path d="M864.709 889.412C864.709 889.412 910.199 923.922 955.689 1009.41C979.219 1053.73 999.611 1105.49 1046.67 1128.24C1046.67 1128.24 1069.81 1018.04 1024.32 951.765C960.787 859.216 864.709 889.412 864.709 889.412Z" fill="white"/>
<path d="M868.629 889.804C869.021 889.02 868.629 887.059 867.845 886.667L868.237 887.059C887.845 903.138 904.707 922.353 920.394 942.353C936.08 962.745 949.805 984.314 962.354 1006.67C985.884 1048.24 1006.28 1098.43 1051.37 1119.22L1037.26 1126.27C1047.45 1070.2 1049.81 1005.49 1018.82 955.294C986.668 904.706 927.845 879.608 869.021 892.549L867.845 892.942H867.06H866.668C867.06 892.942 868.629 890.981 868.629 889.804ZM863.139 889.02C863.531 887.451 865.492 887.451 867.06 887.059C911.374 875.294 960.786 884.706 996.472 913.726C1055.69 959.608 1065.88 1036.47 1059.22 1106.67C1058.43 1114.51 1057.65 1122.35 1056.08 1130.59C1054.9 1136.86 1047.45 1140 1041.96 1137.26C1029.81 1130.98 1018.43 1122.35 1009.41 1112.55C982.354 1083.92 967.452 1046.27 950.59 1012.55C928.237 968.628 901.57 925.883 865.099 892.157C864.315 891.373 863.139 890.196 863.139 889.02Z" fill="black"/>
<path d="M401.962 800C394.119 814.51 387.06 831.765 387.06 848.628C387.453 856.863 390.982 864.706 394.511 872.157C422.355 926.275 470.198 969.804 524.708 995.687C556.08 1010.59 589.413 1021.96 623.531 1027.45C640.002 1029.8 657.257 1031.37 673.727 1029.8L670.59 1030.59C744.708 993.726 779.217 927.843 741.962 849.412C740.002 845.491 745.884 841.961 748.237 845.883C758.041 863.138 764.708 881.961 767.061 901.961C776.08 967.059 733.335 1018.43 679.61 1048.63C678.825 1049.02 677.649 1049.41 676.472 1049.41C666.276 1050.2 657.649 1049.8 647.845 1049.02C602.355 1045.1 558.433 1029.8 518.041 1008.63C461.962 979.608 413.335 932.941 386.276 875.294C382.747 866.667 379.217 857.647 378.825 847.843C380.002 829.02 387.453 812.157 396.472 796.079C398.825 792.941 404.315 796.471 401.962 800Z" fill="black"/>
<path d="M665.099 1039.61C670.197 982.353 672.157 923.529 660.785 867.059C660.001 863.53 662.354 859.608 665.883 858.824C669.805 858.039 673.726 860.784 674.118 864.706C676.079 879.216 677.648 894.118 678.824 908.628C682.354 950.98 683.922 997.647 685.491 1040.39C685.099 1054.51 663.922 1053.73 665.099 1039.61Z" fill="black"/>
<path d="M672.942 934.902C683.555 934.902 692.158 926.299 692.158 915.686C692.158 905.074 683.555 896.471 672.942 896.471C662.33 896.471 653.727 905.074 653.727 915.686C653.727 926.299 662.33 934.902 672.942 934.902Z" fill="black"/>
<path d="M675.686 994.117C686.299 994.117 694.902 985.514 694.902 974.901C694.902 964.289 686.299 955.686 675.686 955.686C665.074 955.686 656.471 964.289 656.471 974.901C656.471 985.514 665.074 994.117 675.686 994.117Z" fill="black"/>
</svg>
