<svg width="1200" height="1312" viewBox="0 0 1200 1312" fill="none" xmlns="http://www.w3.org/2000/svg">
<path d="M997.255 1212.94C963.922 1036.08 941.569 991.372 921.569 972.156C860 913.333 821.569 905.882 785.491 892.548C783.922 882.744 687.059 871.764 692.157 861.176L695.295 874.117C696.863 880.391 704.706 909.411 692.549 946.666C682.353 978.038 641.177 992.156 571.373 960.391C435.295 898.823 419.608 829.411 419.608 829.411C417.647 797.646 291.373 853.333 263.53 867.45C237.255 880.784 228.628 884.705 209.412 902.352C163.138 944.313 147.451 1083.53 125.491 1159.21C87.8436 1287.84 43.1377 1334.51 43.1377 1334.51H1056.47C1056.08 1334.9 1020 1334.12 997.255 1212.94Z" fill="black" stroke="black" stroke-width="5.1257" stroke-miterlimit="10" stroke-linecap="round" stroke-linejoin="round"/>
<path d="M252.55 891.372C252.55 891.372 212.55 973.332 259.609 1009.41C293.334 1035.29 360.393 1038.82 360.393 1038.82C360.393 1038.82 365.099 1119.61 430.197 1125.88C495.295 1132.16 532.942 1083.14 532.942 1083.14C532.942 1083.14 586.275 1155.29 662.746 1150.2C739.216 1144.7 735.687 1055.69 735.687 1055.69C735.687 1055.69 781.961 1078.82 820.001 1072.16C877.648 1061.96 868.236 979.999 831.373 959.999C831.373 959.999 890.197 974.901 872.158 942.744C858.04 917.646 788.628 880.783 734.511 867.058C705.491 859.607 677.648 848.626 650.981 835.685C605.491 813.332 498.04 787.842 395.295 814.901C365.491 821.568 242.746 854.509 252.55 891.372Z" fill="white"/>
<path d="M258.431 891.764C258.038 893.333 257.254 895.293 256.47 896.862C243.921 927.842 232.94 969.803 256.47 998.038C268.627 1010.98 287.45 1018.04 304.705 1022.74C322.744 1027.84 341.96 1030.59 360.783 1032.16C364.313 1032.55 366.666 1034.9 367.058 1038.43C370.195 1069.02 383.921 1104.71 415.293 1115.69C455.685 1128.23 501.568 1110.2 528.234 1078.82C530.98 1075.69 536.078 1075.69 538.431 1078.82C552.156 1096.47 570.195 1112.55 589.803 1123.92C618.43 1141.18 654.901 1150.2 686.274 1138.04C718.038 1125.1 730.195 1087.45 730.195 1055.29C730.195 1051.76 732.94 1049.02 736.47 1049.02C737.254 1049.02 738.431 1049.41 739.215 1049.41C755.685 1057.25 774.117 1063.14 792.156 1065.49C810.195 1067.84 829.411 1066.67 841.96 1055.29C867.45 1031.76 856.862 980.784 830.195 961.96C826.666 959.607 829.411 954.509 833.332 956.078C843.921 959.215 855.685 961.96 866.666 959.999C881.176 958.038 872.94 943.136 866.666 936.47C850.98 919.607 830.587 908.235 810.195 897.254C796.47 890.195 783.136 882.352 768.234 877.646C738.823 867.058 706.666 867.45 677.646 854.901C663.136 849.411 649.411 841.568 635.293 835.686C621.568 829.803 607.058 825.097 592.156 821.176C518.43 800.391 438.038 798.431 365.097 823.529C341.176 830.587 248.627 860.391 258.431 891.764ZM247.058 890.587C239.607 852.94 335.293 825.489 363.136 816.47C452.548 787.058 552.156 789.411 639.999 823.136C668.234 835.685 695.685 849.411 725.489 857.254C770.98 869.019 816.47 884.313 853.725 914.509C863.136 922.352 872.94 930.587 878.038 942.352C886.274 961.176 871.372 967.45 854.901 965.882C846.666 965.489 839.215 964.313 830.98 962.744L833.725 955.293C862.352 969.803 872.548 1006.67 865.097 1036.47C852.94 1084.71 799.607 1083.53 760.783 1070.98C751.372 1067.84 742.352 1064.71 732.94 1060.39L741.568 1054.9C741.96 1092.16 727.058 1134.51 690.195 1149.8C629.019 1172.55 564.705 1133.72 527.45 1086.67H537.254C507.058 1122.74 455.685 1142.35 410.195 1127.84C373.725 1114.9 356.47 1075.29 353.332 1038.82L359.215 1044.71C321.96 1041.18 273.725 1033.72 246.666 1005.88C232.156 989.803 228.627 967.058 230.587 946.666C232.548 926.666 238.038 907.45 246.274 889.019V888.627C246.274 888.627 246.274 888.234 246.274 889.019C247.058 889.803 247.058 890.195 247.058 890.587Z" fill="black"/>
<path d="M349.41 938.431C349.41 938.431 264.704 940.784 292.548 979.607C319.999 1018.04 349.41 938.431 349.41 938.431Z" fill="black"/>
<path d="M459.608 1019.21C459.608 1019.21 389.412 1063.92 432.157 1082.35C474.903 1100.78 459.608 1019.21 459.608 1019.21Z" fill="black"/>
<path d="M655.685 1045.49C655.685 1045.49 626.665 1120.39 670.587 1110.2C714.508 1100 655.685 1045.49 655.685 1045.49Z" fill="black"/>
<path d="M762.746 985.097C762.746 985.097 774.118 1050.98 801.177 1025.1C828.236 999.215 762.746 985.097 762.746 985.097Z" fill="black"/>
<path d="M783.53 898.823C783.53 898.823 812.942 945.097 825.491 925.489C838.04 905.882 783.53 898.823 783.53 898.823Z" fill="black"/>
</svg>
