<svg width="1200" height="1379" viewBox="0 0 1200 1379" fill="none" xmlns="http://www.w3.org/2000/svg">
<path d="M898.434 943.922C868.63 916.863 773.336 874.51 701.963 857.255C670.591 849.804 596.865 828.236 540.787 822.745C510.591 819.608 454.905 827.059 420.003 828.236C386.277 829.412 272.552 852.549 218.042 890.981C206.277 899.216 153.728 951.373 130.983 1085.1C113.336 1188.24 91.3751 1321.96 90.5908 1367.45H984.316C999.218 1101.57 929.414 972.157 898.434 943.922Z" fill="black"/>
<path d="M891.766 951.373C873.727 936.079 850.589 924.314 829.021 914.118C795.295 898.04 760.001 884.314 723.923 873.726C687.844 863.922 650.197 854.51 614.119 845.883C589.805 840.393 565.099 835.687 540.393 832.942C516.472 830.981 490.589 833.726 466.276 835.295C447.844 836.863 428.629 837.647 409.805 839.216C354.903 846.667 299.217 861.177 249.021 884.706C239.609 889.412 230.589 894.118 222.354 900.393C201.57 919.216 186.668 945.491 174.903 970.981C155.688 1013.33 145.099 1059.61 138.04 1105.49C132.158 1141.57 125.099 1181.96 119.609 1218.04C112.158 1267.45 103.531 1317.65 101.178 1367.45L90.9817 1357.26H984.315L974.119 1366.67C979.609 1258.43 974.903 1147.06 940.786 1043.14C929.413 1010.98 915.688 976.471 891.766 951.373ZM905.491 936.471C920.393 950.589 930.197 966.667 940.786 983.53C970.589 1032.55 984.707 1088.24 992.55 1144.71C1003.53 1218.43 1003.14 1293.73 994.903 1367.84C994.903 1373.33 990.197 1377.65 984.707 1377.26H91.3738C85.8836 1377.26 81.1777 1372.55 81.1777 1367.06C81.5699 1353.73 83.1385 1341.18 84.315 1328.24C88.6287 1290.2 94.5111 1252.55 100.786 1214.9C106.276 1178.82 113.727 1138.43 119.609 1102.35C127.452 1054.9 138.433 1007.06 158.04 963.138C171.374 934.902 186.668 907.059 210.589 885.883C220.001 878.824 230.197 872.942 240.786 867.844C293.727 843.138 350.197 828.628 407.452 820.393C426.276 818.824 445.491 818.04 464.707 816.079C490.59 814.118 515.688 811.373 542.354 813.334C568.237 816.079 593.335 820.785 618.433 826.275C656.08 834.902 692.55 843.922 729.805 854.118C766.668 865.098 802.746 878.824 837.648 895.295C861.57 907.844 884.315 918.824 905.491 936.471Z" fill="black"/>
<path d="M914.903 1367.45C888.628 1118.04 836.864 990.98 836.864 990.98C824.707 923.922 792.55 870.98 782.354 866.275C763.923 858.039 760.785 860.784 760.785 860.784C790.589 901.177 805.883 969.804 809.805 1005.49C697.256 1054.51 489.413 1020.39 416.864 1004.71C392.942 961.961 347.06 872.549 307.06 838.431C303.53 835.686 298.824 835.294 294.903 836.863C291.766 838.431 287.452 841.177 283.53 845.882C281.57 848.235 281.57 851.373 283.923 853.726C284.315 854.118 284.707 854.51 285.099 854.902C351.766 927.843 388.236 1055.29 379.217 1153.73C363.138 1328.63 332.55 1367.06 332.55 1367.06H914.903V1367.45Z" fill="white"/>
<path d="M907.452 1360.78C903.923 1347.45 901.57 1334.51 900.785 1320.78C889.021 1209.8 872.55 1097.25 833.334 992.549L838.825 994.51C836.864 995.686 834.511 994.902 833.334 993.333C827.844 967.059 820.001 941.176 808.236 916.863C800.393 901.176 792.55 885.098 780.393 872.941C775.687 870.588 769.413 868.627 764.315 867.059C763.53 866.667 762.746 866.667 762.354 866.667C762.354 866.667 762.354 866.667 762.746 866.667H763.138C763.531 866.667 763.138 866.667 763.923 865.882L764.707 858.431C768.236 864.314 776.08 878.824 778.825 884.706C791.374 910.98 799.217 939.608 805.491 967.843C807.844 980.392 810.197 993.333 811.766 1006.27C811.766 1007.45 811.374 1008.24 810.197 1009.02C748.236 1034.9 679.609 1037.25 613.334 1036.47C580.001 1035.69 546.668 1032.94 513.727 1029.41C480.785 1025.49 447.844 1020.39 414.903 1013.73C412.55 1013.33 410.981 1011.76 409.805 1010.2C393.727 981.569 378.825 953.333 362.354 925.49C346.276 898.431 329.413 870.196 306.668 848.235L302.746 844.706C297.256 840.784 290.981 847.843 287.06 851.373C286.668 851.765 286.668 852.157 287.06 852.549L287.452 852.941C300.001 867.059 310.981 882.353 320.785 898.431C338.04 926.667 351.374 956.471 365.491 986.275C385.883 1032.16 386.668 1083.14 386.276 1132.55C383.923 1181.57 378.04 1230.59 370.197 1278.82C363.531 1311.76 357.648 1346.27 340.001 1375.69L332.158 1359.22C515.295 1356.47 723.923 1358.04 907.452 1360.78ZM922.746 1374.51C734.511 1377.25 520.393 1378.82 332.158 1377.65L324.315 1361.18C336.08 1341.57 341.57 1318.82 347.844 1296.86C358.04 1258.04 364.707 1218.43 369.413 1178.43L372.158 1154.51C379.217 1098.43 361.178 1043.92 349.021 989.804C339.609 942.745 315.687 898.824 284.315 862.745L280.393 858.431L280.001 858.039L279.609 857.647C277.648 855.294 276.472 852.549 276.472 849.412C276.864 843.922 281.962 839.608 285.883 836.471C293.727 829.804 303.923 828.627 311.766 836.471C325.491 848.235 336.472 861.961 347.06 876.078C376.08 915.294 399.609 958.824 423.138 1001.57L418.04 997.647C482.354 1011.37 547.844 1021.18 613.727 1025.49C678.825 1028.63 747.06 1028.63 808.236 1003.53L806.668 1006.27C805.099 993.726 803.138 981.176 800.393 968.627C794.903 943.922 786.668 919.608 775.687 896.471C773.727 892.157 769.021 883.922 766.668 879.608C763.531 874.118 759.609 869.02 755.687 864.314C753.334 861.569 754.903 857.647 757.256 856.078C765.099 852.157 774.119 856.863 781.57 859.608C783.138 860.392 785.883 861.569 787.452 862.745C801.57 876.078 809.413 894.902 817.256 912.157C822.746 924.706 827.06 937.647 830.589 950.588C834.511 963.529 837.256 976.863 839.609 990.196L833.727 987.451C835.687 986.275 838.04 986.667 839.217 988.627C866.276 1064.71 885.099 1143.92 900.393 1223.14C906.668 1254.9 911.766 1286.67 916.864 1318.43C921.178 1336.86 922.354 1356.47 922.746 1374.51Z" fill="black"/>
<path d="M443.923 1092.16C454.319 1092.16 462.747 1083.73 462.747 1073.33C462.747 1062.94 454.319 1054.51 443.923 1054.51C433.527 1054.51 425.1 1062.94 425.1 1073.33C425.1 1083.73 433.527 1092.16 443.923 1092.16Z" fill="black"/>
<path d="M806.668 1069.8C815.764 1069.8 823.138 1062.43 823.138 1053.33C823.138 1044.24 815.764 1036.86 806.668 1036.86C797.571 1036.86 790.197 1044.24 790.197 1053.33C790.197 1062.43 797.571 1069.8 806.668 1069.8Z" fill="black"/>
</svg>
