<svg width="1200" height="1341" viewBox="0 0 1200 1341" fill="none" xmlns="http://www.w3.org/2000/svg">
<path d="M979.608 1147.45C972.157 1089.41 939.216 991.764 919.216 965.49C897.255 936.862 888.235 927.843 814.902 903.137C810.98 883.529 796.47 834.117 779.216 813.333C752.941 773.725 681.176 764.705 659.608 769.411C659.608 769.411 543.529 728.627 409.804 728.627C367.451 738.039 318.431 757.254 291.765 797.647C273.725 824.313 294.118 832.941 285.098 857.254C282.745 863.529 227.843 894.901 205.49 913.725C195.294 921.96 183.921 942.745 176.078 969.803C160.392 1025.1 177.255 1101.57 157.647 1168.23C120 1296.86 43.5293 1335.29 43.5293 1335.29H1056.86C1056.08 1334.9 995.686 1269.8 979.608 1147.45Z" fill="white"/>
<path d="M973.726 1148.24C965.883 1096.86 950.197 1045.88 930.197 998.039C920.393 974.902 905.491 952.549 884.707 938.824C874.119 932.157 862.354 927.059 850.197 921.961C838.04 917.255 825.491 912.941 813.334 908.628C811.373 907.843 809.805 906.275 809.413 904.314C807.844 896.471 805.883 889.02 803.53 881.177C793.334 849.412 782.354 814.118 752.55 795.687C729.805 781.961 702.746 775.294 676.472 774.118C671.374 774.118 665.883 774.118 661.177 774.902H659.609C659.217 774.902 658.432 774.902 658.04 774.51C639.217 765.49 618.432 760 598.04 754.51C536.864 740.392 472.942 734.51 410.197 734.118C371.766 743.138 318.04 764.314 294.511 803.53C290.589 809.804 288.628 816.079 289.413 823.138C290.197 830.981 292.942 839.608 290.981 847.843C290.197 851.373 289.413 855.294 287.844 858.432C284.707 862.745 279.609 865.49 275.687 868.236C255.295 881.569 234.511 893.334 214.903 907.059C208.236 911.765 201.962 916.079 197.256 922.745C183.53 942.353 175.295 965.883 171.766 989.412C165.491 1037.26 171.766 1085.88 165.491 1133.73C158.432 1181.57 140.001 1227.84 114.119 1268.63C96.0794 1296.08 74.1186 1321.57 46.2755 1339.22L43.5304 1328.24H1056.86L1052.55 1338.04C1040.79 1324.71 1031.37 1310.2 1022.75 1294.9C996.079 1250.2 980.393 1199.61 973.726 1148.24ZM985.491 1146.67C989.805 1180 998.04 1212.94 1010.59 1244.31C1023.14 1275.29 1038.82 1305.49 1060.79 1330.98C1063.92 1334.51 1061.18 1341.18 1056.47 1340.78H43.1382C40.001 1340.78 37.2559 1338.04 37.2559 1334.9C37.2559 1332.55 38.4323 1330.59 40.3931 1329.8C46.6676 1326.27 52.9421 1321.18 58.8245 1316.08C110.197 1269.8 142.354 1201.18 152.942 1132.94C161.962 1069.02 145.099 1000 173.726 939.216C180.393 925.098 188.628 910.196 201.962 901.177C226.275 883.138 252.942 869.804 276.864 852.157C277.256 852.157 277.256 851.765 277.256 851.765C276.864 852.157 276.472 852.941 276.472 853.334C278.824 847.843 279.609 843.138 278.824 836.863C277.648 829.02 275.687 818.432 278.432 810.196C279.609 805.491 281.962 801.177 284.315 797.647C312.55 755.294 362.354 736.471 409.805 725.883C423.138 726.275 436.864 723.922 450.197 723.922C468.628 723.922 487.452 726.667 505.883 729.02C558.824 737.255 609.805 751.373 661.962 762.745L658.432 762.353C670.589 760 681.962 761.177 693.726 762.745C769.021 774.118 794.511 807.059 814.903 877.255C817.256 885.098 819.217 892.941 821.177 901.177L817.256 896.471C854.903 909.804 897.256 921.961 921.177 956.863C929.805 967.451 936.079 980 941.57 992.549C961.57 1042.75 977.256 1093.33 985.491 1146.67Z" fill="black"/>
<path d="M361.57 889.413C390.589 951.374 435.687 1003.92 489.413 1045.49C491.374 1047.06 489.413 1050.2 487.06 1049.02C439.217 1026.28 398.825 987.452 374.903 940.394C367.06 924.707 360.393 907.844 358.04 890.197C357.256 888.237 360.393 887.452 361.57 889.413Z" fill="black"/>
<path d="M820.786 902.353C821.963 967.844 795.296 1034.9 744.316 1077.26C743.139 1078.43 741.57 1078.04 740.394 1076.86C739.217 1075.69 739.61 1074.12 740.786 1072.94C752.159 1061.96 763.531 1050.59 772.159 1037.26C790.198 1011.37 801.178 980.785 806.276 949.804C808.629 934.51 810.198 918.04 809.021 902.745C808.629 895.295 820.394 894.51 820.786 902.353Z" fill="black"/>
<path d="M589.805 1058.04C580.785 1089.8 573.334 1124.31 577.648 1157.26C578.824 1164.71 567.452 1166.67 565.883 1158.82C563.922 1140.78 566.275 1123.14 569.412 1105.88C572.942 1088.63 577.256 1072.16 583.138 1055.69C584.707 1051.77 591.373 1053.73 589.805 1058.04Z" fill="black"/>
<path d="M714.51 1052.16C727.451 1080 736.471 1109.02 743.53 1138.43C744.314 1141.57 742.353 1144.71 739.216 1145.49C736.079 1146.27 732.941 1144.31 732.157 1141.18C728.236 1119.22 723.138 1097.26 716.079 1075.69C713.726 1068.63 711.373 1061.57 708.628 1054.51C707.059 1050.98 712.549 1048.24 714.51 1052.16Z" fill="black"/>
<path d="M293.335 855.687C307.845 934.903 363.531 1001.96 430.59 1044.71C453.335 1059.22 477.649 1071.77 502.747 1081.96C504.315 1082.75 505.1 1084.31 504.315 1085.88C503.923 1087.45 501.962 1088.24 500.786 1087.45C474.903 1078.04 449.805 1066.28 426.276 1052.16C378.433 1023.92 336.472 984.706 308.237 936.863C293.727 912.157 282.354 886.275 276.864 858.04C276.08 853.334 279.217 849.02 283.923 848.236C288.237 847.059 292.943 850.589 293.335 855.687Z" fill="black"/>
<path d="M566.274 1165.88C555.294 1164.71 547.451 1154.51 549.804 1143.53L554.117 1122.75C555.686 1114.51 563.529 1108.63 571.764 1109.8C580 1110.59 586.666 1117.65 586.666 1126.27V1147.45C587.058 1158.43 577.647 1167.06 566.274 1165.88Z" fill="black"/>
<path d="M747.06 1151.37C736.472 1155.29 725.099 1149.02 722.354 1138.04L717.256 1117.26C715.295 1109.02 719.609 1100.78 727.844 1097.65C735.687 1094.9 744.707 1098.43 748.236 1105.88L757.648 1125.1C762.354 1135.69 757.648 1147.84 747.06 1151.37Z" fill="black"/>
<path d="M236.079 1334.9C236.079 1334.9 232.55 1247.45 220.785 1223.92" stroke="black" stroke-width="5.1257" stroke-miterlimit="10" stroke-linecap="round" stroke-linejoin="round"/>
<path d="M928.236 1139.61C928.236 1139.61 950.197 1262.75 941.57 1334.9" stroke="black" stroke-width="5.1257" stroke-miterlimit="10" stroke-linecap="round" stroke-linejoin="round"/>
<path d="M865.1 1258.04C865.1 1258.04 807.06 1266.67 756.08 1264.31" stroke="black" stroke-width="5.1257" stroke-miterlimit="10" stroke-linecap="round" stroke-linejoin="round"/>
<path d="M416.078 841.57C410.588 825.883 408.235 809.805 409.411 793.334C409.411 791.766 410.588 790.981 412.156 790.981C413.333 790.981 414.509 792.158 414.509 793.334C415.686 808.236 419.999 823.53 427.058 836.472C430.588 844.315 418.823 849.413 416.078 841.57Z" fill="black"/>
<path d="M681.176 862.354C670.196 837.648 643.137 825.099 619.215 816.471C604.313 811.765 587.843 808.236 572.157 805.883C534.117 800.001 480.392 790.981 442.353 787.059C441.961 787.059 441.961 786.275 442.353 786.275C453.333 785.099 464.313 785.099 475.294 785.099C508.235 785.883 541.176 789.412 573.725 794.51C606.274 799.608 641.176 809.412 665.882 832.942C673.725 841.177 680.784 850.589 682.745 861.961C683.137 863.138 681.568 863.53 681.176 862.354Z" fill="black"/>
</svg>
