<svg width="1200" height="1341" viewBox="0 0 1200 1341" fill="none" xmlns="http://www.w3.org/2000/svg">
<path d="M1056.08 1334.9H64.3154C64.3154 1334.9 80.3939 1173.33 141.57 1044.31C163.923 997.253 171.374 928.234 215.688 898.038C261.178 867.057 358.041 842.352 391.766 838.43C410.59 836.077 406.276 834.508 419.61 830.979C423.923 842.744 467.453 958.038 571.766 1000.39C661.57 1036.86 714.904 1012.55 723.139 972.155C728.237 946.273 712.159 903.92 703.923 890.195C699.217 886.273 696.08 880.391 694.512 874.508L691.374 861.567C698.433 859.999 705.1 858.038 712.159 856.077C715.688 856.861 719.61 856.469 722.747 858.43C755.688 876.469 854.904 901.959 906.668 956.469C927.061 977.646 958.825 1052.94 963.923 1101.96C978.433 1236.47 1056.08 1334.9 1056.08 1334.9Z" fill="white"/>
<path d="M1061.57 1337.25C767.454 1338.04 354.513 1341.57 64.7088 1340.39C61.1794 1340.39 58.4343 1337.25 58.8264 1333.73C62.3558 1305.88 67.0617 1278.82 72.5519 1251.37C87.0617 1176.47 109.023 1102.75 141.964 1034.12C155.297 1001.96 161.964 968.235 178.042 936.863C187.454 918.039 201.572 900 220.395 889.412C250.591 871.373 283.924 860 317.258 849.804C337.258 843.922 357.65 838.431 378.042 834.51C388.238 832.157 398.434 832.549 407.846 828.627C412.944 826.667 422.748 820.784 425.885 828.235C454.513 902.353 509.807 972.549 587.062 998.824C627.062 1013.33 696.473 1025.49 716.866 976.471C723.14 958.039 717.258 938.039 711.768 919.608C708.63 910.196 704.709 900.392 700.003 892.549L701.179 893.725C694.121 887.843 690.199 878.431 689.022 869.804L687.062 861.961C686.277 858.824 688.238 855.686 691.375 854.902C698.434 853.726 705.493 851.373 712.552 849.412C716.473 849.412 722.748 850.196 727.846 852.941C770.983 872.941 820.003 887.451 861.179 912.549C884.317 926.275 907.846 942.353 922.748 965.49C950.199 1011.37 967.846 1063.53 972.944 1116.47C983.924 1192.16 1014.51 1264.71 1058.43 1327.06L1060 1329.02L1060.79 1329.8L1061.18 1330.2C1061.18 1330.2 1061.18 1329.8 1061.57 1330.98C1061.96 1333.33 1061.96 1336.08 1061.57 1337.25ZM1050.98 1332.16C1050.2 1333.33 1050.2 1336.08 1050.98 1337.25C1051.77 1338.04 1051.38 1337.65 1051.38 1337.65L1050.98 1337.25L1050.2 1336.08L1048.63 1334.12C1023.92 1296.47 1003.53 1256.08 988.63 1214.12C976.866 1183.14 968.238 1150.98 963.532 1118.04C961.964 1106.27 960.003 1090.59 957.258 1079.22C948.238 1041.57 933.728 1003.92 912.944 971.373C906.277 960.784 896.473 952.549 886.67 944.706C855.689 921.176 819.219 906.667 783.14 892.549L746.277 878.824C734.121 874.118 719.611 869.02 712.16 861.569H715.297C708.238 863.922 701.179 865.882 694.121 867.451L698.434 860.392L700.395 868.235C701.964 875.294 703.532 881.569 709.022 886.275C709.415 886.667 709.807 887.059 710.199 887.451C720.787 906.667 727.062 926.667 730.199 948.235C736.866 985.49 713.336 1014.9 677.258 1021.96C627.454 1031.76 567.846 1010.2 526.67 982.353C474.905 945.882 437.65 891.765 414.905 833.333L421.964 836.863C418.434 838.039 416.081 839.216 412.552 840.784C409.022 842.745 404.709 843.922 400.787 844.706C401.179 847.059 400.003 840 401.572 849.412C394.121 850.196 388.238 850.588 381.179 852.157C361.179 855.294 341.179 860 321.572 865.49C295.297 872.549 269.415 881.177 245.101 892.549C232.944 898.431 221.179 904.706 212.16 912.941C202.748 921.177 195.297 932.157 189.022 943.922C170.591 979.608 161.572 1022.35 142.748 1058.43C103.532 1145.88 81.5715 1241.18 70.9833 1336.47L65.1009 1330.2C349.807 1329.02 761.571 1330.59 1050.98 1332.16Z" fill="black"/>
<path d="M737.65 1078.43C723.925 1082.35 676.081 1032.55 666.277 1023.92C657.258 1034.12 593.728 1105.88 562.356 1101.18C527.846 1096.08 439.611 1036.86 394.905 943.921C370.199 892.941 369.415 861.961 372.16 845.098C373.336 837.255 375.689 832.157 376.866 829.412C380.787 820.392 409.023 785.49 416.081 785.882V786.274C419.611 823.921 431.768 860.392 452.16 892.157C477.258 930.98 516.866 977.647 572.16 1000C661.964 1036.47 708.63 1000.39 716.474 960C721.572 934.118 712.552 903.529 704.317 889.804C699.611 885.882 696.474 880 694.905 874.117L691.768 861.176C698.826 859.608 705.493 857.647 712.552 855.686C714.513 854.902 716.866 854.51 718.826 853.725C720.003 855.294 721.572 856.863 722.748 858.431C739.219 877.255 756.474 903.137 765.885 947.059C781.572 1017.25 752.944 1073.73 737.65 1078.43Z" fill="black"/>
<path d="M665.101 1021.57C665.101 1021.57 693.728 1038.04 692.944 1051.76C692.16 1065.49 700.395 1109.02 700.395 1109.02" stroke="black" stroke-width="3" stroke-miterlimit="10" stroke-linecap="round" stroke-linejoin="round"/>
<path d="M664.709 1073.73C669.907 1073.73 674.12 1069.51 674.12 1064.31C674.12 1059.12 669.907 1054.9 664.709 1054.9C659.511 1054.9 655.297 1059.12 655.297 1064.31C655.297 1069.51 659.511 1073.73 664.709 1073.73Z" fill="black"/>
<path d="M667.845 1110.59C673.043 1110.59 677.257 1106.37 677.257 1101.18C677.257 1095.98 673.043 1091.76 667.845 1091.76C662.647 1091.76 658.433 1095.98 658.433 1101.18C658.433 1106.37 662.647 1110.59 667.845 1110.59Z" fill="black"/>
<path d="M258.433 1334.9L240.786 1189.41" stroke="#544D4D" stroke-width="3" stroke-miterlimit="10" stroke-linecap="round" stroke-linejoin="round"/>
<path d="M943.532 1140C943.532 1140 931.768 1168.63 935.297 1197.25C938.826 1225.88 949.022 1267.84 934.513 1334.9" stroke="#544D4D" stroke-width="3" stroke-miterlimit="10" stroke-linecap="round" stroke-linejoin="round"/>
<path d="M416.08 785.882C416.08 785.882 542.746 746.667 719.217 853.333C719.217 853.333 767.845 984.314 737.648 1004.31C707.452 1024.31 612.55 1026.27 546.276 1004.31C479.609 982.745 394.119 874.902 416.08 785.882Z" fill="black"/>
</svg>
