<svg width="1200" height="1395" viewBox="0 0 1200 1395" fill="none" xmlns="http://www.w3.org/2000/svg">
<path d="M349.41 825.881C349.41 825.881 406.665 803.136 417.253 802.352L418.038 811.371C418.038 811.371 372.548 830.979 369.802 834.116C367.45 836.861 349.41 825.881 349.41 825.881Z" fill="#7E5D6D"/>
<path d="M1056.08 1334.9H64.3118C64.3118 1334.9 90.1941 1150.98 150.194 1021.57C195.292 923.529 283.135 860.784 362.351 832.549C384.704 824.706 401.959 816.078 418.037 811.764C418.037 812.549 490.194 800 548.625 806.666C639.998 816.862 733.331 847.843 734.508 847.451C785.096 860.784 847.057 898.431 936.861 973.725C1038.04 1058.43 1056.08 1334.9 1056.08 1334.9Z" fill="white"/>
<mask id="mask0_613_1196" style="mask-type:alpha" maskUnits="userSpaceOnUse" x="64" y="804" width="993" height="531">
<path d="M1056.08 1334.9H64.3115C64.3115 1334.9 90.1939 1150.98 150.194 1021.57C195.292 923.529 283.135 860.784 362.351 832.549C384.704 824.706 401.959 816.078 418.037 811.764C418.037 812.549 490.194 800 548.625 806.666C639.998 816.862 733.331 847.843 734.508 847.451C785.096 860.784 847.057 898.431 936.86 973.725C1038.04 1058.43 1056.08 1334.9 1056.08 1334.9Z" fill="white"/>
</mask>
<g mask="url(#mask0_613_1196)">
<path d="M268.234 802.744C289.803 803.528 300.783 803.921 322.352 803.528C341.567 814.901 350.979 820.391 370.587 830.979C390.587 829.803 400.783 829.019 420.783 826.666C440.783 836.078 450.587 840.783 470.587 849.803C490.979 846.666 501.175 844.705 521.175 840.783C541.567 848.627 552.155 852.156 572.548 858.823C592.94 853.725 603.136 850.587 623.528 844.705C644.704 850.195 655.293 852.94 676.469 857.646C696.861 850.195 707.057 846.666 727.45 838.43C749.018 841.96 759.999 843.529 781.567 846.274C801.567 836.862 811.763 832.156 831.763 821.96C853.724 823.136 864.705 823.529 886.665 823.921C906.273 812.156 916.077 806.274 935.685 794.117C960.391 792.156 972.548 790.979 997.253 788.234C995.293 797.646 994.508 802.352 992.94 811.764C972.548 814.117 961.959 815.293 941.567 816.862C921.567 829.411 911.763 835.685 891.371 847.45C869.018 847.45 858.038 847.058 835.685 845.881C815.293 856.077 805.097 861.176 784.705 870.587C762.744 867.842 751.763 866.274 729.803 863.136C709.41 871.372 698.822 875.293 678.43 882.352C656.861 877.646 646.273 874.901 625.097 869.411C604.704 875.293 594.116 878.43 573.724 883.529C552.94 876.47 542.352 872.94 521.567 865.097C501.175 869.019 490.979 870.979 470.195 874.117C449.803 865.097 439.999 860.783 419.606 850.979C399.214 852.94 389.018 853.725 369.018 854.901C349.41 844.313 339.606 838.823 320.391 827.058C302.352 827.058 293.332 827.058 275.293 826.274C272.548 817.254 270.979 812.548 268.234 802.744Z" fill="black"/>
<path d="M262.745 902.354C284.314 902.746 294.902 902.746 316.863 901.961C336.471 912.942 346.275 918.04 365.882 928.236C385.882 926.667 395.686 925.491 415.686 922.746C435.686 931.765 445.882 936.079 466.275 944.314C486.275 940.785 496.079 938.432 516.471 934.118C537.255 941.177 547.843 944.707 568.628 950.981C588.628 945.099 598.824 942.354 618.824 935.687C640 940.785 650.98 943.138 672.157 947.452C692.157 939.608 701.961 935.687 721.961 927.059C743.922 930.197 754.51 931.373 776.471 933.334C796.079 923.53 805.882 918.432 825.49 907.844C847.451 908.628 858.824 908.628 880.784 908.236C900 896.471 909.412 890.197 928.628 877.648C953.333 875.295 965.882 874.118 990.588 870.589C989.02 880.001 988.628 884.706 987.059 893.726C966.275 896.471 956.079 897.648 935.686 899.608C916.079 912.55 906.667 918.824 887.059 930.981C864.706 931.373 853.333 931.373 830.98 930.589C810.98 941.177 801.177 946.275 781.177 956.471C759.216 954.51 747.843 953.334 725.882 950.197C705.882 958.824 695.686 962.746 675.294 970.589C653.726 966.275 642.745 963.922 621.177 958.824C600.784 965.491 590.981 968.236 570.588 974.118C549.412 967.844 538.824 964.314 518.039 957.256C497.647 961.569 487.843 963.922 467.451 967.452C447.059 959.216 436.471 954.903 416.079 945.491C396.079 947.844 385.882 949.02 365.882 950.981C345.883 940.785 336.079 935.295 316.471 924.314C298.432 924.707 289.412 925.099 271.765 924.707C267.843 916.079 266.275 911.373 262.745 902.354Z" fill="black"/>
<path d="M257.254 1000.39C278.43 1000 289.41 999.607 310.979 998.823C330.587 1009.41 340.783 1014.51 360.783 1023.92C380.391 1021.57 390.195 1020.39 409.803 1017.25C430.195 1025.88 440.391 1029.8 461.175 1037.65C480.783 1033.33 490.587 1031.37 510.587 1026.27C531.763 1032.94 542.352 1036.08 563.528 1041.96C583.136 1035.69 592.94 1032.55 612.548 1025.88C634.116 1030.59 645.097 1032.55 666.665 1036.47C686.273 1028.23 696.077 1024.31 715.293 1015.29C737.253 1017.65 748.234 1018.82 770.195 1020.39C789.41 1010.2 799.214 1005.1 818.038 994.117C840.391 994.117 851.371 994.117 873.724 993.333C892.548 981.176 901.959 974.901 920.391 962.352C945.097 959.607 957.646 958.039 982.352 954.117C981.175 963.137 980.783 967.843 979.999 977.254C959.214 980.392 949.018 981.96 928.234 984.313C909.41 997.254 899.606 1003.92 880.783 1016.08C858.038 1016.86 846.665 1017.25 824.312 1016.86C804.705 1027.84 795.293 1032.94 775.685 1043.53C753.332 1041.96 742.352 1041.18 719.999 1038.43C700.391 1047.45 690.587 1051.76 670.587 1060C648.626 1056.47 637.646 1054.12 616.077 1049.41C596.077 1056.47 586.273 1059.61 566.273 1065.88C544.704 1060 534.116 1056.86 512.94 1050.2C492.94 1055.29 483.136 1057.65 463.136 1061.57C442.352 1053.73 431.763 1049.41 411.371 1040.78C391.371 1043.92 381.567 1045.1 361.567 1047.45C341.175 1037.65 331.371 1032.55 311.371 1021.96C293.724 1022.74 284.705 1023.14 267.057 1023.53C262.744 1014.51 261.175 1009.8 257.254 1000.39Z" fill="black"/>
<path d="M251.371 1098.04C272.548 1097.25 283.136 1096.47 304.312 1094.9C324.312 1105.1 334.508 1109.8 354.901 1118.82C374.116 1116.08 383.92 1114.51 403.528 1110.98C424.312 1119.21 434.9 1123.14 455.685 1130.19C474.901 1125.49 484.704 1123.14 504.312 1117.65C525.489 1123.92 536.469 1126.67 557.646 1131.76C576.861 1125.1 586.665 1121.57 605.881 1114.51C627.842 1118.43 638.43 1120.39 660.391 1123.53C679.606 1114.9 689.018 1110.59 708.234 1101.57C730.587 1103.53 741.567 1104.31 763.92 1105.49C782.744 1095.29 792.155 1089.8 810.979 1078.82C833.332 1078.43 844.704 1078.04 867.057 1076.86C885.489 1064.7 894.508 1058.43 912.548 1045.49C937.646 1042.35 950.195 1040.39 974.901 1036.08C974.116 1045.1 974.116 1049.8 973.332 1058.82C952.548 1062.35 942.351 1063.92 921.567 1066.67C903.136 1080 893.724 1086.27 875.293 1098.82C852.548 1100 841.175 1100.39 818.43 1100.78C799.606 1112.16 789.802 1117.65 770.979 1127.84C748.626 1126.67 737.253 1126.27 714.901 1124.31C695.685 1133.72 685.881 1138.04 666.665 1146.67C644.312 1143.53 633.332 1141.57 611.371 1137.65C591.763 1145.1 581.959 1148.63 562.351 1155.29C540.783 1150.19 529.802 1147.06 508.234 1141.18C488.626 1146.67 478.822 1149.02 459.214 1153.72C438.038 1146.27 427.45 1142.74 406.273 1134.51C386.665 1138.04 376.861 1139.61 357.253 1142.35C336.469 1132.94 326.273 1128.23 306.273 1118.04C288.626 1119.61 279.999 1120 262.351 1120.78C258.038 1111.76 255.685 1107.06 251.371 1098.04Z" fill="black"/>
<path d="M245.879 1194.51C266.664 1192.94 277.252 1192.16 298.428 1189.8C318.821 1199.21 329.017 1203.92 349.801 1212.55C369.017 1209.41 378.428 1207.45 397.644 1203.53C418.821 1210.98 429.409 1214.9 450.585 1221.57C469.801 1216.47 479.213 1213.72 498.036 1207.84C519.605 1213.33 530.585 1216.08 552.154 1220.78C570.977 1213.72 580.389 1210.19 599.605 1202.35C621.566 1205.88 632.546 1207.45 654.899 1210.19C673.723 1201.18 682.742 1196.86 701.566 1187.45C723.919 1189.02 735.291 1189.41 757.644 1190.19C776.075 1179.61 785.095 1174.12 803.526 1162.74C826.272 1161.96 837.252 1161.57 859.997 1160C877.644 1147.45 886.664 1141.18 904.311 1128.23C929.409 1124.7 941.958 1122.74 967.056 1118.04C966.664 1127.06 966.664 1131.37 966.272 1140.39C945.487 1144.31 935.291 1145.88 914.507 1149.02C896.468 1162.35 887.448 1169.02 869.409 1181.57C846.664 1183.53 834.899 1183.92 812.154 1184.7C793.723 1196.08 784.311 1201.96 765.879 1212.55C743.134 1212.16 731.762 1211.76 709.017 1210.19C690.193 1220 680.781 1224.31 661.958 1233.33C639.605 1230.59 628.232 1229.02 605.879 1225.49C586.664 1233.33 577.252 1236.86 558.036 1243.92C536.075 1239.21 525.095 1236.47 503.134 1230.98C483.919 1236.86 474.115 1239.61 454.899 1244.7C433.33 1238.04 422.742 1234.51 401.174 1226.67C381.958 1230.59 372.154 1232.55 352.938 1235.69C332.154 1227.06 321.566 1222.35 300.781 1212.94C283.526 1214.9 274.899 1215.69 257.644 1216.86C252.938 1208.23 250.585 1203.53 245.879 1194.51Z" fill="black"/>
<path d="M239.606 1290.2C260.391 1288.23 270.587 1287.06 291.371 1284.31C312.155 1293.33 322.744 1297.65 343.528 1305.88C362.352 1301.96 371.763 1300 390.587 1295.69C412.155 1302.74 422.744 1306.27 444.312 1312.55C463.136 1307.06 472.155 1303.92 490.979 1297.65C512.94 1302.74 523.92 1305.1 545.881 1309.41C564.312 1301.96 573.724 1298.04 592.155 1290.2C614.508 1293.33 625.489 1294.51 647.842 1296.86C666.273 1287.84 675.293 1283.14 693.332 1273.33C716.077 1274.51 727.057 1274.51 749.803 1274.9C767.842 1263.92 776.469 1258.43 794.508 1247.06C817.254 1245.88 828.626 1245.1 851.371 1243.14C868.626 1230.59 877.254 1223.92 894.508 1210.98C919.606 1207.06 932.548 1205.1 957.646 1200C957.646 1208.63 957.646 1213.33 958.038 1221.96C937.254 1225.88 927.057 1227.84 906.273 1230.98C888.626 1244.31 879.999 1250.98 862.352 1263.92C839.214 1266.27 827.842 1267.06 804.705 1268.23C786.665 1280 777.646 1285.49 759.607 1296.86C736.861 1296.86 725.097 1296.47 702.352 1295.69C683.92 1305.49 674.901 1310.59 656.077 1319.61C633.332 1317.65 621.959 1316.08 599.606 1313.33C580.783 1321.57 571.371 1325.49 552.94 1332.94C530.587 1328.63 519.606 1326.27 497.254 1321.18C478.43 1327.45 469.018 1330.59 450.195 1336.08C428.234 1329.8 417.646 1326.67 395.685 1319.61C376.861 1324.31 367.057 1326.27 348.234 1330.2C327.057 1321.96 316.469 1317.65 295.293 1308.63C278.038 1310.98 269.803 1312.16 252.548 1313.72C247.842 1303.92 245.097 1299.21 239.606 1290.2Z" fill="black"/>
</g>
<path d="M1063.53 1341.57C769.018 1342.35 354.9 1345.49 64.7039 1344.71C58.8216 1344.71 53.7235 1339.22 54.9 1333.33C69.0177 1249.02 88.6255 1166.27 116.861 1085.49C146.273 999.216 187.449 932.549 263.135 879.216C298.037 854.118 337.253 836.471 377.253 822.353C390.194 817.255 403.527 811.765 417.645 807.843L421.567 810.588V810.196C421.567 808.235 417.645 807.059 418.822 807.451V807.059C419.214 806.274 419.998 805.882 420.39 805.098C424.704 800.392 430.978 798.823 437.253 798.431C443.92 797.647 450.586 796.863 457.645 796.078C484.704 792.941 512.155 792.157 539.606 794.902C567.057 798.039 593.331 803.137 619.998 809.02C658.429 817.647 696.469 830.196 734.116 841.569L735.292 841.961H735.684C735.684 841.961 736.076 841.961 735.684 841.961C735.684 841.961 735.292 841.961 734.9 841.961C734.508 841.961 734.116 841.961 733.724 842.353H736.469C788.233 856.078 832.939 885.882 876.076 916.863C897.253 932.549 918.037 948.627 938.429 965.49C959.606 981.961 976.076 1004.71 989.018 1028.24C1014.51 1074.9 1030.19 1126.27 1042.35 1177.65C1053.33 1225.88 1061.17 1274.9 1066.27 1323.92L1066.66 1329.02L1067.06 1331.37V1332.55C1066.27 1336.08 1065.1 1339.61 1063.53 1341.57ZM1048.63 1327.84C1047.06 1329.41 1045.49 1332.55 1045.88 1334.51V1334.12V1332.94V1330.59C1039.21 1254.9 1026.66 1179.22 1003.14 1107.06C987.057 1060 966.273 1010.2 927.057 978.431C887.449 945.49 846.273 912.941 801.567 887.059C779.214 874.51 756.076 863.137 732.155 856.863L738.037 856.47C737.253 857.255 733.724 857.255 733.331 856.863C710.194 852.157 678.429 840 655.684 832.549C623.92 821.961 590.978 816.471 557.645 813.725C524.704 810.588 491.763 813.333 459.214 816.863C452.547 817.647 445.88 818.039 439.606 818.823C432.547 820.392 425.096 820 418.822 814.902C418.822 814.902 418.822 814.902 418.429 814.902H418.037C418.822 815.294 414.9 814.118 415.292 812.157V811.765L419.214 814.51C405.88 818.039 393.331 824.314 379.998 829.412C367.057 834.902 353.724 839.216 340.782 845.098C290.194 867.843 243.92 901.569 207.449 943.921C170.194 985.882 148.233 1037.65 130.586 1090.59C104.312 1170.2 86.2726 1253.33 74.5078 1336.08L64.7039 1324.71C349.018 1325.1 759.998 1326.27 1048.63 1327.84Z" fill="black"/>
<path d="M258.429 1334.9L240.782 1189.41" stroke="#544D4D" stroke-width="3" stroke-miterlimit="10" stroke-linecap="round" stroke-linejoin="round"/>
<path d="M943.529 1140C943.529 1140 931.764 1168.63 935.293 1197.25C938.823 1225.88 949.019 1267.84 934.509 1334.9" stroke="#544D4D" stroke-width="3" stroke-miterlimit="10" stroke-linecap="round" stroke-linejoin="round"/>
<path d="M349.411 825.883C356.862 823.53 369.803 825.883 373.725 832.549C389.019 857.647 425.882 930.981 441.176 1076.47C453.333 1190.2 434.901 1394.9 434.901 1394.9L54.1169 1376.86C54.1169 1376.86 93.7248 1235.69 127.058 1106.27C145.097 1036.47 150.98 935.687 200.784 898.432C240.784 868.628 290.588 846.275 349.411 825.883Z" fill="black"/>
<path d="M743.922 849.804C743.922 849.804 865.099 1077.65 829.805 1381.96H1091.37C1091.37 1381.96 1081.96 1348.63 1049.02 1208.63C1020 1086.27 990.589 981.176 960.001 952.549C880.001 877.255 766.667 840 766.667 840C766.667 840 753.726 846.275 743.922 849.804Z" fill="black"/>
<path d="M743.921 849.804L734.509 847.059C734.509 847.059 748.235 840.392 754.117 836.471L757.646 834.51C757.646 834.51 776.47 843.137 783.136 846.274C789.803 849.412 759.999 863.922 759.999 863.922C759.999 863.922 745.097 850.196 743.921 849.804Z" fill="#7E5D6D"/>
<path d="M436.862 1040C436.862 1040 423.529 1001.96 393.333 968.235C365.49 936.863 314.509 888.235 310.98 877.255C308.627 869.804 311.764 856.079 318.823 840C333.725 805.883 367.058 761.177 410.98 741.177C517.646 703.53 534.117 770.588 535.686 791.765C536.078 797.647 418.823 823.137 419.215 829.02V829.412C419.215 829.412 401.176 835.294 414.117 925.098C417.254 947.059 430.98 985.49 436.862 1040Z" fill="white"/>
<path d="M438.039 1045.88C435.293 1046.27 431.764 1044.31 430.98 1041.57L430.588 1040.78L430.195 1039.61C421.96 1018.82 410.588 999.216 396.862 981.569C369.019 947.059 334.509 919.216 307.842 883.529C307.058 882.353 306.274 881.176 305.882 879.608C302.352 867.451 307.45 854.51 311.372 843.529C330.588 798.039 363.921 757.255 409.019 736.078C420.392 732.157 432.548 728.627 444.705 726.667C469.019 722.353 497.254 723.529 517.254 740.392C532.548 753.333 540.392 772.157 542.352 791.765C542.744 795.686 538.823 798.431 536.078 800C501.176 813.333 460.391 819.608 425.49 832.549C425.097 832.941 424.313 832.941 424.313 833.333C424.313 833.333 424.313 833.333 425.097 832.549C425.49 831.765 426.274 830.588 426.274 829.412C426.274 828.627 426.274 829.804 426.274 829.804L422.352 835.294C422.744 835.294 423.137 834.902 423.137 834.902C423.137 834.902 422.744 835.294 422.744 835.686C419.215 841.176 418.431 848.235 417.646 854.902C416.47 867.843 416.862 881.176 418.039 894.118L419.215 907.451C421.568 934.51 429.803 959.216 435.293 985.882C438.039 999.216 440.392 1012.55 442.352 1025.88C442.744 1028.63 443.137 1032.16 443.137 1035.29C441.568 1038.82 439.607 1042.35 438.039 1045.88ZM435.686 1034.12C434.509 1032.55 432.156 1031.37 430.588 1031.37C430.195 1031.37 429.803 1030.98 429.803 1030.59L429.411 1027.45C425.097 991.765 413.333 958.039 407.45 921.961C406.666 915.294 405.097 901.569 404.313 894.902C403.137 874.118 400.784 851.765 409.411 831.765C411.372 828.235 412.548 825.49 417.254 823.529L412.941 829.412C412.941 829.02 412.941 828.627 412.941 828.627C412.941 826.274 415.293 823.529 416.862 822.353C427.45 816.863 438.823 814.51 450.195 810.98C475.293 803.529 507.45 796.863 531.372 787.451C531.372 787.451 531.372 787.451 530.588 788.235L530.195 788.627C529.803 789.02 529.411 789.804 529.411 790.588C529.411 790.98 529.411 791.765 529.411 791.765C528.235 775.686 521.176 758.823 508.627 748.627C491.372 734.118 467.45 733.725 445.882 737.255C435.293 738.823 421.568 743.137 412.941 745.882C384.705 758.431 360.784 780 341.96 804.706C328.235 823.529 315.293 844.706 312.156 867.843C310.588 876.078 316.47 881.569 321.176 887.451C339.215 908.235 368.235 936.471 387.45 956.471C409.803 979.216 428.627 1006.27 441.176 1035.29L441.568 1036.08C441.568 1034.9 438.039 1033.33 435.686 1034.12Z" fill="black"/>
<path d="M812.547 1052.16C812.547 1052.16 786.272 950.196 773.331 917.647C760.39 885.49 736.076 849.02 734.9 847.059C697.645 786.667 698.822 760.392 710.978 749.804C723.135 739.216 752.547 741.176 806.665 788.627C816.469 799.608 874.9 865.49 881.174 901.569C884.704 921.569 873.723 935.686 858.821 956.47C843.527 977.647 824.704 1005.49 812.547 1052.16Z" fill="white"/>
<path d="M812.548 1052.16C799.215 1009.02 787.058 964.706 770.98 922.353C760.784 897.647 746.274 874.51 731.372 852.157C716.862 828.236 701.568 803.53 697.646 775.295C694.117 748.628 713.333 733.334 738.823 740C766.666 747.451 789.019 766.275 810.195 784.314C827.45 803.53 843.921 823.138 858.823 844.706C876.862 872.549 899.999 905.098 877.646 937.255C867.45 953.334 854.509 967.844 844.313 983.922C830.588 1005.1 819.999 1027.84 812.548 1052.16ZM812.548 1046.27C811.764 1044.31 810.588 1043.92 809.803 1042.75C810.98 1039.22 812.156 1035.69 813.333 1032.55C862.744 905.491 939.607 941.961 801.96 792.942C784.705 778.432 760.391 758.432 736.078 752.157C718.431 747.844 707.45 755.687 709.803 774.118C716.862 818.824 750.195 853.726 769.019 893.726C785.882 926.667 794.117 962.746 804.313 998.04C806.666 1006.67 812.94 1029.41 814.901 1037.65C815.686 1040.39 817.254 1046.27 818.039 1049.41V1049.8C817.254 1047.45 814.117 1045.88 812.548 1046.27Z" fill="black"/>
</svg>
