<svg width="1200" height="1308" viewBox="0 0 1200 1308" fill="none" xmlns="http://www.w3.org/2000/svg">
<path d="M719.218 793.727C719.218 793.727 681.963 784.315 600.002 758.04C518.041 731.766 412.159 749.021 412.159 749.021C412.159 749.021 386.277 749.413 376.473 769.021C366.669 788.629 367.453 829.021 352.551 840.001C349.022 842.354 339.218 845.099 324.708 849.021C301.179 855.687 265.492 864.315 230.198 883.923C203.924 898.825 166.669 944.315 160.787 1025.49C159.61 1041.57 160.002 1207.84 152.551 1223.92C90.5905 1349.81 93.3356 1293.33 93.3356 1293.33H1051.77C1051.77 1293.33 987.453 1200 970.983 1108.24C953.728 1012.55 923.924 956.864 899.61 938.433C843.139 895.687 781.963 881.962 758.434 871.374L755.688 836.08C756.081 835.687 740.787 787.844 719.218 793.727Z" fill="black" stroke="black" stroke-width="3.5345" stroke-miterlimit="10" stroke-linecap="round" stroke-linejoin="round"/>
<path d="M759.22 857.649C767.063 898.433 775.691 941.178 763.926 981.963C749.024 1041.18 700.004 1081.57 638.043 1079.22C595.298 1078.43 554.906 1061.96 518.043 1041.96C456.867 1007.84 406.279 954.119 379.22 889.414C373.73 876.08 369.024 863.531 366.279 849.414C365.887 847.845 367.063 845.884 369.024 845.492C370.592 845.1 372.161 846.276 372.553 847.845C376.083 860.394 381.573 873.727 387.455 885.492C417.259 946.276 465.887 997.257 524.71 1029.81C570.592 1054.51 625.494 1075.69 677.259 1061.18C745.494 1041.96 768.632 962.355 758.043 898.825C756.475 885.1 754.514 871.767 752.553 858.041C751.769 854.904 758.436 853.335 759.22 857.649Z" fill="white"/>
<path d="M657.257 1072.55C657.257 1072.55 665.493 1144.71 660.787 1188.63" stroke="white" stroke-width="3.46" stroke-miterlimit="10" stroke-linecap="round" stroke-linejoin="round"/>
<path d="M412.943 951.374C387.453 961.962 364.316 979.217 345.492 999.217C338.826 1005.88 333.335 1013.73 327.845 1021.18C325.1 1024.71 319.218 1020.79 321.963 1017.26C337.649 992.158 358.041 970.59 382.355 954.119C390.59 948.629 398.826 943.531 408.237 939.217C411.767 937.648 415.688 939.217 417.257 942.354C418.826 945.491 416.865 949.805 412.943 951.374Z" fill="white"/>
<path d="M767.452 926.668C800.786 940.394 829.805 965.1 845.491 997.649C846.276 999.217 845.491 1000.79 844.315 1001.57C842.746 1002.35 841.178 1001.57 840.393 1000.39C831.766 985.884 820.786 972.943 807.06 962.747C794.119 952.943 778.433 944.315 762.746 939.609C754.119 936.472 758.825 923.531 767.452 926.668Z" fill="white"/>
</svg>
