<svg width="1200" height="1348" viewBox="0 0 1200 1348" fill="none" xmlns="http://www.w3.org/2000/svg">
<path d="M1056.08 1334.9H64.3164C64.3164 1334.9 122.748 1211.76 148.63 1071.37C166.669 974.118 180.003 917.255 230.591 885.882C266.277 863.922 366.669 832.157 438.042 821.961C467.061 818.039 524.709 813.726 574.513 817.647C612.16 822.353 689.807 844.314 719.611 852.549C764.316 865.098 861.179 902.353 903.924 941.569C920.787 957.255 960.787 1035.69 986.669 1149.41C1016.47 1278.82 1056.08 1334.9 1056.08 1334.9Z" fill="black"/>
<path d="M1065.1 1339.61C775.295 1342.35 350.981 1348.24 64.7069 1347.06C56.0795 1347.45 49.805 1337.65 53.7265 1329.8C91.3736 1246.67 120.001 1158.04 137.648 1068.24C152.158 998.039 161.178 909.412 232.158 872.549C267.06 854.902 303.923 843.137 341.178 832.157C406.668 812.941 476.079 803.529 544.315 805.49C554.903 805.882 565.883 806.274 576.864 807.059C600.393 810.588 623.53 816.47 646.276 822.353C666.668 827.451 687.452 833.333 707.452 839.215C709.805 840.392 710.589 845.098 711.766 847.451C713.334 850.196 715.295 849.804 718.04 848.627C719.217 848.235 720.393 847.451 721.57 847.843C724.315 848.235 728.236 849.804 730.981 850.588C791.766 870.196 852.942 893.333 904.315 932.157C911.766 937.647 917.648 945.098 922.354 952.941C931.766 967.843 939.609 983.137 946.668 998.823C967.844 1045.49 983.53 1094.51 995.295 1144.31C1010.59 1206.67 1028.63 1269.41 1061.18 1325.1L1062.75 1327.45L1063.53 1328.63C1065.88 1330.59 1066.67 1336.47 1065.1 1339.61ZM1047.06 1330.2C1045.1 1332.55 1045.49 1337.65 1047.06 1339.61L1046.67 1338.82L1045.88 1337.25C1027.84 1309.02 1014.51 1277.65 1003.14 1246.67C991.374 1214.9 982.354 1181.18 974.511 1148.23C963.138 1099.61 948.236 1051.76 928.236 1006.27C919.609 987.059 910.981 967.843 898.04 951.764C890.589 944.313 881.962 938.039 872.942 932.157C827.844 903.137 777.256 881.961 726.276 865.49C724.315 864.706 719.609 863.529 717.256 862.745C714.903 861.961 714.903 855.294 713.334 853.725C709.805 850.588 705.883 859.215 702.354 858.431C682.354 852.941 661.57 847.451 641.178 842.745C616.864 837.255 592.942 830.98 568.629 829.019C461.178 821.961 352.55 844.706 253.727 887.451C205.883 907.059 187.844 951.372 176.472 998.823C166.276 1038.82 160.393 1082.35 150.981 1122.74C132.942 1197.65 107.844 1269.8 76.0795 1340.39L65.0991 1323.14C343.53 1322.35 764.707 1326.67 1047.06 1330.2Z" fill="black"/>
</svg>
