<svg width="1200" height="1348" viewBox="0 0 1200 1348" fill="none" xmlns="http://www.w3.org/2000/svg">
<path d="M1056.08 1334.9H64.3164C64.3164 1334.9 122.748 1211.77 148.63 1071.37C166.669 974.119 180.003 917.256 230.591 885.883C266.277 863.923 366.669 832.158 438.042 821.962C467.061 818.04 524.709 813.727 574.513 817.648C612.16 822.354 689.807 844.315 719.611 852.55C764.316 865.099 861.179 902.354 903.924 941.57C920.787 957.256 960.787 1035.69 986.669 1149.41C1016.47 1278.82 1056.08 1334.9 1056.08 1334.9Z" fill="black"/>
<path d="M1065.1 1339.61C775.295 1342.35 350.981 1348.24 64.7069 1347.06C56.0795 1347.45 49.805 1337.65 53.7265 1329.8C91.3736 1246.67 120.001 1158.04 137.648 1068.24C152.158 998.04 161.177 909.412 232.158 872.55C267.06 854.903 303.923 843.138 341.177 832.158C406.668 812.942 476.079 803.53 544.315 805.491C554.903 805.883 565.883 806.275 576.864 807.06C600.393 810.589 623.53 816.471 646.276 822.354C666.668 827.452 687.452 833.334 707.452 839.216C709.805 840.393 710.589 845.099 711.766 847.452C713.334 850.197 715.295 849.805 718.04 848.628C719.217 848.236 720.393 847.452 721.57 847.844C724.315 848.236 728.236 849.805 730.981 850.589C791.766 870.197 852.942 893.334 904.315 932.158C911.766 937.648 917.648 945.099 922.354 952.942C931.766 967.844 939.609 983.138 946.668 998.824C967.844 1045.49 983.53 1094.51 995.295 1144.31C1010.59 1206.67 1028.63 1269.41 1061.18 1325.1L1062.75 1327.45L1063.53 1328.63C1065.88 1330.59 1066.67 1336.47 1065.1 1339.61ZM1047.06 1330.2C1045.1 1332.55 1045.49 1337.65 1047.06 1339.61L1046.67 1338.82L1045.88 1337.26C1027.84 1309.02 1014.51 1277.65 1003.14 1246.67C991.374 1214.9 982.354 1181.18 974.511 1148.24C963.138 1099.61 948.236 1051.77 928.236 1006.28C919.609 987.06 910.981 967.844 898.04 951.765C890.589 944.314 881.962 938.04 872.942 932.158C827.844 903.138 777.256 881.961 726.276 865.491C724.315 864.707 719.609 863.53 717.256 862.746C714.903 861.962 714.903 855.295 713.334 853.726C709.805 850.589 705.883 859.216 702.354 858.432C682.354 852.942 661.57 847.452 641.177 842.746C616.864 837.256 592.942 830.981 568.628 829.02C461.178 821.961 352.55 844.707 253.726 887.452C205.883 907.06 187.844 951.373 176.472 998.824C166.276 1038.82 160.393 1082.35 150.981 1122.75C132.942 1197.65 107.844 1269.8 76.0795 1340.39L65.0991 1323.14C343.53 1322.35 764.707 1326.67 1047.06 1330.2Z" fill="black"/>
</svg>
