<svg width="1200" height="1446" viewBox="0 0 1200 1446" fill="none" xmlns="http://www.w3.org/2000/svg">
<path d="M831.376 902.747C831.376 902.747 784.317 876.08 708.631 856.864C708.631 856.864 654.513 834.511 576.082 823.531C473.337 809.021 430.984 818.825 430.984 818.825C430.984 818.825 340.396 829.021 272.553 865.492C272.553 865.492 290.592 1017.65 428.631 1077.26C566.278 1136.86 758.043 1107.45 803.533 1069.02C848.631 1030.59 842.357 915.688 831.376 902.747Z" fill="black" stroke="black" stroke-width="5.1257" stroke-miterlimit="10" stroke-linecap="round" stroke-linejoin="round"/>
<path d="M240.787 885.492C240.787 885.492 214.512 896.08 185.493 925.884C152.944 959.218 126.669 1043.92 104.708 1107.45C63.1397 1227.06 90.9828 1383.14 90.9828 1383.14H1008.63C1008.63 1383.14 1016.87 1184.32 965.101 1063.92C958.434 1048.63 947.453 1009.81 934.12 988.237C912.551 952.943 888.238 932.159 869.022 923.139C869.022 923.139 877.65 1079.61 704.316 1088.24C530.983 1096.86 321.571 1041.96 316.473 1009.81C311.375 976.865 240.787 885.492 240.787 885.492Z" fill="white"/>
<path d="M238.434 894.904C240.003 895.688 243.532 895.296 244.709 894.512H244.316L243.532 894.904C223.532 901.963 205.493 914.119 189.807 928.629C173.728 943.923 162.748 964.315 153.336 984.315C143.532 1004.71 135.689 1026.28 128.238 1047.84C120.787 1069.41 113.336 1090.98 106.277 1112.55C80.0027 1199.22 83.5321 1293.34 101.571 1381.18L91.7674 1372.94H1009.41L999.218 1382.75C1007.45 1281.96 1003.14 1171.77 968.63 1076.08C956.081 1047.84 948.63 1016.86 932.159 990.59C915.689 966.276 893.728 942.355 865.493 932.551L879.61 922.747C880.787 997.649 838.826 1066.28 765.493 1088.24C732.16 1099.22 696.473 1099.61 661.963 1099.61C627.846 1099.61 593.728 1097.26 559.61 1093.34C515.689 1089.02 310.591 1058.04 306.277 1009.02C296.865 981.178 278.826 956.865 262.748 932.551C253.728 919.61 243.924 905.884 234.12 893.335L233.728 892.551L233.336 892.159C232.944 891.766 234.12 893.335 234.905 893.727C236.081 894.119 237.258 894.904 238.434 894.904ZM243.532 875.688C247.062 876.472 249.022 879.61 250.983 881.963C270.983 908.629 290.199 935.296 307.062 963.923C314.905 977.649 323.532 992.159 326.669 1007.84C361.179 1043.14 509.414 1067.45 561.963 1072.94C595.297 1076.47 628.63 1078.83 661.963 1078.83C694.905 1078.83 728.238 1078.43 759.218 1068.63C823.924 1049.41 860.003 989.414 859.218 923.531L862.356 916.865C864.316 912.943 869.414 911.374 873.336 913.727C893.336 926.276 907.454 942.355 920.395 959.61C932.944 976.864 943.14 995.688 950.199 1015.69C957.258 1035.3 963.14 1055.3 971.375 1074.51C978.826 1094.12 984.709 1114.12 989.414 1134.51C999.218 1175.3 1005.1 1216.47 1009.81 1258.04C1014.12 1299.61 1016.87 1341.18 1018.43 1383.53C1018.43 1389.02 1013.73 1393.34 1008.63 1393.34H90.9831C85.8851 1393.34 81.9635 1389.81 81.1792 1385.1C72.9439 1293.73 72.5517 1199.61 101.179 1111.77C120.395 1058.04 136.865 1002.75 162.748 951.766C178.434 921.178 205.493 896.08 234.905 878.041L236.081 877.257L236.473 876.865C238.042 875.296 241.571 874.904 243.532 875.688Z" fill="black"/>
<path d="M908.237 1389.81C661.962 1503.53 256.472 1400.79 256.472 1400.79C256.472 1400.79 248.237 1300.79 278.041 1120.79C279.217 1112.55 280.394 1104.32 281.178 1096.87C289.806 1015.3 260.002 927.453 238.825 892.159C238.825 883.14 248.237 876.865 258.825 867.846C263.139 864.316 269.021 863.924 272.159 866.277C277.649 874.12 282.747 881.963 287.06 890.199C330.982 971.375 427.06 1046.28 518.825 1055.3C643.923 1067.85 696.08 1065.88 758.433 1052.16C818.433 1038.83 848.237 965.101 831.374 906.277C830.982 905.493 830.982 904.316 830.59 903.14C841.178 902.355 865.884 922.748 874.119 952.944C882.747 990.199 886.668 1070.59 891.766 1112.55C909.021 1249.81 908.237 1389.81 908.237 1389.81Z" fill="black" stroke="black" stroke-width="5.1257" stroke-miterlimit="10" stroke-linecap="round" stroke-linejoin="round"/>
<path d="M342.354 860.394C385.099 926.669 434.118 988.629 493.334 1040.79C511.373 1056.86 530.981 1071.77 550.981 1084.71C554.903 1087.06 556.079 1088.63 559.609 1089.41C564.707 1090.59 570.589 1089.41 574.903 1085.49L584.707 1074.9C601.962 1056.86 620.001 1038.83 636.079 1020C642.746 1012.55 649.02 1004.71 651.766 994.512C653.334 991.767 656.864 991.374 659.609 992.943C680.393 1011.37 701.962 1029.02 723.138 1047.06L738.824 1060.39L746.667 1067.06L747.452 1067.84L747.844 1068.24C751.766 1071.77 758.824 1070.98 761.962 1066.67C764.315 1063.14 765.491 1054.9 766.667 1050.2C776.471 996.865 769.805 941.57 755.295 889.806C754.903 889.021 755.687 888.237 756.079 888.237C756.864 888.237 757.648 888.237 757.648 889.021C767.844 914.512 775.687 941.571 780.001 969.022C784.315 996.472 784.707 1024.71 780.785 1052.94C779.217 1061.18 779.609 1067.84 774.511 1075.69C768.628 1083.92 758.04 1088.24 748.628 1085.88C740.785 1084.71 734.118 1077.26 728.628 1072.16C703.53 1049.02 678.432 1025.1 653.334 1001.96L661.962 1001.18C644.315 1012.55 636.471 1031.77 625.099 1048.24C615.295 1063.92 605.491 1080.79 595.687 1096.47C583.922 1116.86 555.295 1121.18 537.256 1106.67C522.746 1096.86 507.452 1085.88 494.118 1074.51C457.648 1043.14 425.099 1006.67 397.648 967.453C374.511 934.12 354.118 899.61 338.432 862.355C338.04 861.178 338.432 859.61 339.609 859.218C340.393 858.825 341.962 859.61 342.354 860.394Z" fill="white"/>
<path d="M669.805 1335.69C674.903 1280 672.55 1223.14 669.021 1167.45C665.099 1111.38 660.393 1054.9 650.982 999.219C649.805 991.768 661.178 989.415 662.746 997.258C672.55 1109.02 687.452 1224.71 681.57 1336.87C681.178 1344.32 669.413 1343.53 669.805 1335.69Z" fill="white"/>
<path d="M718.434 1127.06C726.231 1127.06 732.552 1120.74 732.552 1112.94C732.552 1105.15 726.231 1098.83 718.434 1098.83C710.637 1098.83 704.316 1105.15 704.316 1112.94C704.316 1120.74 710.637 1127.06 718.434 1127.06Z" fill="white"/>
<path d="M724.708 1197.65C732.504 1197.65 738.825 1191.33 738.825 1183.53C738.825 1175.73 732.504 1169.41 724.708 1169.41C716.911 1169.41 710.59 1175.73 710.59 1183.53C710.59 1191.33 716.911 1197.65 724.708 1197.65Z" fill="white"/>
</svg>
