<svg width="1200" height="1337" viewBox="0 0 1200 1337" fill="none" xmlns="http://www.w3.org/2000/svg">
<path d="M360.394 759.608C360.394 759.608 396.864 750.98 412.158 749.804L416.864 792.549C416.864 792.157 360.786 770.588 360.394 759.608Z" fill="black"/>
<path d="M981.178 1334.9H64.3149C64.3149 1334.9 122.746 1209.8 143.138 1068.63C157.256 970.196 174.119 917.255 226.276 885.882C285.099 850.588 380.001 834.51 418.433 824.313C418.433 826.274 418.825 827.843 418.825 829.804C418.825 829.804 461.178 955.686 571.374 1000.39C661.178 1036.86 714.511 1012.55 722.746 972.157C727.844 946.274 711.766 903.921 703.531 890.196C698.825 886.274 695.688 880.392 694.119 874.51L690.982 861.568C700.786 859.608 710.197 856.863 719.217 853.333C769.805 866.666 867.452 892.157 927.06 967.843C941.962 986.666 988.629 1086.67 980.001 1255.69C976.864 1343.53 981.178 1334.9 981.178 1334.9Z" fill="black"/>
<path d="M258.433 1334.9L240.786 1189.41" stroke="white" stroke-width="3" stroke-miterlimit="10" stroke-linecap="round" stroke-linejoin="round"/>
<path d="M943.532 1140C943.532 1140 931.768 1168.63 935.297 1197.25C938.826 1225.88 949.022 1267.84 934.513 1334.9" stroke="white" stroke-width="3" stroke-miterlimit="10" stroke-linecap="round" stroke-linejoin="round"/>
<path d="M541.96 1073.33C325.098 1010.59 270.588 883.138 270.588 883.138C270.588 883.138 304.706 861.961 320.784 840.001C330.588 826.667 418.823 811.373 418.823 811.373C420.392 828.236 418.823 811.373 420 829.804C420 829.804 462.353 955.687 572.549 1000.39C662.353 1036.86 715.686 1012.55 723.921 972.157C729.019 946.275 712.941 903.922 704.706 890.197C700 886.275 696.862 880.393 695.294 874.51L692.157 861.569C714.509 856.863 735.686 848.236 754.117 836.863C754.902 838.04 755.294 839.216 755.686 840.393C763.921 860.393 789.019 878.432 789.019 878.432C841.176 1002.35 762.745 1137.26 541.96 1073.33Z" fill="black"/>
<path d="M804.707 872.941C804.707 872.941 822.746 864.314 840.785 866.274C858.825 868.235 944.707 937.647 952.942 952.157C961.57 966.666 961.178 1012.94 950.982 1018.82C940.785 1024.71 934.903 1011.76 934.903 1011.76C934.903 1011.76 942.354 969.412 934.119 961.568C925.884 953.725 846.276 887.059 843.531 886.666C840.785 886.274 825.884 898.823 825.884 898.823L804.707 872.941Z" fill="black"/>
<path d="M329.413 849.019C329.413 849.019 288.629 828.235 273.335 828.235C258.041 828.235 169.021 883.137 156.864 911.764C144.707 940.392 161.178 998.039 161.178 998.039L182.746 973.333C182.746 973.333 176.864 930.196 183.139 914.509C189.413 898.823 260.393 852.549 266.668 853.725C272.942 854.509 307.844 876.862 307.844 876.862L329.413 849.019Z" fill="black"/>
<path d="M421.962 924.706C459.609 996.862 534.903 1092.94 660.785 1138.04C774.119 1178.82 767.06 1041.96 750.589 960C637.648 984.706 524.315 986.666 421.962 924.706Z" fill="white"/>
<path d="M750.588 960.392C746.274 938.823 741.176 921.176 737.647 911.372C729.803 890.196 718.039 871.372 707.45 857.255C702.352 858.823 697.254 860 692.156 861.176L695.294 874.117C696.862 880.392 700 885.882 704.705 889.804C705.49 891.372 706.666 893.333 707.843 895.686C618.823 930.196 513.725 884.706 513.725 884.706C481.96 883.137 484.313 914.51 499.215 951.765C442.745 898.039 419.607 829.804 419.607 829.804C418.823 818.039 418.039 806.666 416.862 795.294C416.862 795.294 387.843 811.372 392.941 847.451C395.294 862.745 404.313 891.372 421.96 924.706C524.313 986.667 637.647 984.706 750.588 960.392Z" fill="white"/>
<path d="M749.019 959.216C747.842 957.255 747.45 956.078 746.666 953.725C741.96 938.431 736.862 922.353 729.803 908.235C721.568 891.765 710.98 876.863 699.215 863.137L710.195 866.666L694.117 870.98L701.96 858.823C702.744 862.353 704.705 870.588 705.489 873.725C706.666 878.431 710.195 881.568 712.94 885.098C712.548 888.235 712.156 891.372 711.372 894.117C712.156 896.47 711.372 899.216 709.019 900.392C697.646 905.882 685.097 910.196 672.548 912.941C626.274 922.353 579.215 911.764 534.901 898.823C526.274 896.078 518.431 894.117 509.019 894.902L512.548 895.686C510.195 895.686 507.45 895.686 505.097 896.47C493.333 900 498.823 920.392 501.176 930.196C503.137 936.47 505.097 942.745 507.842 949.019C510.195 954.117 507.45 960 502.352 962.353C498.431 963.921 494.509 962.745 491.764 960C482.744 950.98 474.117 941.961 466.274 932.157C442.352 902.353 423.529 869.804 409.803 834.117L419.215 840.784C413.725 840.784 409.411 836.47 409.019 831.372L406.274 797.255L421.176 805.098C403.529 815.686 398.431 837.647 404.313 856.47C410.195 878.431 419.607 900.392 430.195 920.784L426.274 916.863C521.568 980.784 640.391 985.882 749.019 959.216ZM752.156 961.176C739.215 970.588 716.862 978.431 700.391 981.961C661.568 990.588 620.784 985.49 581.96 979.215C569.803 977.255 552.156 974.902 539.607 972.941L518.823 968.627C490.98 961.961 463.529 952.941 436.862 941.961L427.058 937.647L416.862 933.333C415.686 932.941 414.509 931.765 413.725 930.588C400.784 905.49 389.019 879.215 383.529 850.98C378.431 826.274 390.195 799.215 412.156 786.274C418.431 782.745 426.666 787.059 427.058 794.117L429.803 828.627C429.803 828.627 419.607 819.215 419.999 819.215C424.313 819.215 428.235 821.961 429.411 825.882C441.568 858.823 459.999 890.588 482.352 918.039C489.803 927.451 498.039 935.686 506.274 944.314L490.195 955.294C482.352 934.117 471.764 907.059 485.882 885.882C492.548 877.255 503.921 874.117 514.509 874.51L518.039 875.294C523.529 882.353 531.372 885.49 538.823 887.843C577.254 900.392 618.823 902.745 659.215 899.608C675.293 898.039 690.98 894.902 706.666 890.98L704.313 897.255C701.568 896.078 699.215 895.294 696.47 894.902L698.431 897.255C690.98 890.98 686.274 880.392 684.705 870.98L682.744 863.137C681.568 857.647 685.097 852.157 690.588 850.98L705.097 847.451H705.882C709.803 846.274 714.117 848.235 716.078 851.372C731.764 875.686 743.529 903.137 748.627 931.765C750.195 938.431 750.98 945.882 752.156 952.941C751.764 955.294 752.156 958.823 752.156 961.176Z" fill="black"/>
<path d="M360.394 759.607C360.394 759.607 457.256 762.745 530.982 782.353C538.041 784.313 538.041 829.804 538.825 837.254C541.57 863.921 485.884 909.411 492.158 933.333C500.394 964.313 722.747 1138.43 724.707 1158.82C726.668 1179.22 563.531 1174.12 466.668 1058.04C369.413 941.96 376.864 920.784 376.864 920.784C376.864 920.784 360.394 809.411 360.394 759.607Z" fill="black"/>
<path d="M795.295 801.568L820.393 812.157C828.236 815.294 832.158 824.313 829.413 832.549C818.04 867.059 789.805 952.941 788.629 982.745C787.06 1020.39 709.413 1262.35 709.413 1262.35C709.413 1262.35 661.962 1200 696.864 1138.43C724.315 1089.8 725.884 985.882 723.138 972.157C719.609 954.117 704.707 911.764 696.472 885.098C692.158 870.588 691.374 861.568 691.374 861.568C691.374 861.568 745.491 852.549 795.295 801.568Z" fill="black"/>
<path d="M503.529 865.882C509.81 865.882 514.902 860.088 514.902 852.941C514.902 845.794 509.81 840 503.529 840C497.248 840 492.157 845.794 492.157 852.941C492.157 860.088 497.248 865.882 503.529 865.882Z" fill="white"/>
<path d="M705.491 1127.06C702.354 1148.24 699.217 1169.8 700.786 1191.37C705.884 1223.14 707.844 1254.9 710.59 1286.67C710.982 1294.51 699.609 1295.29 698.825 1287.45C697.648 1255.69 696.864 1223.53 692.942 1191.76C692.158 1169.41 696.08 1147.45 700.394 1125.88C701.178 1123.14 705.884 1123.92 705.491 1127.06Z" fill="white"/>
<path d="M814.118 890.979C807.059 925.881 799.216 961.175 786.274 994.509C766.667 1036.08 740 1073.72 717.255 1112.94C715.294 1116.47 709.804 1113.72 711.372 1110.2C730.196 1065.88 757.647 1026.27 776.078 982.352C777.647 977.646 786.274 951.764 787.843 946.666C794.117 927.45 800.784 908.234 808.235 889.411C809.804 885.881 814.902 887.058 814.118 890.979Z" fill="black"/>
<path d="M760 1121.18C767.147 1121.18 772.941 1115.38 772.941 1108.24C772.941 1101.09 767.147 1095.29 760 1095.29C752.853 1095.29 747.059 1101.09 747.059 1108.24C747.059 1115.38 752.853 1121.18 760 1121.18Z" fill="white"/>
</svg>
