<svg width="1200" height="1344" viewBox="0 0 1200 1344" fill="none" xmlns="http://www.w3.org/2000/svg">
<path d="M1056.08 1334.9H64.3115C64.3115 1334.9 110.586 1185.1 145.488 1046.67C159.213 992.55 184.704 918.824 216.076 897.256C259.213 867.452 330.586 850.589 362.743 839.216C385.096 831.373 402.351 828.628 418.429 824.314C418.429 826.275 418.821 827.844 418.821 829.805C418.821 829.805 454.508 909.805 564.704 954.118C654.508 990.589 685.88 976.079 694.115 935.687C699.213 909.805 712.155 903.922 703.919 890.197C699.213 886.275 696.076 880.393 694.508 874.511L691.37 861.569C698.821 860.001 705.88 858.04 712.939 855.687C715.292 854.903 717.253 854.118 719.606 853.334C763.135 878.04 823.135 885.883 895.684 939.216C908.625 948.628 946.272 989.413 961.959 1088.63C983.919 1219.22 1056.08 1334.9 1056.08 1334.9Z" fill="black"/>
<path d="M1063.14 1338.82C768.627 1340 354.509 1343.92 64.3129 1343.14C59.607 1343.14 56.0776 1339.61 56.0776 1334.9C67.4502 1286.27 85.8816 1216.08 98.4306 1167.06C108.235 1127.45 120.391 1083.14 130.195 1043.14C144.313 990.98 161.96 923.137 206.274 888.627C220.784 879.216 236.862 872.549 252.156 866.667C285.882 854.118 320.391 844.706 354.901 834.117C374.509 826.667 396.47 821.961 416.862 816.078C421.176 814.902 425.489 817.255 426.666 821.176C427.058 822.353 427.058 827.451 427.45 828.627L419.215 821.176C422.352 821.176 425.489 823.137 426.666 825.882C429.803 832.549 434.117 839.608 438.431 845.882C479.999 905.882 547.058 944.314 616.862 962.353C636.862 966.666 663.529 971.765 678.038 954.118C687.45 941.961 687.058 923.137 694.509 909.804C697.254 903.529 700.391 899.608 697.254 894.118L698.823 896.078C693.725 891.372 689.803 885.49 687.842 879.216C686.274 873.333 685.097 868.235 683.921 863.137C682.744 858.823 685.882 854.118 690.195 853.333C699.215 851.372 708.627 848.627 717.254 845.49C719.607 844.706 721.96 845.098 723.921 845.882C735.293 850.98 747.058 855.294 759.215 859.608C797.254 871.765 835.293 884.706 870.195 904.706C881.96 911.372 893.333 918.823 904.313 926.667C917.254 936.47 925.489 947.451 933.725 960.392C963.529 1007.06 972.94 1060.78 982.744 1114.12C997.646 1183.14 1023.53 1249.8 1054.12 1313.33L1058.43 1321.96L1060.39 1326.27L1061.57 1328.24L1061.96 1329.41L1062.35 1329.8C1062.35 1329.41 1062.74 1330.2 1063.14 1331.37C1064.71 1334.12 1064.31 1337.25 1063.14 1338.82ZM1049.02 1330.98C1047.84 1332.55 1047.45 1335.29 1048.23 1337.25C1048.63 1338.43 1049.02 1339.22 1049.02 1338.82L1048.63 1338.43L1047.84 1337.25L1046.67 1335.29C1020.78 1290.98 999.215 1244.31 982.352 1196.08C971.372 1164.71 962.352 1132.94 956.47 1100C949.411 1056.47 938.431 1010.98 914.901 973.333C908.627 963.529 900.784 952.941 891.372 945.882C880.784 938.431 870.195 930.98 859.215 924.706C837.254 911.372 813.725 900.784 789.803 891.372C765.882 881.568 740.391 874.117 716.47 860.392L723.136 860.784C713.725 864.314 703.921 867.059 693.725 869.019L699.999 859.216C702.352 867.843 702.744 878.039 709.803 883.921C714.117 888.627 716.078 896.863 714.901 903.529C713.725 909.412 711.372 913.333 709.803 916.863C706.274 924.314 703.921 930.588 702.352 938.823C688.627 1007.06 609.803 980.784 565.097 963.137C502.352 938.039 443.921 894.118 412.156 833.333L419.607 838.039C415.293 838.039 411.764 834.902 411.372 830.588L410.98 825.49L421.176 832.549C399.215 836.47 379.607 839.608 359.215 847.059C312.548 861.568 262.744 873.725 222.352 901.568C180.391 932.157 156.47 1040.78 143.136 1090.98C128.627 1146.27 113.333 1201.18 97.2541 1255.69C89.0188 1283.14 80.7835 1310.2 72.1561 1337.65L64.3129 1327.06C349.019 1326.67 760.391 1328.63 1049.02 1330.98Z" fill="black"/>
<path d="M658.429 983.531C658.821 983.923 658.821 983.923 659.214 984.316C659.214 983.923 659.214 983.531 659.214 983.531C659.214 983.531 658.821 983.531 658.429 983.531Z" fill="white"/>
<path d="M752.158 838.04C752.158 838.04 752.158 800.393 719.217 790.59C658.432 772.158 543.53 763.923 466.667 763.923C466.667 763.923 434.118 766.276 422.354 772.158C410.981 777.648 397.256 781.178 394.118 806.668C392.55 819.217 392.55 839.217 392.942 856.864C393.334 880.393 402.746 903.139 419.217 920.001C445.491 947.06 500.001 982.354 562.354 992.942C712.55 1018.04 753.334 952.55 752.158 917.648C750.589 877.256 752.158 838.04 752.158 838.04Z" fill="black"/>
<path d="M743.922 837.648C743.138 820.786 734.119 802.746 716.864 798.04C711.373 796.472 705.883 794.903 700.785 793.727C624.315 776.864 545.099 772.942 466.668 771.766C456.472 772.942 436.864 774.511 425.491 779.217C420.785 781.57 414.903 783.923 410.981 787.06C401.962 794.903 401.57 808.629 401.177 820.786C400.785 827.844 400.785 834.903 400.785 841.962C398.432 889.805 419.609 915.295 457.648 940.786C486.275 960.393 518.432 974.511 552.55 982.354C599.217 991.374 650.981 995.688 695.687 977.648C719.217 968.237 741.177 948.237 743.922 922.354C744.315 916.864 743.922 907.452 743.922 901.962C743.138 881.57 743.138 858.433 743.922 837.648ZM760.001 838.04C759.609 858.825 759.609 881.178 760.001 901.962C760.001 908.629 760.785 918.04 760.001 924.315C756.472 957.256 730.197 981.962 701.57 993.727C656.471 1012.55 606.275 1009.41 559.217 1001.96C549.021 1000 536.472 997.256 526.668 994.119C484.315 980.393 444.707 958.433 412.942 927.06C390.197 904.707 381.57 873.335 383.53 842.354C384.707 819.609 380.785 792.55 399.609 774.903C405.491 770.197 411.373 767.452 417.648 764.707C433.726 758.433 449.413 757.256 465.883 755.688C518.824 756.08 571.766 758.825 624.707 765.099C656.079 769.021 687.844 773.335 718.432 782.354L720.785 783.138L723.53 784.315C737.256 790.982 743.138 805.491 750.981 817.256C756.079 823.531 759.609 830.197 760.001 838.04Z" fill="black"/>
<path d="M395.686 856.472C404.313 982.354 598.431 1116.86 713.725 1047.06C743.921 1026.67 752.156 987.844 751.372 953.727C751.372 941.962 750.195 930.197 749.411 918.04C749.019 915.295 753.725 914.511 754.117 917.256C770.588 983.138 762.352 1056.08 685.49 1075.69C577.646 1101.96 455.293 1022.75 407.842 927.844C396.862 905.884 389.803 881.57 389.411 857.256C389.803 853.335 395.293 852.55 395.686 856.472Z" fill="white"/>
</svg>
