<svg width="1200" height="1312" viewBox="0 0 1200 1312" fill="none" xmlns="http://www.w3.org/2000/svg">
<path d="M1056.08 1334.9H64.3149C64.3149 1334.9 76.0796 1163.92 135.687 1034.12C156.864 988.235 173.335 921.568 212.158 891.372C256.864 856.863 345.099 835.294 376.472 829.019C399.609 824.313 402.746 828.627 418.825 824.313C418.825 826.274 419.217 827.843 419.217 829.804C419.217 829.804 461.57 955.686 571.766 1000.39C661.57 1036.86 714.903 1012.55 723.138 972.157C728.237 946.274 712.158 903.921 703.923 890.196C699.217 886.274 696.08 880.392 694.511 874.51L691.374 861.568C698.825 860 705.884 858.039 712.942 855.686C715.295 854.902 717.256 854.117 719.609 853.333C776.472 869.412 845.491 898.431 905.884 944.314C938.825 969.412 966.276 1034.12 1000 1143.53C1039.61 1269.41 1056.08 1334.9 1056.08 1334.9Z" fill="black"/>
<path d="M755.297 951.765C754.12 940.784 752.159 930.98 750.199 922.353C741.963 883.922 717.257 850.196 717.257 850.196C717.257 850.196 655.297 807.451 559.61 796.078C463.924 784.706 417.257 796.078 417.257 796.078C410.199 798.431 401.571 803.137 393.728 807.451C379.61 815.686 368.238 827.451 361.179 841.961C361.179 842.353 360.787 842.353 360.787 842.745C350.591 872.157 403.14 980.784 538.434 1041.57C678.042 1104.31 764.708 1030.98 755.297 951.765Z" fill="black"/>
<path d="M258.827 1563.53C253.728 1448.63 251.376 1327.45 249.807 1212.16C249.023 1167.45 247.062 1122.35 258.042 1078.43C274.905 1005.1 325.885 936.472 398.827 912.55L396.081 915.296C404.317 894.511 413.336 871.374 433.336 859.217C434.121 858.825 434.513 860.001 434.121 860.394C420.395 869.805 412.944 885.884 406.67 901.178C404.317 906.276 403.14 912.55 400.787 917.256C373.336 927.452 349.023 945.099 329.023 965.884C309.023 987.06 292.944 1012.16 282.356 1039.22C268.63 1073.33 262.748 1109.81 261.572 1146.28C260.787 1283.92 264.709 1429.41 258.827 1563.53Z" fill="white"/>
<path d="M433.335 1563.53C425.491 1491.76 420.786 1418.04 420.001 1345.88C419.217 1279.61 421.178 1211.37 429.021 1145.49C433.335 1107.06 447.06 1019.22 475.687 993.726L478.825 991.373C480.786 990.588 481.178 989.804 483.923 989.412L480.001 993.333C481.962 978.431 487.452 964.314 495.295 951.765C498.04 947.843 500.786 943.922 503.923 940C504.315 939.608 505.491 940 504.707 940.784C501.962 944.706 499.217 948.628 497.256 952.941C490.589 965.49 485.884 979.216 484.707 993.333C484.707 993.726 484.315 993.726 484.315 994.118C481.962 994.902 479.217 996.863 477.256 999.216C471.374 1005.49 467.452 1014.51 463.923 1022.35C458.433 1036.08 454.511 1050.98 451.374 1065.88C443.531 1103.92 439.217 1143.92 436.08 1182.75C431.766 1247.84 430.197 1316.86 430.197 1381.96L430.589 1418.43C430.589 1466.67 432.942 1515.29 434.119 1563.53C434.511 1563.92 433.335 1564.31 433.335 1563.53Z" fill="white"/>
<path d="M594.51 1563.53C594.902 1443.92 589.804 1323.92 589.412 1204.31C589.02 1150.2 589.02 1094.51 590.196 1040.39C593.726 1026.27 596.471 1011.37 597.647 996.471C598.039 991.765 598.039 986.667 597.647 981.569C597.647 980.784 598.824 980.784 598.824 981.569C601.961 1001.18 599.608 1021.18 595.686 1040.78C597.255 1083.53 598.824 1127.84 599.608 1171.37C602.353 1269.41 603.137 1367.45 600.784 1465.49C600.392 1484.31 599.216 1512.16 598.039 1530.98C597.255 1541.96 596.078 1552.55 595.294 1563.53C595.294 1563.92 594.902 1563.92 594.51 1563.92C594.51 1563.92 594.51 1563.53 594.51 1563.53Z" fill="white"/>
<path d="M778.041 1563.53C774.511 1472.94 772.158 1378.04 764.315 1287.84C759.609 1230.59 752.158 1174.12 741.178 1118.04C734.511 1084.31 725.884 1050.2 712.158 1018.43C709.805 1000.39 703.923 980.784 689.805 968.235C689.413 967.843 689.413 967.451 689.805 967.451C690.198 967.059 690.198 967.059 690.59 967.451C694.511 970.196 698.041 973.725 701.178 977.647C709.805 989.02 715.296 1004.71 717.256 1017.65C733.335 1048.63 742.354 1082.35 750.59 1116.08C755.688 1138.04 760.394 1161.96 763.923 1183.92C769.021 1215.29 773.727 1255.29 776.08 1287.06C778.041 1306.27 779.217 1336.47 780.394 1356.08C781.962 1402.35 782.354 1448.24 781.57 1494.51L779.609 1563.53C779.609 1563.92 779.217 1563.92 778.825 1563.92C778.433 1563.92 778.041 1563.53 778.041 1563.53Z" fill="white"/>
<path d="M925.49 1563.14C935.294 1455.69 931.372 1346.67 916.078 1240C912.157 1212.16 906.274 1183.14 900 1155.69C892.549 1128.63 883.529 1101.18 871.372 1076.08C862.745 1056.86 851.372 1038.43 840 1020.78C824.313 998.431 804.313 975.294 782.745 958.431C771.764 949.412 760 940.784 747.451 934.51C741.176 926.275 737.255 918.039 728.235 910.196C721.176 903.529 712.549 898.039 702.745 897.647C702.353 897.647 701.96 897.255 701.96 896.863C701.96 896.471 702.353 896.471 702.353 896.471C707.451 896.078 712.549 897.647 717.255 899.608C730.98 906.275 741.176 918.431 749.411 930.98C803.921 956.471 847.058 1008.24 875.686 1061.57C887.059 1084.31 897.255 1107.84 904.313 1132.16L910.588 1152.94C929.411 1230.59 936.862 1310.59 938.039 1390.2C938.431 1448.24 935.294 1506.27 926.274 1563.53C926.274 1563.92 925.882 1563.92 925.49 1563.92C925.49 1563.92 925.49 1563.53 925.49 1563.14Z" fill="white"/>
<path d="M749.023 1112.16C803.925 1114.12 844.709 1096.47 850.983 1037.25C851.376 1032.55 854.905 1029.02 859.219 1028.24C883.14 1022.35 899.219 1001.18 903.925 977.255C905.101 973.333 905.493 968.235 906.278 964.313C906.67 960 907.062 955.294 907.454 950.588C907.454 950.196 907.846 950.196 908.238 950.196C908.63 950.196 908.63 950.588 908.63 950.588C909.415 958.823 910.199 969.804 909.415 978.039C907.846 1005.88 889.415 1032.16 861.572 1039.61L862.356 1038.82C859.219 1082.35 832.552 1114.12 787.846 1116.86C774.905 1118.04 761.572 1116.86 748.63 1113.73C748.238 1113.73 748.238 1113.33 748.238 1112.94C748.238 1112.16 748.63 1112.16 749.023 1112.16Z" fill="white"/>
<path d="M201.178 931.373C205.491 953.726 218.432 975.687 238.04 987.451C239.609 988.628 243.138 990.196 244.707 991.373C248.236 992.941 252.158 994.51 255.687 995.686L263.138 997.647C265.099 998.432 268.628 998.824 270.981 999.216L278.825 1000.39C286.668 1001.57 298.825 997.255 302.746 1006.27C328.628 1061.18 379.217 1102.75 442.746 1090.59C446.668 1090.2 450.589 1091.76 452.158 1095.29C455.687 1100.78 460.393 1106.67 464.707 1111.76C487.06 1138.43 520.785 1158.04 556.472 1150.59C570.589 1147.84 584.315 1141.96 596.864 1134.12C597.256 1133.73 597.648 1134.12 597.648 1134.12C542.354 1180 480.393 1155.69 442.746 1100.78L443.923 1101.18C428.236 1103.92 412.158 1104.71 396.079 1101.57C349.021 1092.94 312.942 1052.94 294.119 1009.41L294.903 1009.8C286.668 1009.41 277.648 1009.02 269.413 1007.06C267.06 1006.67 263.138 1005.88 261.178 1005.1C256.472 1003.92 249.413 1001.18 245.099 998.824L241.178 996.863L237.648 994.51C236.079 993.334 232.158 991.373 230.589 989.804C212.55 975.686 201.962 953.334 199.609 930.981C199.609 930.588 200.001 930.196 200.001 930.196C201.178 930.981 201.178 930.981 201.178 931.373Z" fill="white"/>
<path d="M735.688 1064.71C782.747 1052.16 805.884 1024.71 798.825 975.294C798.433 972.157 799.217 969.02 801.178 967.059C814.119 951.765 817.649 930.98 815.688 911.372C815.296 905.098 812.943 896.078 811.766 889.804C811.766 889.412 811.766 889.02 812.158 889.02C812.55 889.02 812.55 889.02 812.943 889.412C816.08 896.078 819.217 903.137 821.178 910.196C825.099 924.706 825.099 940.392 820.394 954.51C818.041 961.569 814.511 968.627 809.805 974.51L810.198 973.725C816.864 1009.02 805.099 1045.49 769.413 1059.22C758.825 1063.53 747.452 1065.88 736.08 1066.27C734.903 1065.88 734.903 1064.71 735.688 1064.71Z" fill="white"/>
<path d="M292.55 871.765C286.276 892.157 293.334 914.902 308.629 929.412L310.589 931.765L312.942 933.726C317.648 937.647 323.138 941.177 328.236 944.706L339.217 950.588C341.57 951.765 343.138 954.118 343.531 956.863C351.374 986.275 375.295 1009.41 402.354 1021.96C419.609 1030.98 438.433 1035.29 457.256 1038.82C462.746 1040 464.315 1045.1 468.236 1048.63C472.55 1052.94 477.256 1057.26 481.962 1061.18C510.589 1085.49 549.021 1098.43 586.668 1093.33L596.472 1092.16C596.864 1092.16 597.256 1092.16 597.256 1092.55C597.256 1092.94 597.256 1092.94 596.864 1093.33C558.825 1105.1 516.864 1097.65 483.923 1074.9C474.119 1068.24 460.393 1056.86 454.903 1049.41C428.629 1045.1 401.962 1037.26 380.001 1021.96C358.825 1007.84 338.04 981.177 335.295 958.039C328.629 954.118 318.825 947.843 312.942 943.137C311.766 942.353 306.668 937.255 305.491 936.079C303.531 933.726 300.785 930.981 299.217 928.236C287.452 911.765 283.531 889.412 291.766 870.588C291.766 870.196 292.158 870.196 292.55 870.196C292.942 870.981 292.942 871.373 292.55 871.765Z" fill="white"/>
<path d="M361.178 842.353C360.393 860.392 367.06 878.432 378.825 891.765C381.178 894.902 385.099 898.432 388.236 901.177C389.413 901.961 393.334 905.098 394.511 905.883C398.433 909.02 405.491 910.588 405.884 916.079C407.06 924.706 411.374 933.726 416.472 940.784C432.55 964.314 460.393 976.863 487.452 984.706C489.805 985.49 491.374 986.667 492.55 988.628C516.472 1018.82 556.08 1034.51 594.119 1030.59C600.785 1030.98 606.668 1034.51 613.727 1035.69C628.629 1039.61 645.099 1041.57 660.393 1040.39C680.785 1039.61 699.609 1030.98 709.805 1013.33C711.766 1010.59 714.511 1010.2 716.864 1008.24C727.844 1000.78 736.864 990.588 742.354 978.432C749.413 963.922 747.844 947.451 743.923 932.549C744.707 926.275 745.884 919.216 745.491 912.157C745.099 892.549 737.256 873.334 724.707 858.039C723.923 857.647 725.099 856.471 725.491 857.255C745.099 876.471 754.119 905.098 750.197 932.157C762.746 964.706 748.236 1000.39 717.648 1019.22C708.236 1037.65 683.531 1050.59 661.57 1051.37C640.001 1053.33 614.119 1048.63 595.687 1042.35C553.727 1046.67 509.805 1028.63 484.315 994.51L484.707 994.902C476.08 992.157 464.315 987.843 456.472 983.922C454.511 982.745 448.236 979.608 446.276 978.432C443.923 976.863 438.825 973.726 436.864 972.157L430.982 967.451C415.295 954.51 402.746 936.863 400.001 916.471L400.393 917.255C397.256 914.902 394.119 912.941 391.374 910.588L387.06 907.059L385.099 905.098C383.138 903.137 381.178 900.784 379.217 899.216C375.687 894.902 372.158 890.196 369.413 885.49C362.354 872.549 358.825 857.255 360.785 842.353C360.785 841.961 361.178 841.961 361.57 841.961C360.785 841.961 361.178 841.961 361.178 842.353Z" fill="white"/>
<path d="M696.988 1089.66C697.119 1078.4 688.272 1069.17 677.227 1069.04C666.183 1068.91 657.123 1077.94 656.992 1089.2C656.862 1100.46 665.709 1109.69 676.753 1109.82C687.798 1109.95 696.857 1100.92 696.988 1089.66Z" fill="white"/>
<path d="M720.001 1142.74C722.746 1163.53 709.02 1182.74 689.412 1185.1C669.805 1187.45 651.765 1172.94 649.02 1151.76C646.275 1130.98 658.824 1102.35 678.432 1099.61C698.04 1097.25 717.256 1121.57 720.001 1142.74Z" fill="white"/>
<path d="M669.018 1117.65C658.822 1125.88 631.371 1126.67 620.391 1118.82C606.665 1108.23 621.175 1073.33 630.587 1062.35C630.979 1061.96 631.763 1061.96 631.763 1062.74L628.234 1085.49C627.449 1092.94 625.881 1100.78 626.665 1107.84C626.665 1109.41 628.234 1110.2 629.802 1110.59C640.391 1114.51 651.763 1115.69 663.136 1116.86C664.704 1116.86 667.449 1117.25 668.626 1116.47C668.626 1116.86 669.018 1117.25 669.018 1117.65Z" fill="white"/>
<path d="M665.883 1140.78C650.981 1151.37 634.51 1156.08 616.079 1154.12C614.902 1154.12 612.549 1153.33 611.373 1152.94C592.549 1146.67 586.275 1123.53 590.197 1105.88C590.197 1105.1 590.981 1104.71 591.373 1105.49C595.687 1119.22 601.569 1139.22 617.648 1141.96C625.491 1143.14 633.726 1142.74 641.569 1141.96C649.412 1141.18 657.648 1140.39 665.491 1138.82C666.275 1139.22 666.667 1140 665.883 1140.78C665.883 1140.78 666.275 1140.39 665.883 1140.78Z" fill="white"/>
<path d="M660.393 1160C651.765 1163.92 643.922 1167.06 637.648 1170.98C632.942 1174.12 629.804 1176.47 627.844 1181.57C625.491 1187.84 625.883 1195.29 626.275 1203.92C627.059 1211.76 628.236 1220.39 628.628 1229.8C628.628 1230.2 627.844 1230.59 627.452 1230.2C614.902 1210.2 603.53 1171.76 634.118 1162.35C642.353 1159.61 651.373 1158.82 660.001 1159.21C661.177 1158.82 661.177 1160 660.393 1160Z" fill="white"/>
<path d="M670.196 1172.55C668.628 1182.74 664.706 1189.8 667.843 1197.65C673.334 1209.02 678.039 1220.78 678.039 1234.51C678.039 1234.9 677.255 1235.29 677.255 1234.9C673.726 1230.2 670.196 1225.1 666.667 1220C662.353 1212.16 655.687 1204.31 655.687 1194.9C656.079 1185.49 662.353 1177.25 669.02 1171.37C670.196 1170.98 670.588 1171.76 670.196 1172.55Z" fill="white"/>
<path d="M692.548 1113.72C694.509 1111.76 698.823 1108.23 701.175 1106.27C707.45 1101.18 716.077 1095.69 722.352 1090.59C722.744 1090.2 723.136 1089.8 722.744 1090.59C722.352 1090.98 721.96 1091.76 721.568 1092.55C721.175 1093.72 720.783 1094.51 721.175 1095.69C717.646 1081.57 713.332 1067.84 714.117 1052.55V1052.16C714.117 1051.76 714.901 1051.37 715.293 1051.76C720.391 1061.96 725.489 1072.55 729.411 1083.14C730.979 1087.06 732.94 1091.37 732.94 1096.08C732.548 1098.04 730.979 1098.82 729.803 1100C725.097 1103.53 719.607 1105.88 714.509 1108.23C711.764 1109.41 691.372 1118.04 692.156 1114.12C692.156 1113.72 692.548 1113.72 692.548 1113.72Z" fill="white"/>
<path d="M700.783 1134.9C714.901 1125.88 731.371 1121.96 745.489 1116.08C749.411 1113.73 751.371 1109.8 753.724 1105.1C757.254 1098.82 759.999 1090.98 763.92 1082.74C763.92 1082.35 764.312 1082.35 764.705 1082.35C765.881 1094.51 764.312 1107.84 758.038 1118.82C751.371 1130.2 736.469 1130.98 724.705 1133.33C716.469 1134.51 708.626 1135.69 700.391 1136.08C699.999 1136.08 699.999 1135.29 700.783 1134.9Z" fill="white"/>
<path d="M710.586 1152.16C741.174 1126.67 778.429 1146.67 771.763 1186.67C770.194 1196.08 766.665 1205.1 759.998 1212.55C759.606 1212.94 758.821 1212.55 758.821 1212.16C759.998 1207.84 760.782 1203.92 761.174 1199.61C765.096 1170.59 757.645 1145.88 723.135 1150.98C718.821 1151.37 714.508 1152.16 710.586 1153.33C710.194 1153.72 709.802 1152.55 710.586 1152.16Z" fill="white"/>
<path d="M705.097 1167.06C718.823 1165.49 733.724 1176.08 734.117 1191.37C733.332 1207.06 726.273 1221.18 713.332 1230.59C712.94 1230.98 712.156 1230.98 712.156 1230.2C716.077 1218.82 719.999 1207.45 721.96 1195.69C723.528 1189.8 721.96 1184.31 718.038 1179.61C714.509 1175.29 709.803 1171.37 704.705 1168.23C703.921 1167.45 704.313 1166.67 705.097 1167.06Z" fill="white"/>
</svg>
