<svg width="1200" height="1200" viewBox="0 0 1200 1200" fill="none" xmlns="http://www.w3.org/2000/svg">
<path d="M849.036 638.038C849.821 661.175 850.997 676.077 850.997 676.077L895.311 663.921C895.311 663.921 881.978 587.058 888.644 520.783C901.586 395.293 888.644 359.999 888.644 359.999C881.978 327.45 860.409 298.43 812.566 289.803C798.056 280.783 781.978 273.724 764.331 267.842C701.193 245.489 562.37 198.822 455.703 269.019C349.036 339.215 345.115 469.803 330.605 556.862C316.095 643.92 221.193 707.45 221.193 707.45L243.154 738.822C254.919 747.45 286.684 708.626 291.782 707.45C296.88 706.273 263.154 747.058 263.154 747.058C271.782 781.96 308.644 802.352 308.644 802.352C308.644 802.352 365.899 765.489 354.135 782.352C342.37 799.215 320.409 812.548 320.409 812.548C320.409 812.548 377.664 863.136 401.193 858.822C424.723 854.509 458.448 800.783 455.703 812.548C453.35 824.313 434.135 867.45 434.135 867.45L465.115 885.097C562.762 853.724 485.115 730.587 540.801 654.901C596.095 579.215 525.507 538.822 569.821 513.724C581.193 507.058 592.174 499.999 601.978 492.156L665.507 503.136C665.507 503.136 706.684 502.352 694.919 419.999C690.605 389.803 700.801 357.646 704.723 347.058C705.115 347.058 705.115 347.058 705.507 347.058C703.938 357.646 701.193 389.019 710.213 429.411C722.762 486.273 683.546 508.234 683.546 508.234L723.154 520.783C763.546 500.783 730.997 436.862 723.154 385.881C720.801 369.411 723.938 359.215 729.429 353.332C756.88 361.568 774.527 370.979 776.095 362.744C840.801 378.822 841.586 463.921 843.546 466.273C842.762 481.96 840.801 508.626 840.409 543.136C840.409 559.215 841.978 590.195 840.801 608.234C839.625 630.195 837.664 650.587 834.527 670.979C828.644 702.352 819.625 735.293 806.684 755.685C780.801 796.077 760.409 830.195 723.154 847.45C686.291 864.313 644.331 867.842 644.331 867.842C644.331 867.842 656.095 875.293 683.938 876.862C711.782 878.43 731.782 867.45 752.174 864.313C772.566 860.783 819.233 873.724 819.233 873.724C824.331 864.705 820.801 831.371 825.899 838.038C830.997 844.705 830.213 873.724 830.213 873.724L872.174 881.175C881.193 859.999 882.37 822.352 882.37 822.352C882.37 816.077 881.978 809.803 881.585 802.744C874.919 736.077 848.644 724.705 849.036 638.038Z" fill="black"/>
</svg>
