<svg width="1200" height="1198" viewBox="0 0 1200 1198" fill="none" xmlns="http://www.w3.org/2000/svg">
<path d="M816.864 156.47C816.472 156.47 816.079 156.47 815.295 156.862C815.295 156.862 815.295 156.862 814.903 156.862C812.942 157.255 810.589 157.647 808.628 158.431C758.04 170.588 743.53 199.215 741.962 224.313C717.256 219.607 693.334 214.117 672.55 207.451C584.315 179.215 486.668 160.392 422.354 266.274C422.354 266.274 387.06 270.98 363.53 291.372C330.981 320 333.334 420 335.295 484.313C337.648 574.509 410.197 672.549 414.119 676.862C438.825 706.666 452.942 737.255 449.021 709.804C447.844 700.392 441.962 686.666 447.452 672.549C349.413 634.902 367.06 525.49 414.903 519.215C465.099 512.941 480.785 557.647 483.53 568.627C483.53 568.627 485.099 601.176 490.981 610.588C496.864 620 535.687 635.686 535.687 635.686C535.687 635.686 532.158 569.804 531.374 563.137C530.589 556.47 496.864 543.921 490.981 472.156C488.628 418.823 500.001 321.176 644.707 387.451C678.825 403.137 754.903 422.353 829.021 412.941C829.021 412.941 916.472 416.862 957.256 338.823C998.432 261.176 926.276 135.294 816.864 156.47Z" fill="black"/>
<path d="M537.257 644.706C537.257 644.706 500.787 623.137 497.65 625.882C494.512 628.235 540.395 654.509 537.257 644.706Z" fill="black"/>
<path d="M537.254 650.588C537.254 650.588 513.333 640 509.803 641.96C505.882 643.921 541.568 661.568 537.254 650.588Z" fill="black"/>
</svg>
