<svg width="1200" height="1200" viewBox="0 0 1200 1200" fill="none" xmlns="http://www.w3.org/2000/svg">
<path d="M906.275 277.647C852.157 222.353 787.059 221.961 751.373 227.451C720.785 214.117 634.118 183.529 481.961 188.627C322.353 194.117 401.177 274.51 401.177 274.51C401.177 274.51 281.961 276.078 256.471 316.47C231.373 356.863 305.491 385.098 305.491 385.098C305.491 385.098 216.079 414.902 251.373 463.921C267.844 486.667 309.412 492.549 349.02 492.549C349.02 583.137 387.059 648.627 410.589 676.863C441.961 714.51 449.804 743.137 449.804 743.137C455.295 716.47 446.667 693.725 447.451 672.549C349.412 634.902 367.059 525.49 414.902 519.215C465.099 512.941 480.785 557.647 483.53 568.627C501.569 547.059 489.412 405.882 539.608 372.941C589.804 340 661.961 364.314 751.765 376.863C772.157 379.608 812.157 368.235 826.275 375.294C842.746 383.529 867.059 415.294 864.314 476.47C874.118 476.863 883.138 477.647 892.157 478.039C894.118 460.392 895.687 427.843 890.197 394.117C890.981 396.863 905.491 443.921 905.491 478.823C911.373 479.216 917.255 479.216 923.53 479.608C925.099 469.412 927.059 454.117 927.059 446.667C927.059 438.431 930.589 463.529 932.55 479.608C937.648 479.608 950.197 480.392 955.687 480.392C974.902 414.902 953.726 326.274 906.275 277.647Z" fill="black"/>
</svg>
