<svg width="1200" height="1200" viewBox="0 0 1200 1200" fill="none" xmlns="http://www.w3.org/2000/svg">
<path d="M876.967 289.384C884.026 272.914 884.026 254.875 872.262 239.188C838.144 194.09 732.654 228.208 673.83 209.384C585.595 180.757 476.183 177.228 411.869 283.11C395.791 309.777 387.948 317.228 365.203 338.404C341.673 360.365 323.242 400.757 321.673 456.051C318.144 567.031 405.203 663.502 405.203 663.502C409.516 669.384 413.438 674.482 416.967 678.796C448.34 716.443 458.144 788.992 448.732 674.482C351.085 636.835 368.732 527.424 416.183 521.541C466.379 515.267 482.065 559.973 484.811 570.953C518.536 549.384 506.379 503.502 502.458 460.757C528.732 448.992 551.085 420.757 562.85 395.267C575.791 413.306 591.477 427.424 610.301 428.992C630.301 430.953 642.065 414.09 645.987 390.169C671.869 424.286 717.752 466.639 789.909 474.875C824.418 478.796 853.046 464.286 872.262 440.365C877.36 441.149 882.066 441.541 886.771 441.149C937.36 436.051 993.83 333.698 876.967 289.384Z" fill="black"/>
</svg>
