<svg width="1200" height="1200" viewBox="0 0 1200 1200" fill="none" xmlns="http://www.w3.org/2000/svg">
<path d="M926.666 336.471C913.725 254.118 855.294 203.138 763.137 219.608C754.117 197.648 734.902 166.667 695.294 160.785C663.529 156.079 654.902 172.55 654.117 190.197C638.039 180.785 615.294 172.55 585.49 176.863C560.784 180.393 552.156 190.197 550.196 200.785C504.313 203.922 455.686 215.295 410.588 241.569C294.117 309.412 321.568 473.726 358.431 562.746C359.215 566.275 360.392 570.197 361.176 573.726C350.196 567.844 306.274 549.02 246.274 575.295C183.137 603.138 216.078 682.746 256.47 676.863C256.47 676.863 180.392 706.275 208.627 769.02C231.372 819.608 300.392 790.197 300.392 790.197C300.392 790.197 267.843 842.354 315.686 865.883C364.313 889.804 389.019 822.353 389.019 822.353C389.019 822.353 400.392 877.648 450.196 869.02C511.764 858.432 480.392 785.099 480.392 785.099C480.392 785.099 513.725 807.059 528.627 769.02C541.568 736.079 502.352 703.922 482.745 690.981C466.274 680.001 455.294 676.863 447.843 672.55C349.803 634.903 367.451 525.491 415.294 519.216C465.49 512.942 481.176 557.648 483.921 568.628C492.156 558.824 494.509 519.608 499.215 479.216C650.588 501.961 742.745 407.844 775.686 365.883C788.627 372.55 821.176 391.765 843.137 423.53C870.98 463.922 921.176 454.51 928.235 379.608C929.803 369.02 929.411 354.903 926.666 336.471Z" fill="black"/>
</svg>
