<svg width="1200" height="1200" viewBox="0 0 1200 1200" fill="none" xmlns="http://www.w3.org/2000/svg">
<path d="M909.804 443.529C898.824 477.647 872.549 506.274 855.686 525.49C859.608 507.059 856.078 496.078 856.863 483.137C858.039 465.49 864.314 445.882 863.137 438.039C862.353 430.98 860.784 424.314 859.216 417.255C857.255 408.627 854.902 400.392 852.157 392.157C790.588 452.157 685.098 392.941 685.098 392.941C685.098 392.941 662.745 411.372 623.529 407.059C581.569 402.745 570.196 376.863 570.196 376.863C558.824 456.078 483.922 425.882 497.647 504.706C501.569 526.274 501.569 547.059 483.137 568.627C480 557.647 464.706 512.941 414.51 519.216C367.059 525.098 349.02 634.902 447.059 672.549C445.882 709.02 449.804 758.431 445.882 745.49C418.431 660.784 363.529 674.118 337.647 610.196C325.49 579.608 327.451 552.549 333.725 532.549C340 513.333 339.608 492.549 333.333 473.333C326.275 450.98 320.784 417.255 333.725 376.47C355.686 306.667 402.745 290.588 414.902 282.353C427.059 274.118 421.176 198.823 506.275 175.294C574.118 156.471 625.098 196.078 640 193.333C654.902 190.588 759.216 121.961 839.608 186.667C917.255 249.412 888.235 323.529 888.235 323.529C888.235 323.529 936.471 360.784 909.804 443.529Z" fill="black"/>
</svg>
