<svg width="936" height="1198" viewBox="0 0 936 1198" fill="none" xmlns="http://www.w3.org/2000/svg">
<path d="M883.648 802.745C876.981 715.294 833.059 722.745 862.863 527.843C866.785 503.137 869.53 480.392 871.099 458.823C903.648 416.078 918.55 294.902 797.373 287.843C797.373 287.843 737.765 220 594.628 227.058C504.432 233.725 428.353 277.647 393.844 325.882C364.824 366.666 351.883 401.176 348.746 447.058C348.746 449.804 348.353 452.549 348.353 455.294V456.078C347.961 464.705 347.961 473.725 348.353 483.137C347.177 505.098 340.51 534.902 318.942 556.862C293.059 583.137 281.295 605.882 287.961 650.98C269.53 661.96 237.373 694.902 228.746 729.411C299.334 795.686 442.079 823.137 449.53 825.49C456.589 809.019 465.608 754.509 461.687 735.686C459.726 725.098 458.157 713.725 458.157 700.784C458.157 692.941 458.55 685.49 459.334 678.431C351.099 643.921 368.353 527.843 417.373 521.568C435.02 519.215 447.961 523.529 458.157 529.804C460.118 533.333 462.471 536.47 464.824 539.607C527.177 622.353 556.981 423.137 584.432 425.882C755.02 442.745 772.667 389.019 778.55 362.745C843.255 378.823 844.04 463.921 846 466.274C845.216 481.96 843.255 508.627 842.863 543.137C842.863 559.215 844.432 590.196 843.255 608.235C839.334 669.019 832.667 719.607 798.157 782.745C787.569 801.96 775.804 819.215 762.863 830.588C803.255 829.804 844.04 826.666 884.824 822.352C884.432 816.078 884.04 809.411 883.648 802.745Z" fill="black"/>
<path d="M776.197 351.372C776.197 351.372 804.824 401.96 776.197 433.333C747.569 464.705 832.275 415.686 804.432 351.372" fill="black"/>
</svg>
