<svg width="936" height="1200" viewBox="0 0 936 1200" fill="none" xmlns="http://www.w3.org/2000/svg">
<path d="M872.942 797.647C894.511 761.177 891.374 716.079 891.374 716.079C888.237 756.079 868.237 783.53 854.903 797.647C841.57 796.079 826.668 791.765 809.413 783.922C891.374 703.137 872.158 490.588 871.766 472.157C869.413 376.863 817.256 365.098 755.687 394.51C485.099 301.177 542.746 425.49 476.864 551.765C414.903 451.373 307.452 600.392 436.08 667.451L448.237 798.432C420.001 802.353 395.295 803.138 373.727 801.177C365.491 778.039 342.354 711.765 340.393 705.098C338.04 696.863 352.942 787.451 352.942 787.451C352.942 787.451 325.099 750.981 316.472 729.412C316.472 729.412 322.746 768.236 336.472 794.118C127.452 733.334 360.001 335.294 374.119 337.647C374.119 337.647 335.687 216.471 430.197 163.137C522.746 110.981 594.511 175.687 594.511 175.687C626.276 95.2944 787.452 98.0395 814.903 196.863C969.805 201.177 904.707 417.647 901.962 419.608C907.452 468.236 991.766 783.922 872.942 797.647Z" fill="black"/>
</svg>
