<svg width="1200" height="1200" viewBox="0 0 1200 1200" fill="none" xmlns="http://www.w3.org/2000/svg">
<path d="M898.822 484.314C903.92 469.02 900.391 330.196 840.783 276.079C781.567 221.961 582.351 220.784 582.351 220.784C448.626 219.608 386.273 265.883 341.959 410.981C314.901 500 351.371 413.726 229.41 563.137C179.214 629.02 179.606 691.765 206.273 743.922C274.508 878.039 477.253 939.608 477.253 791.765C477.253 766.275 470.587 735.294 455.293 698.039C451.763 689.804 449.802 681.177 449.41 672.941C349.018 636.079 366.665 525.098 414.508 518.824C448.626 514.51 466.665 533.726 475.685 549.804C477.253 553.333 478.43 556.079 479.999 558.824C501.567 598.824 513.724 539.608 512.548 485.882C516.469 485.49 539.999 484.314 574.901 483.53C589.41 483.137 600.783 470.981 599.999 456.471C599.214 440 598.822 423.53 604.312 407.451C609.018 424.706 611.763 441.961 613.724 459.608C615.293 472.549 626.273 482.745 639.214 482.745C669.41 482.745 702.744 483.53 736.469 484.706C749.41 485.098 760.783 476.079 763.136 463.53C765.097 453.333 766.665 442.745 769.018 432.549C770.587 432.549 769.802 432.549 771.371 432.941C770.979 442.745 770.587 452.549 770.587 462.353C770.195 476.079 780.783 487.451 794.508 488.628H794.901C807.057 489.804 818.43 481.961 821.567 470.196C823.92 462.745 826.273 454.902 828.626 447.451C830.195 447.843 829.803 447.451 831.371 447.843C830.979 453.726 830.587 460 829.803 465.883C828.234 478.432 836.077 490.196 847.45 493.726C864.312 493.726 880.783 492.941 894.901 488.235C897.253 487.451 898.43 485.882 898.822 484.314Z" fill="black"/>
<path d="M480.784 559.608C479.216 556.862 478.039 554.117 476.471 550.588C478.039 553.725 479.608 556.862 480.784 559.608Z" fill="black"/>
</svg>
