<svg width="1200" height="1198" viewBox="0 0 1200 1198" fill="none" xmlns="http://www.w3.org/2000/svg">
<path d="M672.943 214.902C497.257 198.039 438.825 256.863 415.688 277.647C383.139 306.275 333.727 419.608 335.688 484.314C338.041 574.51 410.198 669.804 413.335 674.51C429.413 698.432 445.884 712.941 450.198 718.039C447.845 709.412 443.923 678.432 447.453 672.941C349.413 635.294 367.061 525.883 414.904 519.608C465.1 513.334 480.786 558.039 483.531 569.02C483.531 569.02 483.531 570.196 483.923 572.157C484.315 572.157 484.708 572.549 485.1 572.549C502.355 578.432 518.433 561.177 512.551 544.314C503.531 519.608 493.335 490.981 491.766 472.549C489.413 419.216 510.982 358.432 669.806 367.059C690.198 368.235 707.845 371.373 725.1 374.902C733.727 377.255 756.864 386.275 749.021 408.628C741.57 430.196 726.276 412.549 721.962 414.51C719.61 415.686 734.511 435.686 756.472 431.765C774.511 428.628 789.021 410.196 782.747 385.883C789.021 386.667 795.688 387.451 802.355 388.235C844.708 391.373 882.747 358.432 881.57 316.079C880.394 272.941 840.002 230.981 672.943 214.902Z" fill="black"/>
<path d="M451.376 719.608C451.376 719.216 450.984 718.823 450.199 717.647C450.984 720 451.376 720.784 451.376 719.608Z" fill="black"/>
</svg>
