<svg width="1200" height="1198" viewBox="0 0 1200 1198" fill="none" xmlns="http://www.w3.org/2000/svg">
<path d="M936.079 370.196C936.079 320.784 902.745 279.608 857.647 266.667C860 256.863 860.392 246.667 858.039 236.078C850.196 201.961 819.608 178.039 784.706 180.392C770.981 181.176 758.039 186.274 747.451 194.118C731.765 150.98 708.628 136.078 661.961 133.333C637.647 132.157 593.333 140.392 580 186.274C565.882 174.51 545.882 168.627 518.432 168.627C470.588 168.627 431.373 206.274 429.02 253.725C421.569 251.372 413.333 250.196 405.098 250.588C373.333 252.549 347.451 278.431 345.098 310.196C344.314 320.784 346.275 330.98 350.196 340.392C305.49 345.098 270.588 383.137 270.588 429.019C270.588 463.529 290.196 493.725 319.216 508.627C308.628 512.941 293.333 533.725 290.588 551.372C285.882 581.569 299.216 607.843 318.039 618.039C316.079 624.314 315.294 631.765 317.647 639.216C321.177 652.157 331.765 662.353 344.706 665.098C352.549 666.667 360 665.882 366.667 663.137C372.941 676.47 380.784 684.706 387.059 689.804C411.373 709.804 461.177 707.843 447.843 672.941C447.843 672.549 447.843 672.549 447.843 672.157C349.804 634.51 367.451 525.098 415.294 518.823C465.49 512.549 481.177 557.255 483.922 568.235C537.647 533.725 461.177 409.412 540 372.549C610.196 340 683.922 389.412 774.118 401.568C807.451 406.274 838.824 373.333 852.941 391.765C855.686 400 858.039 408.235 860 416.863C863.53 432.157 860.784 446.667 857.255 467.451C852.549 493.725 884.314 475.686 887.451 471.765C895.294 461.961 900.784 450.98 896.863 438.039C918.824 418.823 936.079 402.353 936.079 370.196Z" fill="black"/>
</svg>
