<svg width="1200" height="1198" viewBox="0 0 1200 1198" fill="none" xmlns="http://www.w3.org/2000/svg">
<path d="M594.902 224.313C363.137 219.608 339.608 413.725 354.117 529.412C370.196 658.039 447.058 708.627 447.058 708.627L452.157 674.51C452.157 674.51 433.725 668.235 416.078 655.294C354.902 609.019 373.725 524.706 415.294 519.608C456.862 514.117 474.902 544.313 481.176 560.784C503.137 488.235 472.157 470.196 503.137 418.823C600 314.117 667.451 384.706 714.902 398.431C766.666 412.941 800.784 396.47 820 378.039C833.725 364.706 851.372 389.804 851.372 389.804C851.372 389.804 825.882 229.019 594.902 224.313Z" fill="black"/>
</svg>
