<svg width="1200" height="1200" viewBox="0 0 1200 1200" fill="none" xmlns="http://www.w3.org/2000/svg">
<path d="M859.217 417.255C858.041 411.373 856.472 405.098 854.511 399.216C852.55 393.334 847.844 388.236 841.57 387.059C821.178 383.53 801.57 393.726 773.335 389.804C683.531 377.647 623.531 339.608 539.217 372.549C452.158 406.275 501.57 546.667 483.139 568.236C480.001 557.255 464.707 512.549 414.511 518.824C367.06 524.706 349.021 634.51 447.06 672.157C446.276 693.726 407.452 714.118 376.08 676.471C344.707 638.824 281.962 541.177 324.315 398.432C366.668 255.687 558.433 181.177 736.864 253.726C767.452 266.275 787.06 293.334 812.55 302.353C865.099 321.569 865.492 445.098 859.217 417.255Z" fill="black"/>
<path d="M447.844 672.549C447.844 672.549 447.06 704.706 414.119 764.314C414.119 764.314 406.276 731.373 389.021 701.177C372.158 670.981 338.825 607.843 318.433 544.706C298.04 481.569 335.688 560 354.903 586.275C374.119 612.549 386.276 676.471 447.844 672.549Z" fill="black"/>
<path d="M392.55 640.785C392.55 640.785 381.57 714.118 451.766 806.667C521.962 899.216 525.884 994.118 500.001 1094.51C500.001 1094.51 459.217 1064.31 335.688 975.687C212.158 887.059 182.354 735.687 344.707 592.941C345.1 592.941 390.982 601.569 392.55 640.785Z" fill="black"/>
<path d="M673.729 324.314C688.238 333.334 703.925 339.216 720.787 340.392C741.572 341.961 772.552 356.079 818.042 397.255C871.768 445.883 845.101 127.843 510.591 203.138C396.082 228.628 314.513 329.804 300.395 443.138C299.611 450.981 298.827 458.824 298.435 466.667C295.297 570.981 379.611 661.961 379.611 661.961C379.611 661.961 345.101 516.863 423.925 456.863C495.297 402.353 545.101 338.432 607.454 338.432C645.101 338.04 665.101 319.216 673.729 324.314Z" fill="black"/>
<path d="M684.708 240C684.708 240 803.531 466.275 862.355 464.314C921.178 462.353 982.355 278.039 857.649 208.235C770.59 159.216 684.708 240 684.708 240Z" fill="black"/>
<path d="M737.647 303.921C737.647 303.921 834.902 407.843 789.02 437.647C762.745 454.51 737.647 403.529 737.647 403.529C737.647 403.529 706.667 454.118 657.255 428.627C607.843 403.529 640.785 330.98 640.785 330.98C640.785 330.98 707.843 263.529 737.647 303.921Z" fill="black"/>
<path d="M650.588 339.216C650.588 339.216 632.941 446.275 549.803 461.961C466.666 477.647 456.862 392.157 456.862 392.157C456.862 392.157 580 256.863 650.588 339.216Z" fill="black"/>
</svg>
