<svg width="1200" height="1198" viewBox="0 0 1200 1198" fill="none" xmlns="http://www.w3.org/2000/svg">
<path d="M908.26 763.531C862.769 647.452 868.652 610.982 879.632 513.334C901.593 321.178 832.181 274.511 795.711 256.08C640.417 177.256 462.377 215.687 395.319 323.923C353.358 391.374 351.789 445.491 328.26 523.138C287.868 656.08 190.613 714.903 220.809 850.982C262.377 985.099 528.26 1044.31 523.162 904.707C520.024 820.393 456.887 809.021 455.711 692.55C455.711 684.707 456.103 677.256 456.887 670.197C348.652 636.08 365.907 520.001 414.926 513.727C449.044 509.413 467.083 528.629 476.103 544.707C476.887 547.06 478.064 549.021 479.24 551.374C487.083 564.707 579.632 539.609 650.22 496.08C691.397 470.589 755.711 426.668 773.358 378.433C774.142 376.472 786.691 436.864 845.515 515.295C842.769 561.962 854.534 678.433 794.926 774.511C751.789 844.707 697.671 850.982 697.671 850.982C697.671 897.648 780.417 895.295 814.926 903.138C858.064 912.55 900.809 938.433 900.809 938.433C900.809 938.433 950.22 870.589 908.26 763.531Z" fill="black"/>
</svg>
