<svg width="1200" height="1200" viewBox="0 0 1200 1200" fill="none" xmlns="http://www.w3.org/2000/svg">
<path d="M890.98 357.254C917.647 334.117 956.863 299.215 916.47 250.588C876.078 201.96 801.568 220.784 801.568 220.784C801.568 220.784 817.255 176.078 773.725 160C721.176 140.784 572.157 198.823 572.157 198.823C561.176 198.431 550.588 198.039 540.784 198.039C412.157 195.294 374.902 276.47 373.333 349.411C373.333 349.411 329.804 363.921 318.823 433.333C315.294 455.686 311.765 484.313 320.392 518.823C343.529 612.941 405.882 678.431 445.49 711.764C460.392 700.784 434.118 685.49 436.078 667.451C350.98 625.882 369.412 525.098 414.902 519.215C449.804 514.902 468.235 535.294 476.863 551.764C480.392 556.47 433.333 294.117 704.706 380C758.431 396.862 813.725 411.764 851.372 384.705C855.686 392.941 858.431 402.745 859.216 417.254C859.216 417.254 924.706 391.764 914.902 365.098C911.765 356.078 890.98 357.254 890.98 357.254Z" fill="black"/>
</svg>
