<svg width="1200" height="1200" viewBox="0 0 1200 1200" fill="none" xmlns="http://www.w3.org/2000/svg">
<path d="M862.354 431.765C861.569 427.059 860.393 422.353 859.609 417.255C855.295 398.039 849.02 380 840.785 363.137L794.511 382.353C781.177 387.843 766.275 389.412 751.765 387.059L568.236 355.294C545.883 351.373 524.314 364.314 516.863 385.49C511.373 400.784 502.746 422.353 495.687 437.647C440.001 446.667 421.569 433.333 376.863 412.549C373.334 410.981 368.236 405.883 364.314 403.922C371.373 368.235 344.314 219.216 378.04 180.392C389.412 167.451 400.785 165.883 411.765 169.804C437.256 178.824 426.667 173.726 445.099 154.118C460.001 138.824 478.824 125.49 501.961 125.098C513.334 124.706 522.354 127.059 529.805 131.373C553.334 144.314 581.961 140 603.138 123.922C609.805 119.216 616.863 116.079 624.707 116.079C636.079 116.079 646.275 120.784 654.51 127.059C670.197 138.824 690.981 141.569 710.197 137.647C711.373 137.255 712.55 137.255 713.726 137.255C718.432 137.255 723.53 138.432 727.844 140.392C744.314 147.451 762.746 148.235 779.216 141.177C787.06 138.039 796.471 138.039 805.883 147.059C817.648 158.432 832.942 165.883 849.412 166.275C853.726 166.275 859.216 168.235 865.883 172.549C869.02 174.902 871.765 179.216 873.726 185.098C876.863 194.118 884.314 200.784 893.726 203.53C899.609 205.49 903.922 211.373 905.099 224.706C908.628 266.667 872.158 397.647 862.354 431.765Z" fill="black"/>
<path d="M892.945 202.745C875.69 209.02 872.552 205.49 852.945 200.392C833.337 195.294 816.082 217.255 801.964 194.51C781.572 161.176 743.925 183.922 736.474 177.647C729.023 171.373 705.886 150.588 673.337 172.549C651.768 187.059 624.317 161.176 589.807 161.176C520.788 161.176 508.239 211.765 484.317 188.627C460.396 165.882 474.121 181.176 438.827 187.451C403.533 193.725 385.494 172.549 385.494 172.549C394.121 166.667 402.749 166.667 410.984 169.412C436.474 178.431 425.886 173.333 444.317 153.725C459.219 138.431 478.043 125.098 501.18 124.706C512.552 124.314 521.572 126.667 529.023 130.98C552.552 143.922 581.18 139.608 602.356 123.529C609.023 118.824 616.082 115.686 623.925 115.686C635.298 115.686 645.494 120.392 653.729 126.667C669.415 138.431 690.199 141.176 709.415 137.255C710.592 136.863 711.768 136.863 712.945 136.863C717.651 136.863 722.749 138.039 727.062 140C743.533 147.059 761.964 147.843 778.435 140.784C786.278 137.647 795.69 137.647 805.101 146.667C816.866 158.039 832.16 165.49 848.631 165.882C852.945 165.882 858.435 167.843 865.102 172.157C868.239 174.51 870.984 178.824 872.945 184.706C876.082 193.333 883.533 200 892.945 202.745Z" fill="black"/>
<path d="M481.179 550.196C481.179 552.549 478.041 553.726 476.865 551.373C467.845 534.902 449.806 514.902 415.296 519.216C373.728 524.314 354.904 608.628 416.08 654.902C430.59 665.491 445.884 671.373 450.59 673.334C451.767 673.726 452.159 674.902 452.159 675.687L448.237 703.138C447.845 704.706 446.277 706.275 445.1 705.098C431.375 689.412 425.884 680.785 392.943 646.667C369.022 621.961 341.963 587.059 338.433 529.02C335.688 478.04 347.845 438.04 363.139 405.491C363.531 404.314 365.1 403.922 366.277 404.314C418.041 428.236 437.257 441.961 492.943 433.726C494.904 433.334 496.08 435.294 495.296 436.863C489.022 449.02 482.747 458.824 476.08 463.53C456.865 478.432 479.218 514.51 481.179 550.196Z" fill="#D6D6D6"/>
<path d="M483.924 549.804C484.316 556.079 476.081 557.255 473.728 551.765C465.884 537.647 452.943 526.275 437.257 523.137C419.218 519.608 401.179 523.529 391.375 540.784C373.335 572.157 383.139 614.902 408.63 639.608C421.179 650.981 433.335 666.667 450.982 671.373C452.943 671.765 454.12 674.118 453.728 675.686V676.079V676.863V678.824V682.353C453.728 688.235 453.728 696.471 453.335 702.353C453.335 708.628 445.1 713.333 440.786 707.843C436.081 703.137 429.022 693.726 424.708 688.235C400.786 658.431 369.806 632.549 353.728 596.863C329.414 543.529 334.512 480.784 354.12 427.059C357.257 419.216 360.002 410.98 364.316 403.922C365.492 403.137 366.669 403.529 367.845 404.314C393.335 415.686 420.394 431.373 448.63 434.902C463.139 436.471 477.649 435.686 491.767 433.726C492.943 433.726 494.12 432.941 495.296 433.726C498.826 435.686 494.12 441.177 493.335 443.922C489.806 451.765 485.492 460 479.218 465.882C466.669 478.039 482.355 503.529 483.924 519.216C484.708 529.804 483.139 540 483.924 549.804ZM478.041 550.196C477.649 540.784 471.767 532.157 467.845 523.53C461.963 506.667 455.688 487.451 462.355 469.412C464.708 463.922 469.414 459.608 474.12 456.471C480.394 450.588 485.884 442.745 489.806 434.902C488.63 436.471 490.198 440.784 493.335 440.392C440.394 449.412 411.767 432.941 364.708 410.588L363.924 410.196C365.492 410.98 367.453 410.196 368.237 408.628V408.235C367.061 410.98 365.492 413.726 364.316 416.863C340.394 471.765 334.12 538.824 361.179 593.726C378.041 628.235 409.022 652.157 432.551 681.961C436.473 686.667 444.708 696.471 448.63 701.569C447.453 700 443.531 699.608 442.747 701.569L442.355 702.353C442.747 700.392 443.139 698.039 443.924 696.079C445.492 689.804 447.845 681.961 449.414 675.294C449.414 674.902 449.414 674.902 449.414 674.902C445.884 673.333 441.963 671.765 438.433 670.196C429.414 666.275 419.218 664.314 410.59 658.824C381.571 638.824 365.492 600 372.551 564.706C376.865 539.608 395.296 512.941 423.531 515.294C446.669 514.902 468.237 528.628 478.826 549.02L479.218 549.804C478.826 549.412 478.433 549.412 478.041 550.196Z" fill="black"/>
<path d="M481.571 458.824C479.61 460.785 478.041 462.745 476.081 463.922C471.375 467.451 469.022 472.549 468.238 478.432C443.924 479.608 409.022 469.412 396.865 465.49C394.12 464.706 392.551 462.353 392.551 459.608V457.647C392.551 453.334 396.473 450.588 400.394 451.373C427.845 458.824 480.002 458.824 481.571 458.824Z" fill="black"/>
<path d="M473.729 511.373C452.16 509.804 431.376 505.882 421.964 503.922C418.827 503.137 416.866 500.784 416.866 497.647C416.866 493.726 420.396 490.981 424.317 491.373C441.964 494.118 460.788 493.726 469.807 493.333C470.2 498.824 471.768 504.706 473.729 511.373Z" fill="black"/>
</svg>
