<svg width="1200" height="1200" viewBox="0 0 1200 1200" fill="none" xmlns="http://www.w3.org/2000/svg">
<path d="M813.335 302.745C793.335 284.314 768.237 266.275 737.648 254.118C647.06 217.255 562.746 218.432 496.472 247.059C494.511 208.628 484.315 149.804 439.217 140C370.982 124.706 394.511 199.216 415.688 245.883C415.688 245.883 334.119 172.941 298.433 222.353C264.315 269.804 349.805 321.569 349.805 321.569C349.805 321.569 223.139 331.765 249.805 403.922C265.492 445.49 318.041 431.765 360.001 412.941C325.884 548.236 385.099 640.392 415.688 677.255C447.06 714.902 449.805 743.53 449.805 743.53C465.884 734.51 446.668 694.118 447.452 672.941C349.413 635.294 367.06 525.883 414.903 519.608C465.099 513.334 480.786 558.039 483.531 569.02C501.57 547.451 501.57 526.667 498.041 505.098C484.315 426.275 492.158 383.53 539.609 373.334C615.295 356.863 683.531 395.294 773.727 407.451C807.06 412.157 827.844 381.569 852.55 392.549C855.295 400.785 857.648 409.02 859.609 417.647C861.178 424.314 862.354 430.588 863.139 437.255C867.06 382.353 855.688 341.961 813.335 302.745Z" fill="black"/>
</svg>
