<svg width="1200" height="1200" viewBox="0 0 1200 1200" fill="none" xmlns="http://www.w3.org/2000/svg">
<path d="M869.806 303.922C860.394 275.294 847.061 250.588 833.335 237.255C804.708 209.02 795.296 247.059 795.296 247.059C795.296 247.059 751.767 165.882 691.767 154.902C649.022 147.059 660.394 196.471 660.394 196.471C660.394 196.471 609.022 141.177 537.257 141.177C480.394 141.177 501.963 190.196 501.963 190.196C501.963 190.196 500.786 132.157 458.041 142.353C415.296 152.549 431.375 236.863 431.375 236.863C397.257 151.373 339.218 234.51 329.414 413.333C323.531 519.608 354.904 588.628 376.08 622.745C394.904 656.471 416.08 680 427.845 701.177C444.708 731.373 452.943 764.314 452.943 764.314C456.865 748.235 465.1 692.157 460.394 676.863L447.453 672.549C349.414 634.902 367.061 525.49 414.904 519.216C465.1 512.941 480.786 557.647 483.531 568.628C501.571 547.059 452.551 407.059 539.61 372.941C623.924 340 676.473 388.628 766.669 400.784C794.904 404.706 821.571 383.922 841.963 387.451C848.237 388.628 852.943 393.333 854.904 399.608C856.473 405.49 858.041 411.373 859.61 417.647C864.708 441.569 966.669 322.745 869.806 303.922Z" fill="black"/>
</svg>
