<svg width="1200" height="722" viewBox="0 0 1200 722" fill="none" xmlns="http://www.w3.org/2000/svg">
<path d="M890.6 482.744C908.247 422.352 877.659 380.391 855.698 359.999C845.502 332.548 828.247 305.489 800.796 284.705C795.306 280.391 789.424 276.47 782.757 272.94C777.267 269.803 771.384 267.058 765.502 264.313C713.737 241.96 630.992 215.685 549.031 229.803C517.659 234.901 486.286 246.274 456.875 265.489C456.482 265.489 456.482 265.881 456.482 265.881C454.13 267.45 451.777 269.019 449.816 270.587C444.326 263.921 438.051 258.038 430.992 252.548C381.973 215.685 328.639 221.96 291.777 271.372C254.914 320.391 248.639 393.725 297.659 430.587C312.953 441.96 330.208 449.019 347.855 451.764C347.463 453.725 347.463 456.077 347.071 458.038C325.502 651.372 473.345 738.43 461.973 677.646C458.835 676.47 457.267 675.293 457.267 674.509C348.639 639.999 365.894 523.921 414.914 517.646C432.561 515.293 445.502 519.607 455.698 525.881C459.62 529.803 463.149 533.332 466.679 536.862C476.09 548.627 484.326 563.528 484.326 569.411C484.718 564.705 485.11 559.215 486.286 553.725C533.737 589.019 576.482 576.47 654.13 452.548C705.502 370.587 736.09 354.509 752.953 356.862C759.62 359.215 765.894 364.313 771.777 372.94C773.345 375.293 774.914 377.646 776.09 379.999C810.6 379.215 826.679 399.215 834.914 419.999C834.914 419.999 834.914 419.999 834.914 420.391C841.581 438.038 842.365 456.077 843.149 460.783C843.149 461.568 843.149 461.96 843.541 461.96C842.757 477.646 840.796 504.313 840.404 538.823C840.404 554.509 841.973 585.881 840.796 603.921C840.404 609.411 840.012 614.901 839.62 619.999C839.228 622.744 839.228 625.489 838.835 627.842C838.443 630.195 838.443 632.94 838.051 635.685C837.659 638.823 837.267 641.568 837.267 644.705C845.11 654.117 856.482 655.685 865.894 661.96C868.247 635.293 861.188 612.94 858.443 582.744C860.796 592.94 863.933 602.744 868.639 612.94C884.326 646.666 875.698 671.372 875.698 671.372L901.581 672.94C904.326 665.489 906.679 651.764 898.443 633.725C885.894 605.881 885.11 592.94 885.11 592.94C885.11 592.94 891.777 615.685 904.326 630.979C914.13 643.528 918.051 660.391 914.13 673.725L923.541 674.509C951.777 632.156 864.326 571.764 890.6 482.744ZM570.6 516.862C540.796 538.43 515.698 534.117 500.404 527.45C500.796 527.45 501.188 527.058 501.188 527.058C510.6 526.274 520.012 524.313 529.031 520.783C572.169 505.489 612.169 465.881 647.463 429.411C617.659 466.274 589.031 503.528 570.6 516.862Z" fill="black"/>
</svg>
