<svg width="1200" height="1200" viewBox="0 0 1200 1200" fill="none" xmlns="http://www.w3.org/2000/svg">
<path d="M881.568 363.922C898.039 345.49 908.235 321.177 908.235 294.51C908.235 236.863 861.568 190.196 803.921 190.196C764.313 190.196 729.803 212.549 712.156 245.098C639.215 220.785 571.372 221.177 514.901 240.392C493.725 210.196 458.823 190.196 419.215 190.196C354.901 190.196 303.137 242.353 303.137 306.275C303.137 349.412 326.666 387.451 361.96 407.451C324.705 545.49 385.097 640 416.078 677.255C447.45 714.902 450.196 743.53 450.196 743.53C466.274 734.51 447.45 694.118 447.843 672.941C349.803 635.294 367.45 525.883 415.294 519.608C465.49 513.334 481.176 558.039 483.921 569.02C493.333 558.039 495.294 508.628 501.568 462.353L505.097 529.412C505.097 529.412 591.764 519.608 689.019 518.824C690.195 501.961 692.941 469.804 692.156 454.51C692.156 454.51 700.392 489.412 703.921 518.824C707.843 518.824 711.372 518.824 715.294 518.824C721.176 518.824 727.45 518.824 734.509 519.216C735.686 505.098 738.039 480 738.039 468.628C738.039 468.628 742.744 496.079 744.705 519.608C771.372 520.392 802.352 521.961 829.803 525.49C831.372 515.294 835.686 488.628 836.47 472.549C836.47 472.549 843.137 496.079 840.392 527.059C846.666 527.843 852.941 529.02 858.431 530.196C858.039 533.726 855.686 545.098 855.686 545.098C870.98 547.451 887.058 538.039 887.058 538.039C886.274 537.647 910.588 457.647 881.568 363.922Z" fill="black"/>
</svg>
