<svg width="1200" height="1200" viewBox="0 0 1200 1200" fill="none" xmlns="http://www.w3.org/2000/svg">
<path d="M880.001 331.373C879.609 344.314 879.216 374.902 871.765 385.098C845.491 421.177 863.138 403.53 847.452 385.098C826.275 380 803.922 387.451 760.001 386.667C746.667 386.275 617.256 379.216 601.962 381.961C590.197 383.922 483.922 368.236 521.569 528.628C524.314 543.138 524.314 544.314 527.452 556.471C532.55 576.863 529.805 600.393 505.099 598.04C497.648 597.255 488.628 589.02 484.314 570.589C484.314 570.589 472.158 511.765 414.903 518.824C365.491 525.098 348.236 643.138 459.216 676.079C459.216 676.079 474.118 725.098 496.079 757.647C515.295 786.275 482.354 828.236 449.805 778.04C452.942 835.295 392.55 827.451 391.373 741.961C390.981 738.432 390.589 734.51 390.589 730.589C384.314 752.942 378.432 770.589 376.079 774.902C353.726 817.648 318.824 810.981 318.432 748.236C318.432 614.902 358.04 502.746 358.04 502.746C352.55 441.177 352.158 342.746 382.746 287.059C436.079 189.02 693.334 210.589 741.962 216.471C820.001 225.883 882.354 234.51 880.001 331.373Z" fill="black"/>
</svg>
