<svg width="1200" height="1200" viewBox="0 0 1200 1200" fill="none" xmlns="http://www.w3.org/2000/svg">
<path d="M871.372 237.256C777.254 210.589 767.058 259.216 672.941 207.452C578.823 155.295 408.235 190.197 376.47 311.373C376.47 311.373 323.921 343.53 320.392 454.51C318.039 529.02 356.862 597.256 382.352 633.726C399.607 661.961 417.647 682.746 428.235 701.569C445.098 731.765 453.333 764.706 453.333 764.706C457.254 727.059 466.274 692.55 460.784 677.255L447.843 672.942C349.803 635.295 367.451 525.883 415.294 519.608C465.49 513.334 481.176 558.04 483.921 569.02C490.588 560.785 488.235 536.079 486.666 506.667C565.098 545.491 643.529 457.255 669.803 389.02C702.353 304.706 774.117 370.589 774.117 370.589C774.117 370.589 845.098 503.53 920.392 444.314C987.058 390.981 973.725 265.883 871.372 237.256Z" fill="black"/>
</svg>
