<svg width="1200" height="1198" viewBox="0 0 1200 1198" fill="none" xmlns="http://www.w3.org/2000/svg">
<path d="M859.215 417.255C857.255 408.627 854.902 400.392 852.157 392.157C831.372 375.686 809.411 365.098 776.078 360.392C686.274 348.235 615.294 356.47 539.608 372.941C492.157 383.137 501.961 547.059 483.529 568.627C480.392 557.647 465.098 512.941 414.902 519.215C367.451 525.098 349.411 634.902 447.451 672.549C446.666 694.117 455.294 718.039 449.804 743.137C449.804 743.137 447.059 714.51 415.686 676.863C384.313 639.215 282.353 541.568 324.706 398.823C367.059 256.078 558.823 181.568 737.255 254.117C767.843 266.666 792.941 284.313 812.941 302.745C860 345.882 884.313 360 877.255 423.137C874.902 444.313 865.49 445.098 859.215 417.255Z" fill="black"/>
<path d="M796.864 349.804C796.864 349.804 681.178 527.059 465.491 472.157C465.491 472.157 423.531 366.667 514.903 326.274C606.276 285.882 774.511 314.51 796.864 349.804Z" fill="black"/>
<path d="M784.708 352.157C784.708 352.157 799.61 393.334 829.022 426.667C848.238 448.236 873.336 466.275 904.708 467.059C904.708 467.059 914.512 360.393 844.708 318.824C774.904 277.255 784.708 352.157 784.708 352.157Z" fill="black"/>
<path d="M498.041 284.314C498.041 284.314 371.766 87.843 260.786 230.196C149.805 372.549 270.982 744.314 203.531 856.078C203.531 856.078 280.786 800 301.178 690.196C301.178 690.196 303.531 735.686 289.805 799.216C289.805 799.216 371.766 704.706 371.766 591.372C371.766 478.039 453.727 313.333 498.041 284.314Z" fill="black"/>
<path d="M865.101 505.49C879.218 565.49 865.101 669.411 865.101 669.411C865.101 669.411 1037.65 395.294 898.042 291.372C780.395 203.529 526.669 292.941 526.669 292.941C526.669 292.941 764.709 235.686 811.375 345.098C853.728 443.921 831.767 360.392 845.101 419.215C846.277 425.098 863.14 497.255 865.101 505.49Z" fill="black"/>
</svg>
