<svg width="1200" height="1200" viewBox="0 0 1200 1200" fill="none" xmlns="http://www.w3.org/2000/svg">
<path d="M425.88 663.922C434.508 669.804 447.057 676.079 447.057 676.079C447.057 676.079 449.41 710.981 449.018 723.137C448.625 734.51 444.312 769.412 444.312 769.412C444.312 769.412 433.723 710.196 402.351 677.255C385.096 659.216 357.253 639.216 340.782 569.02L356.861 571.765C356.861 571.765 367.449 538.432 367.449 540.784C367.449 542.745 367.449 574.902 367.449 574.902L377.253 575.686C375.292 605.098 389.41 639.216 425.88 663.922Z" fill="#D6D6D6"/>
<path d="M429.411 658.824C436.862 663.529 445.097 667.843 452.94 671.765L453.333 675.294C454.117 689.412 456.078 708.627 455.686 722.745C454.509 748.627 448.627 778.824 445.489 804.314C438.039 766.667 430.195 725.098 407.842 692.941C397.254 677.647 381.176 665.882 369.803 650.196C351.764 626.667 341.568 598.039 334.509 569.804L332.548 561.177C338.039 561.961 351.764 564.314 357.254 565.49L350.588 569.412L355.686 553.333C356.47 550.98 358.823 543.529 359.607 541.176C360.391 539.608 360.784 537.647 361.96 536.078C365.49 531.765 372.548 534.51 372.156 540.392V574.118L366.666 568.235L375.686 574.902C378.431 610.196 399.999 641.176 429.411 658.824ZM424.313 666.667C394.117 646.275 372.156 612.549 372.94 575.294L376.47 579.608L366.666 580.392L361.96 580.784C361.176 576.863 361.568 545.49 361.568 540.784V540.392V540.784C361.568 541.176 361.568 541.569 361.96 541.961C363.137 546.275 369.411 547.059 371.764 543.922C372.156 543.529 372.156 543.137 372.548 542.745L372.156 543.529C370.98 547.059 368.627 553.726 367.45 557.255C366.274 560.784 361.96 574.51 360.784 578.039C357.254 577.255 343.529 575.294 339.607 574.51L346.274 567.451C354.901 603.922 369.803 638.431 398.039 664.314C427.45 690.98 441.96 729.804 450.195 768.235L438.431 768.627C441.96 746.275 446.274 722.353 444.313 699.608L443.137 676.471L445.097 679.608C438.039 675.294 430.98 671.373 424.313 666.667Z" fill="black"/>
<path d="M923.138 518.824L893.334 525.098C892.55 564.706 890.981 593.333 890.981 593.333H845.883C845.883 593.333 839.608 570.588 846.275 507.059C848.628 486.667 860.785 462.745 858.432 445.882C854.118 414.902 843.922 390.196 834.118 375.294C815.687 358.823 782.354 382.353 780.785 383.529L784.314 375.294C774.51 381.569 767.452 387.843 767.452 387.843C767.452 387.843 763.138 378.823 754.903 367.059C755.295 370.98 755.687 374.902 755.295 378.039C755.295 378.039 749.412 367.843 739.609 356.471C743.53 369.02 742.354 379.608 742.354 379.608C708.236 330.196 678.824 337.255 663.922 346.274C621.569 394.118 619.216 518.824 619.216 518.824L576.863 514.51C576.863 514.51 576.471 500.392 577.648 478.431C568.628 539.216 567.06 593.333 567.06 593.333L487.844 587.451L484.314 570.98C484.314 570.98 472.158 512.157 414.903 519.216C393.334 521.961 377.648 546.274 376.471 575.294L366.667 574.51C366.667 574.51 366.667 542.353 366.667 540.392C366.667 538.431 356.079 571.373 356.079 571.373L324.314 568.627L304.707 563.137C304.707 563.137 324.707 324.706 399.609 264.314C441.961 230.196 472.158 227.059 472.158 227.059C485.883 212.941 514.51 187.843 550.197 185.098C600.785 181.176 842.746 241.961 872.942 304.706C874.118 307.059 875.295 309.804 876.079 312.549C886.667 336.863 913.726 412.941 923.138 518.824Z" fill="black"/>
</svg>
