<svg width="1200" height="1200" viewBox="0 0 1200 1200" fill="none" xmlns="http://www.w3.org/2000/svg">
<path d="M860.308 529.802C860.7 527.841 861.092 525.881 861.092 523.92C865.014 499.214 867.759 476.469 869.328 454.9C872.465 410.979 864.23 331.763 801.092 284.312C795.602 279.998 789.72 276.077 783.053 272.547C777.563 269.41 771.681 266.665 765.798 263.92C714.426 241.959 631.681 215.685 549.72 229.802C518.347 234.9 486.975 246.273 457.563 265.489C457.171 265.489 457.171 265.881 457.171 265.881C385.798 312.94 360.7 387.449 347.367 457.645C343.053 479.998 339.916 502.351 337.171 522.743C335.602 533.332 334.034 543.528 332.465 552.94C326.583 588.626 306.975 620.39 286.19 645.489C285.014 646.665 283.837 648.234 282.661 649.41C265.798 668.626 248.935 683.92 237.171 692.939C236.386 693.332 235.602 694.116 235.21 694.508C261.092 776.077 359.916 837.253 451.288 855.685C464.622 797.253 473.641 738.038 462.269 677.253C459.132 676.077 457.563 674.9 457.563 674.116C349.328 639.998 366.583 523.92 415.602 517.645C433.249 515.292 446.19 519.606 456.386 525.881C470.112 536.077 485.014 561.567 485.014 569.018C485.798 551.763 493.249 527.841 502.269 527.057C511.681 526.273 521.092 524.312 530.112 520.783C575.21 505.096 616.386 462.743 652.857 425.096C703.053 373.332 743.837 329.41 772.857 372.939C774.426 375.292 775.994 377.645 777.171 379.998C811.681 379.214 827.759 399.214 835.994 419.998C835.994 419.998 835.994 419.998 835.994 420.39C842.661 438.038 843.445 456.077 844.23 460.783C844.23 461.567 844.23 461.959 844.622 461.959C843.837 477.645 841.877 504.312 841.485 538.822C841.485 554.508 843.053 585.881 841.877 603.92C841.485 609.41 841.092 614.9 840.7 619.998C840.308 622.743 840.308 625.489 839.916 627.841C839.524 630.194 839.524 632.939 839.132 635.685C838.739 639.606 838.347 643.528 837.955 647.841C837.563 651.371 837.171 654.9 836.779 658.43V658.822C836.387 661.567 835.994 663.92 835.602 666.273C829.72 697.645 820.7 730.979 807.759 750.979C781.877 791.371 761.485 825.489 724.23 842.743C687.367 859.606 645.406 863.136 645.406 863.136C645.406 863.136 657.171 870.587 685.014 872.155C712.465 873.724 732.857 865.489 753.249 869.018C796.779 876.469 873.249 876.469 873.249 876.469C930.504 725.881 833.641 718.822 860.308 529.802Z" fill="black"/>
</svg>
