<svg width="1200" height="1200" viewBox="0 0 1200 1200" fill="none" xmlns="http://www.w3.org/2000/svg">
<path d="M881.176 325.098C888.627 303.529 885.49 276.078 859.999 241.569C773.333 124.706 494.117 170.196 494.117 170.196C494.117 170.196 523.529 178.039 556.862 194.118C462.745 185.882 395.686 206.274 335.686 200C335.686 200 362.745 231.372 424.705 256.863C363.921 279.216 314.901 329.412 271.764 441.569C271.764 441.569 301.176 423.137 349.411 406.667C321.568 509.804 359.607 588.235 387.843 637.255C404.705 667.843 414.117 681.569 426.274 703.137C443.137 733.333 452.548 764.314 452.548 764.314C456.47 694.51 447.058 672.549 447.058 672.549C349.019 634.902 366.666 525.49 414.509 519.216C464.705 512.941 480.392 557.647 483.137 568.627C492.548 557.647 483.921 515.686 485.49 472.941C492.548 585.882 554.901 698.039 554.901 698.039C554.901 698.039 539.215 443.921 599.607 392.157C600.784 390.98 602.352 389.804 603.529 389.019C590.588 462.745 623.529 495.686 623.529 495.686C625.882 423.137 643.529 388.627 665.882 374.902C685.097 380.784 705.097 387.843 727.058 393.333C739.215 396.471 752.156 399.216 765.882 401.176C768.235 401.569 770.588 401.569 772.941 401.569C798.431 401.569 822.745 384.706 841.176 387.843C847.45 389.02 852.156 393.725 854.117 400C855.686 405.882 857.254 411.765 858.823 418.039C865.097 445.882 879.607 669.412 881.96 648.627C889.411 591.372 1025.1 400.392 881.176 325.098Z" fill="black"/>
</svg>
