<svg width="1200" height="1198" viewBox="0 0 1200 1198" fill="none" xmlns="http://www.w3.org/2000/svg">
<path d="M860.284 527.843C864.206 503.137 866.951 480.392 868.519 458.823C900.284 429.019 903.029 306.666 826.558 305.882C826.558 305.882 812.049 226.666 744.598 215.294C693.617 206.666 671.264 215.686 595.97 230.196C594.794 230.588 593.617 230.98 592.049 230.98C501.853 237.647 425.774 277.647 391.264 325.882C362.245 366.666 349.304 401.176 346.166 447.059C346.166 449.804 345.774 452.549 345.774 455.294V456.078C345.382 464.706 345.382 473.725 345.774 483.137C344.206 505.098 337.539 534.902 315.97 556.863C290.088 583.137 278.323 605.882 284.99 650.98C228.519 684.706 167.343 742.353 228.127 889.019C260.284 869.804 299.892 855.294 337.931 849.019C350.088 847.059 363.029 845.49 376.755 844.706C431.657 840.784 469.304 789.019 458.323 735.294C456.362 724.706 454.794 713.333 454.794 700.392C454.794 692.549 455.186 685.098 455.97 678.039C348.127 643.921 365.382 527.843 414.402 521.568C432.049 519.215 444.99 523.529 455.186 529.804C457.147 533.333 459.5 536.47 461.853 539.608C524.206 622.353 459.892 636.078 487.735 689.019C503.813 719.608 521.853 728.235 521.853 728.235C520.676 716.078 472.833 684.313 507.735 643.921C542.637 603.529 510.48 577.647 509.696 547.059C508.519 508.627 516.362 481.176 526.166 461.961C541.068 449.804 561.46 441.176 589.304 439.608C737.931 431.372 770.088 389.019 775.578 362.745C786.166 392.941 805.382 434.117 837.931 459.215C839.5 461.568 841.46 463.921 843.029 466.274C840.284 512.941 855.578 673.333 794.794 782.353C778.323 812.157 758.715 838.039 736.755 841.961C721.068 844.706 717.931 849.019 705.382 852.157C694.009 855.294 695.186 858.431 695.186 858.431C695.186 905.098 765.382 890.588 800.676 894.51C832.441 898.039 859.892 914.902 859.892 914.902C859.892 914.902 886.558 880.392 880.676 801.961C874.009 714.902 830.48 722.745 860.284 527.843Z" fill="black"/>
</svg>
