<svg width="1200" height="1200" viewBox="0 0 1200 1200" fill="none" xmlns="http://www.w3.org/2000/svg">
<path d="M872.159 383.529C879.61 380.392 871.374 333.333 878.041 329.019C881.963 250.98 891.374 276.863 795.688 227.451C641.178 147.451 425.1 180 344.708 278.823C276.472 361.961 296.472 405.49 279.218 464.314C262.355 521.176 186.276 522.745 221.178 640.392C238.825 700 167.845 731.372 183.531 831.765C292.943 880.784 407.061 903.921 523.531 910.98C555.296 832.941 457.257 815.294 456.08 698.823C456.08 690.98 456.472 683.529 457.257 676.47C348.629 642.353 366.276 526.274 415.296 520C449.414 515.686 467.453 534.902 476.472 550.98C477.257 553.333 478.433 555.294 479.61 557.647C494.512 583.137 573.335 560 626.276 498.431C683.139 432.549 678.825 437.647 707.453 398.039C765.1 318.823 820.002 370.196 835.688 378.431C883.531 402.745 838.041 354.117 842.747 360.392C862.747 387.451 844.316 397.255 872.159 383.529Z" fill="black"/>
<path d="M479.608 556.862C478.431 554.901 477.255 552.548 476.471 550.195C477.647 552.548 478.824 554.901 479.608 556.862Z" fill="black"/>
<path d="M842.746 367.843C852.55 424.705 925.883 377.646 892.158 274.509C872.55 214.509 801.177 201.176 728.236 216.47C602.746 242.745 806.276 212.548 818.825 303.137C825.099 349.411 833.334 312.941 842.746 367.843Z" fill="black"/>
</svg>
