<svg width="1200" height="1198" viewBox="0 0 1200 1198" fill="none" xmlns="http://www.w3.org/2000/svg">
<path d="M816.861 156.47C738.43 168.235 694.9 209.411 672.94 207.451C497.253 190.196 415.685 254.902 392.547 275.686C359.998 304.313 333.724 419.607 335.685 484.313C338.038 574.509 410.194 672.549 413.724 676.862C437.645 705.49 443.528 743.137 449.41 722.353C451.371 715.686 445.881 680.392 447.841 672.549C349.802 634.902 367.449 525.49 415.292 519.215C465.489 512.941 481.175 557.647 483.92 568.627C483.92 568.627 485.489 601.176 491.371 610.588C497.253 620 536.077 635.686 536.077 635.686C536.077 635.686 532.547 569.804 531.763 563.137C530.979 556.47 497.253 543.921 491.371 472.157C489.018 418.823 500.39 321.176 645.096 387.451C679.214 403.137 755.292 422.353 829.41 412.941C829.41 412.941 916.861 416.862 957.645 338.823C998.43 261.176 927.057 139.607 816.861 156.47Z" fill="black"/>
<path d="M537.253 644.706C537.253 644.706 500.782 623.137 497.645 625.882C494.508 628.235 540.39 654.509 537.253 644.706Z" fill="black"/>
<path d="M537.254 650.588C537.254 650.588 513.333 640 509.803 641.96C505.882 643.921 541.568 661.568 537.254 650.588Z" fill="black"/>
</svg>
