<svg width="936" height="1200" viewBox="0 0 936 1200" fill="none" xmlns="http://www.w3.org/2000/svg">
<path d="M781.569 380.392C789.804 384.706 796.863 380.784 801.176 372.157C846.667 365.098 857.255 456.078 858.823 461.568C863.921 482.353 891.372 486.274 901.569 467.843C929.412 416.863 947.451 345.098 868.627 300.392C878.431 285.882 871.372 213.725 789.412 196.078C760 189.804 721.569 217.255 673.333 206.667C484.706 164.706 289.02 204.706 304.314 453.725C307.843 508.235 311.372 567.059 218.823 606.274C111.372 651.765 116.863 770.588 192.549 794.902C223.921 805.098 120.392 875.686 180.784 938.431C212.157 971.372 268.235 904.706 325.098 940.784C410.98 995.294 453.725 970.588 470.588 949.019C505.098 905.098 462.353 816.863 462.353 816.863C462.353 816.863 479.216 789.804 484.706 775.294C511.372 703.921 447.843 671.765 447.843 671.765C349.804 634.118 367.451 524.706 415.294 518.431C465.49 512.157 481.176 556.863 483.921 567.843C483.921 567.843 528.235 629.019 613.725 489.412C698.431 350.196 744.314 360.392 781.569 380.392Z" fill="black"/>
</svg>
