<svg width="1200" height="1200" viewBox="0 0 1200 1200" fill="none" xmlns="http://www.w3.org/2000/svg">
<path d="M717.644 963.138C709.409 1003.53 656.076 1027.84 566.272 991.373C472.939 953.726 432.546 863.922 422.35 837.255C477.644 733.726 439.213 661.961 439.213 661.961C566.664 650.981 678.037 800 678.037 800L695.292 873.726C696.86 880 699.997 885.49 704.703 889.412C712.939 903.922 722.743 937.255 717.644 963.138Z" fill="white"/>
<path d="M420.391 838.432C427.842 827.059 432.548 813.726 435.685 800.785C441.568 773.726 443.529 746.275 443.921 718.824V708.628C442.744 698.432 439.215 687.843 435.293 678.432C430.195 665.883 448.627 658.039 454.509 670.588C455.293 672.157 455.293 674.902 455.293 676.471C456.47 729.804 458.823 798.432 425.097 842.745C422.744 845.098 418.038 841.569 420.391 838.432Z" fill="black"/>
<path d="M682.351 799.216C688.233 802.746 690.194 807.452 690.978 812.157C693.331 821.569 692.547 831.765 694.9 841.569C696.861 850.981 702.743 860.001 704.312 869.805C706.272 880.001 712.155 901.569 714.508 912.157C715.292 914.51 713.723 917.255 710.978 917.648C709.41 918.04 708.233 917.648 707.057 916.863C701.959 912.55 699.606 908.236 696.469 902.746C691.371 893.334 687.841 884.706 684.704 874.118C681.959 864.706 683.135 854.51 680.782 844.706C678.821 835.295 673.331 826.275 671.37 816.471C670.194 811.765 669.802 806.667 673.331 800.785C675.684 798.432 679.606 797.648 682.351 799.216Z" fill="black"/>
<path d="M710.587 902.745C635.685 898.824 574.509 875.294 514.901 769.02C565.097 813.334 624.313 830.196 686.666 838.039L694.901 874.118C696.47 880.392 705.881 898.824 710.587 902.745Z" fill="black"/>
<path d="M707.452 888.236C720.785 913.334 728.628 944.706 720.393 972.549C714.118 992.157 696.079 1006.67 676.471 1012.16C630.981 1024.31 578.432 1005.1 538.04 983.53C488.236 955.687 451.373 909.02 427.844 858.04C426.275 854.118 431.765 850.981 434.118 854.902C442.354 871.373 451.765 887.451 462.354 901.961C472.942 916.863 485.099 930.589 498.824 942.745C538.824 978.824 592.942 1001.18 647.06 1001.18C702.746 999.608 723.922 970.196 710.981 916.079C709.02 907.451 705.883 898.432 701.569 890.981C699.216 887.843 705.099 884.314 707.452 888.236Z" fill="black"/>
<path d="M859.215 417.255C866.274 450.196 869.803 476.863 850.587 564.706C831.764 652.157 877.646 670.196 769.019 810.196C724.705 867.451 617.254 851.373 530.195 792.157C500.783 772.157 488.234 720.785 466.274 684.314C449.019 655.687 441.176 685.491 418.431 660.785C387.45 627.059 350.195 559.216 368.627 439.216C398.431 244.706 552.548 221.961 666.666 243.53C781.568 265.49 840.391 330.589 859.215 417.255Z" fill="white"/>
<path d="M438.038 695.687C429.019 680.392 417.254 667.059 406.274 652.941C395.685 638.432 387.058 622.353 379.999 605.883C333.333 491.373 351.372 330.196 465.882 262.745C513.333 235.294 570.587 228.628 623.921 232.941C738.038 241.177 842.744 293.726 867.45 414.51C880.783 467.843 862.744 522.745 852.548 574.902C847.842 600.785 851.764 627.451 851.372 654.118C850.98 681.177 843.529 708.236 833.332 733.334C827.058 750.589 816.078 765.883 804.705 780C785.882 802.745 767.058 825.883 743.136 843.53C737.646 847.451 727.842 849.412 721.176 850.196C702.744 852.941 684.705 853.726 666.274 852.549C594.117 849.412 516.862 814.51 487.842 744.706C486.666 741.961 490.587 740 492.156 742.353C529.803 801.961 598.823 831.373 667.45 835.294C688.627 836.471 710.195 836.079 730.98 831.765C741.176 826.667 750.195 817.647 758.823 809.412C779.999 788.236 801.568 765.491 816.862 739.608C835.293 704.706 845.489 666.667 842.352 627.059C841.568 609.412 841.176 590.981 844.705 573.334C847.842 555.687 851.764 538.824 854.117 520.785C856.47 503.53 857.646 485.883 857.646 468.628C855.685 418.039 839.215 365.883 807.058 326.667C736.078 238.432 568.234 215.294 473.725 275.687C414.117 312.549 386.274 381.569 377.254 448.628C363.529 529.02 367.45 608.236 431.372 666.667L450.195 686.275C457.646 694.902 444.313 705.098 438.038 695.687Z" fill="black"/>
<path d="M484.311 570.98C484.311 570.98 472.155 512.157 414.9 519.215C365.488 525.49 348.233 643.921 460.39 676.863" fill="white"/>
<path d="M455.293 625.49C446.274 620.392 439.999 611.765 439.607 601.177C439.999 593.334 441.176 584.314 439.215 576.471C438.038 569.02 430.195 567.059 424.313 567.451C418.038 568.628 414.117 576.471 412.94 582.745C412.94 583.138 412.548 584.314 412.548 584.706C412.156 586.667 409.019 586.667 408.235 584.706C403.137 569.412 414.509 552.549 430.98 554.51C454.117 556.079 457.254 580.392 452.94 598.824C450.587 606.667 453.725 613.726 458.038 620.392L458.823 621.569C460.784 623.922 457.646 627.059 455.293 625.49Z" fill="black"/>
<path d="M769.018 529.412C774.9 557.255 785.881 583.137 799.606 607.451C811.763 637.255 780.39 665.49 752.547 664.314C749.41 664.314 749.018 660 751.763 659.216C769.41 653.726 785.488 641.961 788.234 623.922C789.41 618.431 787.841 613.726 785.096 609.02C772.155 584.706 764.312 556.863 766.273 529.412C766.273 527.451 769.018 527.451 769.018 529.412Z" fill="black"/>
<path d="M482.352 571.373C473.333 548.236 453.725 526.275 427.45 526.667C425.097 526.275 421.176 527.059 418.823 527.059C412.156 527.451 406.666 529.804 401.568 534.51C376.47 559.608 380.784 603.922 401.176 631.765C408.235 641.569 417.254 650.196 427.45 657.255C437.646 664.314 449.019 669.804 461.176 674.51C463.921 675.294 462.744 679.608 459.999 679.216C433.725 673.726 408.627 660.785 391.372 639.216C364.705 607.059 359.215 553.334 390.98 521.961C398.039 515.687 407.842 510.981 417.646 510.981C420.784 510.981 425.49 510.196 428.627 510.981C445.097 511.765 460.784 520 470.98 532.941C479.999 543.922 485.097 557.255 486.666 570.589C486.666 572.941 483.137 573.726 482.352 571.373Z" fill="black"/>
</svg>
