<svg width="1200" height="1200" viewBox="0 0 1200 1200" fill="none" xmlns="http://www.w3.org/2000/svg">
<path d="M717.645 963.137C709.41 1003.53 656.076 1027.84 566.272 991.373C472.939 953.726 432.547 863.922 422.351 837.255C477.645 733.726 439.214 661.961 439.214 661.961C566.665 650.981 678.037 800 678.037 800L695.292 873.726C696.861 880 699.998 885.49 704.704 889.412C712.939 903.922 722.743 937.255 717.645 963.137Z" fill="white"/>
<path d="M420.392 838.432C427.843 827.059 432.549 813.726 435.686 800.784C441.568 773.726 443.529 746.275 443.921 718.824V708.628C442.745 698.432 439.215 687.843 435.294 678.432C430.196 665.883 448.627 658.039 454.509 670.588C455.294 672.157 455.294 674.902 455.294 676.471C456.47 729.804 458.823 798.432 425.098 842.745C422.745 845.098 418.039 841.569 420.392 838.432Z" fill="black"/>
<path d="M682.351 799.216C688.234 802.746 690.194 807.452 690.979 812.157C693.332 821.569 692.547 831.765 694.9 841.569C696.861 850.981 702.743 860.001 704.312 869.804C706.273 880.001 712.155 901.569 714.508 912.157C715.292 914.51 713.724 917.255 710.979 917.648C709.41 918.04 708.234 917.648 707.057 916.863C701.959 912.55 699.606 908.236 696.469 902.746C691.371 893.334 687.841 884.706 684.704 874.118C681.959 864.706 683.136 854.51 680.783 844.706C678.822 835.295 673.332 826.275 671.371 816.471C670.194 811.765 669.802 806.667 673.332 800.785C675.685 798.432 679.606 797.648 682.351 799.216Z" fill="black"/>
<path d="M710.588 902.745C635.686 898.824 574.509 875.294 514.902 769.02C565.098 813.334 624.313 830.196 686.666 838.039L694.902 874.118C696.47 880.392 705.882 898.824 710.588 902.745Z" fill="black"/>
<path d="M707.452 888.236C720.785 913.334 728.629 944.706 720.393 972.549C714.119 992.157 696.08 1006.67 676.472 1012.16C630.981 1024.31 578.432 1005.1 538.04 983.53C488.236 955.687 451.374 909.02 427.844 858.039C426.276 854.118 431.766 850.981 434.119 854.902C442.354 871.373 451.766 887.451 462.354 901.961C472.942 916.863 485.099 930.588 498.825 942.745C538.825 978.824 592.942 1001.18 647.06 1001.18C702.746 999.608 723.923 970.196 710.982 916.079C709.021 907.451 705.883 898.432 701.57 890.981C699.217 887.843 705.099 884.314 707.452 888.236Z" fill="black"/>
<path d="M859.216 417.255C866.275 450.196 869.805 476.863 850.589 564.706C831.765 652.157 868.236 740.392 775.687 820.785C713.334 874.902 604.314 885.098 517.256 825.883C487.844 805.883 480.001 712.549 456.863 676.863C447.059 661.961 441.177 685.883 418.824 661.177C387.844 627.451 350.589 559.608 369.02 439.608C398.824 245.098 552.942 222.353 667.06 243.922C781.569 265.49 840.393 330.588 859.216 417.255Z" fill="white"/>
<path d="M438.039 695.686C429.019 680.785 417.647 667.843 407.058 654.118C391.372 632.941 379.607 608.628 371.764 583.53C338.039 476.079 356.078 336.079 455.686 269.02C547.843 206.667 723.921 225.49 804.706 300.785C845.098 337.255 867.451 390.196 872.156 443.53C874.509 479.216 865.882 513.726 858.431 548.236C849.804 581.961 847.843 615.686 847.843 650.588C847.451 685.49 845.882 721.961 832.549 754.902C812.157 805.098 769.411 845.883 718.039 863.138C650.588 886.667 570.98 873.334 515.686 828.236C513.333 826.275 515.686 823.137 518.431 824.314C590.98 865.49 686.274 872.549 756.862 825.098C798.823 796.863 827.843 752.157 834.509 701.961C840 667.843 838.431 633.334 841.568 598.824C842.745 583.53 847.058 562.353 850.196 547.059C854.902 521.569 858.039 496.079 857.647 470.588C857.255 445.49 851.764 420.785 844.313 396.863C818.431 311.765 744.313 261.569 658.823 247.843C530.98 225.49 419.215 272.941 385.882 405.883C371.372 470.981 360 542.745 387.451 605.883C397.255 629.804 413.333 650.196 431.764 667.843L449.804 687.059C457.647 694.902 444.313 705.098 438.039 695.686Z" fill="black"/>
<path d="M484.311 570.98C484.311 570.98 472.155 512.157 414.9 519.215C365.488 525.49 348.233 643.921 460.39 676.863" fill="white"/>
<path d="M455.293 625.49C446.273 620.392 439.999 611.764 439.606 601.176C439.999 593.333 441.175 584.313 439.214 576.47C438.038 569.019 430.195 567.059 424.312 567.451C418.038 568.627 414.116 576.47 412.94 582.745C412.94 583.137 412.548 584.313 412.548 584.706C412.155 586.666 409.018 586.666 408.234 584.706C403.136 569.412 414.508 552.549 430.979 554.51C454.116 556.078 457.253 580.392 452.94 598.823C450.587 606.666 453.724 613.725 458.038 620.392L458.822 621.568C460.783 623.921 457.646 627.059 455.293 625.49Z" fill="black"/>
<path d="M769.018 529.412C774.9 557.255 785.881 583.137 799.606 607.451C811.763 637.255 780.39 665.49 752.547 664.314C749.41 664.314 749.018 660 751.763 659.216C769.41 653.726 785.488 641.961 788.234 623.922C789.41 618.431 787.841 613.725 785.096 609.02C772.155 584.706 764.312 556.863 766.273 529.412C766.273 527.451 769.018 527.451 769.018 529.412Z" fill="black"/>
<path d="M482.353 571.373C473.333 548.236 453.725 526.275 427.451 526.667C425.098 526.275 421.176 527.059 418.823 527.059C412.156 527.451 406.666 529.804 401.568 534.51C376.47 559.608 380.784 603.922 401.176 631.765C408.235 641.569 417.255 650.196 427.451 657.255C437.647 664.314 449.019 669.804 461.176 674.51C463.921 675.294 462.745 679.608 460 679.216C433.725 673.726 408.627 660.785 391.372 639.216C364.705 607.059 359.215 553.334 390.98 521.961C398.039 515.687 407.843 510.981 417.647 510.981C420.784 510.981 425.49 510.196 428.627 510.981C445.098 511.765 460.784 520 470.98 532.941C480 543.922 485.098 557.255 486.666 570.588C486.666 572.941 483.137 573.726 482.353 571.373Z" fill="black"/>
</svg>
