<svg width="1200" height="1200" viewBox="0 0 1200 1200" fill="none" xmlns="http://www.w3.org/2000/svg">
<path d="M717.644 963.138C709.409 1003.53 656.075 1027.84 566.271 991.373C472.938 953.726 432.546 863.922 422.35 837.255C477.644 733.726 439.213 661.961 439.213 661.961C566.664 650.981 678.036 800 678.036 800L695.291 873.726C696.86 880 699.997 885.49 704.703 889.412C712.938 903.922 722.742 937.255 717.644 963.138Z" fill="white"/>
<path d="M420.391 838.432C427.842 827.059 432.548 813.726 435.685 800.785C441.567 773.726 443.528 746.275 443.92 718.824V708.628C442.744 698.432 439.214 687.843 435.293 678.432C430.195 665.883 448.626 658.039 454.508 670.588C455.293 672.157 455.293 674.902 455.293 676.471C456.469 729.804 458.822 798.432 425.097 842.745C422.744 845.098 418.038 841.569 420.391 838.432Z" fill="black"/>
<path d="M682.35 799.216C688.233 802.746 690.193 807.452 690.978 812.157C693.331 821.569 692.546 831.765 694.899 841.569C696.86 850.981 702.743 860.001 704.311 869.805C706.272 880.001 712.154 901.569 714.507 912.157C715.292 914.51 713.723 917.255 710.978 917.648C709.409 918.04 708.233 917.648 707.056 916.863C701.958 912.55 699.605 908.236 696.468 902.746C691.37 893.334 687.841 884.706 684.703 874.118C681.958 864.706 683.135 854.51 680.782 844.706C678.821 835.295 673.331 826.275 671.37 816.471C670.193 811.765 669.801 806.667 673.331 800.785C675.684 798.432 679.605 797.648 682.35 799.216Z" fill="black"/>
<path d="M710.587 902.745C635.685 898.824 574.509 875.294 514.901 769.02C565.097 813.334 624.312 830.196 686.665 838.039L694.901 874.118C696.469 880.392 705.881 898.824 710.587 902.745Z" fill="black"/>
<path d="M707.451 888.236C720.784 913.334 728.628 944.706 720.392 972.549C714.118 992.157 696.079 1006.67 676.471 1012.16C630.981 1024.31 578.432 1005.1 538.039 983.53C488.235 955.687 451.373 909.02 427.843 858.04C426.275 854.118 431.765 850.981 434.118 854.902C442.353 871.373 451.765 887.451 462.353 901.961C472.941 916.863 485.098 930.589 498.824 942.745C538.824 978.824 592.941 1001.18 647.059 1001.18C702.745 999.608 723.922 970.196 710.981 916.079C709.02 907.451 705.883 898.432 701.569 890.981C699.216 887.843 705.098 884.314 707.451 888.236Z" fill="black"/>
<path d="M859.214 417.255C866.273 450.196 860.783 472.157 857.645 563.138C854.508 652.549 828.626 778.824 796.861 810.589C772.547 834.51 694.508 853.334 625.096 835.687C589.802 826.667 559.998 806.275 535.685 791.765C505.096 773.334 478.43 716.471 456.469 680C439.214 651.373 440.783 685.883 418.43 661.177C387.449 627.451 350.194 559.608 368.626 439.608C398.43 245.098 552.547 222.353 666.665 243.922C781.567 265.49 840.391 330.589 859.214 417.255Z" fill="white"/>
<path d="M438.039 695.687C429.02 680.785 417.255 667.451 406.667 653.334C390.981 631.765 379.216 607.059 371.373 581.569C337.255 472.549 358.039 329.804 461.177 265.49C554.902 205.883 736.863 227.451 812.941 309.02C841.569 338.432 860 376.863 867.843 416.863C868.236 419.216 869.412 423.53 869.804 425.883C870.196 427.843 871.373 430.196 870.981 432.549C870.196 441.177 868.628 449.804 867.843 458.432C861.961 510.589 863.53 563.922 856.863 616.079C850.981 670.981 843.138 725.883 826.667 778.824C821.569 794.902 811.765 809.412 798.824 820C769.804 844.314 731.765 852.549 695.294 854.118C622.353 857.647 548.236 831.765 505.883 770.196C504.314 767.843 507.451 765.098 509.412 767.451C544.706 805.49 592.549 829.804 643.53 835.294C700 841.961 785.098 836.863 809.804 776.471C838.432 690.981 853.334 600.392 854.902 510.589C854.902 488.628 853.726 466.667 853.726 444.314C853.726 441.569 854.118 435.294 854.118 432.549C854.118 432.549 854.118 432.157 854.118 432.549C854.118 432.941 854.118 432.941 854.118 432.549C850.981 424.706 849.804 416.079 847.451 408.236C838.824 375.687 823.138 344.706 800.785 320C726.667 236.863 561.569 216.079 469.02 278.432C395.687 327.059 376.079 420.392 370.981 502.745C366.667 564.314 384.706 624.706 431.373 667.059L449.804 686.275C457.647 694.902 444.314 705.098 438.039 695.687Z" fill="black"/>
<path d="M484.315 570.98C484.315 570.98 472.158 512.157 414.903 519.215C365.492 525.49 348.237 643.921 460.394 676.863" fill="white"/>
<path d="M455.293 625.491C446.273 620.393 439.999 611.765 439.606 601.177C439.999 593.334 441.175 584.314 439.214 576.471C438.038 569.02 430.195 567.06 424.312 567.452C418.038 568.628 414.116 576.471 412.94 582.746C412.94 583.138 412.548 584.315 412.548 584.707C412.155 586.667 409.018 586.667 408.234 584.707C403.136 569.413 414.508 552.55 430.979 554.511C454.116 556.079 457.253 580.393 452.94 598.824C450.587 606.667 453.724 613.726 458.038 620.393L458.822 621.569C460.783 623.922 457.646 627.06 455.293 625.491Z" fill="black"/>
<path d="M769.022 529.412C774.904 557.255 785.884 583.137 799.61 607.451C811.767 637.255 780.394 665.49 752.551 664.314C749.414 664.314 749.022 660 751.767 659.216C769.414 653.726 785.492 641.961 788.237 623.922C789.414 618.431 787.845 613.726 785.1 609.02C772.159 584.706 764.316 556.863 766.277 529.412C766.277 527.451 769.022 527.451 769.022 529.412Z" fill="black"/>
<path d="M482.353 571.373C473.334 548.236 453.726 526.275 427.451 526.667C425.098 526.275 421.177 527.059 418.824 527.059C412.157 527.451 406.667 529.804 401.569 534.51C376.471 559.608 380.785 603.922 401.177 631.765C408.236 641.569 417.255 650.196 427.451 657.255C437.647 664.314 449.02 669.804 461.177 674.51C463.922 675.294 462.745 679.608 460 679.216C433.726 673.726 408.628 660.785 391.373 639.216C364.706 607.059 359.216 553.334 390.981 521.961C398.039 515.687 407.843 510.981 417.647 510.981C420.785 510.981 425.49 510.196 428.628 510.981C445.098 511.765 460.785 520 470.981 532.941C480 543.922 485.098 557.255 486.667 570.589C486.667 572.941 483.138 573.726 482.353 571.373Z" fill="black"/>
</svg>
