<svg width="1200" height="1200" viewBox="0 0 1200 1200" fill="none" xmlns="http://www.w3.org/2000/svg">
<path d="M717.648 963.137C709.413 1003.53 656.079 1027.84 566.275 991.373C472.942 953.726 432.55 863.922 422.354 837.255C477.648 733.726 439.217 661.961 439.217 661.961C566.667 650.981 678.04 800 678.04 800L695.295 873.726C696.864 880 700.001 885.49 704.707 889.412C712.942 903.922 722.746 937.255 717.648 963.137Z" fill="white"/>
<path d="M420.395 838.432C427.846 827.059 432.552 813.726 435.689 800.784C441.571 773.726 443.532 746.275 443.924 718.824V708.628C442.748 698.432 439.218 687.843 435.297 678.432C430.199 665.883 448.63 658.039 454.512 670.588C455.297 672.157 455.297 674.902 455.297 676.471C456.473 729.804 458.826 798.432 425.101 842.745C422.748 845.098 418.042 841.569 420.395 838.432Z" fill="black"/>
<path d="M682.354 799.216C688.237 802.746 690.197 807.452 690.982 812.157C693.335 821.569 692.55 831.765 694.903 841.569C696.864 850.981 702.746 860.001 704.315 869.804C706.276 880.001 712.158 901.569 714.511 912.157C715.295 914.51 713.727 917.255 710.982 917.648C709.413 918.04 708.237 917.648 707.06 916.863C701.962 912.55 699.609 908.236 696.472 902.746C691.374 893.334 687.845 884.706 684.707 874.118C681.962 864.706 683.139 854.51 680.786 844.706C678.825 835.295 673.335 826.275 671.374 816.471C670.197 811.765 669.805 806.667 673.335 800.785C675.688 798.432 679.609 797.648 682.354 799.216Z" fill="black"/>
<path d="M710.591 902.745C635.689 898.824 574.512 875.294 514.905 769.02C565.101 813.334 624.316 830.196 686.669 838.039L694.905 874.118C696.473 880.392 705.885 898.824 710.591 902.745Z" fill="black"/>
<path d="M707.455 888.236C720.788 913.334 728.632 944.706 720.396 972.549C714.122 992.157 696.083 1006.67 676.475 1012.16C630.985 1024.31 578.436 1005.1 538.043 983.53C488.239 955.687 451.377 909.02 427.847 858.04C426.279 854.118 431.769 850.981 434.122 854.902C442.357 871.373 451.769 887.451 462.357 901.961C472.945 916.863 485.102 930.588 498.828 942.745C538.828 978.824 592.945 1001.18 647.063 1001.18C702.749 999.608 723.926 970.196 710.985 916.079C709.024 907.451 705.886 898.432 701.573 890.981C699.22 887.843 705.102 884.314 707.455 888.236Z" fill="black"/>
<path d="M859.215 417.255C866.274 450.197 852.548 465.099 852.548 553.334C852.548 597.648 848.235 648.236 839.607 696.863C830.587 747.059 805.489 794.51 763.529 829.805C699.999 882.746 633.333 885.099 554.509 823.53C543.529 814.903 505.097 785.883 495.293 776.079C473.333 754.51 471.372 698.824 457.254 677.255C447.45 662.353 441.568 686.275 419.215 661.569C388.235 627.844 350.98 560.001 369.411 440.001C399.215 245.491 553.333 222.746 667.45 244.314C781.568 265.491 840.391 330.589 859.215 417.255Z" fill="white"/>
<path d="M438.04 695.686C424.314 673.334 405.099 654.51 392.55 631.373C354.511 561.177 346.667 475.687 367.06 398.824C410.589 234.118 570.589 205.883 715.687 250.589C794.118 274.902 851.765 334.118 867.844 415.687C873.726 445.098 861.177 473.334 859.216 501.961C857.256 519.216 856.471 536.471 856.864 553.726C858.824 606.275 857.256 659.608 841.569 710.196C825.491 760.785 799.216 810.981 755.687 843.53C673.726 904.706 576.863 860 513.334 795.294C511.373 793.334 514.118 790.196 516.471 791.765C558.04 821.569 602.354 849.804 653.334 855.294C742.354 865.49 804.315 782.353 830.589 707.059C841.962 674.51 847.844 640.392 849.02 606.275C850.197 571.373 847.452 536.471 848.628 501.569C849.02 492.941 849.413 483.922 850.197 475.294C851.373 461.569 854.903 438.824 852.158 425.49C843.922 384.706 825.883 345.49 796.864 315.294C729.02 245.098 601.177 225.098 510.981 257.647C405.099 296.471 377.256 402.745 371.373 504.706C367.452 565.883 385.491 625.49 431.765 667.451L450.197 686.667C457.648 694.51 444.314 705.098 438.04 695.686Z" fill="black"/>
<path d="M484.315 570.981C484.315 570.981 472.158 512.157 414.903 519.216C365.491 525.49 348.236 643.922 460.393 676.863" fill="white"/>
<path d="M455.297 625.491C446.277 620.393 440.002 611.765 439.61 601.177C440.002 593.334 441.179 584.314 439.218 576.471C438.042 569.02 430.198 567.06 424.316 567.452C418.042 568.628 414.12 576.471 412.944 582.746C412.944 583.138 412.551 584.314 412.551 584.707C412.159 586.667 409.022 586.667 408.238 584.707C403.14 569.413 414.512 552.55 430.983 554.511C454.12 556.079 457.257 580.393 452.944 598.824C450.591 606.667 453.728 613.726 458.042 620.393L458.826 621.569C460.787 623.922 457.649 627.06 455.297 625.491Z" fill="black"/>
<path d="M769.022 529.412C774.904 557.255 785.885 583.137 799.61 607.451C811.767 637.255 780.394 665.49 752.551 664.314C749.414 664.314 749.022 660 751.767 659.216C769.414 653.726 785.492 641.961 788.237 623.922C789.414 618.431 787.845 613.725 785.1 609.02C772.159 584.706 764.316 556.863 766.277 529.412C766.277 527.451 769.022 527.451 769.022 529.412Z" fill="black"/>
<path d="M482.354 571.373C473.334 548.236 453.726 526.275 427.452 526.667C425.099 526.275 421.177 527.059 418.824 527.059C412.158 527.451 406.667 529.804 401.569 534.51C376.471 559.608 380.785 603.922 401.177 631.765C408.236 641.569 417.256 650.196 427.452 657.255C437.648 664.314 449.02 669.804 461.177 674.51C463.922 675.294 462.746 679.608 460.001 679.216C433.726 673.726 408.628 660.785 391.373 639.216C364.707 607.059 359.216 553.334 390.981 521.961C398.04 515.687 407.844 510.981 417.648 510.981C420.785 510.981 425.491 510.196 428.628 510.981C445.099 511.765 460.785 520 470.981 532.941C480.001 543.922 485.099 557.255 486.667 570.589C486.667 572.941 483.138 573.726 482.354 571.373Z" fill="black"/>
</svg>
