<svg width="1200" height="1200" viewBox="0 0 1200 1200" fill="none" xmlns="http://www.w3.org/2000/svg">
<path d="M717.644 963.137C709.408 1003.53 656.075 1027.84 566.271 991.372C472.938 953.725 432.546 863.921 422.35 837.255C477.644 733.725 439.212 661.96 439.212 661.96C566.663 650.98 678.036 800 678.036 800L695.291 873.725C696.859 880 699.997 885.49 704.703 889.411C712.938 903.921 722.742 937.255 717.644 963.137Z" fill="white"/>
<path d="M420.391 838.431C427.842 827.059 432.548 813.725 435.685 800.784C441.567 773.725 443.528 746.274 443.92 718.823V708.627C442.744 698.431 439.214 687.843 435.293 678.431C430.195 665.882 448.626 658.039 454.508 670.588C455.293 672.157 455.293 674.902 455.293 676.47C456.469 729.804 458.822 798.431 425.097 842.745C422.744 845.098 418.038 841.568 420.391 838.431Z" fill="black"/>
<path d="M682.35 799.216C688.233 802.745 690.194 807.451 690.978 812.157C693.331 821.569 692.546 831.765 694.899 841.569C696.86 850.98 702.743 860 704.311 869.804C706.272 880 712.154 901.569 714.507 912.157C715.292 914.51 713.723 917.255 710.978 917.647C709.409 918.039 708.233 917.647 707.056 916.863C701.958 912.549 699.605 908.235 696.468 902.745C691.37 893.333 687.841 884.706 684.703 874.118C681.958 864.706 683.135 854.51 680.782 844.706C678.821 835.294 673.331 826.275 671.37 816.471C670.194 811.765 669.801 806.667 673.331 800.784C675.684 798.431 679.605 797.647 682.35 799.216Z" fill="black"/>
<path d="M710.587 902.745C635.685 898.823 574.508 875.294 514.9 769.019C565.096 813.333 624.312 830.196 686.665 838.039L694.9 874.117C696.469 880.392 705.881 898.823 710.587 902.745Z" fill="black"/>
<path d="M707.451 888.235C720.785 913.333 728.628 944.706 720.392 972.549C714.118 992.157 696.079 1006.67 676.471 1012.16C630.981 1024.31 578.432 1005.1 538.039 983.529C488.236 955.686 451.373 909.019 427.843 858.039C426.275 854.117 431.765 850.98 434.118 854.902C442.353 871.372 451.765 887.451 462.353 901.961C472.941 916.863 485.098 930.588 498.824 942.745C538.824 978.823 592.941 1001.18 647.059 1001.18C702.745 999.608 723.922 970.196 710.981 916.078C709.02 907.451 705.883 898.431 701.569 890.98C699.216 887.843 705.098 884.313 707.451 888.235Z" fill="black"/>
<path d="M859.215 417.255C866.273 450.196 842.744 485.49 842.744 573.333C842.744 663.137 826.273 760.784 758.43 828.627C699.999 887.058 632.94 884.706 554.117 823.137C543.136 814.509 504.705 785.49 494.901 775.686C483.528 764.313 477.254 756.078 471.764 747.451C467.058 739.608 468.234 694.117 461.568 683.529C444.313 654.902 440.783 685.882 418.43 660.784C387.45 627.058 350.195 559.215 368.626 439.215C398.43 244.706 552.548 221.96 666.666 243.529C781.568 265.49 840.391 330.588 859.215 417.255Z" fill="white"/>
<path d="M438.038 695.686C429.018 680.784 417.646 667.451 407.058 653.725C396.469 639.215 387.842 623.921 380.783 607.451C340.783 510.588 346.665 383.921 417.646 302.353C466.273 246.666 543.136 228.235 613.724 232.157C684.312 236.47 757.646 254.51 809.803 305.49C839.999 334.902 859.214 374.117 867.842 414.902C870.587 427.843 868.626 441.961 865.489 454.117C856.469 488.235 847.842 520.784 847.057 556.078C847.45 608.627 845.881 662.353 830.587 712.941C819.607 746.666 806.665 780.392 786.273 809.804C765.097 839.608 733.332 863.529 696.861 870.588C623.528 885.49 554.901 839.215 506.273 789.019C504.312 786.666 507.057 783.921 509.41 785.49C537.254 806.666 565.881 826.274 596.861 839.608C686.273 880.784 760.391 842.745 799.606 756.47C832.548 693.725 841.959 625.882 839.214 555.686C839.214 538.039 839.999 520.392 842.352 502.745C844.705 477.255 853.332 451.764 852.94 426.666C846.273 385.882 827.45 346.666 799.214 316.47C732.156 245.49 603.528 224.706 513.332 256.862C407.057 294.51 378.43 401.568 372.548 503.921C368.626 565.098 386.665 625.098 432.94 667.059L451.371 686.274C457.646 694.902 444.312 705.098 438.038 695.686Z" fill="black"/>
<path d="M484.312 570.98C484.312 570.98 472.156 512.157 414.901 519.215C365.489 525.49 348.234 643.921 460.391 676.862" fill="white"/>
<path d="M455.293 625.49C446.273 620.392 439.999 611.764 439.606 601.176C439.999 593.333 441.175 584.313 439.214 576.47C438.038 569.019 430.195 567.059 424.312 567.451C418.038 568.627 414.116 576.47 412.94 582.745C412.94 583.137 412.548 584.313 412.548 584.706C412.155 586.666 409.018 586.666 408.234 584.706C403.136 569.412 414.508 552.549 430.979 554.51C454.116 556.078 457.253 580.392 452.94 598.823C450.587 606.666 453.724 613.725 458.038 620.392L458.822 621.568C460.783 623.921 457.646 627.059 455.293 625.49Z" fill="black"/>
<path d="M769.018 529.411C774.901 557.255 785.881 583.137 799.607 607.451C811.763 637.255 780.391 665.49 752.548 664.313C749.411 664.313 749.018 660 751.763 659.215C769.411 653.725 785.489 641.961 788.234 623.921C789.411 618.431 787.842 613.725 785.097 609.019C772.156 584.706 764.312 556.862 766.273 529.411C766.273 527.451 769.018 527.451 769.018 529.411Z" fill="black"/>
<path d="M482.353 571.372C473.333 548.235 453.726 526.274 427.451 526.666C425.098 526.274 421.177 527.058 418.824 527.058C412.157 527.45 406.667 529.803 401.569 534.509C376.471 559.607 380.784 603.921 401.177 631.764C408.235 641.568 417.255 650.195 427.451 657.254C437.647 664.313 449.02 669.803 461.176 674.509C463.922 675.293 462.745 679.607 460 679.215C433.726 673.725 408.627 660.784 391.373 639.215C364.706 607.058 359.216 553.333 390.98 521.96C398.039 515.686 407.843 510.98 417.647 510.98C420.784 510.98 425.49 510.195 428.627 510.98C445.098 511.764 460.784 519.999 470.98 532.94C480 543.921 485.098 557.254 486.667 570.588C486.667 572.94 483.137 573.725 482.353 571.372Z" fill="black"/>
</svg>
