<svg width="1200" height="1200" viewBox="0 0 1200 1200" fill="none" xmlns="http://www.w3.org/2000/svg">
<path d="M717.647 963.137C709.412 1003.53 656.079 1027.84 566.275 991.372C472.941 953.725 432.549 863.921 422.353 837.254C477.647 733.725 439.216 661.96 439.216 661.96C566.667 650.98 678.039 800 678.039 800L695.294 873.725C696.863 880 700 885.49 704.706 889.411C712.941 903.921 722.745 937.254 717.647 963.137Z" fill="white"/>
<path d="M420.394 838.431C427.845 827.058 432.551 813.725 435.688 800.784C441.57 773.725 443.531 746.274 443.923 718.823V708.627C442.747 698.431 439.218 687.843 435.296 678.431C430.198 665.882 448.629 658.039 454.512 670.588C455.296 672.156 455.296 674.902 455.296 676.47C456.472 729.803 458.825 798.431 425.1 842.745C422.747 845.098 418.041 841.568 420.394 838.431Z" fill="black"/>
<path d="M682.354 799.216C688.236 802.745 690.197 807.451 690.981 812.157C693.334 821.569 692.55 831.765 694.903 841.569C696.863 850.98 702.746 860 704.314 869.804C706.275 880 712.157 901.569 714.51 912.157C715.295 914.51 713.726 917.255 710.981 917.647C709.412 918.039 708.236 917.647 707.059 916.863C701.961 912.549 699.608 908.235 696.471 902.745C691.373 893.333 687.844 884.706 684.707 874.118C681.961 864.706 683.138 854.51 680.785 844.706C678.824 835.294 673.334 826.274 671.373 816.47C670.197 811.765 669.805 806.667 673.334 800.784C675.687 798.431 679.608 797.647 682.354 799.216Z" fill="black"/>
<path d="M710.59 902.745C635.688 898.823 574.512 875.294 514.904 769.019C565.1 813.333 624.316 830.196 686.669 838.039L694.904 874.117C696.472 880.392 705.884 898.823 710.59 902.745Z" fill="black"/>
<path d="M707.454 888.235C720.788 913.333 728.631 944.706 720.396 972.549C714.121 992.157 696.082 1006.67 676.474 1012.16C630.984 1024.31 578.435 1005.1 538.043 983.529C488.239 955.686 451.376 909.019 427.847 858.039C426.278 854.117 431.768 850.98 434.121 854.902C442.356 871.372 451.768 887.451 462.356 901.96C472.945 916.862 485.101 930.588 498.827 942.745C538.827 978.823 592.945 1001.18 647.062 1001.18C702.749 999.607 723.925 970.196 710.984 916.078C709.023 907.451 705.886 898.431 701.572 890.98C699.219 887.843 705.101 884.313 707.454 888.235Z" fill="black"/>
<path d="M859.218 417.254C866.276 450.196 852.551 465.098 852.551 553.333C852.551 597.647 856.472 625.882 843.531 679.607C837.649 704.313 819.217 734.509 806.668 757.254C794.119 780 802.355 818.039 781.178 835.686C717.649 888.627 640.786 873.725 570.982 829.019C568.237 827.451 552.943 809.411 548.237 805.882C532.159 793.725 505.492 780.784 497.649 772.941C475.688 751.372 492.159 713.333 478.825 690.98C461.57 662.353 440.786 685.49 418.433 660.784C387.453 627.058 350.198 559.215 368.629 439.215C398.433 244.705 552.551 221.96 666.668 243.529C781.57 265.49 840.394 330.588 859.218 417.254Z" fill="white"/>
<path d="M438.041 695.686C429.021 680.784 417.649 667.843 407.061 653.725C391.374 632.156 379.61 608.235 371.766 583.137C338.041 475.294 356.472 334.902 456.864 268.235C548.629 206.274 727.061 225.882 806.668 302.353C841.962 334.117 876.08 400.392 868.629 448.235C861.963 482.353 856.08 516.078 857.257 550.98C857.257 568.235 859.217 585.49 859.217 603.137C860.394 638.431 854.119 674.117 840.786 707.058C834.119 723.529 825.884 739.215 816.864 754.509C815.296 756.862 814.119 760.392 813.335 764.705C810.198 777.254 808.629 789.804 805.884 802.745C802.747 816.47 799.217 832.156 787.453 842.353C754.904 868.627 711.374 876.47 670.982 873.333C642.747 870.98 615.296 863.529 589.806 851.372C567.453 838.039 552.551 816.47 533.727 799.215C531.766 797.255 534.119 794.117 536.472 795.294C550.198 802.745 566.668 816.078 579.217 825.882C592.943 837.255 607.061 841.96 623.139 846.666C639.217 851.372 655.688 854.902 672.159 856.078C708.629 858.823 747.845 852.156 777.257 829.411C785.1 821.96 787.845 810.196 790.59 799.215C794.119 784.313 796.08 768.627 801.178 754.117C801.963 751.764 803.531 748.627 804.708 747.058C814.119 732.941 822.747 718.039 829.806 702.745C844.315 671.764 851.766 638.039 851.766 603.921C851.766 586.666 850.198 569.411 849.806 552.156C849.413 525.882 849.021 499.607 851.374 473.333C852.551 460.392 854.512 448.235 854.119 435.686C849.021 390.98 827.845 347.058 796.472 314.902C728.629 245.882 600.002 226.274 510.982 259.215C405.884 298.431 378.433 404.706 372.551 506.274C368.629 567.058 387.061 626.666 432.943 668.627L451.374 687.843C457.649 694.902 444.315 705.098 438.041 695.686Z" fill="black"/>
<path d="M484.316 570.98C484.316 570.98 472.159 512.156 414.904 519.215C365.492 525.49 348.237 643.921 460.394 676.862" fill="white"/>
<path d="M455.296 625.49C446.276 620.392 440.002 611.764 439.61 601.176C440.002 593.333 441.178 584.313 439.217 576.47C438.041 569.019 430.198 567.058 424.315 567.451C418.041 568.627 414.119 576.47 412.943 582.745C412.943 583.137 412.551 584.313 412.551 584.706C412.159 586.666 409.021 586.666 408.237 584.706C403.139 569.411 414.512 552.549 430.982 554.509C454.119 556.078 457.257 580.392 452.943 598.823C450.59 606.666 453.727 613.725 458.041 620.392L458.825 621.568C460.786 623.921 457.649 627.058 455.296 625.49Z" fill="black"/>
<path d="M769.021 529.411C774.904 557.254 785.884 583.137 799.61 607.451C811.766 637.254 780.394 665.49 752.551 664.313C749.413 664.313 749.021 660 751.766 659.215C769.413 653.725 785.492 641.96 788.237 623.921C789.413 618.431 787.845 613.725 785.1 609.019C772.159 584.705 764.315 556.862 766.276 529.411C766.276 527.451 769.021 527.451 769.021 529.411Z" fill="black"/>
<path d="M482.353 571.372C473.333 548.235 453.726 526.274 427.451 526.666C425.098 526.274 421.177 527.058 418.824 527.058C412.157 527.45 406.667 529.803 401.569 534.509C376.471 559.607 380.784 603.921 401.177 631.764C408.235 641.568 417.255 650.195 427.451 657.254C437.647 664.313 449.02 669.803 461.176 674.509C463.922 675.293 462.745 679.607 460 679.215C433.726 673.725 408.627 660.784 391.373 639.215C364.706 607.058 359.216 553.333 390.98 521.96C398.039 515.686 407.843 510.98 417.647 510.98C420.784 510.98 425.49 510.195 428.627 510.98C445.098 511.764 460.784 519.999 470.98 532.94C480 543.921 485.098 557.254 486.667 570.588C486.667 572.94 483.137 573.725 482.353 571.372Z" fill="black"/>
</svg>
