<svg width="1200" height="1200" viewBox="0 0 1200 1200" fill="none" xmlns="http://www.w3.org/2000/svg">
<path d="M717.647 963.137C709.412 1003.53 656.078 1027.84 566.274 991.372C472.941 953.725 432.549 863.921 422.353 837.255C477.647 733.725 439.216 661.961 439.216 661.961C566.667 650.98 678.039 800 678.039 800L695.294 873.725C696.863 880 700 885.49 704.706 889.412C712.941 903.921 722.745 937.255 717.647 963.137Z" fill="white"/>
<path d="M420.394 838.431C427.845 827.059 432.551 813.725 435.688 800.784C441.57 773.725 443.531 746.274 443.923 718.823V708.627C442.747 698.431 439.217 687.843 435.296 678.431C430.198 665.882 448.629 658.039 454.511 670.588C455.296 672.157 455.296 674.902 455.296 676.47C456.472 729.804 458.825 798.431 425.1 842.745C422.747 845.098 418.041 841.568 420.394 838.431Z" fill="black"/>
<path d="M682.353 799.216C688.236 802.745 690.196 807.451 690.981 812.157C693.334 821.569 692.549 831.765 694.902 841.569C696.863 850.981 702.745 860 704.314 869.804C706.275 880 712.157 901.569 714.51 912.157C715.294 914.51 713.726 917.255 710.981 917.647C709.412 918.039 708.236 917.647 707.059 916.863C701.961 912.549 699.608 908.235 696.471 902.745C691.373 893.333 687.843 884.706 684.706 874.118C681.961 864.706 683.138 854.51 680.785 844.706C678.824 835.294 673.334 826.275 671.373 816.471C670.196 811.765 669.804 806.667 673.334 800.784C675.687 798.431 679.608 797.647 682.353 799.216Z" fill="black"/>
<path d="M710.59 902.745C635.688 898.823 574.511 875.294 514.904 769.019C565.1 813.333 624.315 830.196 686.668 838.039L694.904 874.117C696.472 880.392 705.884 898.823 710.59 902.745Z" fill="black"/>
<path d="M707.454 888.235C720.787 913.333 728.63 944.706 720.395 972.549C714.121 992.157 696.081 1006.67 676.474 1012.16C630.983 1024.31 578.434 1005.1 538.042 983.529C488.238 955.686 451.376 909.019 427.846 858.039C426.278 854.118 431.768 850.98 434.121 854.902C442.356 871.372 451.768 887.451 462.356 901.961C472.944 916.863 485.101 930.588 498.827 942.745C538.827 978.823 592.944 1001.18 647.062 1001.18C702.748 999.608 723.925 970.196 710.983 916.078C709.023 907.451 705.885 898.431 701.572 890.98C699.219 887.843 705.101 884.314 707.454 888.235Z" fill="black"/>
<path d="M859.217 417.255C866.276 450.196 860.786 472.157 857.649 563.137C856.08 606.274 849.413 622.353 847.453 670.588C846.668 692.549 830.59 722.745 824.707 740.392C816.864 764.314 809.021 796.47 790.982 819.608C781.57 831.372 770.198 838.431 751.374 841.568C745.1 842.745 738.825 833.333 733.727 835.294C672.158 862.353 604.708 849.804 543.531 796.47C516.864 772.941 476.864 716.078 460.002 676.863C456.472 668.627 440.786 685.882 418.433 661.176C387.453 627.451 350.198 559.608 368.629 439.608C398.433 245.098 552.551 222.353 666.668 243.921C781.57 265.49 840.394 330.588 859.217 417.255Z" fill="white"/>
<path d="M438.041 695.686C429.021 680.784 417.256 667.451 406.668 653.333C390.982 631.765 379.217 607.059 371.374 581.568C330.982 455.294 369.413 283.921 510.59 243.137C562.354 227.451 617.256 228.627 669.806 238.431C740.394 250.588 810.982 286.666 845.492 352.157C858.041 376.47 867.453 402.745 870.198 429.804C871.766 447.843 868.629 465.882 866.668 483.529C864.315 501.176 863.923 518.431 863.139 536.078C861.178 562.353 857.649 588.235 856.472 614.51C854.904 632.157 856.08 649.804 853.335 667.451C847.453 702.745 834.119 735.686 823.139 769.019C814.511 794.51 805.884 825.882 779.609 838.823C760.786 850.196 738.041 850.588 717.256 849.019C714.119 849.019 711.766 848.235 709.413 849.019C658.825 858.823 611.766 850.196 569.413 819.608C549.021 803.529 524.707 788.235 509.413 767.059C507.845 764.706 510.982 761.961 512.943 763.921C525.1 776.078 539.609 785.49 554.511 794.51C569.805 803.921 583.531 813.725 598.825 820.392C631.374 836.078 667.845 838.431 703.139 832.157C705.1 831.764 709.021 830.98 710.982 831.372C723.923 832.157 736.472 833.333 749.021 831.372C764.315 829.019 779.217 822.353 787.845 809.804C796.864 797.255 801.57 780 807.845 763.529C820.002 730.98 834.511 698.823 841.962 665.098C845.1 650.588 845.884 628.627 847.06 613.333C849.805 578.431 856.08 543.921 856.08 508.627C856.472 490.98 856.864 473.333 856.472 456.078C851.766 368.235 801.178 292.941 717.649 261.961C624.707 227.059 500.786 229.412 432.551 310.588C399.609 349.412 384.315 400.392 377.256 450.196C363.923 529.412 369.021 607.843 432.158 665.49L450.59 684.706C457.649 694.902 444.315 705.098 438.041 695.686Z" fill="black"/>
<path d="M484.315 570.98C484.315 570.98 472.158 512.157 414.904 519.215C365.492 525.49 348.237 643.921 460.394 676.863" fill="white"/>
<path d="M455.296 625.49C446.276 620.392 440.002 611.765 439.609 601.176C440.002 593.333 441.178 584.314 439.217 576.47C438.041 569.019 430.198 567.059 424.315 567.451C418.041 568.627 414.119 576.47 412.943 582.745C412.943 583.137 412.551 584.314 412.551 584.706C412.158 586.667 409.021 586.667 408.237 584.706C403.139 569.412 414.511 552.549 430.982 554.51C454.119 556.078 457.256 580.392 452.943 598.823C450.59 606.666 453.727 613.725 458.041 620.392L458.825 621.568C460.786 623.921 457.649 627.059 455.296 625.49Z" fill="black"/>
<path d="M769.021 529.412C774.904 557.255 785.884 583.137 799.609 607.451C811.766 637.255 780.394 665.49 752.551 664.314C749.413 664.314 749.021 660 751.766 659.216C769.413 653.725 785.492 641.961 788.237 623.921C789.413 618.431 787.845 613.725 785.1 609.019C772.158 584.706 764.315 556.863 766.276 529.412C766.276 527.451 769.021 527.451 769.021 529.412Z" fill="black"/>
<path d="M482.353 571.373C473.333 548.236 453.726 526.275 427.451 526.667C425.098 526.275 421.177 527.059 418.824 527.059C412.157 527.451 406.667 529.804 401.569 534.51C376.471 559.608 380.784 603.922 401.177 631.765C408.235 641.569 417.255 650.196 427.451 657.255C437.647 664.314 449.02 669.804 461.176 674.51C463.922 675.294 462.745 679.608 460 679.216C433.726 673.726 408.627 660.785 391.373 639.216C364.706 607.059 359.216 553.334 390.98 521.961C398.039 515.687 407.843 510.981 417.647 510.981C420.784 510.981 425.49 510.196 428.627 510.981C445.098 511.765 460.784 520 470.98 532.941C480 543.922 485.098 557.255 486.667 570.588C486.667 572.941 483.137 573.726 482.353 571.373Z" fill="black"/>
<path d="M701.962 834.51C720.002 830.588 730.59 812.941 729.021 794.902C728.629 792.157 732.943 791.372 733.335 794.117C740.002 816.47 727.845 840.784 706.276 849.412C694.904 853.725 690.198 836.47 701.962 834.51Z" fill="black"/>
</svg>
