<svg width="1200" height="1200" viewBox="0 0 1200 1200" fill="red" xmlns="http://www.w3.org/2000/svg">
<mask id="mask0_409_3640" style="mask-type:alpha" maskUnits="userSpaceOnUse" x="0" y="0" width="1197" height="1197">
<circle cx="598.033" cy="598.033" r="598.033" fill="#D9D9D9"/>
</mask>
<g mask="url(#mask0_409_3640)">
<!-- Outfit=Style04.svg -->
<g id="outfit">
    <path d="M1056.08 1334.9H64.3162C64.3162 1334.9 122.748 1211.77 148.63 1071.37C166.669 974.118 180.002 917.256 230.591 885.883C266.277 863.922 342.748 841.177 375.689 829.413C398.042 821.569 402.748 828.236 418.826 823.922C418.826 825.883 419.218 827.452 419.218 829.413C419.218 829.413 461.571 955.295 571.767 1000C661.571 1036.47 714.904 1012.16 723.14 971.765C728.238 945.883 712.159 903.53 703.924 889.805C699.218 885.883 696.081 880.001 694.512 874.118L691.375 861.177C698.826 859.609 705.885 857.648 712.944 855.295C715.297 854.511 717.257 853.726 719.61 852.942C764.708 864.707 861.179 902.746 903.924 941.962C920.787 957.648 960.787 1036.08 986.669 1149.8C1016.47 1278.82 1056.08 1334.9 1056.08 1334.9Z" fill="black"/>
    <path d="M1065.1 1339.61C769.805 1341.57 355.295 1346.27 64.7068 1345.1C57.648 1345.1 52.55 1337.25 55.6872 1330.98C90.5892 1254.12 118.04 1172.16 135.687 1089.41C137.648 1078.82 141.962 1058.04 143.923 1047.45C152.942 1004.31 160.001 961.569 183.138 921.961C190.981 909.019 201.177 896.863 213.334 887.059C225.099 877.647 238.824 870.588 252.55 864.314C296.472 845.49 340.785 830.588 385.883 816.863C396.472 814.51 407.06 817.255 417.256 814.902C423.138 813.333 429.413 817.647 429.805 823.921L430.197 829.412L419.609 819.608C423.923 819.608 427.844 822.353 429.021 826.274C432.158 835.294 436.472 844.706 440.785 853.725C454.119 880.784 470.589 906.274 490.589 928.627C516.864 958.431 549.805 981.961 587.452 995.294C625.491 1009.41 693.334 1021.57 712.158 976.078C715.295 967.843 714.903 959.216 713.726 950.196C710.981 931.765 704.707 912.157 695.687 895.686L697.648 898.039C691.373 889.804 689.021 880 689.805 870.588V862.353V861.176C689.805 860.392 690.589 859.608 691.374 859.608C696.079 858.039 700.393 856.078 705.099 854.51C709.413 852.549 713.726 850.588 718.04 848.235C719.217 847.451 720.393 847.843 721.57 848.235C747.452 854.902 772.158 863.921 796.864 874.117C833.726 889.412 870.197 906.667 901.962 931.372C913.334 939.608 921.57 951.765 928.236 963.921C941.57 987.451 952.158 1011.76 961.57 1036.47C978.04 1079.61 990.197 1124.31 1000.79 1169.41C1014.12 1219.22 1030.2 1268.63 1054.9 1314.12C1057.65 1318.82 1060.39 1323.53 1063.14 1328.24L1063.92 1329.02V1329.41C1066.28 1331.37 1066.67 1336.86 1065.1 1339.61ZM1047.06 1330.2C1045.1 1332.16 1045.49 1337.65 1047.06 1339.61V1339.22L1046.28 1338.04C1018.82 1292.94 1001.57 1242.35 987.452 1191.76C980.393 1167.06 975.295 1140.39 968.236 1115.29C954.511 1065.88 937.648 1016.08 912.942 970.98C908.628 963.529 903.923 955.294 898.04 949.412C886.668 938.823 873.334 930.196 860.001 921.961C838.04 909.019 814.511 897.647 790.589 887.843C766.668 878.039 742.354 869.019 717.648 862.353L723.53 861.961C712.942 862.745 702.746 863.137 692.55 862.745L694.119 860.392C696.472 864.314 699.217 870.98 701.57 874.51C704.315 878.039 707.452 880.784 710.981 882.353C711.766 883.137 712.55 883.921 712.942 884.706C727.06 911.765 741.177 952.157 730.981 982.353C707.452 1041.57 628.628 1032.16 580.393 1013.73C540.001 1000 503.53 973.725 475.295 941.569C447.06 909.412 424.707 872.549 409.805 832.549L419.217 839.216C413.726 839.216 409.413 835.294 409.021 829.804L408.628 824.706L421.177 833.725C417.256 834.902 412.55 835.294 408.236 835.686C397.256 835.294 389.805 834.902 379.609 838.823C366.275 843.529 352.55 848.235 338.824 852.549C311.766 861.568 285.099 870.98 259.609 882.353C201.57 905.49 184.707 951.765 171.373 1009.41C165.099 1036.08 160.001 1066.27 154.511 1093.33C136.472 1178.04 109.021 1260 73.3343 1339.22L64.3147 1324.71C348.628 1324.71 758.824 1327.45 1047.06 1330.2Z" fill="black"/>
    <path d="M538.04 1041.18C402.746 980.392 350.197 871.765 360.393 842.353C360.393 842.353 360.393 841.961 360.785 841.569C367.844 827.059 379.217 815.294 393.334 807.059C401.178 802.353 409.805 798.039 416.864 795.686C523.923 769.02 665.883 814.118 713.727 855.294C730.982 876.079 748.629 896.863 755.295 951.765C764.707 1030.98 678.04 1104.31 538.04 1041.18Z" fill="white"/>
    <path d="M536.079 1045.49C468.236 1014.9 404.707 967.059 368.629 900.784C361.57 887.059 355.295 872.941 353.334 856.863C352.942 851.373 352.55 844.706 355.295 839.216C363.531 822.745 378.432 809.804 394.903 801.961C407.452 795.294 421.178 790.588 434.903 786.274C454.511 782.745 474.119 781.569 494.119 781.961C559.609 783.922 624.707 801.176 682.746 831.373C687.06 833.725 691.374 836.078 695.687 838.823C697.256 839.608 698.432 840.784 700.393 840.392C702.354 840 703.923 840.784 705.491 841.569C710.197 844.314 714.119 847.843 718.432 851.765C729.021 864.706 739.609 878.431 746.668 894.118C753.727 909.804 757.648 926.667 760.001 943.137C766.276 976.863 754.903 1014.51 728.629 1037.65C675.295 1085.49 595.295 1072.55 536.079 1045.49ZM539.609 1037.25C583.531 1056.47 633.727 1068.63 680.393 1053.73C718.04 1042.35 749.021 1008.24 750.197 968.235C750.589 944.706 745.099 920 735.687 898.431C730.589 885.098 716.472 868.235 709.413 859.608C705.099 856.078 700.393 853.333 696.472 849.804C696.079 849.02 695.687 848.235 695.295 847.451C694.511 845.49 692.942 845.098 691.766 843.922C687.844 841.569 683.53 839.216 679.217 836.863C645.099 819.216 607.452 809.02 569.805 801.569C525.883 793.333 480.785 790.98 436.472 797.255C430.197 798.039 423.531 797.255 417.256 798.823C412.55 800.784 403.923 804.706 398.432 808.627C384.315 816.863 373.727 829.02 366.276 843.529L365.883 843.922C365.883 844.314 365.491 845.098 365.491 845.49C363.53 861.961 371.374 878.823 378.825 894.118C385.491 906.667 393.334 918.824 402.354 930.588C438.432 977.255 486.668 1013.33 539.609 1037.25Z" fill="black"/>
</g>
<!-- Head03.svg -->
<g id='head'>
    <path d="M717.645 963.138C709.41 1003.53 656.076 1027.84 566.272 991.373C472.939 953.726 432.547 863.922 422.351 837.255C477.645 733.726 439.214 661.961 439.214 661.961C566.665 650.981 678.037 800 678.037 800L695.292 873.726C696.861 880 699.998 885.491 704.704 889.412C712.939 903.922 722.743 937.255 717.645 963.138Z" fill="white"/>
    <path d="M420.392 838.431C427.843 827.059 432.549 813.726 435.686 800.784C441.568 773.726 443.529 746.275 443.921 718.824V708.627C442.745 698.431 439.215 687.843 435.294 678.431C430.196 665.882 448.627 658.039 454.509 670.588C455.294 672.157 455.294 674.902 455.294 676.471C456.47 729.804 458.823 798.431 425.098 842.745C422.745 845.098 418.039 841.569 420.392 838.431Z" fill="black"/>
    <path d="M682.351 799.216C688.234 802.746 690.195 807.452 690.979 812.158C693.332 821.569 692.547 831.766 694.9 841.569C696.861 850.981 702.744 860.001 704.312 869.805C706.273 880.001 712.155 901.569 714.508 912.158C715.293 914.511 713.724 917.256 710.979 917.648C709.41 918.04 708.234 917.648 707.057 916.864C701.959 912.55 699.606 908.236 696.469 902.746C691.371 893.334 687.842 884.707 684.704 874.118C681.959 864.707 683.136 854.511 680.783 844.707C678.822 835.295 673.332 826.275 671.371 816.471C670.194 811.765 669.802 806.667 673.332 800.785C675.685 798.432 679.606 797.648 682.351 799.216Z" fill="black"/>
    <path d="M710.588 902.745C635.686 898.824 574.509 875.295 514.902 769.02C565.098 813.334 624.313 830.196 686.666 838.04L694.902 874.118C696.47 880.393 705.882 898.824 710.588 902.745Z" fill="black"/>
    <path d="M707.452 888.236C720.785 913.334 728.629 944.706 720.393 972.549C714.119 992.157 696.08 1006.67 676.472 1012.16C630.982 1024.31 578.433 1005.1 538.04 983.53C488.236 955.687 451.374 909.02 427.844 858.04C426.276 854.118 431.766 850.981 434.119 854.902C442.354 871.373 451.766 887.451 462.354 901.961C472.942 916.863 485.099 930.588 498.825 942.745C538.825 978.824 592.942 1001.18 647.06 1001.18C702.746 999.608 723.923 970.196 710.982 916.079C709.021 907.451 705.884 898.432 701.57 890.981C699.217 887.843 705.099 884.314 707.452 888.236Z" fill="black"/>
    <path d="M859.216 417.255C866.275 450.196 869.805 476.863 850.589 564.706C831.765 652.157 868.236 740.392 775.687 820.785C713.334 874.902 604.314 885.098 517.256 825.883C487.844 805.883 480.001 712.549 456.864 676.863C447.06 661.961 441.177 685.883 418.824 661.177C387.844 627.451 350.589 559.608 369.02 439.608C398.824 245.098 552.942 222.353 667.06 243.922C781.569 265.49 840.393 330.588 859.216 417.255Z" fill="white"/>
    <path d="M438.039 695.686C429.019 680.784 417.647 667.843 407.059 654.118C391.372 632.941 379.608 608.628 371.764 583.53C338.039 476.079 356.078 336.079 455.686 269.02C547.843 206.667 723.921 225.49 804.706 300.784C845.098 337.255 867.451 390.196 872.156 443.529C874.509 479.216 865.882 513.726 858.431 548.235C849.804 581.961 847.843 615.686 847.843 650.588C847.451 685.49 845.882 721.961 832.549 754.902C812.157 805.098 769.411 845.883 718.039 863.137C650.588 886.667 570.98 873.333 515.686 828.235C513.333 826.275 515.686 823.137 518.431 824.314C590.98 865.49 686.274 872.549 756.862 825.098C798.823 796.863 827.843 752.157 834.509 701.961C840 667.843 838.431 633.333 841.568 598.824C842.745 583.529 847.059 562.353 850.196 547.059C854.902 521.569 858.039 496.079 857.647 470.588C857.255 445.49 851.764 420.784 844.313 396.863C818.431 311.765 744.313 261.569 658.823 247.843C530.98 225.49 419.215 272.941 385.882 405.882C371.372 470.98 360 542.745 387.451 605.882C397.255 629.804 413.333 650.196 431.764 667.843L449.804 687.059C457.647 694.902 444.313 705.098 438.039 695.686Z" fill="black"/>
    <path d="M484.311 570.98C484.311 570.98 472.155 512.157 414.9 519.215C365.488 525.49 348.233 643.921 460.39 676.863" fill="white"/>
    <path d="M455.293 625.49C446.273 620.392 439.999 611.764 439.606 601.176C439.999 593.333 441.175 584.313 439.214 576.47C438.038 569.019 430.195 567.058 424.312 567.45C418.038 568.627 414.116 576.47 412.94 582.745C412.94 583.137 412.548 584.313 412.548 584.705C412.155 586.666 409.018 586.666 408.234 584.705C403.136 569.411 414.508 552.548 430.979 554.509C454.116 556.078 457.253 580.392 452.94 598.823C450.587 606.666 453.724 613.725 458.038 620.392L458.822 621.568C460.783 623.921 457.646 627.058 455.293 625.49Z" fill="black"/>
    <path d="M769.018 529.412C774.9 557.255 785.881 583.137 799.606 607.451C811.763 637.255 780.39 665.49 752.547 664.313C749.41 664.313 749.018 660 751.763 659.215C769.41 653.725 785.488 641.961 788.234 623.921C789.41 618.431 787.841 613.725 785.096 609.019C772.155 584.706 764.312 556.862 766.273 529.412C766.273 527.451 769.018 527.451 769.018 529.412Z" fill="black"/>
    <path d="M482.352 571.373C473.333 548.235 453.725 526.275 427.451 526.667C425.098 526.275 421.176 527.059 418.823 527.059C412.156 527.451 406.666 529.804 401.568 534.51C376.47 559.608 380.784 603.922 401.176 631.765C408.235 641.569 417.254 650.196 427.451 657.255C437.647 664.314 449.019 669.804 461.176 674.51C463.921 675.294 462.745 679.608 460 679.216C433.725 673.725 408.627 660.784 391.372 639.216C364.705 607.059 359.215 553.333 390.98 521.961C398.039 515.686 407.843 510.98 417.647 510.98C420.784 510.98 425.49 510.196 428.627 510.98C445.098 511.765 460.784 520 470.98 532.941C480 543.922 485.098 557.255 486.666 570.588C486.666 572.941 483.137 573.725 482.352 571.373Z" fill="black"/>
</g>
<!-- Mouth=Normal Smile2.svg -->
<g id="mouth">
    <path d="M739.216 703.529C714.118 727.451 666.667 708.235 654.118 679.216C652.549 675.686 656.471 672.549 659.608 674.117C666.275 677.647 672.157 681.176 678.432 683.921C696.471 692.157 715.294 698.823 735.294 696.863C739.216 696.078 741.961 700.784 739.216 703.529Z" fill="black"/>
</g>
<!-- Eyes12.svg -->
<g id="eyes">
    <path d="M622.746 569.412C613.334 569.02 606.275 561.177 607.06 551.765L607.452 540.785C607.844 531.373 615.687 524.314 625.099 525.099C634.511 525.491 641.57 533.334 640.785 542.746L640.393 553.726C640.001 562.746 632.158 569.804 622.746 569.412Z" fill="black"/>
    <path d="M787.843 575.295C779.215 574.903 772.549 567.452 772.941 558.824L773.333 548.628C773.725 540.001 781.176 533.334 789.803 533.726C798.431 534.119 805.098 541.57 804.705 550.197L804.313 560.393C803.921 569.02 796.47 575.687 787.843 575.295Z" fill="black"/>
    <path d="M658.04 548.236C645.099 539.608 630.981 533.726 615.295 536.863C610.197 537.647 605.099 539.216 601.962 542.746C600.785 544.314 598.04 543.922 598.04 541.569C598.432 533.726 605.099 528.628 611.373 525.491C623.53 519.216 640.393 520.393 651.373 528.628C655.295 530.981 668.628 545.491 661.569 548.628C660.001 549.412 659.217 549.02 658.04 548.236Z" fill="black"/>
    <path d="M770.197 550.197C770.197 533.726 790.589 527.844 803.138 533.726C810.197 536.863 815.295 543.138 817.256 550.589C818.04 552.942 814.511 554.903 812.942 552.942C806.275 545.099 794.903 541.177 785.883 545.883C783.138 547.452 782.746 548.628 781.962 550.197C781.962 558.04 770.589 557.648 770.197 550.197Z" fill="black"/>
    <path d="M676.864 483.53C685.099 486.275 693.334 478.824 691.766 469.804C690.981 465.098 689.02 460.392 685.099 456.863C673.334 446.275 624.707 436.863 595.295 450.589C569.413 463.138 639.217 470.981 676.864 483.53Z" fill="black"/>
    <path d="M794.12 489.804C787.453 492.157 780.394 485.098 781.571 476.863C781.963 472.549 783.532 468.236 786.669 465.098C796.081 455.687 828.237 448.236 848.63 462.745C866.277 474.902 824.708 478.432 794.12 489.804Z" fill="black"/>
</g>
<!-- Hair=Style02.svg -->
<g id="hair">
    <path d="M909.804 443.529C898.823 477.647 872.549 506.274 855.686 525.49C859.608 507.059 856.078 496.078 856.863 483.137C858.039 465.49 864.314 445.882 863.137 438.039C862.353 430.98 860.784 424.314 859.215 417.255C857.255 408.627 854.902 400.392 852.157 392.157C790.588 452.157 685.098 392.941 685.098 392.941C685.098 392.941 662.745 411.372 623.529 407.059C581.568 402.745 570.196 376.863 570.196 376.863C558.823 456.078 483.921 425.882 497.647 504.706C501.568 526.274 501.568 547.059 483.137 568.627C480 557.647 464.706 512.941 414.51 519.216C367.059 525.098 349.019 634.902 447.059 672.549C445.882 709.02 449.804 758.431 445.882 745.49C418.431 660.784 363.529 674.118 337.647 610.196C325.49 579.608 327.451 552.549 333.725 532.549C340 513.333 339.608 492.549 333.333 473.333C326.274 450.98 320.784 417.255 333.725 376.47C355.686 306.667 402.745 290.588 414.902 282.353C427.059 274.118 421.176 198.823 506.274 175.294C574.117 156.471 625.098 196.078 640 193.333C654.902 190.588 759.215 121.961 839.608 186.667C917.255 249.412 888.235 323.529 888.235 323.529C888.235 323.529 936.47 360.784 909.804 443.529Z" fill="black"/>
</g>
<!-- Accessories28.svg -->
<g id ="accessories"> 
    <path d="M685.099 617.647C685.099 617.647 648.236 640.784 606.667 640.392C565.099 640 560.001 607.451 559.608 589.804C559.608 589.804 565.099 615.294 590.197 624.706C614.903 634.117 685.099 617.647 685.099 617.647Z" fill="black"/>
    <path d="M803.527 613.333C803.527 613.333 812.547 624.313 824.704 632.157C832.939 637.647 843.919 631.764 843.919 621.961C843.919 621.961 821.174 623.137 803.527 613.333Z" fill="black"/>
    <path d="M698.822 512.941C677.645 510.98 624.312 506.667 603.92 504.706L588.233 503.529C575.292 502.745 565.096 513.725 562.743 526.274C561.959 530.196 561.959 536.863 561.959 540.784V556.863C561.959 566.667 561.567 576.863 565.096 586.275C571.371 608.235 591.371 625.882 614.9 623.137C617.253 622.745 631.763 621.176 634.508 620.784L666.273 617.255C676.469 616.471 685.88 613.726 694.9 608.235C707.449 600.784 719.606 589.412 718.822 573.333L719.606 557.647C720.39 538.039 725.88 514.902 698.822 512.941ZM699.998 500C718.429 501.569 730.978 520.784 729.802 538.431C729.802 540.784 729.018 555.686 728.625 558.431C728.625 561.569 727.841 575.686 727.449 578.431C725.488 605.098 695.684 623.922 671.371 627.451C658.822 629.02 632.547 632.549 619.998 634.118C616.861 634.51 612.547 634.902 609.41 635.294C607.841 635.294 604.312 634.902 602.743 634.902C569.41 630.588 548.233 596.471 549.018 564.706C549.018 559.608 549.018 546.274 549.018 540.784C549.018 538.039 549.018 530.98 549.41 528.235C550.586 514.51 558.037 501.176 570.586 493.725C576.076 490.588 582.743 489.02 589.41 489.412L605.488 490.98C625.096 493.333 679.214 498.431 699.998 500Z" fill="black"/>
    <path d="M790.979 506.274C799.607 505.098 841.96 500.392 849.803 499.608C851.764 499.608 856.862 498.823 858.43 498.823C875.293 496.47 883.136 514.902 884.705 528.627C885.489 540.784 884.705 552.549 885.097 564.314C885.097 572.549 884.313 580.784 882.352 588.627C877.254 609.804 862.352 632.157 837.646 625.098C831.764 623.921 819.999 622.353 814.509 621.176L808.627 620C797.254 618.039 787.842 610.196 781.568 601.568C769.803 587.843 772.156 569.412 770.979 552.941C769.411 536.47 769.803 510.98 790.979 506.274ZM792.548 517.647C780.391 523.137 783.529 541.568 783.529 552.549L784.313 576.078C784.705 590.98 796.47 605.882 810.587 609.804C814.117 610.588 823.921 612.549 827.842 613.333L839.215 615.686C867.45 624.706 878.43 585.49 878.038 563.921C876.862 545.882 882.352 524.314 869.411 509.804C866.274 506.666 863.136 505.882 859.607 506.666C857.646 507.059 852.548 507.843 850.979 508.235C843.136 509.804 800.783 516.47 792.548 517.647Z" fill="black"/>
    <path d="M555.293 542.745C552.156 549.804 549.411 549.02 543.921 549.02L532.548 548.628C518.038 547.843 501.96 546.667 487.45 544.706C479.607 543.53 471.372 542.353 463.528 540.392C460.391 539.608 458.43 536.471 459.215 533.333C459.999 530.588 462.352 528.628 465.097 529.02L487.842 530.196L510.587 530.98C518.038 531.373 537.254 531.765 544.705 532.157C548.626 532.157 552.156 532.549 556.077 531.373C557.646 530.981 559.215 531.765 559.607 533.333C559.999 534.118 559.607 534.51 559.607 535.294L555.293 542.745Z" fill="black"/>
    <path d="M722.352 534.51C736.47 526.667 773.724 515.686 780.783 536.863C783.921 542.353 775.685 547.451 772.156 541.961C772.156 542.745 770.195 541.961 769.411 541.961C754.509 540.784 739.215 543.137 724.313 544.314C718.038 545.098 716.862 536.863 722.352 534.51Z" fill="black"/>
</g>
</g>
</svg>
