<svg width="1200" height="1200" viewBox="0 0 1200 1200" fill="none" xmlns="http://www.w3.org/2000/svg">
<path d="M600 758.777C594.371 758.782 588.796 757.677 583.594 755.524C578.392 753.372 573.666 750.215 569.685 746.235C565.705 742.254 562.548 737.528 560.396 732.326C558.244 727.125 557.138 721.55 557.143 715.92V74.9831C557.143 63.6167 561.658 52.7158 569.695 44.6785C577.733 36.6413 588.634 32.126 600 32.126C611.366 32.126 622.267 36.6413 630.305 44.6785C638.342 52.7158 642.857 63.6167 642.857 74.9831V715.92C642.857 727.287 638.342 738.188 630.305 746.225C622.267 754.262 611.366 758.777 600 758.777Z" fill="white"/>
<path d="M600 778.046C585.596 778.069 571.33 775.245 558.021 769.738C544.712 764.231 532.622 756.148 522.446 745.954L290.983 514.491C282.949 506.458 278.436 495.561 278.436 484.2C278.436 472.838 282.949 461.942 290.983 453.908C299.017 445.875 309.913 441.361 321.274 441.361C332.636 441.361 343.532 445.875 351.566 453.908L583.029 685.371C585.257 687.6 587.903 689.368 590.815 690.575C593.727 691.781 596.848 692.402 600 692.402C603.152 692.402 606.273 691.781 609.185 690.575C612.097 689.368 614.743 687.6 616.972 685.371L848.434 453.908C856.515 446.099 867.34 441.777 878.577 441.871C889.814 441.965 900.564 446.47 908.512 454.413C916.461 462.357 920.971 473.105 921.072 484.342C921.173 495.579 916.856 506.406 909.051 514.491L677.554 745.954C667.376 756.145 655.286 764.226 641.977 769.733C628.668 775.24 614.403 778.065 600 778.046Z" fill="white"/>
<path d="M1077.81 1167.87H122.194C92.0708 1167.84 63.1914 1155.86 41.8909 1134.55C20.5903 1113.25 8.6077 1084.37 8.57141 1054.25V754.663C8.57141 743.296 13.0867 732.396 21.124 724.358C29.1613 716.321 40.0621 711.806 51.4286 711.806C62.795 711.806 73.6959 716.321 81.7331 724.358C89.7704 732.396 94.2857 743.296 94.2857 754.663V1054.25C94.2948 1061.65 97.238 1068.74 102.47 1073.98C107.702 1079.21 114.795 1082.15 122.194 1082.16H1077.81C1085.2 1082.15 1092.3 1079.21 1097.53 1073.98C1102.76 1068.74 1105.71 1061.65 1105.71 1054.25V754.663C1105.71 743.296 1110.23 732.396 1118.27 724.358C1126.3 716.321 1137.21 711.806 1148.57 711.806C1159.94 711.806 1170.84 716.321 1178.88 724.358C1186.91 732.396 1191.43 743.296 1191.43 754.663V1054.25C1191.39 1084.37 1179.41 1113.25 1158.11 1134.55C1136.81 1155.86 1107.93 1167.84 1077.81 1167.87Z" fill="white"/>
</svg>
