<svg width="32" height="32" viewBox="0 0 32 32" fill="none" xmlns="http://www.w3.org/2000/svg">
<path d="M10 18C10 19.6569 8.65685 21 7 21C5.34315 21 4 19.6569 4 18C4 16.3431 5.34315 15 7 15C8.65685 15 10 16.3431 10 18Z" fill="#FDBB11"/>
<path d="M28 18C28 19.6569 26.6569 21 25 21C23.3431 21 22 19.6569 22 18C22 16.3431 23.3431 15 25 15C26.6569 15 28 16.3431 28 18Z" fill="#FDBB11"/>
<path d="M18.066 4.25H13.9191C9.27262 4.25 5.76526 8.14 6.30485 12.96L7.00433 23.65C7.48397 27.29 10.5816 30 14.2489 30H16.0075H17.7662C21.4335 30 24.5311 27.29 25.0108 23.65L25.6803 12.96C26.2998 8.35 22.7125 4.25 18.066 4.25Z" fill="#FFC83D"/>
</svg>
