<svg width="1200" height="1200" viewBox="0 0 1200 1200" fill="none" xmlns="http://www.w3.org/2000/svg">
<path d="M657.256 548.236C636.079 546.667 616.471 537.647 600.001 524.314C596.864 521.961 600.393 517.255 603.53 519.608C615.687 527.451 629.021 532.941 643.53 535.294C648.236 536.079 653.334 536.471 657.648 536.471C665.491 536.471 665.491 548.628 657.256 548.236Z" fill="black"/>
<path d="M772.547 542.745C784.703 541.177 798.821 539.216 808.233 530.588C809.017 529.412 810.978 529.412 811.762 530.588C815.292 534.118 806.272 540 803.919 541.961C794.9 547.843 784.703 551.765 774.507 554.51C771.37 555.294 768.233 553.334 767.449 550.196C766.272 546.667 769.017 543.137 772.547 542.745Z" fill="black"/>
<path d="M676.078 512.157C683.529 516.471 692.941 510.588 693.333 501.569C693.333 496.863 692.548 491.765 689.411 487.451C679.999 474.902 634.117 455.686 602.352 463.922C574.901 470.98 641.96 492.549 676.078 512.157Z" fill="black"/>
<path d="M796.469 516.863C790.978 521.176 781.959 516.078 780.782 507.843C779.998 503.529 780.39 498.823 782.351 494.902C788.625 483.137 817.645 467.059 841.174 474.902C861.567 482.353 822.743 497.647 796.469 516.863Z" fill="black"/>
<path d="M612.941 529.02C609.803 531.765 607.842 536.078 607.45 540.392L607.058 551.373C606.666 560.784 613.725 568.627 622.744 569.02C632.156 569.412 639.999 562.353 640.392 553.333L640.784 542.353C640.784 541.961 640.784 541.569 640.784 541.176C630.195 540.392 621.568 536.078 612.941 529.02Z" fill="black"/>
<path d="M773.724 547.843C773.724 548.235 773.724 548.235 773.724 548.627L773.331 558.824C772.939 567.451 779.606 574.902 788.233 575.294C796.861 575.686 804.312 569.02 804.704 560.392L805.096 550.196C805.488 546.275 803.92 542.745 801.959 540C793.331 545.098 783.527 546.275 773.724 547.843Z" fill="black"/>
</svg>
