<svg width="1200" height="1200" viewBox="0 0 1200 1200" fill="none" xmlns="http://www.w3.org/2000/svg">
<path d="M622.746 569.411C613.334 569.019 606.275 561.176 607.06 551.764L607.452 540.784C607.844 531.372 615.687 524.313 625.099 525.098C634.511 525.49 641.57 533.333 640.785 542.745L640.393 553.725C640.001 562.745 632.158 569.804 622.746 569.411Z" fill="black"/>
<path d="M787.843 575.294C779.215 574.902 772.549 567.451 772.941 558.823L773.333 548.627C773.725 540 781.176 533.333 789.804 533.725C798.431 534.118 805.098 541.569 804.705 550.196L804.313 560.392C803.921 569.02 796.47 575.686 787.843 575.294Z" fill="black"/>
<path d="M658.04 548.235C645.099 539.607 630.981 533.725 615.295 536.862C610.197 537.647 605.099 539.215 601.962 542.745C600.785 544.313 598.04 543.921 598.04 541.568C598.432 533.725 605.099 528.627 611.373 525.49C623.53 519.215 640.393 520.392 651.374 528.627C655.295 530.98 668.628 545.49 661.57 548.627C660.001 549.411 659.217 549.019 658.04 548.235Z" fill="black"/>
<path d="M770.197 550.196C770.197 533.726 790.589 527.843 803.138 533.726C810.197 536.863 815.295 543.137 817.256 550.588C818.04 552.941 814.511 554.902 812.942 552.941C806.275 545.098 794.903 541.177 785.883 545.882C783.138 547.451 782.746 548.628 781.962 550.196C781.962 558.039 770.589 557.647 770.197 550.196Z" fill="black"/>
<path d="M676.864 483.529C685.099 486.274 693.334 478.823 691.766 469.804C690.981 465.098 689.02 460.392 685.099 456.863C673.334 446.274 624.707 436.863 595.295 450.588C569.413 463.137 639.217 470.98 676.864 483.529Z" fill="black"/>
<path d="M794.12 489.804C787.453 492.157 780.394 485.098 781.571 476.863C781.963 472.549 783.532 468.236 786.669 465.098C796.081 455.687 828.238 448.236 848.63 462.745C866.277 474.902 824.708 478.432 794.12 489.804Z" fill="black"/>
</svg>
