<svg width="1200" height="1200" viewBox="0 0 1200 1200" fill="none" xmlns="http://www.w3.org/2000/svg">
<path d="M680.391 487.844C689.018 489.02 695.685 480.001 692.547 471.373C690.979 466.667 688.234 462.354 683.92 459.609C670.587 451.373 620.783 450.589 594.508 469.413C570.979 486.667 641.175 482.354 680.391 487.844Z" fill="black"/>
<path d="M789.018 492.157C781.959 492.157 777.645 483.138 781.175 475.687C783.136 471.765 785.881 468.236 789.802 466.275C801.959 460.393 834.508 463.922 849.018 483.922C861.959 501.569 821.567 491.765 789.018 492.157Z" fill="black"/>
<path d="M667.451 539.609C653.725 551.766 632.549 551.766 616.078 545.491C613.333 544.315 597.647 537.256 600.784 533.334C601.176 532.942 601.961 532.55 602.353 532.55C613.333 532.942 623.529 534.118 634.118 534.903C644.706 535.687 654.118 535.295 665.098 534.903C667.843 534.903 669.412 538.04 667.451 539.609Z" fill="black"/>
<path d="M822.351 546.276C809.802 560.786 784.312 558.825 772.547 544.707C771.371 543.531 772.547 541.178 774.116 541.57C778.43 541.962 782.351 542.746 786.273 543.139C798.038 545.099 807.841 544.707 820.39 544.315C822.351 543.531 823.136 545.491 822.351 546.276Z" fill="black"/>
</svg>
