<svg width="1200" height="1200" viewBox="0 0 1200 1200" fill="none" xmlns="http://www.w3.org/2000/svg">
<path d="M680.39 487.844C689.018 489.02 695.685 480.001 692.547 471.373C690.979 466.667 688.234 462.354 683.92 459.609C670.587 451.373 620.783 450.589 594.508 469.413C570.979 486.667 641.175 482.354 680.39 487.844Z" fill="black"/>
<path d="M789.018 492.157C781.959 492.157 777.645 483.138 781.175 475.687C783.135 471.765 785.881 468.236 789.802 466.275C801.959 460.393 834.508 463.922 849.018 483.922C861.959 501.569 821.567 491.765 789.018 492.157Z" fill="black"/>
<path d="M665.881 538.432C645.881 529.805 623.136 532.158 602.351 536.864C599.998 537.648 598.43 534.511 600.391 532.942C618.43 518.04 652.547 516.079 667.057 536.471C668.234 537.256 667.449 538.824 665.881 538.432Z" fill="black"/>
<path d="M819.998 546.667C810.586 540.001 796.861 541.177 785.881 542.353C781.959 542.746 778.037 543.53 773.724 544.706C772.547 545.099 771.371 543.138 772.155 542.353L772.939 541.569C782.743 531.373 798.037 529.02 811.371 534.118C816.077 536.079 820.783 538.824 823.135 544.314C824.312 546.275 821.567 548.236 819.998 546.667Z" fill="black"/>
</svg>
