<svg width="1200" height="1200" viewBox="0 0 1200 1200" fill="none" xmlns="http://www.w3.org/2000/svg">
<path d="M683.137 478.431C691.764 477.646 696.078 467.45 691.372 459.607C688.627 455.685 685.098 452.156 680 450.195C665.098 445.489 616.47 456.078 595.294 480.391C576.47 502.744 643.921 481.96 683.137 478.431Z" fill="black"/>
<path d="M786.667 484.705C780.001 482.744 778.04 472.94 783.53 466.666C786.275 463.528 790.197 460.783 794.51 459.999C807.844 457.646 838.432 469.803 847.059 492.94C854.903 512.94 818.432 492.548 786.667 484.705Z" fill="black"/>
<path d="M622.747 569.411C613.335 569.019 606.276 561.176 607.06 551.764L607.452 540.784C607.845 531.372 615.688 524.313 625.099 525.098C634.511 525.49 641.57 533.333 640.786 542.745L640.394 553.725C640.001 562.745 632.158 569.804 622.747 569.411Z" fill="black"/>
<path d="M787.843 575.293C779.215 574.901 772.549 567.45 772.941 558.822L773.333 548.626C773.725 539.999 781.176 533.332 789.803 533.724C798.431 534.117 805.098 541.568 804.705 550.195L804.313 560.391C803.921 569.019 796.47 575.685 787.843 575.293Z" fill="black"/>
<path d="M658.039 548.235C645.098 539.607 630.98 533.725 615.294 536.862C610.196 537.647 605.098 539.215 601.96 542.745C600.784 544.313 598.039 543.921 598.039 541.568C598.431 533.725 605.098 528.627 611.372 525.49C623.529 519.215 640.392 520.392 651.372 528.627C655.294 530.98 668.627 545.49 661.568 548.627C660 549.411 659.215 549.019 658.039 548.235Z" fill="black"/>
<path d="M770.194 550.196C770.194 533.726 790.586 527.843 803.135 533.726C810.194 536.863 815.292 543.137 817.253 550.588C818.037 552.941 814.508 554.902 812.939 552.941C806.272 545.098 794.9 541.177 785.88 545.882C783.135 547.451 782.743 548.628 781.959 550.196C781.959 558.039 770.586 557.647 770.194 550.196Z" fill="black"/>
</svg>
