<svg width="1200" height="696" viewBox="0 0 1200 696" fill="none" xmlns="http://www.w3.org/2000/svg">
<path d="M641.176 541.57C641.176 541.962 641.176 542.354 641.176 542.354L640.784 553.335C640.392 562.747 632.549 569.805 623.137 569.413C613.725 569.021 606.666 560.786 607.451 551.766L607.843 540.786C607.843 538.825 608.627 536.472 609.412 534.903L640.784 536.472C640.784 538.041 641.176 539.609 641.176 541.57Z" fill="black"/>
<path d="M805.096 550.197L804.704 560.393C804.312 569.02 796.861 575.687 788.234 575.295C779.606 574.902 772.939 567.451 773.332 558.824L773.724 548.628C773.724 546.667 774.116 544.706 774.9 543.138L804.312 544.314C804.704 546.275 805.096 548.236 805.096 550.197Z" fill="black"/>
<path d="M680.39 487.844C689.018 489.02 695.685 480.001 692.547 471.373C690.979 466.667 688.234 462.354 683.92 459.609C670.587 451.373 620.783 450.589 594.508 469.413C570.979 486.667 641.175 482.354 680.39 487.844Z" fill="black"/>
<path d="M789.018 492.157C781.959 492.157 777.645 483.138 781.175 475.687C783.136 471.765 785.881 468.236 789.802 466.275C801.959 460.393 834.508 463.922 849.018 483.922C861.959 501.569 821.567 491.765 789.018 492.157Z" fill="black"/>
<path d="M666.271 541.569L601.565 540.392C593.722 540 594.114 528.236 601.958 528.628L666.663 533.334C672.154 533.726 671.762 541.569 666.271 541.569Z" fill="black"/>
<path d="M821.568 548.235L773.725 549.02C765.882 549.02 765.49 537.647 773.333 537.255C773.725 537.255 773.725 537.255 774.117 537.255L821.961 542.353C825.49 542.745 825.098 547.843 821.568 548.235Z" fill="black"/>
</svg>
