<svg width="996" height="1115" viewBox="0 0 996 1115" fill="none" xmlns="http://www.w3.org/2000/svg">
<path d="M657.256 548.235C636.079 546.666 616.471 537.647 600.001 524.313C596.864 521.961 600.393 517.255 603.53 519.608C615.687 527.451 629.021 532.941 643.53 535.294C648.236 536.078 653.334 536.47 657.648 536.47C665.491 536.47 665.491 548.627 657.256 548.235Z" fill="black"/>
<path d="M772.547 542.745C784.703 541.176 798.821 539.215 808.233 530.588C809.017 529.411 810.978 529.411 811.762 530.588C815.292 534.117 806.272 540 803.919 541.96C794.9 547.843 784.703 551.764 774.507 554.509C771.37 555.294 768.233 553.333 767.449 550.196C766.272 546.666 769.017 543.137 772.547 542.745Z" fill="black"/>
<path d="M676.078 512.156C683.529 516.47 692.941 510.588 693.333 501.568C693.333 496.862 692.548 491.764 689.411 487.451C679.999 474.902 634.117 455.686 602.352 463.921C574.901 470.98 641.96 492.549 676.078 512.156Z" fill="black"/>
<path d="M796.469 516.862C790.978 521.176 781.959 516.078 780.782 507.843C779.998 503.529 780.39 498.823 782.351 494.901C788.625 483.137 817.645 467.058 841.175 474.901C861.567 482.352 822.743 497.646 796.469 516.862Z" fill="black"/>
<path d="M612.941 529.019C609.803 531.764 607.842 536.078 607.45 540.392L607.058 551.372C606.666 560.784 613.725 568.627 622.744 569.019C632.156 569.411 639.999 562.352 640.392 553.333L640.784 542.352C640.784 541.96 640.784 541.568 640.784 541.176C630.195 540.392 621.568 536.078 612.941 529.019Z" fill="black"/>
<path d="M773.724 547.843C773.724 548.235 773.724 548.235 773.724 548.627L773.331 558.823C772.939 567.451 779.606 574.901 788.233 575.294C796.861 575.686 804.312 569.019 804.704 560.392L805.096 550.196C805.488 546.274 803.92 542.745 801.959 540C793.331 545.098 783.528 546.274 773.724 547.843Z" fill="black"/>
</svg>
